M48
; DRILL file {KiCad (5.1.0)-1} date 23/03/2019 08:53:25
; FORMAT={-:-/ absolute / metric / decimal}
; #@! TF.CreationDate,2019-03-23T08:53:25+11:00
; #@! TF.GenerationSoftware,Kicad,Pcbnew,(5.1.0)-1
FMAT,2
METRIC
T1C0.300
T2C1.000
T3C2.700
%
G90
G05
T1
X206.0Y-76.0
X206.0Y-81.0
X206.0Y-86.0
X208.0Y-73.0
X209.0Y-86.0
X214.0Y-86.0
X219.0Y-86.0
X222.0Y-74.2
X222.1Y-71.0
X223.0Y-86.0
X223.6Y-72.9
X224.6Y-74.0
X225.2Y-78.7
X226.0Y-90.0
X226.0Y-93.0
X226.7Y-73.0
X227.3Y-71.0
X227.7Y-77.0
X227.7Y-80.5
X229.0Y-93.0
X231.0Y-73.4
X232.4Y-71.0
X233.0Y-87.0
X233.9Y-73.4
X237.0Y-73.0
X237.0Y-87.0
X237.0Y-90.0
X239.0Y-66.5
X244.0Y-66.4
X249.0Y-66.5
X249.0Y-91.0
X252.0Y-91.0
X253.3Y-75.1
X253.3Y-79.3
X254.04Y-72.6
X255.8Y-87.9
X255.8Y-89.7
X255.8Y-91.4
X256.0Y-75.0
X256.0Y-86.0
X256.3Y-84.8
X256.7Y-90.5
X257.0Y-85.3
X257.6Y-90.8
X257.9Y-85.2
X258.5Y-85.8
X260.0Y-75.0
X262.0Y-84.0
X262.0Y-92.0
X263.0Y-72.0
X263.9Y-67.1
X268.0Y-73.0
X268.0Y-88.0
T2
X213.37Y-67.23
X213.37Y-69.77
X215.91Y-67.23
X215.91Y-69.77
X218.45Y-67.23
X218.45Y-69.77
X220.99Y-67.23
X220.99Y-69.77
X223.53Y-67.23
X223.53Y-69.77
X226.07Y-67.23
X226.07Y-69.77
X228.61Y-67.23
X228.61Y-69.77
X231.15Y-67.23
X231.15Y-69.77
X233.69Y-67.23
X233.69Y-69.77
X236.23Y-67.23
X236.23Y-69.77
X254.01Y-67.23
X254.01Y-69.77
X256.55Y-67.23
X256.55Y-69.77
X259.09Y-67.23
X259.09Y-69.77
X261.63Y-67.23
X261.63Y-69.77
T3
X208.5Y-68.5
X208.5Y-91.5
X266.5Y-68.5
X266.5Y-91.5
T0
M30
