G04 #@! TF.GenerationSoftware,KiCad,Pcbnew,(5.1.0)-1*
G04 #@! TF.CreationDate,2019-03-23T08:53:22+11:00*
G04 #@! TF.ProjectId,VeinCamHatZero,5665696e-4361-46d4-9861-745a65726f2e,rev?*
G04 #@! TF.SameCoordinates,Original*
G04 #@! TF.FileFunction,Soldermask,Top*
G04 #@! TF.FilePolarity,Negative*
%FSLAX46Y46*%
G04 Gerber Fmt 4.6, Leading zero omitted, Abs format (unit mm)*
G04 Created by KiCad (PCBNEW (5.1.0)-1) date 2019-03-23 08:53:22*
%MOMM*%
%LPD*%
G04 APERTURE LIST*
%ADD10C,0.150000*%
G04 APERTURE END LIST*
D10*
G36*
X266893779Y-90201879D02*
G01*
X267139463Y-90303645D01*
X267139465Y-90303646D01*
X267360575Y-90451387D01*
X267548613Y-90639425D01*
X267548614Y-90639427D01*
X267696355Y-90860537D01*
X267798121Y-91106221D01*
X267850000Y-91367035D01*
X267850000Y-91632965D01*
X267798121Y-91893779D01*
X267696355Y-92139463D01*
X267696354Y-92139465D01*
X267548613Y-92360575D01*
X267360575Y-92548613D01*
X267139465Y-92696354D01*
X267139464Y-92696355D01*
X267139463Y-92696355D01*
X266893779Y-92798121D01*
X266632965Y-92850000D01*
X266367035Y-92850000D01*
X266106221Y-92798121D01*
X265860537Y-92696355D01*
X265860536Y-92696355D01*
X265860535Y-92696354D01*
X265639425Y-92548613D01*
X265451387Y-92360575D01*
X265303646Y-92139465D01*
X265303645Y-92139463D01*
X265201879Y-91893779D01*
X265150000Y-91632965D01*
X265150000Y-91367035D01*
X265201879Y-91106221D01*
X265303645Y-90860537D01*
X265451386Y-90639427D01*
X265451387Y-90639425D01*
X265639425Y-90451387D01*
X265860535Y-90303646D01*
X265860537Y-90303645D01*
X266106221Y-90201879D01*
X266367035Y-90150000D01*
X266632965Y-90150000D01*
X266893779Y-90201879D01*
X266893779Y-90201879D01*
G37*
G36*
X208893779Y-90201879D02*
G01*
X209139463Y-90303645D01*
X209139465Y-90303646D01*
X209360575Y-90451387D01*
X209548613Y-90639425D01*
X209548614Y-90639427D01*
X209696355Y-90860537D01*
X209798121Y-91106221D01*
X209850000Y-91367035D01*
X209850000Y-91632965D01*
X209798121Y-91893779D01*
X209696355Y-92139463D01*
X209696354Y-92139465D01*
X209548613Y-92360575D01*
X209360575Y-92548613D01*
X209139465Y-92696354D01*
X209139464Y-92696355D01*
X209139463Y-92696355D01*
X208893779Y-92798121D01*
X208632965Y-92850000D01*
X208367035Y-92850000D01*
X208106221Y-92798121D01*
X207860537Y-92696355D01*
X207860536Y-92696355D01*
X207860535Y-92696354D01*
X207639425Y-92548613D01*
X207451387Y-92360575D01*
X207303646Y-92139465D01*
X207303645Y-92139463D01*
X207201879Y-91893779D01*
X207150000Y-91632965D01*
X207150000Y-91367035D01*
X207201879Y-91106221D01*
X207303645Y-90860537D01*
X207451386Y-90639427D01*
X207451387Y-90639425D01*
X207639425Y-90451387D01*
X207860535Y-90303646D01*
X207860537Y-90303645D01*
X208106221Y-90201879D01*
X208367035Y-90150000D01*
X208632965Y-90150000D01*
X208893779Y-90201879D01*
X208893779Y-90201879D01*
G37*
G36*
X257800000Y-89275000D02*
G01*
X257400000Y-89275000D01*
X257400000Y-88625000D01*
X257800000Y-88625000D01*
X257800000Y-89275000D01*
X257800000Y-89275000D01*
G37*
G36*
X257150000Y-89275000D02*
G01*
X256750000Y-89275000D01*
X256750000Y-88625000D01*
X257150000Y-88625000D01*
X257150000Y-89275000D01*
X257150000Y-89275000D01*
G37*
G36*
X258450000Y-89275000D02*
G01*
X258050000Y-89275000D01*
X258050000Y-88625000D01*
X258450000Y-88625000D01*
X258450000Y-89275000D01*
X258450000Y-89275000D01*
G37*
G36*
X261218880Y-86994441D02*
G01*
X261259871Y-87006875D01*
X261297646Y-87027066D01*
X261330759Y-87054243D01*
X261357936Y-87087356D01*
X261378127Y-87125131D01*
X261390561Y-87166122D01*
X261395001Y-87211205D01*
X261395001Y-88168797D01*
X261390561Y-88213880D01*
X261378127Y-88254871D01*
X261357936Y-88292646D01*
X261330759Y-88325759D01*
X261297646Y-88352936D01*
X261259871Y-88373127D01*
X261218880Y-88385561D01*
X261173797Y-88390001D01*
X260641205Y-88390001D01*
X260596122Y-88385561D01*
X260555131Y-88373127D01*
X260517356Y-88352936D01*
X260484243Y-88325759D01*
X260457066Y-88292646D01*
X260436875Y-88254871D01*
X260424441Y-88213880D01*
X260420001Y-88168797D01*
X260420001Y-87211205D01*
X260424441Y-87166122D01*
X260436875Y-87125131D01*
X260457066Y-87087356D01*
X260484243Y-87054243D01*
X260517356Y-87027066D01*
X260555131Y-87006875D01*
X260596122Y-86994441D01*
X260641205Y-86990001D01*
X261173797Y-86990001D01*
X261218880Y-86994441D01*
X261218880Y-86994441D01*
G37*
G36*
X263093880Y-86994441D02*
G01*
X263134871Y-87006875D01*
X263172646Y-87027066D01*
X263205759Y-87054243D01*
X263232936Y-87087356D01*
X263253127Y-87125131D01*
X263265561Y-87166122D01*
X263270001Y-87211205D01*
X263270001Y-88168797D01*
X263265561Y-88213880D01*
X263253127Y-88254871D01*
X263232936Y-88292646D01*
X263205759Y-88325759D01*
X263172646Y-88352936D01*
X263134871Y-88373127D01*
X263093880Y-88385561D01*
X263048797Y-88390001D01*
X262516205Y-88390001D01*
X262471122Y-88385561D01*
X262430131Y-88373127D01*
X262392356Y-88352936D01*
X262359243Y-88325759D01*
X262332066Y-88292646D01*
X262311875Y-88254871D01*
X262299441Y-88213880D01*
X262295001Y-88168797D01*
X262295001Y-87211205D01*
X262299441Y-87166122D01*
X262311875Y-87125131D01*
X262332066Y-87087356D01*
X262359243Y-87054243D01*
X262392356Y-87027066D01*
X262430131Y-87006875D01*
X262471122Y-86994441D01*
X262516205Y-86990001D01*
X263048797Y-86990001D01*
X263093880Y-86994441D01*
X263093880Y-86994441D01*
G37*
G36*
X258450000Y-87375000D02*
G01*
X258050000Y-87375000D01*
X258050000Y-86725000D01*
X258450000Y-86725000D01*
X258450000Y-87375000D01*
X258450000Y-87375000D01*
G37*
G36*
X257800000Y-87375000D02*
G01*
X257400000Y-87375000D01*
X257400000Y-86725000D01*
X257800000Y-86725000D01*
X257800000Y-87375000D01*
X257800000Y-87375000D01*
G37*
G36*
X257150000Y-87375000D02*
G01*
X256750000Y-87375000D01*
X256750000Y-86725000D01*
X257150000Y-86725000D01*
X257150000Y-87375000D01*
X257150000Y-87375000D01*
G37*
G36*
X261173879Y-84704440D02*
G01*
X261214870Y-84716874D01*
X261252645Y-84737065D01*
X261285758Y-84764242D01*
X261312935Y-84797355D01*
X261333126Y-84835130D01*
X261345560Y-84876121D01*
X261350000Y-84921204D01*
X261350000Y-85878796D01*
X261345560Y-85923879D01*
X261333126Y-85964870D01*
X261312935Y-86002645D01*
X261285758Y-86035758D01*
X261252645Y-86062935D01*
X261214870Y-86083126D01*
X261173879Y-86095560D01*
X261128796Y-86100000D01*
X260596204Y-86100000D01*
X260551121Y-86095560D01*
X260510130Y-86083126D01*
X260472355Y-86062935D01*
X260439242Y-86035758D01*
X260412065Y-86002645D01*
X260391874Y-85964870D01*
X260379440Y-85923879D01*
X260375000Y-85878796D01*
X260375000Y-84921204D01*
X260379440Y-84876121D01*
X260391874Y-84835130D01*
X260412065Y-84797355D01*
X260439242Y-84764242D01*
X260472355Y-84737065D01*
X260510130Y-84716874D01*
X260551121Y-84704440D01*
X260596204Y-84700000D01*
X261128796Y-84700000D01*
X261173879Y-84704440D01*
X261173879Y-84704440D01*
G37*
G36*
X263048879Y-84704440D02*
G01*
X263089870Y-84716874D01*
X263127645Y-84737065D01*
X263160758Y-84764242D01*
X263187935Y-84797355D01*
X263208126Y-84835130D01*
X263220560Y-84876121D01*
X263225000Y-84921204D01*
X263225000Y-85878796D01*
X263220560Y-85923879D01*
X263208126Y-85964870D01*
X263187935Y-86002645D01*
X263160758Y-86035758D01*
X263127645Y-86062935D01*
X263089870Y-86083126D01*
X263048879Y-86095560D01*
X263003796Y-86100000D01*
X262471204Y-86100000D01*
X262426121Y-86095560D01*
X262385130Y-86083126D01*
X262347355Y-86062935D01*
X262314242Y-86035758D01*
X262287065Y-86002645D01*
X262266874Y-85964870D01*
X262254440Y-85923879D01*
X262250000Y-85878796D01*
X262250000Y-84921204D01*
X262254440Y-84876121D01*
X262266874Y-84835130D01*
X262287065Y-84797355D01*
X262314242Y-84764242D01*
X262347355Y-84737065D01*
X262385130Y-84716874D01*
X262426121Y-84704440D01*
X262471204Y-84700000D01*
X263003796Y-84700000D01*
X263048879Y-84704440D01*
X263048879Y-84704440D01*
G37*
G36*
X215000000Y-82250000D02*
G01*
X213900000Y-82250000D01*
X213900000Y-80550000D01*
X215000000Y-80550000D01*
X215000000Y-82250000D01*
X215000000Y-82250000D01*
G37*
G36*
X218600000Y-82250000D02*
G01*
X217500000Y-82250000D01*
X217500000Y-80550000D01*
X218600000Y-80550000D01*
X218600000Y-82250000D01*
X218600000Y-82250000D01*
G37*
G36*
X213500000Y-82250000D02*
G01*
X212400000Y-82250000D01*
X212400000Y-80550000D01*
X213500000Y-80550000D01*
X213500000Y-82250000D01*
X213500000Y-82250000D01*
G37*
G36*
X258800000Y-82250000D02*
G01*
X257700000Y-82250000D01*
X257700000Y-80550000D01*
X258800000Y-80550000D01*
X258800000Y-82250000D01*
X258800000Y-82250000D01*
G37*
G36*
X260300000Y-82250000D02*
G01*
X259200000Y-82250000D01*
X259200000Y-80550000D01*
X260300000Y-80550000D01*
X260300000Y-82250000D01*
X260300000Y-82250000D01*
G37*
G36*
X208300000Y-82250000D02*
G01*
X207200000Y-82250000D01*
X207200000Y-80550000D01*
X208300000Y-80550000D01*
X208300000Y-82250000D01*
X208300000Y-82250000D01*
G37*
G36*
X264100000Y-82250000D02*
G01*
X263000000Y-82250000D01*
X263000000Y-80550000D01*
X264100000Y-80550000D01*
X264100000Y-82250000D01*
X264100000Y-82250000D01*
G37*
G36*
X265600000Y-82250000D02*
G01*
X264500000Y-82250000D01*
X264500000Y-80550000D01*
X265600000Y-80550000D01*
X265600000Y-82250000D01*
X265600000Y-82250000D01*
G37*
G36*
X220100000Y-82250000D02*
G01*
X219000000Y-82250000D01*
X219000000Y-80550000D01*
X220100000Y-80550000D01*
X220100000Y-82250000D01*
X220100000Y-82250000D01*
G37*
G36*
X209800000Y-82250000D02*
G01*
X208700000Y-82250000D01*
X208700000Y-80550000D01*
X209800000Y-80550000D01*
X209800000Y-82250000D01*
X209800000Y-82250000D01*
G37*
G36*
X264100000Y-79450000D02*
G01*
X263000000Y-79450000D01*
X263000000Y-77750000D01*
X264100000Y-77750000D01*
X264100000Y-79450000D01*
X264100000Y-79450000D01*
G37*
G36*
X208300000Y-79450000D02*
G01*
X207200000Y-79450000D01*
X207200000Y-77750000D01*
X208300000Y-77750000D01*
X208300000Y-79450000D01*
X208300000Y-79450000D01*
G37*
G36*
X209800000Y-79450000D02*
G01*
X208700000Y-79450000D01*
X208700000Y-77750000D01*
X209800000Y-77750000D01*
X209800000Y-79450000D01*
X209800000Y-79450000D01*
G37*
G36*
X213500000Y-79450000D02*
G01*
X212400000Y-79450000D01*
X212400000Y-77750000D01*
X213500000Y-77750000D01*
X213500000Y-79450000D01*
X213500000Y-79450000D01*
G37*
G36*
X260300000Y-79450000D02*
G01*
X259200000Y-79450000D01*
X259200000Y-77750000D01*
X260300000Y-77750000D01*
X260300000Y-79450000D01*
X260300000Y-79450000D01*
G37*
G36*
X258800000Y-79450000D02*
G01*
X257700000Y-79450000D01*
X257700000Y-77750000D01*
X258800000Y-77750000D01*
X258800000Y-79450000D01*
X258800000Y-79450000D01*
G37*
G36*
X220100000Y-79450000D02*
G01*
X219000000Y-79450000D01*
X219000000Y-77750000D01*
X220100000Y-77750000D01*
X220100000Y-79450000D01*
X220100000Y-79450000D01*
G37*
G36*
X218600000Y-79450000D02*
G01*
X217500000Y-79450000D01*
X217500000Y-77750000D01*
X218600000Y-77750000D01*
X218600000Y-79450000D01*
X218600000Y-79450000D01*
G37*
G36*
X215000000Y-79450000D02*
G01*
X213900000Y-79450000D01*
X213900000Y-77750000D01*
X215000000Y-77750000D01*
X215000000Y-79450000D01*
X215000000Y-79450000D01*
G37*
G36*
X265600000Y-79450000D02*
G01*
X264500000Y-79450000D01*
X264500000Y-77750000D01*
X265600000Y-77750000D01*
X265600000Y-79450000D01*
X265600000Y-79450000D01*
G37*
G36*
X265619002Y-75553960D02*
G01*
X265655301Y-75564971D01*
X265688757Y-75582854D01*
X265718081Y-75606919D01*
X265742146Y-75636243D01*
X265760029Y-75669699D01*
X265771040Y-75705998D01*
X265775000Y-75746204D01*
X265775000Y-76228796D01*
X265771040Y-76269002D01*
X265760029Y-76305301D01*
X265742146Y-76338757D01*
X265718081Y-76368081D01*
X265688757Y-76392146D01*
X265655301Y-76410029D01*
X265619002Y-76421040D01*
X265578796Y-76425000D01*
X265021204Y-76425000D01*
X264980998Y-76421040D01*
X264944699Y-76410029D01*
X264911243Y-76392146D01*
X264881919Y-76368081D01*
X264857854Y-76338757D01*
X264839971Y-76305301D01*
X264828960Y-76269002D01*
X264825000Y-76228796D01*
X264825000Y-75746204D01*
X264828960Y-75705998D01*
X264839971Y-75669699D01*
X264857854Y-75636243D01*
X264881919Y-75606919D01*
X264911243Y-75582854D01*
X264944699Y-75564971D01*
X264980998Y-75553960D01*
X265021204Y-75550000D01*
X265578796Y-75550000D01*
X265619002Y-75553960D01*
X265619002Y-75553960D01*
G37*
G36*
X263819002Y-75553960D02*
G01*
X263855301Y-75564971D01*
X263888757Y-75582854D01*
X263918081Y-75606919D01*
X263942146Y-75636243D01*
X263960029Y-75669699D01*
X263971040Y-75705998D01*
X263975000Y-75746204D01*
X263975000Y-76228796D01*
X263971040Y-76269002D01*
X263960029Y-76305301D01*
X263942146Y-76338757D01*
X263918081Y-76368081D01*
X263888757Y-76392146D01*
X263855301Y-76410029D01*
X263819002Y-76421040D01*
X263778796Y-76425000D01*
X263221204Y-76425000D01*
X263180998Y-76421040D01*
X263144699Y-76410029D01*
X263111243Y-76392146D01*
X263081919Y-76368081D01*
X263057854Y-76338757D01*
X263039971Y-76305301D01*
X263028960Y-76269002D01*
X263025000Y-76228796D01*
X263025000Y-75746204D01*
X263028960Y-75705998D01*
X263039971Y-75669699D01*
X263057854Y-75636243D01*
X263081919Y-75606919D01*
X263111243Y-75582854D01*
X263144699Y-75564971D01*
X263180998Y-75553960D01*
X263221204Y-75550000D01*
X263778796Y-75550000D01*
X263819002Y-75553960D01*
X263819002Y-75553960D01*
G37*
G36*
X210594002Y-75228960D02*
G01*
X210630301Y-75239971D01*
X210663757Y-75257854D01*
X210693081Y-75281919D01*
X210717146Y-75311243D01*
X210735029Y-75344699D01*
X210746040Y-75380998D01*
X210750000Y-75421204D01*
X210750000Y-75978796D01*
X210746040Y-76019002D01*
X210735029Y-76055301D01*
X210717146Y-76088757D01*
X210693081Y-76118081D01*
X210663757Y-76142146D01*
X210630301Y-76160029D01*
X210594002Y-76171040D01*
X210553796Y-76175000D01*
X210071204Y-76175000D01*
X210030998Y-76171040D01*
X209994699Y-76160029D01*
X209961243Y-76142146D01*
X209931919Y-76118081D01*
X209907854Y-76088757D01*
X209889971Y-76055301D01*
X209878960Y-76019002D01*
X209875000Y-75978796D01*
X209875000Y-75421204D01*
X209878960Y-75380998D01*
X209889971Y-75344699D01*
X209907854Y-75311243D01*
X209931919Y-75281919D01*
X209961243Y-75257854D01*
X209994699Y-75239971D01*
X210030998Y-75228960D01*
X210071204Y-75225000D01*
X210553796Y-75225000D01*
X210594002Y-75228960D01*
X210594002Y-75228960D01*
G37*
G36*
X212169002Y-75228960D02*
G01*
X212205301Y-75239971D01*
X212238757Y-75257854D01*
X212268081Y-75281919D01*
X212292146Y-75311243D01*
X212310029Y-75344699D01*
X212321040Y-75380998D01*
X212325000Y-75421204D01*
X212325000Y-75978796D01*
X212321040Y-76019002D01*
X212310029Y-76055301D01*
X212292146Y-76088757D01*
X212268081Y-76118081D01*
X212238757Y-76142146D01*
X212205301Y-76160029D01*
X212169002Y-76171040D01*
X212128796Y-76175000D01*
X211646204Y-76175000D01*
X211605998Y-76171040D01*
X211569699Y-76160029D01*
X211536243Y-76142146D01*
X211506919Y-76118081D01*
X211482854Y-76088757D01*
X211464971Y-76055301D01*
X211453960Y-76019002D01*
X211450000Y-75978796D01*
X211450000Y-75421204D01*
X211453960Y-75380998D01*
X211464971Y-75344699D01*
X211482854Y-75311243D01*
X211506919Y-75281919D01*
X211536243Y-75257854D01*
X211569699Y-75239971D01*
X211605998Y-75228960D01*
X211646204Y-75225000D01*
X212128796Y-75225000D01*
X212169002Y-75228960D01*
X212169002Y-75228960D01*
G37*
G36*
X219730103Y-74128960D02*
G01*
X219766402Y-74139971D01*
X219799858Y-74157854D01*
X219829182Y-74181919D01*
X219853247Y-74211243D01*
X219871130Y-74244699D01*
X219882141Y-74280998D01*
X219886101Y-74321204D01*
X219886101Y-74878796D01*
X219882141Y-74919002D01*
X219871130Y-74955301D01*
X219853247Y-74988757D01*
X219829182Y-75018081D01*
X219799858Y-75042146D01*
X219766402Y-75060029D01*
X219730103Y-75071040D01*
X219689897Y-75075000D01*
X219207305Y-75075000D01*
X219167099Y-75071040D01*
X219130800Y-75060029D01*
X219097344Y-75042146D01*
X219068020Y-75018081D01*
X219043955Y-74988757D01*
X219026072Y-74955301D01*
X219015061Y-74919002D01*
X219011101Y-74878796D01*
X219011101Y-74321204D01*
X219015061Y-74280998D01*
X219026072Y-74244699D01*
X219043955Y-74211243D01*
X219068020Y-74181919D01*
X219097344Y-74157854D01*
X219130800Y-74139971D01*
X219167099Y-74128960D01*
X219207305Y-74125000D01*
X219689897Y-74125000D01*
X219730103Y-74128960D01*
X219730103Y-74128960D01*
G37*
G36*
X218155103Y-74128960D02*
G01*
X218191402Y-74139971D01*
X218224858Y-74157854D01*
X218254182Y-74181919D01*
X218278247Y-74211243D01*
X218296130Y-74244699D01*
X218307141Y-74280998D01*
X218311101Y-74321204D01*
X218311101Y-74878796D01*
X218307141Y-74919002D01*
X218296130Y-74955301D01*
X218278247Y-74988757D01*
X218254182Y-75018081D01*
X218224858Y-75042146D01*
X218191402Y-75060029D01*
X218155103Y-75071040D01*
X218114897Y-75075000D01*
X217632305Y-75075000D01*
X217592099Y-75071040D01*
X217555800Y-75060029D01*
X217522344Y-75042146D01*
X217493020Y-75018081D01*
X217468955Y-74988757D01*
X217451072Y-74955301D01*
X217440061Y-74919002D01*
X217436101Y-74878796D01*
X217436101Y-74321204D01*
X217440061Y-74280998D01*
X217451072Y-74244699D01*
X217468955Y-74211243D01*
X217493020Y-74181919D01*
X217522344Y-74157854D01*
X217555800Y-74139971D01*
X217592099Y-74128960D01*
X217632305Y-74125000D01*
X218114897Y-74125000D01*
X218155103Y-74128960D01*
X218155103Y-74128960D01*
G37*
G36*
X265619002Y-73978960D02*
G01*
X265655301Y-73989971D01*
X265688757Y-74007854D01*
X265718081Y-74031919D01*
X265742146Y-74061243D01*
X265760029Y-74094699D01*
X265771040Y-74130998D01*
X265775000Y-74171204D01*
X265775000Y-74653796D01*
X265771040Y-74694002D01*
X265760029Y-74730301D01*
X265742146Y-74763757D01*
X265718081Y-74793081D01*
X265688757Y-74817146D01*
X265655301Y-74835029D01*
X265619002Y-74846040D01*
X265578796Y-74850000D01*
X265021204Y-74850000D01*
X264980998Y-74846040D01*
X264944699Y-74835029D01*
X264911243Y-74817146D01*
X264881919Y-74793081D01*
X264857854Y-74763757D01*
X264839971Y-74730301D01*
X264828960Y-74694002D01*
X264825000Y-74653796D01*
X264825000Y-74171204D01*
X264828960Y-74130998D01*
X264839971Y-74094699D01*
X264857854Y-74061243D01*
X264881919Y-74031919D01*
X264911243Y-74007854D01*
X264944699Y-73989971D01*
X264980998Y-73978960D01*
X265021204Y-73975000D01*
X265578796Y-73975000D01*
X265619002Y-73978960D01*
X265619002Y-73978960D01*
G37*
G36*
X263819002Y-73978960D02*
G01*
X263855301Y-73989971D01*
X263888757Y-74007854D01*
X263918081Y-74031919D01*
X263942146Y-74061243D01*
X263960029Y-74094699D01*
X263971040Y-74130998D01*
X263975000Y-74171204D01*
X263975000Y-74653796D01*
X263971040Y-74694002D01*
X263960029Y-74730301D01*
X263942146Y-74763757D01*
X263918081Y-74793081D01*
X263888757Y-74817146D01*
X263855301Y-74835029D01*
X263819002Y-74846040D01*
X263778796Y-74850000D01*
X263221204Y-74850000D01*
X263180998Y-74846040D01*
X263144699Y-74835029D01*
X263111243Y-74817146D01*
X263081919Y-74793081D01*
X263057854Y-74763757D01*
X263039971Y-74730301D01*
X263028960Y-74694002D01*
X263025000Y-74653796D01*
X263025000Y-74171204D01*
X263028960Y-74130998D01*
X263039971Y-74094699D01*
X263057854Y-74061243D01*
X263081919Y-74031919D01*
X263111243Y-74007854D01*
X263144699Y-73989971D01*
X263180998Y-73978960D01*
X263221204Y-73975000D01*
X263778796Y-73975000D01*
X263819002Y-73978960D01*
X263819002Y-73978960D01*
G37*
G36*
X212169002Y-73628960D02*
G01*
X212205301Y-73639971D01*
X212238757Y-73657854D01*
X212268081Y-73681919D01*
X212292146Y-73711243D01*
X212310029Y-73744699D01*
X212321040Y-73780998D01*
X212325000Y-73821204D01*
X212325000Y-74378796D01*
X212321040Y-74419002D01*
X212310029Y-74455301D01*
X212292146Y-74488757D01*
X212268081Y-74518081D01*
X212238757Y-74542146D01*
X212205301Y-74560029D01*
X212169002Y-74571040D01*
X212128796Y-74575000D01*
X211646204Y-74575000D01*
X211605998Y-74571040D01*
X211569699Y-74560029D01*
X211536243Y-74542146D01*
X211506919Y-74518081D01*
X211482854Y-74488757D01*
X211464971Y-74455301D01*
X211453960Y-74419002D01*
X211450000Y-74378796D01*
X211450000Y-73821204D01*
X211453960Y-73780998D01*
X211464971Y-73744699D01*
X211482854Y-73711243D01*
X211506919Y-73681919D01*
X211536243Y-73657854D01*
X211569699Y-73639971D01*
X211605998Y-73628960D01*
X211646204Y-73625000D01*
X212128796Y-73625000D01*
X212169002Y-73628960D01*
X212169002Y-73628960D01*
G37*
G36*
X210594002Y-73628960D02*
G01*
X210630301Y-73639971D01*
X210663757Y-73657854D01*
X210693081Y-73681919D01*
X210717146Y-73711243D01*
X210735029Y-73744699D01*
X210746040Y-73780998D01*
X210750000Y-73821204D01*
X210750000Y-74378796D01*
X210746040Y-74419002D01*
X210735029Y-74455301D01*
X210717146Y-74488757D01*
X210693081Y-74518081D01*
X210663757Y-74542146D01*
X210630301Y-74560029D01*
X210594002Y-74571040D01*
X210553796Y-74575000D01*
X210071204Y-74575000D01*
X210030998Y-74571040D01*
X209994699Y-74560029D01*
X209961243Y-74542146D01*
X209931919Y-74518081D01*
X209907854Y-74488757D01*
X209889971Y-74455301D01*
X209878960Y-74419002D01*
X209875000Y-74378796D01*
X209875000Y-73821204D01*
X209878960Y-73780998D01*
X209889971Y-73744699D01*
X209907854Y-73711243D01*
X209931919Y-73681919D01*
X209961243Y-73657854D01*
X209994699Y-73639971D01*
X210030998Y-73628960D01*
X210071204Y-73625000D01*
X210553796Y-73625000D01*
X210594002Y-73628960D01*
X210594002Y-73628960D01*
G37*
G36*
X218155103Y-72428960D02*
G01*
X218191402Y-72439971D01*
X218224858Y-72457854D01*
X218254182Y-72481919D01*
X218278247Y-72511243D01*
X218296130Y-72544699D01*
X218307141Y-72580998D01*
X218311101Y-72621204D01*
X218311101Y-73178796D01*
X218307141Y-73219002D01*
X218296130Y-73255301D01*
X218278247Y-73288757D01*
X218254182Y-73318081D01*
X218224858Y-73342146D01*
X218191402Y-73360029D01*
X218155103Y-73371040D01*
X218114897Y-73375000D01*
X217632305Y-73375000D01*
X217592099Y-73371040D01*
X217555800Y-73360029D01*
X217522344Y-73342146D01*
X217493020Y-73318081D01*
X217468955Y-73288757D01*
X217451072Y-73255301D01*
X217440061Y-73219002D01*
X217436101Y-73178796D01*
X217436101Y-72621204D01*
X217440061Y-72580998D01*
X217451072Y-72544699D01*
X217468955Y-72511243D01*
X217493020Y-72481919D01*
X217522344Y-72457854D01*
X217555800Y-72439971D01*
X217592099Y-72428960D01*
X217632305Y-72425000D01*
X218114897Y-72425000D01*
X218155103Y-72428960D01*
X218155103Y-72428960D01*
G37*
G36*
X219730103Y-72428960D02*
G01*
X219766402Y-72439971D01*
X219799858Y-72457854D01*
X219829182Y-72481919D01*
X219853247Y-72511243D01*
X219871130Y-72544699D01*
X219882141Y-72580998D01*
X219886101Y-72621204D01*
X219886101Y-73178796D01*
X219882141Y-73219002D01*
X219871130Y-73255301D01*
X219853247Y-73288757D01*
X219829182Y-73318081D01*
X219799858Y-73342146D01*
X219766402Y-73360029D01*
X219730103Y-73371040D01*
X219689897Y-73375000D01*
X219207305Y-73375000D01*
X219167099Y-73371040D01*
X219130800Y-73360029D01*
X219097344Y-73342146D01*
X219068020Y-73318081D01*
X219043955Y-73288757D01*
X219026072Y-73255301D01*
X219015061Y-73219002D01*
X219011101Y-73178796D01*
X219011101Y-72621204D01*
X219015061Y-72580998D01*
X219026072Y-72544699D01*
X219043955Y-72511243D01*
X219068020Y-72481919D01*
X219097344Y-72457854D01*
X219130800Y-72439971D01*
X219167099Y-72428960D01*
X219207305Y-72425000D01*
X219689897Y-72425000D01*
X219730103Y-72428960D01*
X219730103Y-72428960D01*
G37*
G36*
X222881502Y-72428960D02*
G01*
X222917801Y-72439971D01*
X222951257Y-72457854D01*
X222980581Y-72481919D01*
X223004646Y-72511243D01*
X223022529Y-72544699D01*
X223033540Y-72580998D01*
X223037500Y-72621204D01*
X223037500Y-73178796D01*
X223033540Y-73219002D01*
X223022529Y-73255301D01*
X223004646Y-73288757D01*
X222980581Y-73318081D01*
X222951257Y-73342146D01*
X222917801Y-73360029D01*
X222881502Y-73371040D01*
X222841296Y-73375000D01*
X222358704Y-73375000D01*
X222318498Y-73371040D01*
X222282199Y-73360029D01*
X222248743Y-73342146D01*
X222219419Y-73318081D01*
X222195354Y-73288757D01*
X222177471Y-73255301D01*
X222166460Y-73219002D01*
X222162500Y-73178796D01*
X222162500Y-72621204D01*
X222166460Y-72580998D01*
X222177471Y-72544699D01*
X222195354Y-72511243D01*
X222219419Y-72481919D01*
X222248743Y-72457854D01*
X222282199Y-72439971D01*
X222318498Y-72428960D01*
X222358704Y-72425000D01*
X222841296Y-72425000D01*
X222881502Y-72428960D01*
X222881502Y-72428960D01*
G37*
G36*
X221306502Y-72428960D02*
G01*
X221342801Y-72439971D01*
X221376257Y-72457854D01*
X221405581Y-72481919D01*
X221429646Y-72511243D01*
X221447529Y-72544699D01*
X221458540Y-72580998D01*
X221462500Y-72621204D01*
X221462500Y-73178796D01*
X221458540Y-73219002D01*
X221447529Y-73255301D01*
X221429646Y-73288757D01*
X221405581Y-73318081D01*
X221376257Y-73342146D01*
X221342801Y-73360029D01*
X221306502Y-73371040D01*
X221266296Y-73375000D01*
X220783704Y-73375000D01*
X220743498Y-73371040D01*
X220707199Y-73360029D01*
X220673743Y-73342146D01*
X220644419Y-73318081D01*
X220620354Y-73288757D01*
X220602471Y-73255301D01*
X220591460Y-73219002D01*
X220587500Y-73178796D01*
X220587500Y-72621204D01*
X220591460Y-72580998D01*
X220602471Y-72544699D01*
X220620354Y-72511243D01*
X220644419Y-72481919D01*
X220673743Y-72457854D01*
X220707199Y-72439971D01*
X220743498Y-72428960D01*
X220783704Y-72425000D01*
X221266296Y-72425000D01*
X221306502Y-72428960D01*
X221306502Y-72428960D01*
G37*
G36*
X257569002Y-72128960D02*
G01*
X257605301Y-72139971D01*
X257638757Y-72157854D01*
X257668081Y-72181919D01*
X257692146Y-72211243D01*
X257710029Y-72244699D01*
X257721040Y-72280998D01*
X257725000Y-72321204D01*
X257725000Y-72878796D01*
X257721040Y-72919002D01*
X257710029Y-72955301D01*
X257692146Y-72988757D01*
X257668081Y-73018081D01*
X257638757Y-73042146D01*
X257605301Y-73060029D01*
X257569002Y-73071040D01*
X257528796Y-73075000D01*
X257046204Y-73075000D01*
X257005998Y-73071040D01*
X256969699Y-73060029D01*
X256936243Y-73042146D01*
X256906919Y-73018081D01*
X256882854Y-72988757D01*
X256864971Y-72955301D01*
X256853960Y-72919002D01*
X256850000Y-72878796D01*
X256850000Y-72321204D01*
X256853960Y-72280998D01*
X256864971Y-72244699D01*
X256882854Y-72211243D01*
X256906919Y-72181919D01*
X256936243Y-72157854D01*
X256969699Y-72139971D01*
X257005998Y-72128960D01*
X257046204Y-72125000D01*
X257528796Y-72125000D01*
X257569002Y-72128960D01*
X257569002Y-72128960D01*
G37*
G36*
X255994002Y-72128960D02*
G01*
X256030301Y-72139971D01*
X256063757Y-72157854D01*
X256093081Y-72181919D01*
X256117146Y-72211243D01*
X256135029Y-72244699D01*
X256146040Y-72280998D01*
X256150000Y-72321204D01*
X256150000Y-72878796D01*
X256146040Y-72919002D01*
X256135029Y-72955301D01*
X256117146Y-72988757D01*
X256093081Y-73018081D01*
X256063757Y-73042146D01*
X256030301Y-73060029D01*
X255994002Y-73071040D01*
X255953796Y-73075000D01*
X255471204Y-73075000D01*
X255430998Y-73071040D01*
X255394699Y-73060029D01*
X255361243Y-73042146D01*
X255331919Y-73018081D01*
X255307854Y-72988757D01*
X255289971Y-72955301D01*
X255278960Y-72919002D01*
X255275000Y-72878796D01*
X255275000Y-72321204D01*
X255278960Y-72280998D01*
X255289971Y-72244699D01*
X255307854Y-72211243D01*
X255331919Y-72181919D01*
X255361243Y-72157854D01*
X255394699Y-72139971D01*
X255430998Y-72128960D01*
X255471204Y-72125000D01*
X255953796Y-72125000D01*
X255994002Y-72128960D01*
X255994002Y-72128960D01*
G37*
G36*
X259256629Y-68932299D02*
G01*
X259351066Y-68960946D01*
X259416855Y-68980903D01*
X259452452Y-68999930D01*
X259564518Y-69059830D01*
X259693948Y-69166052D01*
X259800170Y-69295482D01*
X259834961Y-69360573D01*
X259879097Y-69443145D01*
X259899054Y-69508934D01*
X259927701Y-69603371D01*
X259944112Y-69770000D01*
X259927701Y-69936629D01*
X259899054Y-70031066D01*
X259879097Y-70096855D01*
X259879096Y-70096856D01*
X259800170Y-70244518D01*
X259693948Y-70373948D01*
X259564518Y-70480170D01*
X259452452Y-70540070D01*
X259416855Y-70559097D01*
X259351066Y-70579054D01*
X259256629Y-70607701D01*
X259131753Y-70620000D01*
X259048247Y-70620000D01*
X258923371Y-70607701D01*
X258828934Y-70579054D01*
X258763145Y-70559097D01*
X258727548Y-70540070D01*
X258615482Y-70480170D01*
X258486052Y-70373948D01*
X258379830Y-70244518D01*
X258300904Y-70096856D01*
X258300903Y-70096855D01*
X258280946Y-70031066D01*
X258252299Y-69936629D01*
X258235888Y-69770000D01*
X258252299Y-69603371D01*
X258280946Y-69508934D01*
X258300903Y-69443145D01*
X258345039Y-69360573D01*
X258379830Y-69295482D01*
X258486052Y-69166052D01*
X258615482Y-69059830D01*
X258727548Y-68999930D01*
X258763145Y-68980903D01*
X258828934Y-68960946D01*
X258923371Y-68932299D01*
X259048247Y-68920000D01*
X259131753Y-68920000D01*
X259256629Y-68932299D01*
X259256629Y-68932299D01*
G37*
G36*
X254176629Y-68932299D02*
G01*
X254271066Y-68960946D01*
X254336855Y-68980903D01*
X254372452Y-68999930D01*
X254484518Y-69059830D01*
X254613948Y-69166052D01*
X254720170Y-69295482D01*
X254754961Y-69360573D01*
X254799097Y-69443145D01*
X254819054Y-69508934D01*
X254847701Y-69603371D01*
X254864112Y-69770000D01*
X254847701Y-69936629D01*
X254819054Y-70031066D01*
X254799097Y-70096855D01*
X254799096Y-70096856D01*
X254720170Y-70244518D01*
X254613948Y-70373948D01*
X254484518Y-70480170D01*
X254372452Y-70540070D01*
X254336855Y-70559097D01*
X254271066Y-70579054D01*
X254176629Y-70607701D01*
X254051753Y-70620000D01*
X253968247Y-70620000D01*
X253843371Y-70607701D01*
X253748934Y-70579054D01*
X253683145Y-70559097D01*
X253647548Y-70540070D01*
X253535482Y-70480170D01*
X253406052Y-70373948D01*
X253299830Y-70244518D01*
X253220904Y-70096856D01*
X253220903Y-70096855D01*
X253200946Y-70031066D01*
X253172299Y-69936629D01*
X253155888Y-69770000D01*
X253172299Y-69603371D01*
X253200946Y-69508934D01*
X253220903Y-69443145D01*
X253265039Y-69360573D01*
X253299830Y-69295482D01*
X253406052Y-69166052D01*
X253535482Y-69059830D01*
X253647548Y-68999930D01*
X253683145Y-68980903D01*
X253748934Y-68960946D01*
X253843371Y-68932299D01*
X253968247Y-68920000D01*
X254051753Y-68920000D01*
X254176629Y-68932299D01*
X254176629Y-68932299D01*
G37*
G36*
X256716629Y-68932299D02*
G01*
X256811066Y-68960946D01*
X256876855Y-68980903D01*
X256912452Y-68999930D01*
X257024518Y-69059830D01*
X257153948Y-69166052D01*
X257260170Y-69295482D01*
X257294961Y-69360573D01*
X257339097Y-69443145D01*
X257359054Y-69508934D01*
X257387701Y-69603371D01*
X257404112Y-69770000D01*
X257387701Y-69936629D01*
X257359054Y-70031066D01*
X257339097Y-70096855D01*
X257339096Y-70096856D01*
X257260170Y-70244518D01*
X257153948Y-70373948D01*
X257024518Y-70480170D01*
X256912452Y-70540070D01*
X256876855Y-70559097D01*
X256811066Y-70579054D01*
X256716629Y-70607701D01*
X256591753Y-70620000D01*
X256508247Y-70620000D01*
X256383371Y-70607701D01*
X256288934Y-70579054D01*
X256223145Y-70559097D01*
X256187548Y-70540070D01*
X256075482Y-70480170D01*
X255946052Y-70373948D01*
X255839830Y-70244518D01*
X255760904Y-70096856D01*
X255760903Y-70096855D01*
X255740946Y-70031066D01*
X255712299Y-69936629D01*
X255695888Y-69770000D01*
X255712299Y-69603371D01*
X255740946Y-69508934D01*
X255760903Y-69443145D01*
X255805039Y-69360573D01*
X255839830Y-69295482D01*
X255946052Y-69166052D01*
X256075482Y-69059830D01*
X256187548Y-68999930D01*
X256223145Y-68980903D01*
X256288934Y-68960946D01*
X256383371Y-68932299D01*
X256508247Y-68920000D01*
X256591753Y-68920000D01*
X256716629Y-68932299D01*
X256716629Y-68932299D01*
G37*
G36*
X236396629Y-68932299D02*
G01*
X236491066Y-68960946D01*
X236556855Y-68980903D01*
X236592452Y-68999930D01*
X236704518Y-69059830D01*
X236833948Y-69166052D01*
X236940170Y-69295482D01*
X236974961Y-69360573D01*
X237019097Y-69443145D01*
X237039054Y-69508934D01*
X237067701Y-69603371D01*
X237084112Y-69770000D01*
X237067701Y-69936629D01*
X237039054Y-70031066D01*
X237019097Y-70096855D01*
X237019096Y-70096856D01*
X236940170Y-70244518D01*
X236833948Y-70373948D01*
X236704518Y-70480170D01*
X236592452Y-70540070D01*
X236556855Y-70559097D01*
X236491066Y-70579054D01*
X236396629Y-70607701D01*
X236271753Y-70620000D01*
X236188247Y-70620000D01*
X236063371Y-70607701D01*
X235968934Y-70579054D01*
X235903145Y-70559097D01*
X235867548Y-70540070D01*
X235755482Y-70480170D01*
X235626052Y-70373948D01*
X235519830Y-70244518D01*
X235440904Y-70096856D01*
X235440903Y-70096855D01*
X235420946Y-70031066D01*
X235392299Y-69936629D01*
X235375888Y-69770000D01*
X235392299Y-69603371D01*
X235420946Y-69508934D01*
X235440903Y-69443145D01*
X235485039Y-69360573D01*
X235519830Y-69295482D01*
X235626052Y-69166052D01*
X235755482Y-69059830D01*
X235867548Y-68999930D01*
X235903145Y-68980903D01*
X235968934Y-68960946D01*
X236063371Y-68932299D01*
X236188247Y-68920000D01*
X236271753Y-68920000D01*
X236396629Y-68932299D01*
X236396629Y-68932299D01*
G37*
G36*
X261796629Y-68932299D02*
G01*
X261891066Y-68960946D01*
X261956855Y-68980903D01*
X261992452Y-68999930D01*
X262104518Y-69059830D01*
X262233948Y-69166052D01*
X262340170Y-69295482D01*
X262374961Y-69360573D01*
X262419097Y-69443145D01*
X262439054Y-69508934D01*
X262467701Y-69603371D01*
X262484112Y-69770000D01*
X262467701Y-69936629D01*
X262439054Y-70031066D01*
X262419097Y-70096855D01*
X262419096Y-70096856D01*
X262340170Y-70244518D01*
X262233948Y-70373948D01*
X262104518Y-70480170D01*
X261992452Y-70540070D01*
X261956855Y-70559097D01*
X261891066Y-70579054D01*
X261796629Y-70607701D01*
X261671753Y-70620000D01*
X261588247Y-70620000D01*
X261463371Y-70607701D01*
X261368934Y-70579054D01*
X261303145Y-70559097D01*
X261267548Y-70540070D01*
X261155482Y-70480170D01*
X261026052Y-70373948D01*
X260919830Y-70244518D01*
X260840904Y-70096856D01*
X260840903Y-70096855D01*
X260820946Y-70031066D01*
X260792299Y-69936629D01*
X260775888Y-69770000D01*
X260792299Y-69603371D01*
X260820946Y-69508934D01*
X260840903Y-69443145D01*
X260885039Y-69360573D01*
X260919830Y-69295482D01*
X261026052Y-69166052D01*
X261155482Y-69059830D01*
X261267548Y-68999930D01*
X261303145Y-68980903D01*
X261368934Y-68960946D01*
X261463371Y-68932299D01*
X261588247Y-68920000D01*
X261671753Y-68920000D01*
X261796629Y-68932299D01*
X261796629Y-68932299D01*
G37*
G36*
X233856629Y-68932299D02*
G01*
X233951066Y-68960946D01*
X234016855Y-68980903D01*
X234052452Y-68999930D01*
X234164518Y-69059830D01*
X234293948Y-69166052D01*
X234400170Y-69295482D01*
X234434961Y-69360573D01*
X234479097Y-69443145D01*
X234499054Y-69508934D01*
X234527701Y-69603371D01*
X234544112Y-69770000D01*
X234527701Y-69936629D01*
X234499054Y-70031066D01*
X234479097Y-70096855D01*
X234479096Y-70096856D01*
X234400170Y-70244518D01*
X234293948Y-70373948D01*
X234164518Y-70480170D01*
X234052452Y-70540070D01*
X234016855Y-70559097D01*
X233951066Y-70579054D01*
X233856629Y-70607701D01*
X233731753Y-70620000D01*
X233648247Y-70620000D01*
X233523371Y-70607701D01*
X233428934Y-70579054D01*
X233363145Y-70559097D01*
X233327548Y-70540070D01*
X233215482Y-70480170D01*
X233086052Y-70373948D01*
X232979830Y-70244518D01*
X232900904Y-70096856D01*
X232900903Y-70096855D01*
X232880946Y-70031066D01*
X232852299Y-69936629D01*
X232835888Y-69770000D01*
X232852299Y-69603371D01*
X232880946Y-69508934D01*
X232900903Y-69443145D01*
X232945039Y-69360573D01*
X232979830Y-69295482D01*
X233086052Y-69166052D01*
X233215482Y-69059830D01*
X233327548Y-68999930D01*
X233363145Y-68980903D01*
X233428934Y-68960946D01*
X233523371Y-68932299D01*
X233648247Y-68920000D01*
X233731753Y-68920000D01*
X233856629Y-68932299D01*
X233856629Y-68932299D01*
G37*
G36*
X231316629Y-68932299D02*
G01*
X231411066Y-68960946D01*
X231476855Y-68980903D01*
X231512452Y-68999930D01*
X231624518Y-69059830D01*
X231753948Y-69166052D01*
X231860170Y-69295482D01*
X231894961Y-69360573D01*
X231939097Y-69443145D01*
X231959054Y-69508934D01*
X231987701Y-69603371D01*
X232004112Y-69770000D01*
X231987701Y-69936629D01*
X231959054Y-70031066D01*
X231939097Y-70096855D01*
X231939096Y-70096856D01*
X231860170Y-70244518D01*
X231753948Y-70373948D01*
X231624518Y-70480170D01*
X231512452Y-70540070D01*
X231476855Y-70559097D01*
X231411066Y-70579054D01*
X231316629Y-70607701D01*
X231191753Y-70620000D01*
X231108247Y-70620000D01*
X230983371Y-70607701D01*
X230888934Y-70579054D01*
X230823145Y-70559097D01*
X230787548Y-70540070D01*
X230675482Y-70480170D01*
X230546052Y-70373948D01*
X230439830Y-70244518D01*
X230360904Y-70096856D01*
X230360903Y-70096855D01*
X230340946Y-70031066D01*
X230312299Y-69936629D01*
X230295888Y-69770000D01*
X230312299Y-69603371D01*
X230340946Y-69508934D01*
X230360903Y-69443145D01*
X230405039Y-69360573D01*
X230439830Y-69295482D01*
X230546052Y-69166052D01*
X230675482Y-69059830D01*
X230787548Y-68999930D01*
X230823145Y-68980903D01*
X230888934Y-68960946D01*
X230983371Y-68932299D01*
X231108247Y-68920000D01*
X231191753Y-68920000D01*
X231316629Y-68932299D01*
X231316629Y-68932299D01*
G37*
G36*
X221156629Y-68932299D02*
G01*
X221251066Y-68960946D01*
X221316855Y-68980903D01*
X221352452Y-68999930D01*
X221464518Y-69059830D01*
X221593948Y-69166052D01*
X221700170Y-69295482D01*
X221734961Y-69360573D01*
X221779097Y-69443145D01*
X221799054Y-69508934D01*
X221827701Y-69603371D01*
X221844112Y-69770000D01*
X221827701Y-69936629D01*
X221799054Y-70031066D01*
X221779097Y-70096855D01*
X221779096Y-70096856D01*
X221700170Y-70244518D01*
X221593948Y-70373948D01*
X221464518Y-70480170D01*
X221352452Y-70540070D01*
X221316855Y-70559097D01*
X221251066Y-70579054D01*
X221156629Y-70607701D01*
X221031753Y-70620000D01*
X220948247Y-70620000D01*
X220823371Y-70607701D01*
X220728934Y-70579054D01*
X220663145Y-70559097D01*
X220627548Y-70540070D01*
X220515482Y-70480170D01*
X220386052Y-70373948D01*
X220279830Y-70244518D01*
X220200904Y-70096856D01*
X220200903Y-70096855D01*
X220180946Y-70031066D01*
X220152299Y-69936629D01*
X220135888Y-69770000D01*
X220152299Y-69603371D01*
X220180946Y-69508934D01*
X220200903Y-69443145D01*
X220245039Y-69360573D01*
X220279830Y-69295482D01*
X220386052Y-69166052D01*
X220515482Y-69059830D01*
X220627548Y-68999930D01*
X220663145Y-68980903D01*
X220728934Y-68960946D01*
X220823371Y-68932299D01*
X220948247Y-68920000D01*
X221031753Y-68920000D01*
X221156629Y-68932299D01*
X221156629Y-68932299D01*
G37*
G36*
X218616629Y-68932299D02*
G01*
X218711066Y-68960946D01*
X218776855Y-68980903D01*
X218812452Y-68999930D01*
X218924518Y-69059830D01*
X219053948Y-69166052D01*
X219160170Y-69295482D01*
X219194961Y-69360573D01*
X219239097Y-69443145D01*
X219259054Y-69508934D01*
X219287701Y-69603371D01*
X219304112Y-69770000D01*
X219287701Y-69936629D01*
X219259054Y-70031066D01*
X219239097Y-70096855D01*
X219239096Y-70096856D01*
X219160170Y-70244518D01*
X219053948Y-70373948D01*
X218924518Y-70480170D01*
X218812452Y-70540070D01*
X218776855Y-70559097D01*
X218711066Y-70579054D01*
X218616629Y-70607701D01*
X218491753Y-70620000D01*
X218408247Y-70620000D01*
X218283371Y-70607701D01*
X218188934Y-70579054D01*
X218123145Y-70559097D01*
X218087548Y-70540070D01*
X217975482Y-70480170D01*
X217846052Y-70373948D01*
X217739830Y-70244518D01*
X217660904Y-70096856D01*
X217660903Y-70096855D01*
X217640946Y-70031066D01*
X217612299Y-69936629D01*
X217595888Y-69770000D01*
X217612299Y-69603371D01*
X217640946Y-69508934D01*
X217660903Y-69443145D01*
X217705039Y-69360573D01*
X217739830Y-69295482D01*
X217846052Y-69166052D01*
X217975482Y-69059830D01*
X218087548Y-68999930D01*
X218123145Y-68980903D01*
X218188934Y-68960946D01*
X218283371Y-68932299D01*
X218408247Y-68920000D01*
X218491753Y-68920000D01*
X218616629Y-68932299D01*
X218616629Y-68932299D01*
G37*
G36*
X226236629Y-68932299D02*
G01*
X226331066Y-68960946D01*
X226396855Y-68980903D01*
X226432452Y-68999930D01*
X226544518Y-69059830D01*
X226673948Y-69166052D01*
X226780170Y-69295482D01*
X226814961Y-69360573D01*
X226859097Y-69443145D01*
X226879054Y-69508934D01*
X226907701Y-69603371D01*
X226924112Y-69770000D01*
X226907701Y-69936629D01*
X226879054Y-70031066D01*
X226859097Y-70096855D01*
X226859096Y-70096856D01*
X226780170Y-70244518D01*
X226673948Y-70373948D01*
X226544518Y-70480170D01*
X226432452Y-70540070D01*
X226396855Y-70559097D01*
X226331066Y-70579054D01*
X226236629Y-70607701D01*
X226111753Y-70620000D01*
X226028247Y-70620000D01*
X225903371Y-70607701D01*
X225808934Y-70579054D01*
X225743145Y-70559097D01*
X225707548Y-70540070D01*
X225595482Y-70480170D01*
X225466052Y-70373948D01*
X225359830Y-70244518D01*
X225280904Y-70096856D01*
X225280903Y-70096855D01*
X225260946Y-70031066D01*
X225232299Y-69936629D01*
X225215888Y-69770000D01*
X225232299Y-69603371D01*
X225260946Y-69508934D01*
X225280903Y-69443145D01*
X225325039Y-69360573D01*
X225359830Y-69295482D01*
X225466052Y-69166052D01*
X225595482Y-69059830D01*
X225707548Y-68999930D01*
X225743145Y-68980903D01*
X225808934Y-68960946D01*
X225903371Y-68932299D01*
X226028247Y-68920000D01*
X226111753Y-68920000D01*
X226236629Y-68932299D01*
X226236629Y-68932299D01*
G37*
G36*
X216076629Y-68932299D02*
G01*
X216171066Y-68960946D01*
X216236855Y-68980903D01*
X216272452Y-68999930D01*
X216384518Y-69059830D01*
X216513948Y-69166052D01*
X216620170Y-69295482D01*
X216654961Y-69360573D01*
X216699097Y-69443145D01*
X216719054Y-69508934D01*
X216747701Y-69603371D01*
X216764112Y-69770000D01*
X216747701Y-69936629D01*
X216719054Y-70031066D01*
X216699097Y-70096855D01*
X216699096Y-70096856D01*
X216620170Y-70244518D01*
X216513948Y-70373948D01*
X216384518Y-70480170D01*
X216272452Y-70540070D01*
X216236855Y-70559097D01*
X216171066Y-70579054D01*
X216076629Y-70607701D01*
X215951753Y-70620000D01*
X215868247Y-70620000D01*
X215743371Y-70607701D01*
X215648934Y-70579054D01*
X215583145Y-70559097D01*
X215547548Y-70540070D01*
X215435482Y-70480170D01*
X215306052Y-70373948D01*
X215199830Y-70244518D01*
X215120904Y-70096856D01*
X215120903Y-70096855D01*
X215100946Y-70031066D01*
X215072299Y-69936629D01*
X215055888Y-69770000D01*
X215072299Y-69603371D01*
X215100946Y-69508934D01*
X215120903Y-69443145D01*
X215165039Y-69360573D01*
X215199830Y-69295482D01*
X215306052Y-69166052D01*
X215435482Y-69059830D01*
X215547548Y-68999930D01*
X215583145Y-68980903D01*
X215648934Y-68960946D01*
X215743371Y-68932299D01*
X215868247Y-68920000D01*
X215951753Y-68920000D01*
X216076629Y-68932299D01*
X216076629Y-68932299D01*
G37*
G36*
X228776629Y-68932299D02*
G01*
X228871066Y-68960946D01*
X228936855Y-68980903D01*
X228972452Y-68999930D01*
X229084518Y-69059830D01*
X229213948Y-69166052D01*
X229320170Y-69295482D01*
X229354961Y-69360573D01*
X229399097Y-69443145D01*
X229419054Y-69508934D01*
X229447701Y-69603371D01*
X229464112Y-69770000D01*
X229447701Y-69936629D01*
X229419054Y-70031066D01*
X229399097Y-70096855D01*
X229399096Y-70096856D01*
X229320170Y-70244518D01*
X229213948Y-70373948D01*
X229084518Y-70480170D01*
X228972452Y-70540070D01*
X228936855Y-70559097D01*
X228871066Y-70579054D01*
X228776629Y-70607701D01*
X228651753Y-70620000D01*
X228568247Y-70620000D01*
X228443371Y-70607701D01*
X228348934Y-70579054D01*
X228283145Y-70559097D01*
X228247548Y-70540070D01*
X228135482Y-70480170D01*
X228006052Y-70373948D01*
X227899830Y-70244518D01*
X227820904Y-70096856D01*
X227820903Y-70096855D01*
X227800946Y-70031066D01*
X227772299Y-69936629D01*
X227755888Y-69770000D01*
X227772299Y-69603371D01*
X227800946Y-69508934D01*
X227820903Y-69443145D01*
X227865039Y-69360573D01*
X227899830Y-69295482D01*
X228006052Y-69166052D01*
X228135482Y-69059830D01*
X228247548Y-68999930D01*
X228283145Y-68980903D01*
X228348934Y-68960946D01*
X228443371Y-68932299D01*
X228568247Y-68920000D01*
X228651753Y-68920000D01*
X228776629Y-68932299D01*
X228776629Y-68932299D01*
G37*
G36*
X214220000Y-70620000D02*
G01*
X212520000Y-70620000D01*
X212520000Y-68920000D01*
X214220000Y-68920000D01*
X214220000Y-70620000D01*
X214220000Y-70620000D01*
G37*
G36*
X223696629Y-68932299D02*
G01*
X223791066Y-68960946D01*
X223856855Y-68980903D01*
X223892452Y-68999930D01*
X224004518Y-69059830D01*
X224133948Y-69166052D01*
X224240170Y-69295482D01*
X224274961Y-69360573D01*
X224319097Y-69443145D01*
X224339054Y-69508934D01*
X224367701Y-69603371D01*
X224384112Y-69770000D01*
X224367701Y-69936629D01*
X224339054Y-70031066D01*
X224319097Y-70096855D01*
X224319096Y-70096856D01*
X224240170Y-70244518D01*
X224133948Y-70373948D01*
X224004518Y-70480170D01*
X223892452Y-70540070D01*
X223856855Y-70559097D01*
X223791066Y-70579054D01*
X223696629Y-70607701D01*
X223571753Y-70620000D01*
X223488247Y-70620000D01*
X223363371Y-70607701D01*
X223268934Y-70579054D01*
X223203145Y-70559097D01*
X223167548Y-70540070D01*
X223055482Y-70480170D01*
X222926052Y-70373948D01*
X222819830Y-70244518D01*
X222740904Y-70096856D01*
X222740903Y-70096855D01*
X222720946Y-70031066D01*
X222692299Y-69936629D01*
X222675888Y-69770000D01*
X222692299Y-69603371D01*
X222720946Y-69508934D01*
X222740903Y-69443145D01*
X222785039Y-69360573D01*
X222819830Y-69295482D01*
X222926052Y-69166052D01*
X223055482Y-69059830D01*
X223167548Y-68999930D01*
X223203145Y-68980903D01*
X223268934Y-68960946D01*
X223363371Y-68932299D01*
X223488247Y-68920000D01*
X223571753Y-68920000D01*
X223696629Y-68932299D01*
X223696629Y-68932299D01*
G37*
G36*
X266893779Y-67201879D02*
G01*
X267139463Y-67303645D01*
X267139465Y-67303646D01*
X267360575Y-67451387D01*
X267548613Y-67639425D01*
X267592107Y-67704519D01*
X267696355Y-67860537D01*
X267798121Y-68106221D01*
X267850000Y-68367035D01*
X267850000Y-68632965D01*
X267798121Y-68893779D01*
X267729340Y-69059830D01*
X267696354Y-69139465D01*
X267548613Y-69360575D01*
X267360575Y-69548613D01*
X267139465Y-69696354D01*
X267139464Y-69696355D01*
X267139463Y-69696355D01*
X266893779Y-69798121D01*
X266632965Y-69850000D01*
X266367035Y-69850000D01*
X266106221Y-69798121D01*
X265860537Y-69696355D01*
X265860536Y-69696355D01*
X265860535Y-69696354D01*
X265639425Y-69548613D01*
X265451387Y-69360575D01*
X265303646Y-69139465D01*
X265270660Y-69059830D01*
X265201879Y-68893779D01*
X265150000Y-68632965D01*
X265150000Y-68367035D01*
X265201879Y-68106221D01*
X265303645Y-67860537D01*
X265407893Y-67704519D01*
X265451387Y-67639425D01*
X265639425Y-67451387D01*
X265860535Y-67303646D01*
X265860537Y-67303645D01*
X266106221Y-67201879D01*
X266367035Y-67150000D01*
X266632965Y-67150000D01*
X266893779Y-67201879D01*
X266893779Y-67201879D01*
G37*
G36*
X208893779Y-67201879D02*
G01*
X209139463Y-67303645D01*
X209139465Y-67303646D01*
X209360575Y-67451387D01*
X209548613Y-67639425D01*
X209592107Y-67704519D01*
X209696355Y-67860537D01*
X209798121Y-68106221D01*
X209850000Y-68367035D01*
X209850000Y-68632965D01*
X209798121Y-68893779D01*
X209729340Y-69059830D01*
X209696354Y-69139465D01*
X209548613Y-69360575D01*
X209360575Y-69548613D01*
X209139465Y-69696354D01*
X209139464Y-69696355D01*
X209139463Y-69696355D01*
X208893779Y-69798121D01*
X208632965Y-69850000D01*
X208367035Y-69850000D01*
X208106221Y-69798121D01*
X207860537Y-69696355D01*
X207860536Y-69696355D01*
X207860535Y-69696354D01*
X207639425Y-69548613D01*
X207451387Y-69360575D01*
X207303646Y-69139465D01*
X207270660Y-69059830D01*
X207201879Y-68893779D01*
X207150000Y-68632965D01*
X207150000Y-68367035D01*
X207201879Y-68106221D01*
X207303645Y-67860537D01*
X207407893Y-67704519D01*
X207451387Y-67639425D01*
X207639425Y-67451387D01*
X207860535Y-67303646D01*
X207860537Y-67303645D01*
X208106221Y-67201879D01*
X208367035Y-67150000D01*
X208632965Y-67150000D01*
X208893779Y-67201879D01*
X208893779Y-67201879D01*
G37*
G36*
X261796629Y-66392299D02*
G01*
X261891066Y-66420946D01*
X261956855Y-66440903D01*
X261992452Y-66459930D01*
X262104518Y-66519830D01*
X262233948Y-66626052D01*
X262340170Y-66755482D01*
X262400070Y-66867548D01*
X262419097Y-66903145D01*
X262439054Y-66968934D01*
X262467701Y-67063371D01*
X262484112Y-67230000D01*
X262467701Y-67396629D01*
X262451090Y-67451386D01*
X262419097Y-67556855D01*
X262419096Y-67556856D01*
X262340170Y-67704518D01*
X262233948Y-67833948D01*
X262104518Y-67940170D01*
X261992452Y-68000070D01*
X261956855Y-68019097D01*
X261891066Y-68039054D01*
X261796629Y-68067701D01*
X261671753Y-68080000D01*
X261588247Y-68080000D01*
X261463371Y-68067701D01*
X261368934Y-68039054D01*
X261303145Y-68019097D01*
X261267548Y-68000070D01*
X261155482Y-67940170D01*
X261026052Y-67833948D01*
X260919830Y-67704518D01*
X260840904Y-67556856D01*
X260840903Y-67556855D01*
X260808910Y-67451386D01*
X260792299Y-67396629D01*
X260775888Y-67230000D01*
X260792299Y-67063371D01*
X260820946Y-66968934D01*
X260840903Y-66903145D01*
X260859930Y-66867548D01*
X260919830Y-66755482D01*
X261026052Y-66626052D01*
X261155482Y-66519830D01*
X261267548Y-66459930D01*
X261303145Y-66440903D01*
X261368934Y-66420946D01*
X261463371Y-66392299D01*
X261588247Y-66380000D01*
X261671753Y-66380000D01*
X261796629Y-66392299D01*
X261796629Y-66392299D01*
G37*
G36*
X259256629Y-66392299D02*
G01*
X259351066Y-66420946D01*
X259416855Y-66440903D01*
X259452452Y-66459930D01*
X259564518Y-66519830D01*
X259693948Y-66626052D01*
X259800170Y-66755482D01*
X259860070Y-66867548D01*
X259879097Y-66903145D01*
X259899054Y-66968934D01*
X259927701Y-67063371D01*
X259944112Y-67230000D01*
X259927701Y-67396629D01*
X259911090Y-67451386D01*
X259879097Y-67556855D01*
X259879096Y-67556856D01*
X259800170Y-67704518D01*
X259693948Y-67833948D01*
X259564518Y-67940170D01*
X259452452Y-68000070D01*
X259416855Y-68019097D01*
X259351066Y-68039054D01*
X259256629Y-68067701D01*
X259131753Y-68080000D01*
X259048247Y-68080000D01*
X258923371Y-68067701D01*
X258828934Y-68039054D01*
X258763145Y-68019097D01*
X258727548Y-68000070D01*
X258615482Y-67940170D01*
X258486052Y-67833948D01*
X258379830Y-67704518D01*
X258300904Y-67556856D01*
X258300903Y-67556855D01*
X258268910Y-67451386D01*
X258252299Y-67396629D01*
X258235888Y-67230000D01*
X258252299Y-67063371D01*
X258280946Y-66968934D01*
X258300903Y-66903145D01*
X258319930Y-66867548D01*
X258379830Y-66755482D01*
X258486052Y-66626052D01*
X258615482Y-66519830D01*
X258727548Y-66459930D01*
X258763145Y-66440903D01*
X258828934Y-66420946D01*
X258923371Y-66392299D01*
X259048247Y-66380000D01*
X259131753Y-66380000D01*
X259256629Y-66392299D01*
X259256629Y-66392299D01*
G37*
G36*
X256716629Y-66392299D02*
G01*
X256811066Y-66420946D01*
X256876855Y-66440903D01*
X256912452Y-66459930D01*
X257024518Y-66519830D01*
X257153948Y-66626052D01*
X257260170Y-66755482D01*
X257320070Y-66867548D01*
X257339097Y-66903145D01*
X257359054Y-66968934D01*
X257387701Y-67063371D01*
X257404112Y-67230000D01*
X257387701Y-67396629D01*
X257371090Y-67451386D01*
X257339097Y-67556855D01*
X257339096Y-67556856D01*
X257260170Y-67704518D01*
X257153948Y-67833948D01*
X257024518Y-67940170D01*
X256912452Y-68000070D01*
X256876855Y-68019097D01*
X256811066Y-68039054D01*
X256716629Y-68067701D01*
X256591753Y-68080000D01*
X256508247Y-68080000D01*
X256383371Y-68067701D01*
X256288934Y-68039054D01*
X256223145Y-68019097D01*
X256187548Y-68000070D01*
X256075482Y-67940170D01*
X255946052Y-67833948D01*
X255839830Y-67704518D01*
X255760904Y-67556856D01*
X255760903Y-67556855D01*
X255728910Y-67451386D01*
X255712299Y-67396629D01*
X255695888Y-67230000D01*
X255712299Y-67063371D01*
X255740946Y-66968934D01*
X255760903Y-66903145D01*
X255779930Y-66867548D01*
X255839830Y-66755482D01*
X255946052Y-66626052D01*
X256075482Y-66519830D01*
X256187548Y-66459930D01*
X256223145Y-66440903D01*
X256288934Y-66420946D01*
X256383371Y-66392299D01*
X256508247Y-66380000D01*
X256591753Y-66380000D01*
X256716629Y-66392299D01*
X256716629Y-66392299D01*
G37*
G36*
X254176629Y-66392299D02*
G01*
X254271066Y-66420946D01*
X254336855Y-66440903D01*
X254372452Y-66459930D01*
X254484518Y-66519830D01*
X254613948Y-66626052D01*
X254720170Y-66755482D01*
X254780070Y-66867548D01*
X254799097Y-66903145D01*
X254819054Y-66968934D01*
X254847701Y-67063371D01*
X254864112Y-67230000D01*
X254847701Y-67396629D01*
X254831090Y-67451386D01*
X254799097Y-67556855D01*
X254799096Y-67556856D01*
X254720170Y-67704518D01*
X254613948Y-67833948D01*
X254484518Y-67940170D01*
X254372452Y-68000070D01*
X254336855Y-68019097D01*
X254271066Y-68039054D01*
X254176629Y-68067701D01*
X254051753Y-68080000D01*
X253968247Y-68080000D01*
X253843371Y-68067701D01*
X253748934Y-68039054D01*
X253683145Y-68019097D01*
X253647548Y-68000070D01*
X253535482Y-67940170D01*
X253406052Y-67833948D01*
X253299830Y-67704518D01*
X253220904Y-67556856D01*
X253220903Y-67556855D01*
X253188910Y-67451386D01*
X253172299Y-67396629D01*
X253155888Y-67230000D01*
X253172299Y-67063371D01*
X253200946Y-66968934D01*
X253220903Y-66903145D01*
X253239930Y-66867548D01*
X253299830Y-66755482D01*
X253406052Y-66626052D01*
X253535482Y-66519830D01*
X253647548Y-66459930D01*
X253683145Y-66440903D01*
X253748934Y-66420946D01*
X253843371Y-66392299D01*
X253968247Y-66380000D01*
X254051753Y-66380000D01*
X254176629Y-66392299D01*
X254176629Y-66392299D01*
G37*
G36*
X236396629Y-66392299D02*
G01*
X236491066Y-66420946D01*
X236556855Y-66440903D01*
X236592452Y-66459930D01*
X236704518Y-66519830D01*
X236833948Y-66626052D01*
X236940170Y-66755482D01*
X237000070Y-66867548D01*
X237019097Y-66903145D01*
X237039054Y-66968934D01*
X237067701Y-67063371D01*
X237084112Y-67230000D01*
X237067701Y-67396629D01*
X237051090Y-67451386D01*
X237019097Y-67556855D01*
X237019096Y-67556856D01*
X236940170Y-67704518D01*
X236833948Y-67833948D01*
X236704518Y-67940170D01*
X236592452Y-68000070D01*
X236556855Y-68019097D01*
X236491066Y-68039054D01*
X236396629Y-68067701D01*
X236271753Y-68080000D01*
X236188247Y-68080000D01*
X236063371Y-68067701D01*
X235968934Y-68039054D01*
X235903145Y-68019097D01*
X235867548Y-68000070D01*
X235755482Y-67940170D01*
X235626052Y-67833948D01*
X235519830Y-67704518D01*
X235440904Y-67556856D01*
X235440903Y-67556855D01*
X235408910Y-67451386D01*
X235392299Y-67396629D01*
X235375888Y-67230000D01*
X235392299Y-67063371D01*
X235420946Y-66968934D01*
X235440903Y-66903145D01*
X235459930Y-66867548D01*
X235519830Y-66755482D01*
X235626052Y-66626052D01*
X235755482Y-66519830D01*
X235867548Y-66459930D01*
X235903145Y-66440903D01*
X235968934Y-66420946D01*
X236063371Y-66392299D01*
X236188247Y-66380000D01*
X236271753Y-66380000D01*
X236396629Y-66392299D01*
X236396629Y-66392299D01*
G37*
G36*
X233856629Y-66392299D02*
G01*
X233951066Y-66420946D01*
X234016855Y-66440903D01*
X234052452Y-66459930D01*
X234164518Y-66519830D01*
X234293948Y-66626052D01*
X234400170Y-66755482D01*
X234460070Y-66867548D01*
X234479097Y-66903145D01*
X234499054Y-66968934D01*
X234527701Y-67063371D01*
X234544112Y-67230000D01*
X234527701Y-67396629D01*
X234511090Y-67451386D01*
X234479097Y-67556855D01*
X234479096Y-67556856D01*
X234400170Y-67704518D01*
X234293948Y-67833948D01*
X234164518Y-67940170D01*
X234052452Y-68000070D01*
X234016855Y-68019097D01*
X233951066Y-68039054D01*
X233856629Y-68067701D01*
X233731753Y-68080000D01*
X233648247Y-68080000D01*
X233523371Y-68067701D01*
X233428934Y-68039054D01*
X233363145Y-68019097D01*
X233327548Y-68000070D01*
X233215482Y-67940170D01*
X233086052Y-67833948D01*
X232979830Y-67704518D01*
X232900904Y-67556856D01*
X232900903Y-67556855D01*
X232868910Y-67451386D01*
X232852299Y-67396629D01*
X232835888Y-67230000D01*
X232852299Y-67063371D01*
X232880946Y-66968934D01*
X232900903Y-66903145D01*
X232919930Y-66867548D01*
X232979830Y-66755482D01*
X233086052Y-66626052D01*
X233215482Y-66519830D01*
X233327548Y-66459930D01*
X233363145Y-66440903D01*
X233428934Y-66420946D01*
X233523371Y-66392299D01*
X233648247Y-66380000D01*
X233731753Y-66380000D01*
X233856629Y-66392299D01*
X233856629Y-66392299D01*
G37*
G36*
X213536629Y-66392299D02*
G01*
X213631066Y-66420946D01*
X213696855Y-66440903D01*
X213732452Y-66459930D01*
X213844518Y-66519830D01*
X213973948Y-66626052D01*
X214080170Y-66755482D01*
X214140070Y-66867548D01*
X214159097Y-66903145D01*
X214179054Y-66968934D01*
X214207701Y-67063371D01*
X214224112Y-67230000D01*
X214207701Y-67396629D01*
X214191090Y-67451386D01*
X214159097Y-67556855D01*
X214159096Y-67556856D01*
X214080170Y-67704518D01*
X213973948Y-67833948D01*
X213844518Y-67940170D01*
X213732452Y-68000070D01*
X213696855Y-68019097D01*
X213631066Y-68039054D01*
X213536629Y-68067701D01*
X213411753Y-68080000D01*
X213328247Y-68080000D01*
X213203371Y-68067701D01*
X213108934Y-68039054D01*
X213043145Y-68019097D01*
X213007548Y-68000070D01*
X212895482Y-67940170D01*
X212766052Y-67833948D01*
X212659830Y-67704518D01*
X212580904Y-67556856D01*
X212580903Y-67556855D01*
X212548910Y-67451386D01*
X212532299Y-67396629D01*
X212515888Y-67230000D01*
X212532299Y-67063371D01*
X212560946Y-66968934D01*
X212580903Y-66903145D01*
X212599930Y-66867548D01*
X212659830Y-66755482D01*
X212766052Y-66626052D01*
X212895482Y-66519830D01*
X213007548Y-66459930D01*
X213043145Y-66440903D01*
X213108934Y-66420946D01*
X213203371Y-66392299D01*
X213328247Y-66380000D01*
X213411753Y-66380000D01*
X213536629Y-66392299D01*
X213536629Y-66392299D01*
G37*
G36*
X216076629Y-66392299D02*
G01*
X216171066Y-66420946D01*
X216236855Y-66440903D01*
X216272452Y-66459930D01*
X216384518Y-66519830D01*
X216513948Y-66626052D01*
X216620170Y-66755482D01*
X216680070Y-66867548D01*
X216699097Y-66903145D01*
X216719054Y-66968934D01*
X216747701Y-67063371D01*
X216764112Y-67230000D01*
X216747701Y-67396629D01*
X216731090Y-67451386D01*
X216699097Y-67556855D01*
X216699096Y-67556856D01*
X216620170Y-67704518D01*
X216513948Y-67833948D01*
X216384518Y-67940170D01*
X216272452Y-68000070D01*
X216236855Y-68019097D01*
X216171066Y-68039054D01*
X216076629Y-68067701D01*
X215951753Y-68080000D01*
X215868247Y-68080000D01*
X215743371Y-68067701D01*
X215648934Y-68039054D01*
X215583145Y-68019097D01*
X215547548Y-68000070D01*
X215435482Y-67940170D01*
X215306052Y-67833948D01*
X215199830Y-67704518D01*
X215120904Y-67556856D01*
X215120903Y-67556855D01*
X215088910Y-67451386D01*
X215072299Y-67396629D01*
X215055888Y-67230000D01*
X215072299Y-67063371D01*
X215100946Y-66968934D01*
X215120903Y-66903145D01*
X215139930Y-66867548D01*
X215199830Y-66755482D01*
X215306052Y-66626052D01*
X215435482Y-66519830D01*
X215547548Y-66459930D01*
X215583145Y-66440903D01*
X215648934Y-66420946D01*
X215743371Y-66392299D01*
X215868247Y-66380000D01*
X215951753Y-66380000D01*
X216076629Y-66392299D01*
X216076629Y-66392299D01*
G37*
G36*
X218616629Y-66392299D02*
G01*
X218711066Y-66420946D01*
X218776855Y-66440903D01*
X218812452Y-66459930D01*
X218924518Y-66519830D01*
X219053948Y-66626052D01*
X219160170Y-66755482D01*
X219220070Y-66867548D01*
X219239097Y-66903145D01*
X219259054Y-66968934D01*
X219287701Y-67063371D01*
X219304112Y-67230000D01*
X219287701Y-67396629D01*
X219271090Y-67451386D01*
X219239097Y-67556855D01*
X219239096Y-67556856D01*
X219160170Y-67704518D01*
X219053948Y-67833948D01*
X218924518Y-67940170D01*
X218812452Y-68000070D01*
X218776855Y-68019097D01*
X218711066Y-68039054D01*
X218616629Y-68067701D01*
X218491753Y-68080000D01*
X218408247Y-68080000D01*
X218283371Y-68067701D01*
X218188934Y-68039054D01*
X218123145Y-68019097D01*
X218087548Y-68000070D01*
X217975482Y-67940170D01*
X217846052Y-67833948D01*
X217739830Y-67704518D01*
X217660904Y-67556856D01*
X217660903Y-67556855D01*
X217628910Y-67451386D01*
X217612299Y-67396629D01*
X217595888Y-67230000D01*
X217612299Y-67063371D01*
X217640946Y-66968934D01*
X217660903Y-66903145D01*
X217679930Y-66867548D01*
X217739830Y-66755482D01*
X217846052Y-66626052D01*
X217975482Y-66519830D01*
X218087548Y-66459930D01*
X218123145Y-66440903D01*
X218188934Y-66420946D01*
X218283371Y-66392299D01*
X218408247Y-66380000D01*
X218491753Y-66380000D01*
X218616629Y-66392299D01*
X218616629Y-66392299D01*
G37*
G36*
X221156629Y-66392299D02*
G01*
X221251066Y-66420946D01*
X221316855Y-66440903D01*
X221352452Y-66459930D01*
X221464518Y-66519830D01*
X221593948Y-66626052D01*
X221700170Y-66755482D01*
X221760070Y-66867548D01*
X221779097Y-66903145D01*
X221799054Y-66968934D01*
X221827701Y-67063371D01*
X221844112Y-67230000D01*
X221827701Y-67396629D01*
X221811090Y-67451386D01*
X221779097Y-67556855D01*
X221779096Y-67556856D01*
X221700170Y-67704518D01*
X221593948Y-67833948D01*
X221464518Y-67940170D01*
X221352452Y-68000070D01*
X221316855Y-68019097D01*
X221251066Y-68039054D01*
X221156629Y-68067701D01*
X221031753Y-68080000D01*
X220948247Y-68080000D01*
X220823371Y-68067701D01*
X220728934Y-68039054D01*
X220663145Y-68019097D01*
X220627548Y-68000070D01*
X220515482Y-67940170D01*
X220386052Y-67833948D01*
X220279830Y-67704518D01*
X220200904Y-67556856D01*
X220200903Y-67556855D01*
X220168910Y-67451386D01*
X220152299Y-67396629D01*
X220135888Y-67230000D01*
X220152299Y-67063371D01*
X220180946Y-66968934D01*
X220200903Y-66903145D01*
X220219930Y-66867548D01*
X220279830Y-66755482D01*
X220386052Y-66626052D01*
X220515482Y-66519830D01*
X220627548Y-66459930D01*
X220663145Y-66440903D01*
X220728934Y-66420946D01*
X220823371Y-66392299D01*
X220948247Y-66380000D01*
X221031753Y-66380000D01*
X221156629Y-66392299D01*
X221156629Y-66392299D01*
G37*
G36*
X223696629Y-66392299D02*
G01*
X223791066Y-66420946D01*
X223856855Y-66440903D01*
X223892452Y-66459930D01*
X224004518Y-66519830D01*
X224133948Y-66626052D01*
X224240170Y-66755482D01*
X224300070Y-66867548D01*
X224319097Y-66903145D01*
X224339054Y-66968934D01*
X224367701Y-67063371D01*
X224384112Y-67230000D01*
X224367701Y-67396629D01*
X224351090Y-67451386D01*
X224319097Y-67556855D01*
X224319096Y-67556856D01*
X224240170Y-67704518D01*
X224133948Y-67833948D01*
X224004518Y-67940170D01*
X223892452Y-68000070D01*
X223856855Y-68019097D01*
X223791066Y-68039054D01*
X223696629Y-68067701D01*
X223571753Y-68080000D01*
X223488247Y-68080000D01*
X223363371Y-68067701D01*
X223268934Y-68039054D01*
X223203145Y-68019097D01*
X223167548Y-68000070D01*
X223055482Y-67940170D01*
X222926052Y-67833948D01*
X222819830Y-67704518D01*
X222740904Y-67556856D01*
X222740903Y-67556855D01*
X222708910Y-67451386D01*
X222692299Y-67396629D01*
X222675888Y-67230000D01*
X222692299Y-67063371D01*
X222720946Y-66968934D01*
X222740903Y-66903145D01*
X222759930Y-66867548D01*
X222819830Y-66755482D01*
X222926052Y-66626052D01*
X223055482Y-66519830D01*
X223167548Y-66459930D01*
X223203145Y-66440903D01*
X223268934Y-66420946D01*
X223363371Y-66392299D01*
X223488247Y-66380000D01*
X223571753Y-66380000D01*
X223696629Y-66392299D01*
X223696629Y-66392299D01*
G37*
G36*
X228776629Y-66392299D02*
G01*
X228871066Y-66420946D01*
X228936855Y-66440903D01*
X228972452Y-66459930D01*
X229084518Y-66519830D01*
X229213948Y-66626052D01*
X229320170Y-66755482D01*
X229380070Y-66867548D01*
X229399097Y-66903145D01*
X229419054Y-66968934D01*
X229447701Y-67063371D01*
X229464112Y-67230000D01*
X229447701Y-67396629D01*
X229431090Y-67451386D01*
X229399097Y-67556855D01*
X229399096Y-67556856D01*
X229320170Y-67704518D01*
X229213948Y-67833948D01*
X229084518Y-67940170D01*
X228972452Y-68000070D01*
X228936855Y-68019097D01*
X228871066Y-68039054D01*
X228776629Y-68067701D01*
X228651753Y-68080000D01*
X228568247Y-68080000D01*
X228443371Y-68067701D01*
X228348934Y-68039054D01*
X228283145Y-68019097D01*
X228247548Y-68000070D01*
X228135482Y-67940170D01*
X228006052Y-67833948D01*
X227899830Y-67704518D01*
X227820904Y-67556856D01*
X227820903Y-67556855D01*
X227788910Y-67451386D01*
X227772299Y-67396629D01*
X227755888Y-67230000D01*
X227772299Y-67063371D01*
X227800946Y-66968934D01*
X227820903Y-66903145D01*
X227839930Y-66867548D01*
X227899830Y-66755482D01*
X228006052Y-66626052D01*
X228135482Y-66519830D01*
X228247548Y-66459930D01*
X228283145Y-66440903D01*
X228348934Y-66420946D01*
X228443371Y-66392299D01*
X228568247Y-66380000D01*
X228651753Y-66380000D01*
X228776629Y-66392299D01*
X228776629Y-66392299D01*
G37*
G36*
X226236629Y-66392299D02*
G01*
X226331066Y-66420946D01*
X226396855Y-66440903D01*
X226432452Y-66459930D01*
X226544518Y-66519830D01*
X226673948Y-66626052D01*
X226780170Y-66755482D01*
X226840070Y-66867548D01*
X226859097Y-66903145D01*
X226879054Y-66968934D01*
X226907701Y-67063371D01*
X226924112Y-67230000D01*
X226907701Y-67396629D01*
X226891090Y-67451386D01*
X226859097Y-67556855D01*
X226859096Y-67556856D01*
X226780170Y-67704518D01*
X226673948Y-67833948D01*
X226544518Y-67940170D01*
X226432452Y-68000070D01*
X226396855Y-68019097D01*
X226331066Y-68039054D01*
X226236629Y-68067701D01*
X226111753Y-68080000D01*
X226028247Y-68080000D01*
X225903371Y-68067701D01*
X225808934Y-68039054D01*
X225743145Y-68019097D01*
X225707548Y-68000070D01*
X225595482Y-67940170D01*
X225466052Y-67833948D01*
X225359830Y-67704518D01*
X225280904Y-67556856D01*
X225280903Y-67556855D01*
X225248910Y-67451386D01*
X225232299Y-67396629D01*
X225215888Y-67230000D01*
X225232299Y-67063371D01*
X225260946Y-66968934D01*
X225280903Y-66903145D01*
X225299930Y-66867548D01*
X225359830Y-66755482D01*
X225466052Y-66626052D01*
X225595482Y-66519830D01*
X225707548Y-66459930D01*
X225743145Y-66440903D01*
X225808934Y-66420946D01*
X225903371Y-66392299D01*
X226028247Y-66380000D01*
X226111753Y-66380000D01*
X226236629Y-66392299D01*
X226236629Y-66392299D01*
G37*
G36*
X231316629Y-66392299D02*
G01*
X231411066Y-66420946D01*
X231476855Y-66440903D01*
X231512452Y-66459930D01*
X231624518Y-66519830D01*
X231753948Y-66626052D01*
X231860170Y-66755482D01*
X231920070Y-66867548D01*
X231939097Y-66903145D01*
X231959054Y-66968934D01*
X231987701Y-67063371D01*
X232004112Y-67230000D01*
X231987701Y-67396629D01*
X231971090Y-67451386D01*
X231939097Y-67556855D01*
X231939096Y-67556856D01*
X231860170Y-67704518D01*
X231753948Y-67833948D01*
X231624518Y-67940170D01*
X231512452Y-68000070D01*
X231476855Y-68019097D01*
X231411066Y-68039054D01*
X231316629Y-68067701D01*
X231191753Y-68080000D01*
X231108247Y-68080000D01*
X230983371Y-68067701D01*
X230888934Y-68039054D01*
X230823145Y-68019097D01*
X230787548Y-68000070D01*
X230675482Y-67940170D01*
X230546052Y-67833948D01*
X230439830Y-67704518D01*
X230360904Y-67556856D01*
X230360903Y-67556855D01*
X230328910Y-67451386D01*
X230312299Y-67396629D01*
X230295888Y-67230000D01*
X230312299Y-67063371D01*
X230340946Y-66968934D01*
X230360903Y-66903145D01*
X230379930Y-66867548D01*
X230439830Y-66755482D01*
X230546052Y-66626052D01*
X230675482Y-66519830D01*
X230787548Y-66459930D01*
X230823145Y-66440903D01*
X230888934Y-66420946D01*
X230983371Y-66392299D01*
X231108247Y-66380000D01*
X231191753Y-66380000D01*
X231316629Y-66392299D01*
X231316629Y-66392299D01*
G37*
M02*
