G04 #@! TF.GenerationSoftware,KiCad,Pcbnew,(5.1.0)-1*
G04 #@! TF.CreationDate,2019-03-23T08:53:22+11:00*
G04 #@! TF.ProjectId,VeinCamHatZero,5665696e-4361-46d4-9861-745a65726f2e,rev?*
G04 #@! TF.SameCoordinates,Original*
G04 #@! TF.FileFunction,Other,Comment*
%FSLAX46Y46*%
G04 Gerber Fmt 4.6, Leading zero omitted, Abs format (unit mm)*
G04 Created by KiCad (PCBNEW (5.1.0)-1) date 2019-03-23 08:53:22*
%MOMM*%
%LPD*%
G04 APERTURE LIST*
%ADD10C,0.200000*%
%ADD11C,0.150000*%
G04 APERTURE END LIST*
D10*
X219323809Y-100052380D02*
X219323809Y-99052380D01*
X219895238Y-100052380D01*
X219895238Y-99052380D01*
X220561904Y-99052380D02*
X220752380Y-99052380D01*
X220847619Y-99100000D01*
X220942857Y-99195238D01*
X220990476Y-99385714D01*
X220990476Y-99719047D01*
X220942857Y-99909523D01*
X220847619Y-100004761D01*
X220752380Y-100052380D01*
X220561904Y-100052380D01*
X220466666Y-100004761D01*
X220371428Y-99909523D01*
X220323809Y-99719047D01*
X220323809Y-99385714D01*
X220371428Y-99195238D01*
X220466666Y-99100000D01*
X220561904Y-99052380D01*
X221276190Y-99052380D02*
X221847619Y-99052380D01*
X221561904Y-100052380D02*
X221561904Y-99052380D01*
X222180952Y-99528571D02*
X222514285Y-99528571D01*
X222657142Y-100052380D02*
X222180952Y-100052380D01*
X222180952Y-99052380D01*
X222657142Y-99052380D01*
X223085714Y-99957142D02*
X223133333Y-100004761D01*
X223085714Y-100052380D01*
X223038095Y-100004761D01*
X223085714Y-99957142D01*
X223085714Y-100052380D01*
X223085714Y-99433333D02*
X223133333Y-99480952D01*
X223085714Y-99528571D01*
X223038095Y-99480952D01*
X223085714Y-99433333D01*
X223085714Y-99528571D01*
X224847619Y-100052380D02*
X224276190Y-100052380D01*
X224561904Y-100052380D02*
X224561904Y-99052380D01*
X224466666Y-99195238D01*
X224371428Y-99290476D01*
X224276190Y-99338095D01*
X225276190Y-100052380D02*
X225276190Y-99385714D01*
X225276190Y-99480952D02*
X225323809Y-99433333D01*
X225419047Y-99385714D01*
X225561904Y-99385714D01*
X225657142Y-99433333D01*
X225704761Y-99528571D01*
X225704761Y-100052380D01*
X225704761Y-99528571D02*
X225752380Y-99433333D01*
X225847619Y-99385714D01*
X225990476Y-99385714D01*
X226085714Y-99433333D01*
X226133333Y-99528571D01*
X226133333Y-100052380D01*
X226609523Y-100052380D02*
X226609523Y-99385714D01*
X226609523Y-99480952D02*
X226657142Y-99433333D01*
X226752380Y-99385714D01*
X226895238Y-99385714D01*
X226990476Y-99433333D01*
X227038095Y-99528571D01*
X227038095Y-100052380D01*
X227038095Y-99528571D02*
X227085714Y-99433333D01*
X227180952Y-99385714D01*
X227323809Y-99385714D01*
X227419047Y-99433333D01*
X227466666Y-99528571D01*
X227466666Y-100052380D01*
X229038095Y-99528571D02*
X228704761Y-99528571D01*
X228704761Y-100052380D02*
X228704761Y-99052380D01*
X229180952Y-99052380D01*
X229561904Y-100052380D02*
X229561904Y-99385714D01*
X229561904Y-99052380D02*
X229514285Y-99100000D01*
X229561904Y-99147619D01*
X229609523Y-99100000D01*
X229561904Y-99052380D01*
X229561904Y-99147619D01*
X230038095Y-99385714D02*
X230038095Y-100052380D01*
X230038095Y-99480952D02*
X230085714Y-99433333D01*
X230180952Y-99385714D01*
X230323809Y-99385714D01*
X230419047Y-99433333D01*
X230466666Y-99528571D01*
X230466666Y-100052380D01*
X231371428Y-100052380D02*
X231371428Y-99528571D01*
X231323809Y-99433333D01*
X231228571Y-99385714D01*
X231038095Y-99385714D01*
X230942857Y-99433333D01*
X231371428Y-100004761D02*
X231276190Y-100052380D01*
X231038095Y-100052380D01*
X230942857Y-100004761D01*
X230895238Y-99909523D01*
X230895238Y-99814285D01*
X230942857Y-99719047D01*
X231038095Y-99671428D01*
X231276190Y-99671428D01*
X231371428Y-99623809D01*
X231990476Y-100052380D02*
X231895238Y-100004761D01*
X231847619Y-99909523D01*
X231847619Y-99052380D01*
X232990476Y-99052380D02*
X233561904Y-99052380D01*
X233276190Y-100052380D02*
X233276190Y-99052380D01*
X233895238Y-100052380D02*
X233895238Y-99052380D01*
X234323809Y-100052380D02*
X234323809Y-99528571D01*
X234276190Y-99433333D01*
X234180952Y-99385714D01*
X234038095Y-99385714D01*
X233942857Y-99433333D01*
X233895238Y-99480952D01*
X234800000Y-100052380D02*
X234800000Y-99385714D01*
X234800000Y-99052380D02*
X234752380Y-99100000D01*
X234800000Y-99147619D01*
X234847619Y-99100000D01*
X234800000Y-99052380D01*
X234800000Y-99147619D01*
X235704761Y-100004761D02*
X235609523Y-100052380D01*
X235419047Y-100052380D01*
X235323809Y-100004761D01*
X235276190Y-99957142D01*
X235228571Y-99861904D01*
X235228571Y-99576190D01*
X235276190Y-99480952D01*
X235323809Y-99433333D01*
X235419047Y-99385714D01*
X235609523Y-99385714D01*
X235704761Y-99433333D01*
X236133333Y-100052380D02*
X236133333Y-99052380D01*
X236228571Y-99671428D02*
X236514285Y-100052380D01*
X236514285Y-99385714D02*
X236133333Y-99766666D01*
X236942857Y-99385714D02*
X236942857Y-100052380D01*
X236942857Y-99480952D02*
X236990476Y-99433333D01*
X237085714Y-99385714D01*
X237228571Y-99385714D01*
X237323809Y-99433333D01*
X237371428Y-99528571D01*
X237371428Y-100052380D01*
X238228571Y-100004761D02*
X238133333Y-100052380D01*
X237942857Y-100052380D01*
X237847619Y-100004761D01*
X237800000Y-99909523D01*
X237800000Y-99528571D01*
X237847619Y-99433333D01*
X237942857Y-99385714D01*
X238133333Y-99385714D01*
X238228571Y-99433333D01*
X238276190Y-99528571D01*
X238276190Y-99623809D01*
X237800000Y-99719047D01*
X238657142Y-100004761D02*
X238752380Y-100052380D01*
X238942857Y-100052380D01*
X239038095Y-100004761D01*
X239085714Y-99909523D01*
X239085714Y-99861904D01*
X239038095Y-99766666D01*
X238942857Y-99719047D01*
X238800000Y-99719047D01*
X238704761Y-99671428D01*
X238657142Y-99576190D01*
X238657142Y-99528571D01*
X238704761Y-99433333D01*
X238800000Y-99385714D01*
X238942857Y-99385714D01*
X239038095Y-99433333D01*
X239466666Y-100004761D02*
X239561904Y-100052380D01*
X239752380Y-100052380D01*
X239847619Y-100004761D01*
X239895238Y-99909523D01*
X239895238Y-99861904D01*
X239847619Y-99766666D01*
X239752380Y-99719047D01*
X239609523Y-99719047D01*
X239514285Y-99671428D01*
X239466666Y-99576190D01*
X239466666Y-99528571D01*
X239514285Y-99433333D01*
X239609523Y-99385714D01*
X239752380Y-99385714D01*
X239847619Y-99433333D01*
X240371428Y-100004761D02*
X240371428Y-100052380D01*
X240323809Y-100147619D01*
X240276190Y-100195238D01*
X241561904Y-99385714D02*
X241561904Y-100052380D01*
X241561904Y-99480952D02*
X241609523Y-99433333D01*
X241704761Y-99385714D01*
X241847619Y-99385714D01*
X241942857Y-99433333D01*
X241990476Y-99528571D01*
X241990476Y-100052380D01*
X242609523Y-100052380D02*
X242514285Y-100004761D01*
X242466666Y-99957142D01*
X242419047Y-99861904D01*
X242419047Y-99576190D01*
X242466666Y-99480952D01*
X242514285Y-99433333D01*
X242609523Y-99385714D01*
X242752380Y-99385714D01*
X242847619Y-99433333D01*
X242895238Y-99480952D01*
X242942857Y-99576190D01*
X242942857Y-99861904D01*
X242895238Y-99957142D01*
X242847619Y-100004761D01*
X242752380Y-100052380D01*
X242609523Y-100052380D01*
X243228571Y-99385714D02*
X243609523Y-99385714D01*
X243371428Y-99052380D02*
X243371428Y-99909523D01*
X243419047Y-100004761D01*
X243514285Y-100052380D01*
X243609523Y-100052380D01*
X245228571Y-100052380D02*
X244657142Y-100052380D01*
X244942857Y-100052380D02*
X244942857Y-99052380D01*
X244847619Y-99195238D01*
X244752380Y-99290476D01*
X244657142Y-99338095D01*
X245657142Y-99957142D02*
X245704761Y-100004761D01*
X245657142Y-100052380D01*
X245609523Y-100004761D01*
X245657142Y-99957142D01*
X245657142Y-100052380D01*
X246561904Y-99052380D02*
X246371428Y-99052380D01*
X246276190Y-99100000D01*
X246228571Y-99147619D01*
X246133333Y-99290476D01*
X246085714Y-99480952D01*
X246085714Y-99861904D01*
X246133333Y-99957142D01*
X246180952Y-100004761D01*
X246276190Y-100052380D01*
X246466666Y-100052380D01*
X246561904Y-100004761D01*
X246609523Y-99957142D01*
X246657142Y-99861904D01*
X246657142Y-99623809D01*
X246609523Y-99528571D01*
X246561904Y-99480952D01*
X246466666Y-99433333D01*
X246276190Y-99433333D01*
X246180952Y-99480952D01*
X246133333Y-99528571D01*
X246085714Y-99623809D01*
X247085714Y-100052380D02*
X247085714Y-99385714D01*
X247085714Y-99480952D02*
X247133333Y-99433333D01*
X247228571Y-99385714D01*
X247371428Y-99385714D01*
X247466666Y-99433333D01*
X247514285Y-99528571D01*
X247514285Y-100052380D01*
X247514285Y-99528571D02*
X247561904Y-99433333D01*
X247657142Y-99385714D01*
X247800000Y-99385714D01*
X247895238Y-99433333D01*
X247942857Y-99528571D01*
X247942857Y-100052380D01*
X248419047Y-100052380D02*
X248419047Y-99385714D01*
X248419047Y-99480952D02*
X248466666Y-99433333D01*
X248561904Y-99385714D01*
X248704761Y-99385714D01*
X248800000Y-99433333D01*
X248847619Y-99528571D01*
X248847619Y-100052380D01*
X248847619Y-99528571D02*
X248895238Y-99433333D01*
X248990476Y-99385714D01*
X249133333Y-99385714D01*
X249228571Y-99433333D01*
X249276190Y-99528571D01*
X249276190Y-100052380D01*
D11*
X211200000Y-68500000D02*
G75*
G03X211200000Y-68500000I-2700000J0D01*
G01*
X211200000Y-91500000D02*
G75*
G03X211200000Y-91500000I-2700000J0D01*
G01*
X269200000Y-91500000D02*
G75*
G03X269200000Y-91500000I-2700000J0D01*
G01*
X269200000Y-68500000D02*
G75*
G03X269200000Y-68500000I-2700000J0D01*
G01*
M02*
