G04 #@! TF.GenerationSoftware,KiCad,Pcbnew,(5.0.2)-1*
G04 #@! TF.CreationDate,2019-03-22T12:40:45+11:00*
G04 #@! TF.ProjectId,VeinCamHatZero,5665696e-4361-46d4-9861-745a65726f2e,rev?*
G04 #@! TF.SameCoordinates,Original*
G04 #@! TF.FileFunction,Soldermask,Bot*
G04 #@! TF.FilePolarity,Negative*
%FSLAX46Y46*%
G04 Gerber Fmt 4.6, Leading zero omitted, Abs format (unit mm)*
G04 Created by KiCad (PCBNEW (5.0.2)-1) date 22/03/2019 12:40:45*
%MOMM*%
%LPD*%
G01*
G04 APERTURE LIST*
%ADD10C,0.150000*%
G04 APERTURE END LIST*
D10*
G36*
X266893779Y-90201879D02*
X267139466Y-90303646D01*
X267360576Y-90451387D01*
X267548613Y-90639424D01*
X267696354Y-90860534D01*
X267798121Y-91106221D01*
X267850000Y-91367035D01*
X267850000Y-91632965D01*
X267798121Y-91893779D01*
X267696354Y-92139466D01*
X267548613Y-92360576D01*
X267360576Y-92548613D01*
X267139466Y-92696354D01*
X266893779Y-92798121D01*
X266632965Y-92850000D01*
X266367035Y-92850000D01*
X266106221Y-92798121D01*
X265860534Y-92696354D01*
X265639424Y-92548613D01*
X265451387Y-92360576D01*
X265303646Y-92139466D01*
X265201879Y-91893779D01*
X265150000Y-91632965D01*
X265150000Y-91367035D01*
X265201879Y-91106221D01*
X265303646Y-90860534D01*
X265451387Y-90639424D01*
X265639424Y-90451387D01*
X265860534Y-90303646D01*
X266106221Y-90201879D01*
X266367035Y-90150000D01*
X266632965Y-90150000D01*
X266893779Y-90201879D01*
X266893779Y-90201879D01*
G37*
G36*
X208893779Y-90201879D02*
X209139466Y-90303646D01*
X209360576Y-90451387D01*
X209548613Y-90639424D01*
X209696354Y-90860534D01*
X209798121Y-91106221D01*
X209850000Y-91367035D01*
X209850000Y-91632965D01*
X209798121Y-91893779D01*
X209696354Y-92139466D01*
X209548613Y-92360576D01*
X209360576Y-92548613D01*
X209139466Y-92696354D01*
X208893779Y-92798121D01*
X208632965Y-92850000D01*
X208367035Y-92850000D01*
X208106221Y-92798121D01*
X207860534Y-92696354D01*
X207639424Y-92548613D01*
X207451387Y-92360576D01*
X207303646Y-92139466D01*
X207201879Y-91893779D01*
X207150000Y-91632965D01*
X207150000Y-91367035D01*
X207201879Y-91106221D01*
X207303646Y-90860534D01*
X207451387Y-90639424D01*
X207639424Y-90451387D01*
X207860534Y-90303646D01*
X208106221Y-90201879D01*
X208367035Y-90150000D01*
X208632965Y-90150000D01*
X208893779Y-90201879D01*
X208893779Y-90201879D01*
G37*
G36*
X261796629Y-68932299D02*
X261919563Y-68969591D01*
X261956855Y-68980903D01*
X262010712Y-69009691D01*
X262104517Y-69059830D01*
X262233948Y-69166052D01*
X262340170Y-69295483D01*
X262390309Y-69389288D01*
X262419097Y-69443145D01*
X262419097Y-69443146D01*
X262467701Y-69603371D01*
X262484112Y-69770000D01*
X262467701Y-69936629D01*
X262430409Y-70059563D01*
X262419097Y-70096855D01*
X262390309Y-70150712D01*
X262340170Y-70244517D01*
X262233948Y-70373948D01*
X262104517Y-70480170D01*
X262010712Y-70530309D01*
X261956855Y-70559097D01*
X261919563Y-70570409D01*
X261796629Y-70607701D01*
X261671753Y-70620000D01*
X261588247Y-70620000D01*
X261463371Y-70607701D01*
X261340437Y-70570409D01*
X261303145Y-70559097D01*
X261249288Y-70530309D01*
X261155483Y-70480170D01*
X261026052Y-70373948D01*
X260919830Y-70244517D01*
X260869691Y-70150712D01*
X260840903Y-70096855D01*
X260829591Y-70059563D01*
X260792299Y-69936629D01*
X260775888Y-69770000D01*
X260792299Y-69603371D01*
X260840903Y-69443146D01*
X260840903Y-69443145D01*
X260869691Y-69389288D01*
X260919830Y-69295483D01*
X261026052Y-69166052D01*
X261155483Y-69059830D01*
X261249288Y-69009691D01*
X261303145Y-68980903D01*
X261340437Y-68969591D01*
X261463371Y-68932299D01*
X261588247Y-68920000D01*
X261671753Y-68920000D01*
X261796629Y-68932299D01*
X261796629Y-68932299D01*
G37*
G36*
X259256629Y-68932299D02*
X259379563Y-68969591D01*
X259416855Y-68980903D01*
X259470712Y-69009691D01*
X259564517Y-69059830D01*
X259693948Y-69166052D01*
X259800170Y-69295483D01*
X259850309Y-69389288D01*
X259879097Y-69443145D01*
X259879097Y-69443146D01*
X259927701Y-69603371D01*
X259944112Y-69770000D01*
X259927701Y-69936629D01*
X259890409Y-70059563D01*
X259879097Y-70096855D01*
X259850309Y-70150712D01*
X259800170Y-70244517D01*
X259693948Y-70373948D01*
X259564517Y-70480170D01*
X259470712Y-70530309D01*
X259416855Y-70559097D01*
X259379563Y-70570409D01*
X259256629Y-70607701D01*
X259131753Y-70620000D01*
X259048247Y-70620000D01*
X258923371Y-70607701D01*
X258800437Y-70570409D01*
X258763145Y-70559097D01*
X258709288Y-70530309D01*
X258615483Y-70480170D01*
X258486052Y-70373948D01*
X258379830Y-70244517D01*
X258329691Y-70150712D01*
X258300903Y-70096855D01*
X258289591Y-70059563D01*
X258252299Y-69936629D01*
X258235888Y-69770000D01*
X258252299Y-69603371D01*
X258300903Y-69443146D01*
X258300903Y-69443145D01*
X258329691Y-69389288D01*
X258379830Y-69295483D01*
X258486052Y-69166052D01*
X258615483Y-69059830D01*
X258709288Y-69009691D01*
X258763145Y-68980903D01*
X258800437Y-68969591D01*
X258923371Y-68932299D01*
X259048247Y-68920000D01*
X259131753Y-68920000D01*
X259256629Y-68932299D01*
X259256629Y-68932299D01*
G37*
G36*
X256716629Y-68932299D02*
X256839563Y-68969591D01*
X256876855Y-68980903D01*
X256930712Y-69009691D01*
X257024517Y-69059830D01*
X257153948Y-69166052D01*
X257260170Y-69295483D01*
X257310309Y-69389288D01*
X257339097Y-69443145D01*
X257339097Y-69443146D01*
X257387701Y-69603371D01*
X257404112Y-69770000D01*
X257387701Y-69936629D01*
X257350409Y-70059563D01*
X257339097Y-70096855D01*
X257310309Y-70150712D01*
X257260170Y-70244517D01*
X257153948Y-70373948D01*
X257024517Y-70480170D01*
X256930712Y-70530309D01*
X256876855Y-70559097D01*
X256839563Y-70570409D01*
X256716629Y-70607701D01*
X256591753Y-70620000D01*
X256508247Y-70620000D01*
X256383371Y-70607701D01*
X256260437Y-70570409D01*
X256223145Y-70559097D01*
X256169288Y-70530309D01*
X256075483Y-70480170D01*
X255946052Y-70373948D01*
X255839830Y-70244517D01*
X255789691Y-70150712D01*
X255760903Y-70096855D01*
X255749591Y-70059563D01*
X255712299Y-69936629D01*
X255695888Y-69770000D01*
X255712299Y-69603371D01*
X255760903Y-69443146D01*
X255760903Y-69443145D01*
X255789691Y-69389288D01*
X255839830Y-69295483D01*
X255946052Y-69166052D01*
X256075483Y-69059830D01*
X256169288Y-69009691D01*
X256223145Y-68980903D01*
X256260437Y-68969591D01*
X256383371Y-68932299D01*
X256508247Y-68920000D01*
X256591753Y-68920000D01*
X256716629Y-68932299D01*
X256716629Y-68932299D01*
G37*
G36*
X254176629Y-68932299D02*
X254299563Y-68969591D01*
X254336855Y-68980903D01*
X254390712Y-69009691D01*
X254484517Y-69059830D01*
X254613948Y-69166052D01*
X254720170Y-69295483D01*
X254770309Y-69389288D01*
X254799097Y-69443145D01*
X254799097Y-69443146D01*
X254847701Y-69603371D01*
X254864112Y-69770000D01*
X254847701Y-69936629D01*
X254810409Y-70059563D01*
X254799097Y-70096855D01*
X254770309Y-70150712D01*
X254720170Y-70244517D01*
X254613948Y-70373948D01*
X254484517Y-70480170D01*
X254390712Y-70530309D01*
X254336855Y-70559097D01*
X254299563Y-70570409D01*
X254176629Y-70607701D01*
X254051753Y-70620000D01*
X253968247Y-70620000D01*
X253843371Y-70607701D01*
X253720437Y-70570409D01*
X253683145Y-70559097D01*
X253629288Y-70530309D01*
X253535483Y-70480170D01*
X253406052Y-70373948D01*
X253299830Y-70244517D01*
X253249691Y-70150712D01*
X253220903Y-70096855D01*
X253209591Y-70059563D01*
X253172299Y-69936629D01*
X253155888Y-69770000D01*
X253172299Y-69603371D01*
X253220903Y-69443146D01*
X253220903Y-69443145D01*
X253249691Y-69389288D01*
X253299830Y-69295483D01*
X253406052Y-69166052D01*
X253535483Y-69059830D01*
X253629288Y-69009691D01*
X253683145Y-68980903D01*
X253720437Y-68969591D01*
X253843371Y-68932299D01*
X253968247Y-68920000D01*
X254051753Y-68920000D01*
X254176629Y-68932299D01*
X254176629Y-68932299D01*
G37*
G36*
X236396629Y-68932299D02*
X236519563Y-68969591D01*
X236556855Y-68980903D01*
X236610712Y-69009691D01*
X236704517Y-69059830D01*
X236833948Y-69166052D01*
X236940170Y-69295483D01*
X236990309Y-69389288D01*
X237019097Y-69443145D01*
X237019097Y-69443146D01*
X237067701Y-69603371D01*
X237084112Y-69770000D01*
X237067701Y-69936629D01*
X237030409Y-70059563D01*
X237019097Y-70096855D01*
X236990309Y-70150712D01*
X236940170Y-70244517D01*
X236833948Y-70373948D01*
X236704517Y-70480170D01*
X236610712Y-70530309D01*
X236556855Y-70559097D01*
X236519563Y-70570409D01*
X236396629Y-70607701D01*
X236271753Y-70620000D01*
X236188247Y-70620000D01*
X236063371Y-70607701D01*
X235940437Y-70570409D01*
X235903145Y-70559097D01*
X235849288Y-70530309D01*
X235755483Y-70480170D01*
X235626052Y-70373948D01*
X235519830Y-70244517D01*
X235469691Y-70150712D01*
X235440903Y-70096855D01*
X235429591Y-70059563D01*
X235392299Y-69936629D01*
X235375888Y-69770000D01*
X235392299Y-69603371D01*
X235440903Y-69443146D01*
X235440903Y-69443145D01*
X235469691Y-69389288D01*
X235519830Y-69295483D01*
X235626052Y-69166052D01*
X235755483Y-69059830D01*
X235849288Y-69009691D01*
X235903145Y-68980903D01*
X235940437Y-68969591D01*
X236063371Y-68932299D01*
X236188247Y-68920000D01*
X236271753Y-68920000D01*
X236396629Y-68932299D01*
X236396629Y-68932299D01*
G37*
G36*
X233856629Y-68932299D02*
X233979563Y-68969591D01*
X234016855Y-68980903D01*
X234070712Y-69009691D01*
X234164517Y-69059830D01*
X234293948Y-69166052D01*
X234400170Y-69295483D01*
X234450309Y-69389288D01*
X234479097Y-69443145D01*
X234479097Y-69443146D01*
X234527701Y-69603371D01*
X234544112Y-69770000D01*
X234527701Y-69936629D01*
X234490409Y-70059563D01*
X234479097Y-70096855D01*
X234450309Y-70150712D01*
X234400170Y-70244517D01*
X234293948Y-70373948D01*
X234164517Y-70480170D01*
X234070712Y-70530309D01*
X234016855Y-70559097D01*
X233979563Y-70570409D01*
X233856629Y-70607701D01*
X233731753Y-70620000D01*
X233648247Y-70620000D01*
X233523371Y-70607701D01*
X233400437Y-70570409D01*
X233363145Y-70559097D01*
X233309288Y-70530309D01*
X233215483Y-70480170D01*
X233086052Y-70373948D01*
X232979830Y-70244517D01*
X232929691Y-70150712D01*
X232900903Y-70096855D01*
X232889591Y-70059563D01*
X232852299Y-69936629D01*
X232835888Y-69770000D01*
X232852299Y-69603371D01*
X232900903Y-69443146D01*
X232900903Y-69443145D01*
X232929691Y-69389288D01*
X232979830Y-69295483D01*
X233086052Y-69166052D01*
X233215483Y-69059830D01*
X233309288Y-69009691D01*
X233363145Y-68980903D01*
X233400437Y-68969591D01*
X233523371Y-68932299D01*
X233648247Y-68920000D01*
X233731753Y-68920000D01*
X233856629Y-68932299D01*
X233856629Y-68932299D01*
G37*
G36*
X231316629Y-68932299D02*
X231439563Y-68969591D01*
X231476855Y-68980903D01*
X231530712Y-69009691D01*
X231624517Y-69059830D01*
X231753948Y-69166052D01*
X231860170Y-69295483D01*
X231910309Y-69389288D01*
X231939097Y-69443145D01*
X231939097Y-69443146D01*
X231987701Y-69603371D01*
X232004112Y-69770000D01*
X231987701Y-69936629D01*
X231950409Y-70059563D01*
X231939097Y-70096855D01*
X231910309Y-70150712D01*
X231860170Y-70244517D01*
X231753948Y-70373948D01*
X231624517Y-70480170D01*
X231530712Y-70530309D01*
X231476855Y-70559097D01*
X231439563Y-70570409D01*
X231316629Y-70607701D01*
X231191753Y-70620000D01*
X231108247Y-70620000D01*
X230983371Y-70607701D01*
X230860437Y-70570409D01*
X230823145Y-70559097D01*
X230769288Y-70530309D01*
X230675483Y-70480170D01*
X230546052Y-70373948D01*
X230439830Y-70244517D01*
X230389691Y-70150712D01*
X230360903Y-70096855D01*
X230349591Y-70059563D01*
X230312299Y-69936629D01*
X230295888Y-69770000D01*
X230312299Y-69603371D01*
X230360903Y-69443146D01*
X230360903Y-69443145D01*
X230389691Y-69389288D01*
X230439830Y-69295483D01*
X230546052Y-69166052D01*
X230675483Y-69059830D01*
X230769288Y-69009691D01*
X230823145Y-68980903D01*
X230860437Y-68969591D01*
X230983371Y-68932299D01*
X231108247Y-68920000D01*
X231191753Y-68920000D01*
X231316629Y-68932299D01*
X231316629Y-68932299D01*
G37*
G36*
X228776629Y-68932299D02*
X228899563Y-68969591D01*
X228936855Y-68980903D01*
X228990712Y-69009691D01*
X229084517Y-69059830D01*
X229213948Y-69166052D01*
X229320170Y-69295483D01*
X229370309Y-69389288D01*
X229399097Y-69443145D01*
X229399097Y-69443146D01*
X229447701Y-69603371D01*
X229464112Y-69770000D01*
X229447701Y-69936629D01*
X229410409Y-70059563D01*
X229399097Y-70096855D01*
X229370309Y-70150712D01*
X229320170Y-70244517D01*
X229213948Y-70373948D01*
X229084517Y-70480170D01*
X228990712Y-70530309D01*
X228936855Y-70559097D01*
X228899563Y-70570409D01*
X228776629Y-70607701D01*
X228651753Y-70620000D01*
X228568247Y-70620000D01*
X228443371Y-70607701D01*
X228320437Y-70570409D01*
X228283145Y-70559097D01*
X228229288Y-70530309D01*
X228135483Y-70480170D01*
X228006052Y-70373948D01*
X227899830Y-70244517D01*
X227849691Y-70150712D01*
X227820903Y-70096855D01*
X227809591Y-70059563D01*
X227772299Y-69936629D01*
X227755888Y-69770000D01*
X227772299Y-69603371D01*
X227820903Y-69443146D01*
X227820903Y-69443145D01*
X227849691Y-69389288D01*
X227899830Y-69295483D01*
X228006052Y-69166052D01*
X228135483Y-69059830D01*
X228229288Y-69009691D01*
X228283145Y-68980903D01*
X228320437Y-68969591D01*
X228443371Y-68932299D01*
X228568247Y-68920000D01*
X228651753Y-68920000D01*
X228776629Y-68932299D01*
X228776629Y-68932299D01*
G37*
G36*
X226236629Y-68932299D02*
X226359563Y-68969591D01*
X226396855Y-68980903D01*
X226450712Y-69009691D01*
X226544517Y-69059830D01*
X226673948Y-69166052D01*
X226780170Y-69295483D01*
X226830309Y-69389288D01*
X226859097Y-69443145D01*
X226859097Y-69443146D01*
X226907701Y-69603371D01*
X226924112Y-69770000D01*
X226907701Y-69936629D01*
X226870409Y-70059563D01*
X226859097Y-70096855D01*
X226830309Y-70150712D01*
X226780170Y-70244517D01*
X226673948Y-70373948D01*
X226544517Y-70480170D01*
X226450712Y-70530309D01*
X226396855Y-70559097D01*
X226359563Y-70570409D01*
X226236629Y-70607701D01*
X226111753Y-70620000D01*
X226028247Y-70620000D01*
X225903371Y-70607701D01*
X225780437Y-70570409D01*
X225743145Y-70559097D01*
X225689288Y-70530309D01*
X225595483Y-70480170D01*
X225466052Y-70373948D01*
X225359830Y-70244517D01*
X225309691Y-70150712D01*
X225280903Y-70096855D01*
X225269591Y-70059563D01*
X225232299Y-69936629D01*
X225215888Y-69770000D01*
X225232299Y-69603371D01*
X225280903Y-69443146D01*
X225280903Y-69443145D01*
X225309691Y-69389288D01*
X225359830Y-69295483D01*
X225466052Y-69166052D01*
X225595483Y-69059830D01*
X225689288Y-69009691D01*
X225743145Y-68980903D01*
X225780437Y-68969591D01*
X225903371Y-68932299D01*
X226028247Y-68920000D01*
X226111753Y-68920000D01*
X226236629Y-68932299D01*
X226236629Y-68932299D01*
G37*
G36*
X223696629Y-68932299D02*
X223819563Y-68969591D01*
X223856855Y-68980903D01*
X223910712Y-69009691D01*
X224004517Y-69059830D01*
X224133948Y-69166052D01*
X224240170Y-69295483D01*
X224290309Y-69389288D01*
X224319097Y-69443145D01*
X224319097Y-69443146D01*
X224367701Y-69603371D01*
X224384112Y-69770000D01*
X224367701Y-69936629D01*
X224330409Y-70059563D01*
X224319097Y-70096855D01*
X224290309Y-70150712D01*
X224240170Y-70244517D01*
X224133948Y-70373948D01*
X224004517Y-70480170D01*
X223910712Y-70530309D01*
X223856855Y-70559097D01*
X223819563Y-70570409D01*
X223696629Y-70607701D01*
X223571753Y-70620000D01*
X223488247Y-70620000D01*
X223363371Y-70607701D01*
X223240437Y-70570409D01*
X223203145Y-70559097D01*
X223149288Y-70530309D01*
X223055483Y-70480170D01*
X222926052Y-70373948D01*
X222819830Y-70244517D01*
X222769691Y-70150712D01*
X222740903Y-70096855D01*
X222729591Y-70059563D01*
X222692299Y-69936629D01*
X222675888Y-69770000D01*
X222692299Y-69603371D01*
X222740903Y-69443146D01*
X222740903Y-69443145D01*
X222769691Y-69389288D01*
X222819830Y-69295483D01*
X222926052Y-69166052D01*
X223055483Y-69059830D01*
X223149288Y-69009691D01*
X223203145Y-68980903D01*
X223240437Y-68969591D01*
X223363371Y-68932299D01*
X223488247Y-68920000D01*
X223571753Y-68920000D01*
X223696629Y-68932299D01*
X223696629Y-68932299D01*
G37*
G36*
X221156629Y-68932299D02*
X221279563Y-68969591D01*
X221316855Y-68980903D01*
X221370712Y-69009691D01*
X221464517Y-69059830D01*
X221593948Y-69166052D01*
X221700170Y-69295483D01*
X221750309Y-69389288D01*
X221779097Y-69443145D01*
X221779097Y-69443146D01*
X221827701Y-69603371D01*
X221844112Y-69770000D01*
X221827701Y-69936629D01*
X221790409Y-70059563D01*
X221779097Y-70096855D01*
X221750309Y-70150712D01*
X221700170Y-70244517D01*
X221593948Y-70373948D01*
X221464517Y-70480170D01*
X221370712Y-70530309D01*
X221316855Y-70559097D01*
X221279563Y-70570409D01*
X221156629Y-70607701D01*
X221031753Y-70620000D01*
X220948247Y-70620000D01*
X220823371Y-70607701D01*
X220700437Y-70570409D01*
X220663145Y-70559097D01*
X220609288Y-70530309D01*
X220515483Y-70480170D01*
X220386052Y-70373948D01*
X220279830Y-70244517D01*
X220229691Y-70150712D01*
X220200903Y-70096855D01*
X220189591Y-70059563D01*
X220152299Y-69936629D01*
X220135888Y-69770000D01*
X220152299Y-69603371D01*
X220200903Y-69443146D01*
X220200903Y-69443145D01*
X220229691Y-69389288D01*
X220279830Y-69295483D01*
X220386052Y-69166052D01*
X220515483Y-69059830D01*
X220609288Y-69009691D01*
X220663145Y-68980903D01*
X220700437Y-68969591D01*
X220823371Y-68932299D01*
X220948247Y-68920000D01*
X221031753Y-68920000D01*
X221156629Y-68932299D01*
X221156629Y-68932299D01*
G37*
G36*
X218616629Y-68932299D02*
X218739563Y-68969591D01*
X218776855Y-68980903D01*
X218830712Y-69009691D01*
X218924517Y-69059830D01*
X219053948Y-69166052D01*
X219160170Y-69295483D01*
X219210309Y-69389288D01*
X219239097Y-69443145D01*
X219239097Y-69443146D01*
X219287701Y-69603371D01*
X219304112Y-69770000D01*
X219287701Y-69936629D01*
X219250409Y-70059563D01*
X219239097Y-70096855D01*
X219210309Y-70150712D01*
X219160170Y-70244517D01*
X219053948Y-70373948D01*
X218924517Y-70480170D01*
X218830712Y-70530309D01*
X218776855Y-70559097D01*
X218739563Y-70570409D01*
X218616629Y-70607701D01*
X218491753Y-70620000D01*
X218408247Y-70620000D01*
X218283371Y-70607701D01*
X218160437Y-70570409D01*
X218123145Y-70559097D01*
X218069288Y-70530309D01*
X217975483Y-70480170D01*
X217846052Y-70373948D01*
X217739830Y-70244517D01*
X217689691Y-70150712D01*
X217660903Y-70096855D01*
X217649591Y-70059563D01*
X217612299Y-69936629D01*
X217595888Y-69770000D01*
X217612299Y-69603371D01*
X217660903Y-69443146D01*
X217660903Y-69443145D01*
X217689691Y-69389288D01*
X217739830Y-69295483D01*
X217846052Y-69166052D01*
X217975483Y-69059830D01*
X218069288Y-69009691D01*
X218123145Y-68980903D01*
X218160437Y-68969591D01*
X218283371Y-68932299D01*
X218408247Y-68920000D01*
X218491753Y-68920000D01*
X218616629Y-68932299D01*
X218616629Y-68932299D01*
G37*
G36*
X216076629Y-68932299D02*
X216199563Y-68969591D01*
X216236855Y-68980903D01*
X216290712Y-69009691D01*
X216384517Y-69059830D01*
X216513948Y-69166052D01*
X216620170Y-69295483D01*
X216670309Y-69389288D01*
X216699097Y-69443145D01*
X216699097Y-69443146D01*
X216747701Y-69603371D01*
X216764112Y-69770000D01*
X216747701Y-69936629D01*
X216710409Y-70059563D01*
X216699097Y-70096855D01*
X216670309Y-70150712D01*
X216620170Y-70244517D01*
X216513948Y-70373948D01*
X216384517Y-70480170D01*
X216290712Y-70530309D01*
X216236855Y-70559097D01*
X216199563Y-70570409D01*
X216076629Y-70607701D01*
X215951753Y-70620000D01*
X215868247Y-70620000D01*
X215743371Y-70607701D01*
X215620437Y-70570409D01*
X215583145Y-70559097D01*
X215529288Y-70530309D01*
X215435483Y-70480170D01*
X215306052Y-70373948D01*
X215199830Y-70244517D01*
X215149691Y-70150712D01*
X215120903Y-70096855D01*
X215109591Y-70059563D01*
X215072299Y-69936629D01*
X215055888Y-69770000D01*
X215072299Y-69603371D01*
X215120903Y-69443146D01*
X215120903Y-69443145D01*
X215149691Y-69389288D01*
X215199830Y-69295483D01*
X215306052Y-69166052D01*
X215435483Y-69059830D01*
X215529288Y-69009691D01*
X215583145Y-68980903D01*
X215620437Y-68969591D01*
X215743371Y-68932299D01*
X215868247Y-68920000D01*
X215951753Y-68920000D01*
X216076629Y-68932299D01*
X216076629Y-68932299D01*
G37*
G36*
X214220000Y-70620000D02*
X212520000Y-70620000D01*
X212520000Y-68920000D01*
X214220000Y-68920000D01*
X214220000Y-70620000D01*
X214220000Y-70620000D01*
G37*
G36*
X266893779Y-67201879D02*
X267139466Y-67303646D01*
X267360576Y-67451387D01*
X267548613Y-67639424D01*
X267696354Y-67860534D01*
X267798121Y-68106221D01*
X267850000Y-68367035D01*
X267850000Y-68632965D01*
X267798121Y-68893779D01*
X267696354Y-69139466D01*
X267548613Y-69360576D01*
X267360576Y-69548613D01*
X267139466Y-69696354D01*
X266893779Y-69798121D01*
X266632965Y-69850000D01*
X266367035Y-69850000D01*
X266106221Y-69798121D01*
X265860534Y-69696354D01*
X265639424Y-69548613D01*
X265451387Y-69360576D01*
X265303646Y-69139466D01*
X265201879Y-68893779D01*
X265150000Y-68632965D01*
X265150000Y-68367035D01*
X265201879Y-68106221D01*
X265303646Y-67860534D01*
X265451387Y-67639424D01*
X265639424Y-67451387D01*
X265860534Y-67303646D01*
X266106221Y-67201879D01*
X266367035Y-67150000D01*
X266632965Y-67150000D01*
X266893779Y-67201879D01*
X266893779Y-67201879D01*
G37*
G36*
X208893779Y-67201879D02*
X209139466Y-67303646D01*
X209360576Y-67451387D01*
X209548613Y-67639424D01*
X209696354Y-67860534D01*
X209798121Y-68106221D01*
X209850000Y-68367035D01*
X209850000Y-68632965D01*
X209798121Y-68893779D01*
X209696354Y-69139466D01*
X209548613Y-69360576D01*
X209360576Y-69548613D01*
X209139466Y-69696354D01*
X208893779Y-69798121D01*
X208632965Y-69850000D01*
X208367035Y-69850000D01*
X208106221Y-69798121D01*
X207860534Y-69696354D01*
X207639424Y-69548613D01*
X207451387Y-69360576D01*
X207303646Y-69139466D01*
X207201879Y-68893779D01*
X207150000Y-68632965D01*
X207150000Y-68367035D01*
X207201879Y-68106221D01*
X207303646Y-67860534D01*
X207451387Y-67639424D01*
X207639424Y-67451387D01*
X207860534Y-67303646D01*
X208106221Y-67201879D01*
X208367035Y-67150000D01*
X208632965Y-67150000D01*
X208893779Y-67201879D01*
X208893779Y-67201879D01*
G37*
G36*
X233856629Y-66392299D02*
X233979563Y-66429591D01*
X234016855Y-66440903D01*
X234070712Y-66469691D01*
X234164517Y-66519830D01*
X234293948Y-66626052D01*
X234400170Y-66755483D01*
X234450309Y-66849288D01*
X234479097Y-66903145D01*
X234479097Y-66903146D01*
X234527701Y-67063371D01*
X234544112Y-67230000D01*
X234527701Y-67396629D01*
X234511090Y-67451387D01*
X234479097Y-67556855D01*
X234450309Y-67610712D01*
X234400170Y-67704517D01*
X234293948Y-67833948D01*
X234164517Y-67940170D01*
X234070712Y-67990309D01*
X234016855Y-68019097D01*
X233979563Y-68030409D01*
X233856629Y-68067701D01*
X233731753Y-68080000D01*
X233648247Y-68080000D01*
X233523371Y-68067701D01*
X233400437Y-68030409D01*
X233363145Y-68019097D01*
X233309288Y-67990309D01*
X233215483Y-67940170D01*
X233086052Y-67833948D01*
X232979830Y-67704517D01*
X232929691Y-67610712D01*
X232900903Y-67556855D01*
X232868910Y-67451387D01*
X232852299Y-67396629D01*
X232835888Y-67230000D01*
X232852299Y-67063371D01*
X232900903Y-66903146D01*
X232900903Y-66903145D01*
X232929691Y-66849288D01*
X232979830Y-66755483D01*
X233086052Y-66626052D01*
X233215483Y-66519830D01*
X233309288Y-66469691D01*
X233363145Y-66440903D01*
X233400437Y-66429591D01*
X233523371Y-66392299D01*
X233648247Y-66380000D01*
X233731753Y-66380000D01*
X233856629Y-66392299D01*
X233856629Y-66392299D01*
G37*
G36*
X236396629Y-66392299D02*
X236519563Y-66429591D01*
X236556855Y-66440903D01*
X236610712Y-66469691D01*
X236704517Y-66519830D01*
X236833948Y-66626052D01*
X236940170Y-66755483D01*
X236990309Y-66849288D01*
X237019097Y-66903145D01*
X237019097Y-66903146D01*
X237067701Y-67063371D01*
X237084112Y-67230000D01*
X237067701Y-67396629D01*
X237051090Y-67451387D01*
X237019097Y-67556855D01*
X236990309Y-67610712D01*
X236940170Y-67704517D01*
X236833948Y-67833948D01*
X236704517Y-67940170D01*
X236610712Y-67990309D01*
X236556855Y-68019097D01*
X236519563Y-68030409D01*
X236396629Y-68067701D01*
X236271753Y-68080000D01*
X236188247Y-68080000D01*
X236063371Y-68067701D01*
X235940437Y-68030409D01*
X235903145Y-68019097D01*
X235849288Y-67990309D01*
X235755483Y-67940170D01*
X235626052Y-67833948D01*
X235519830Y-67704517D01*
X235469691Y-67610712D01*
X235440903Y-67556855D01*
X235408910Y-67451387D01*
X235392299Y-67396629D01*
X235375888Y-67230000D01*
X235392299Y-67063371D01*
X235440903Y-66903146D01*
X235440903Y-66903145D01*
X235469691Y-66849288D01*
X235519830Y-66755483D01*
X235626052Y-66626052D01*
X235755483Y-66519830D01*
X235849288Y-66469691D01*
X235903145Y-66440903D01*
X235940437Y-66429591D01*
X236063371Y-66392299D01*
X236188247Y-66380000D01*
X236271753Y-66380000D01*
X236396629Y-66392299D01*
X236396629Y-66392299D01*
G37*
G36*
X254176629Y-66392299D02*
X254299563Y-66429591D01*
X254336855Y-66440903D01*
X254390712Y-66469691D01*
X254484517Y-66519830D01*
X254613948Y-66626052D01*
X254720170Y-66755483D01*
X254770309Y-66849288D01*
X254799097Y-66903145D01*
X254799097Y-66903146D01*
X254847701Y-67063371D01*
X254864112Y-67230000D01*
X254847701Y-67396629D01*
X254831090Y-67451387D01*
X254799097Y-67556855D01*
X254770309Y-67610712D01*
X254720170Y-67704517D01*
X254613948Y-67833948D01*
X254484517Y-67940170D01*
X254390712Y-67990309D01*
X254336855Y-68019097D01*
X254299563Y-68030409D01*
X254176629Y-68067701D01*
X254051753Y-68080000D01*
X253968247Y-68080000D01*
X253843371Y-68067701D01*
X253720437Y-68030409D01*
X253683145Y-68019097D01*
X253629288Y-67990309D01*
X253535483Y-67940170D01*
X253406052Y-67833948D01*
X253299830Y-67704517D01*
X253249691Y-67610712D01*
X253220903Y-67556855D01*
X253188910Y-67451387D01*
X253172299Y-67396629D01*
X253155888Y-67230000D01*
X253172299Y-67063371D01*
X253220903Y-66903146D01*
X253220903Y-66903145D01*
X253249691Y-66849288D01*
X253299830Y-66755483D01*
X253406052Y-66626052D01*
X253535483Y-66519830D01*
X253629288Y-66469691D01*
X253683145Y-66440903D01*
X253720437Y-66429591D01*
X253843371Y-66392299D01*
X253968247Y-66380000D01*
X254051753Y-66380000D01*
X254176629Y-66392299D01*
X254176629Y-66392299D01*
G37*
G36*
X256716629Y-66392299D02*
X256839563Y-66429591D01*
X256876855Y-66440903D01*
X256930712Y-66469691D01*
X257024517Y-66519830D01*
X257153948Y-66626052D01*
X257260170Y-66755483D01*
X257310309Y-66849288D01*
X257339097Y-66903145D01*
X257339097Y-66903146D01*
X257387701Y-67063371D01*
X257404112Y-67230000D01*
X257387701Y-67396629D01*
X257371090Y-67451387D01*
X257339097Y-67556855D01*
X257310309Y-67610712D01*
X257260170Y-67704517D01*
X257153948Y-67833948D01*
X257024517Y-67940170D01*
X256930712Y-67990309D01*
X256876855Y-68019097D01*
X256839563Y-68030409D01*
X256716629Y-68067701D01*
X256591753Y-68080000D01*
X256508247Y-68080000D01*
X256383371Y-68067701D01*
X256260437Y-68030409D01*
X256223145Y-68019097D01*
X256169288Y-67990309D01*
X256075483Y-67940170D01*
X255946052Y-67833948D01*
X255839830Y-67704517D01*
X255789691Y-67610712D01*
X255760903Y-67556855D01*
X255728910Y-67451387D01*
X255712299Y-67396629D01*
X255695888Y-67230000D01*
X255712299Y-67063371D01*
X255760903Y-66903146D01*
X255760903Y-66903145D01*
X255789691Y-66849288D01*
X255839830Y-66755483D01*
X255946052Y-66626052D01*
X256075483Y-66519830D01*
X256169288Y-66469691D01*
X256223145Y-66440903D01*
X256260437Y-66429591D01*
X256383371Y-66392299D01*
X256508247Y-66380000D01*
X256591753Y-66380000D01*
X256716629Y-66392299D01*
X256716629Y-66392299D01*
G37*
G36*
X231316629Y-66392299D02*
X231439563Y-66429591D01*
X231476855Y-66440903D01*
X231530712Y-66469691D01*
X231624517Y-66519830D01*
X231753948Y-66626052D01*
X231860170Y-66755483D01*
X231910309Y-66849288D01*
X231939097Y-66903145D01*
X231939097Y-66903146D01*
X231987701Y-67063371D01*
X232004112Y-67230000D01*
X231987701Y-67396629D01*
X231971090Y-67451387D01*
X231939097Y-67556855D01*
X231910309Y-67610712D01*
X231860170Y-67704517D01*
X231753948Y-67833948D01*
X231624517Y-67940170D01*
X231530712Y-67990309D01*
X231476855Y-68019097D01*
X231439563Y-68030409D01*
X231316629Y-68067701D01*
X231191753Y-68080000D01*
X231108247Y-68080000D01*
X230983371Y-68067701D01*
X230860437Y-68030409D01*
X230823145Y-68019097D01*
X230769288Y-67990309D01*
X230675483Y-67940170D01*
X230546052Y-67833948D01*
X230439830Y-67704517D01*
X230389691Y-67610712D01*
X230360903Y-67556855D01*
X230328910Y-67451387D01*
X230312299Y-67396629D01*
X230295888Y-67230000D01*
X230312299Y-67063371D01*
X230360903Y-66903146D01*
X230360903Y-66903145D01*
X230389691Y-66849288D01*
X230439830Y-66755483D01*
X230546052Y-66626052D01*
X230675483Y-66519830D01*
X230769288Y-66469691D01*
X230823145Y-66440903D01*
X230860437Y-66429591D01*
X230983371Y-66392299D01*
X231108247Y-66380000D01*
X231191753Y-66380000D01*
X231316629Y-66392299D01*
X231316629Y-66392299D01*
G37*
G36*
X259256629Y-66392299D02*
X259379563Y-66429591D01*
X259416855Y-66440903D01*
X259470712Y-66469691D01*
X259564517Y-66519830D01*
X259693948Y-66626052D01*
X259800170Y-66755483D01*
X259850309Y-66849288D01*
X259879097Y-66903145D01*
X259879097Y-66903146D01*
X259927701Y-67063371D01*
X259944112Y-67230000D01*
X259927701Y-67396629D01*
X259911090Y-67451387D01*
X259879097Y-67556855D01*
X259850309Y-67610712D01*
X259800170Y-67704517D01*
X259693948Y-67833948D01*
X259564517Y-67940170D01*
X259470712Y-67990309D01*
X259416855Y-68019097D01*
X259379563Y-68030409D01*
X259256629Y-68067701D01*
X259131753Y-68080000D01*
X259048247Y-68080000D01*
X258923371Y-68067701D01*
X258800437Y-68030409D01*
X258763145Y-68019097D01*
X258709288Y-67990309D01*
X258615483Y-67940170D01*
X258486052Y-67833948D01*
X258379830Y-67704517D01*
X258329691Y-67610712D01*
X258300903Y-67556855D01*
X258268910Y-67451387D01*
X258252299Y-67396629D01*
X258235888Y-67230000D01*
X258252299Y-67063371D01*
X258300903Y-66903146D01*
X258300903Y-66903145D01*
X258329691Y-66849288D01*
X258379830Y-66755483D01*
X258486052Y-66626052D01*
X258615483Y-66519830D01*
X258709288Y-66469691D01*
X258763145Y-66440903D01*
X258800437Y-66429591D01*
X258923371Y-66392299D01*
X259048247Y-66380000D01*
X259131753Y-66380000D01*
X259256629Y-66392299D01*
X259256629Y-66392299D01*
G37*
G36*
X261796629Y-66392299D02*
X261919563Y-66429591D01*
X261956855Y-66440903D01*
X262010712Y-66469691D01*
X262104517Y-66519830D01*
X262233948Y-66626052D01*
X262340170Y-66755483D01*
X262390309Y-66849288D01*
X262419097Y-66903145D01*
X262419097Y-66903146D01*
X262467701Y-67063371D01*
X262484112Y-67230000D01*
X262467701Y-67396629D01*
X262451090Y-67451387D01*
X262419097Y-67556855D01*
X262390309Y-67610712D01*
X262340170Y-67704517D01*
X262233948Y-67833948D01*
X262104517Y-67940170D01*
X262010712Y-67990309D01*
X261956855Y-68019097D01*
X261919563Y-68030409D01*
X261796629Y-68067701D01*
X261671753Y-68080000D01*
X261588247Y-68080000D01*
X261463371Y-68067701D01*
X261340437Y-68030409D01*
X261303145Y-68019097D01*
X261249288Y-67990309D01*
X261155483Y-67940170D01*
X261026052Y-67833948D01*
X260919830Y-67704517D01*
X260869691Y-67610712D01*
X260840903Y-67556855D01*
X260808910Y-67451387D01*
X260792299Y-67396629D01*
X260775888Y-67230000D01*
X260792299Y-67063371D01*
X260840903Y-66903146D01*
X260840903Y-66903145D01*
X260869691Y-66849288D01*
X260919830Y-66755483D01*
X261026052Y-66626052D01*
X261155483Y-66519830D01*
X261249288Y-66469691D01*
X261303145Y-66440903D01*
X261340437Y-66429591D01*
X261463371Y-66392299D01*
X261588247Y-66380000D01*
X261671753Y-66380000D01*
X261796629Y-66392299D01*
X261796629Y-66392299D01*
G37*
G36*
X228776629Y-66392299D02*
X228899563Y-66429591D01*
X228936855Y-66440903D01*
X228990712Y-66469691D01*
X229084517Y-66519830D01*
X229213948Y-66626052D01*
X229320170Y-66755483D01*
X229370309Y-66849288D01*
X229399097Y-66903145D01*
X229399097Y-66903146D01*
X229447701Y-67063371D01*
X229464112Y-67230000D01*
X229447701Y-67396629D01*
X229431090Y-67451387D01*
X229399097Y-67556855D01*
X229370309Y-67610712D01*
X229320170Y-67704517D01*
X229213948Y-67833948D01*
X229084517Y-67940170D01*
X228990712Y-67990309D01*
X228936855Y-68019097D01*
X228899563Y-68030409D01*
X228776629Y-68067701D01*
X228651753Y-68080000D01*
X228568247Y-68080000D01*
X228443371Y-68067701D01*
X228320437Y-68030409D01*
X228283145Y-68019097D01*
X228229288Y-67990309D01*
X228135483Y-67940170D01*
X228006052Y-67833948D01*
X227899830Y-67704517D01*
X227849691Y-67610712D01*
X227820903Y-67556855D01*
X227788910Y-67451387D01*
X227772299Y-67396629D01*
X227755888Y-67230000D01*
X227772299Y-67063371D01*
X227820903Y-66903146D01*
X227820903Y-66903145D01*
X227849691Y-66849288D01*
X227899830Y-66755483D01*
X228006052Y-66626052D01*
X228135483Y-66519830D01*
X228229288Y-66469691D01*
X228283145Y-66440903D01*
X228320437Y-66429591D01*
X228443371Y-66392299D01*
X228568247Y-66380000D01*
X228651753Y-66380000D01*
X228776629Y-66392299D01*
X228776629Y-66392299D01*
G37*
G36*
X223696629Y-66392299D02*
X223819563Y-66429591D01*
X223856855Y-66440903D01*
X223910712Y-66469691D01*
X224004517Y-66519830D01*
X224133948Y-66626052D01*
X224240170Y-66755483D01*
X224290309Y-66849288D01*
X224319097Y-66903145D01*
X224319097Y-66903146D01*
X224367701Y-67063371D01*
X224384112Y-67230000D01*
X224367701Y-67396629D01*
X224351090Y-67451387D01*
X224319097Y-67556855D01*
X224290309Y-67610712D01*
X224240170Y-67704517D01*
X224133948Y-67833948D01*
X224004517Y-67940170D01*
X223910712Y-67990309D01*
X223856855Y-68019097D01*
X223819563Y-68030409D01*
X223696629Y-68067701D01*
X223571753Y-68080000D01*
X223488247Y-68080000D01*
X223363371Y-68067701D01*
X223240437Y-68030409D01*
X223203145Y-68019097D01*
X223149288Y-67990309D01*
X223055483Y-67940170D01*
X222926052Y-67833948D01*
X222819830Y-67704517D01*
X222769691Y-67610712D01*
X222740903Y-67556855D01*
X222708910Y-67451387D01*
X222692299Y-67396629D01*
X222675888Y-67230000D01*
X222692299Y-67063371D01*
X222740903Y-66903146D01*
X222740903Y-66903145D01*
X222769691Y-66849288D01*
X222819830Y-66755483D01*
X222926052Y-66626052D01*
X223055483Y-66519830D01*
X223149288Y-66469691D01*
X223203145Y-66440903D01*
X223240437Y-66429591D01*
X223363371Y-66392299D01*
X223488247Y-66380000D01*
X223571753Y-66380000D01*
X223696629Y-66392299D01*
X223696629Y-66392299D01*
G37*
G36*
X221156629Y-66392299D02*
X221279563Y-66429591D01*
X221316855Y-66440903D01*
X221370712Y-66469691D01*
X221464517Y-66519830D01*
X221593948Y-66626052D01*
X221700170Y-66755483D01*
X221750309Y-66849288D01*
X221779097Y-66903145D01*
X221779097Y-66903146D01*
X221827701Y-67063371D01*
X221844112Y-67230000D01*
X221827701Y-67396629D01*
X221811090Y-67451387D01*
X221779097Y-67556855D01*
X221750309Y-67610712D01*
X221700170Y-67704517D01*
X221593948Y-67833948D01*
X221464517Y-67940170D01*
X221370712Y-67990309D01*
X221316855Y-68019097D01*
X221279563Y-68030409D01*
X221156629Y-68067701D01*
X221031753Y-68080000D01*
X220948247Y-68080000D01*
X220823371Y-68067701D01*
X220700437Y-68030409D01*
X220663145Y-68019097D01*
X220609288Y-67990309D01*
X220515483Y-67940170D01*
X220386052Y-67833948D01*
X220279830Y-67704517D01*
X220229691Y-67610712D01*
X220200903Y-67556855D01*
X220168910Y-67451387D01*
X220152299Y-67396629D01*
X220135888Y-67230000D01*
X220152299Y-67063371D01*
X220200903Y-66903146D01*
X220200903Y-66903145D01*
X220229691Y-66849288D01*
X220279830Y-66755483D01*
X220386052Y-66626052D01*
X220515483Y-66519830D01*
X220609288Y-66469691D01*
X220663145Y-66440903D01*
X220700437Y-66429591D01*
X220823371Y-66392299D01*
X220948247Y-66380000D01*
X221031753Y-66380000D01*
X221156629Y-66392299D01*
X221156629Y-66392299D01*
G37*
G36*
X226236629Y-66392299D02*
X226359563Y-66429591D01*
X226396855Y-66440903D01*
X226450712Y-66469691D01*
X226544517Y-66519830D01*
X226673948Y-66626052D01*
X226780170Y-66755483D01*
X226830309Y-66849288D01*
X226859097Y-66903145D01*
X226859097Y-66903146D01*
X226907701Y-67063371D01*
X226924112Y-67230000D01*
X226907701Y-67396629D01*
X226891090Y-67451387D01*
X226859097Y-67556855D01*
X226830309Y-67610712D01*
X226780170Y-67704517D01*
X226673948Y-67833948D01*
X226544517Y-67940170D01*
X226450712Y-67990309D01*
X226396855Y-68019097D01*
X226359563Y-68030409D01*
X226236629Y-68067701D01*
X226111753Y-68080000D01*
X226028247Y-68080000D01*
X225903371Y-68067701D01*
X225780437Y-68030409D01*
X225743145Y-68019097D01*
X225689288Y-67990309D01*
X225595483Y-67940170D01*
X225466052Y-67833948D01*
X225359830Y-67704517D01*
X225309691Y-67610712D01*
X225280903Y-67556855D01*
X225248910Y-67451387D01*
X225232299Y-67396629D01*
X225215888Y-67230000D01*
X225232299Y-67063371D01*
X225280903Y-66903146D01*
X225280903Y-66903145D01*
X225309691Y-66849288D01*
X225359830Y-66755483D01*
X225466052Y-66626052D01*
X225595483Y-66519830D01*
X225689288Y-66469691D01*
X225743145Y-66440903D01*
X225780437Y-66429591D01*
X225903371Y-66392299D01*
X226028247Y-66380000D01*
X226111753Y-66380000D01*
X226236629Y-66392299D01*
X226236629Y-66392299D01*
G37*
G36*
X218616629Y-66392299D02*
X218739563Y-66429591D01*
X218776855Y-66440903D01*
X218830712Y-66469691D01*
X218924517Y-66519830D01*
X219053948Y-66626052D01*
X219160170Y-66755483D01*
X219210309Y-66849288D01*
X219239097Y-66903145D01*
X219239097Y-66903146D01*
X219287701Y-67063371D01*
X219304112Y-67230000D01*
X219287701Y-67396629D01*
X219271090Y-67451387D01*
X219239097Y-67556855D01*
X219210309Y-67610712D01*
X219160170Y-67704517D01*
X219053948Y-67833948D01*
X218924517Y-67940170D01*
X218830712Y-67990309D01*
X218776855Y-68019097D01*
X218739563Y-68030409D01*
X218616629Y-68067701D01*
X218491753Y-68080000D01*
X218408247Y-68080000D01*
X218283371Y-68067701D01*
X218160437Y-68030409D01*
X218123145Y-68019097D01*
X218069288Y-67990309D01*
X217975483Y-67940170D01*
X217846052Y-67833948D01*
X217739830Y-67704517D01*
X217689691Y-67610712D01*
X217660903Y-67556855D01*
X217628910Y-67451387D01*
X217612299Y-67396629D01*
X217595888Y-67230000D01*
X217612299Y-67063371D01*
X217660903Y-66903146D01*
X217660903Y-66903145D01*
X217689691Y-66849288D01*
X217739830Y-66755483D01*
X217846052Y-66626052D01*
X217975483Y-66519830D01*
X218069288Y-66469691D01*
X218123145Y-66440903D01*
X218160437Y-66429591D01*
X218283371Y-66392299D01*
X218408247Y-66380000D01*
X218491753Y-66380000D01*
X218616629Y-66392299D01*
X218616629Y-66392299D01*
G37*
G36*
X216076629Y-66392299D02*
X216199563Y-66429591D01*
X216236855Y-66440903D01*
X216290712Y-66469691D01*
X216384517Y-66519830D01*
X216513948Y-66626052D01*
X216620170Y-66755483D01*
X216670309Y-66849288D01*
X216699097Y-66903145D01*
X216699097Y-66903146D01*
X216747701Y-67063371D01*
X216764112Y-67230000D01*
X216747701Y-67396629D01*
X216731090Y-67451387D01*
X216699097Y-67556855D01*
X216670309Y-67610712D01*
X216620170Y-67704517D01*
X216513948Y-67833948D01*
X216384517Y-67940170D01*
X216290712Y-67990309D01*
X216236855Y-68019097D01*
X216199563Y-68030409D01*
X216076629Y-68067701D01*
X215951753Y-68080000D01*
X215868247Y-68080000D01*
X215743371Y-68067701D01*
X215620437Y-68030409D01*
X215583145Y-68019097D01*
X215529288Y-67990309D01*
X215435483Y-67940170D01*
X215306052Y-67833948D01*
X215199830Y-67704517D01*
X215149691Y-67610712D01*
X215120903Y-67556855D01*
X215088910Y-67451387D01*
X215072299Y-67396629D01*
X215055888Y-67230000D01*
X215072299Y-67063371D01*
X215120903Y-66903146D01*
X215120903Y-66903145D01*
X215149691Y-66849288D01*
X215199830Y-66755483D01*
X215306052Y-66626052D01*
X215435483Y-66519830D01*
X215529288Y-66469691D01*
X215583145Y-66440903D01*
X215620437Y-66429591D01*
X215743371Y-66392299D01*
X215868247Y-66380000D01*
X215951753Y-66380000D01*
X216076629Y-66392299D01*
X216076629Y-66392299D01*
G37*
G36*
X213536629Y-66392299D02*
X213659563Y-66429591D01*
X213696855Y-66440903D01*
X213750712Y-66469691D01*
X213844517Y-66519830D01*
X213973948Y-66626052D01*
X214080170Y-66755483D01*
X214130309Y-66849288D01*
X214159097Y-66903145D01*
X214159097Y-66903146D01*
X214207701Y-67063371D01*
X214224112Y-67230000D01*
X214207701Y-67396629D01*
X214191090Y-67451387D01*
X214159097Y-67556855D01*
X214130309Y-67610712D01*
X214080170Y-67704517D01*
X213973948Y-67833948D01*
X213844517Y-67940170D01*
X213750712Y-67990309D01*
X213696855Y-68019097D01*
X213659563Y-68030409D01*
X213536629Y-68067701D01*
X213411753Y-68080000D01*
X213328247Y-68080000D01*
X213203371Y-68067701D01*
X213080437Y-68030409D01*
X213043145Y-68019097D01*
X212989288Y-67990309D01*
X212895483Y-67940170D01*
X212766052Y-67833948D01*
X212659830Y-67704517D01*
X212609691Y-67610712D01*
X212580903Y-67556855D01*
X212548910Y-67451387D01*
X212532299Y-67396629D01*
X212515888Y-67230000D01*
X212532299Y-67063371D01*
X212580903Y-66903146D01*
X212580903Y-66903145D01*
X212609691Y-66849288D01*
X212659830Y-66755483D01*
X212766052Y-66626052D01*
X212895483Y-66519830D01*
X212989288Y-66469691D01*
X213043145Y-66440903D01*
X213080437Y-66429591D01*
X213203371Y-66392299D01*
X213328247Y-66380000D01*
X213411753Y-66380000D01*
X213536629Y-66392299D01*
X213536629Y-66392299D01*
G37*
M02*
