G04 #@! TF.GenerationSoftware,KiCad,Pcbnew,(5.0.2)-1*
G04 #@! TF.CreationDate,2019-03-22T12:40:45+11:00*
G04 #@! TF.ProjectId,VeinCamHatZero,5665696e-4361-46d4-9861-745a65726f2e,rev?*
G04 #@! TF.SameCoordinates,Original*
G04 #@! TF.FileFunction,Legend,Top*
G04 #@! TF.FilePolarity,Positive*
%FSLAX46Y46*%
G04 Gerber Fmt 4.6, Leading zero omitted, Abs format (unit mm)*
G04 Created by KiCad (PCBNEW (5.0.2)-1) date 22/03/2019 12:40:45*
%MOMM*%
%LPD*%
G01*
G04 APERTURE LIST*
%ADD10C,0.300000*%
%ADD11C,0.200000*%
%ADD12C,0.120000*%
%ADD13C,0.150000*%
G04 APERTURE END LIST*
D10*
X226692857Y-89478571D02*
X227192857Y-90978571D01*
X227692857Y-89478571D01*
X228764285Y-90907142D02*
X228621428Y-90978571D01*
X228335714Y-90978571D01*
X228192857Y-90907142D01*
X228121428Y-90764285D01*
X228121428Y-90192857D01*
X228192857Y-90050000D01*
X228335714Y-89978571D01*
X228621428Y-89978571D01*
X228764285Y-90050000D01*
X228835714Y-90192857D01*
X228835714Y-90335714D01*
X228121428Y-90478571D01*
X229478571Y-90978571D02*
X229478571Y-89978571D01*
X229478571Y-89478571D02*
X229407142Y-89550000D01*
X229478571Y-89621428D01*
X229550000Y-89550000D01*
X229478571Y-89478571D01*
X229478571Y-89621428D01*
X230192857Y-89978571D02*
X230192857Y-90978571D01*
X230192857Y-90121428D02*
X230264285Y-90050000D01*
X230407142Y-89978571D01*
X230621428Y-89978571D01*
X230764285Y-90050000D01*
X230835714Y-90192857D01*
X230835714Y-90978571D01*
X232407142Y-90835714D02*
X232335714Y-90907142D01*
X232121428Y-90978571D01*
X231978571Y-90978571D01*
X231764285Y-90907142D01*
X231621428Y-90764285D01*
X231550000Y-90621428D01*
X231478571Y-90335714D01*
X231478571Y-90121428D01*
X231550000Y-89835714D01*
X231621428Y-89692857D01*
X231764285Y-89550000D01*
X231978571Y-89478571D01*
X232121428Y-89478571D01*
X232335714Y-89550000D01*
X232407142Y-89621428D01*
X233692857Y-90978571D02*
X233692857Y-90192857D01*
X233621428Y-90050000D01*
X233478571Y-89978571D01*
X233192857Y-89978571D01*
X233050000Y-90050000D01*
X233692857Y-90907142D02*
X233550000Y-90978571D01*
X233192857Y-90978571D01*
X233050000Y-90907142D01*
X232978571Y-90764285D01*
X232978571Y-90621428D01*
X233050000Y-90478571D01*
X233192857Y-90407142D01*
X233550000Y-90407142D01*
X233692857Y-90335714D01*
X234407142Y-90978571D02*
X234407142Y-89978571D01*
X234407142Y-90121428D02*
X234478571Y-90050000D01*
X234621428Y-89978571D01*
X234835714Y-89978571D01*
X234978571Y-90050000D01*
X235050000Y-90192857D01*
X235050000Y-90978571D01*
X235050000Y-90192857D02*
X235121428Y-90050000D01*
X235264285Y-89978571D01*
X235478571Y-89978571D01*
X235621428Y-90050000D01*
X235692857Y-90192857D01*
X235692857Y-90978571D01*
D11*
X264342857Y-85328571D02*
X264485714Y-85376190D01*
X264533333Y-85423809D01*
X264580952Y-85519047D01*
X264580952Y-85661904D01*
X264533333Y-85757142D01*
X264485714Y-85804761D01*
X264390476Y-85852380D01*
X264009523Y-85852380D01*
X264009523Y-84852380D01*
X264342857Y-84852380D01*
X264438095Y-84900000D01*
X264485714Y-84947619D01*
X264533333Y-85042857D01*
X264533333Y-85138095D01*
X264485714Y-85233333D01*
X264438095Y-85280952D01*
X264342857Y-85328571D01*
X264009523Y-85328571D01*
X265200000Y-84852380D02*
X265390476Y-84852380D01*
X265485714Y-84900000D01*
X265580952Y-84995238D01*
X265628571Y-85185714D01*
X265628571Y-85519047D01*
X265580952Y-85709523D01*
X265485714Y-85804761D01*
X265390476Y-85852380D01*
X265200000Y-85852380D01*
X265104761Y-85804761D01*
X265009523Y-85709523D01*
X264961904Y-85519047D01*
X264961904Y-85185714D01*
X265009523Y-84995238D01*
X265104761Y-84900000D01*
X265200000Y-84852380D01*
X266247619Y-84852380D02*
X266438095Y-84852380D01*
X266533333Y-84900000D01*
X266628571Y-84995238D01*
X266676190Y-85185714D01*
X266676190Y-85519047D01*
X266628571Y-85709523D01*
X266533333Y-85804761D01*
X266438095Y-85852380D01*
X266247619Y-85852380D01*
X266152380Y-85804761D01*
X266057142Y-85709523D01*
X266009523Y-85519047D01*
X266009523Y-85185714D01*
X266057142Y-84995238D01*
X266152380Y-84900000D01*
X266247619Y-84852380D01*
X266961904Y-84852380D02*
X267533333Y-84852380D01*
X267247619Y-85852380D02*
X267247619Y-84852380D01*
X264600000Y-88152380D02*
X264266666Y-87676190D01*
X264028571Y-88152380D02*
X264028571Y-87152380D01*
X264409523Y-87152380D01*
X264504761Y-87200000D01*
X264552380Y-87247619D01*
X264600000Y-87342857D01*
X264600000Y-87485714D01*
X264552380Y-87580952D01*
X264504761Y-87628571D01*
X264409523Y-87676190D01*
X264028571Y-87676190D01*
X265028571Y-87628571D02*
X265361904Y-87628571D01*
X265504761Y-88152380D02*
X265028571Y-88152380D01*
X265028571Y-87152380D01*
X265504761Y-87152380D01*
X265885714Y-87866666D02*
X266361904Y-87866666D01*
X265790476Y-88152380D02*
X266123809Y-87152380D01*
X266457142Y-88152380D01*
X266790476Y-88152380D02*
X266790476Y-87152380D01*
X267028571Y-87152380D01*
X267171428Y-87200000D01*
X267266666Y-87295238D01*
X267314285Y-87390476D01*
X267361904Y-87580952D01*
X267361904Y-87723809D01*
X267314285Y-87914285D01*
X267266666Y-88009523D01*
X267171428Y-88104761D01*
X267028571Y-88152380D01*
X266790476Y-88152380D01*
X267980952Y-87676190D02*
X267980952Y-88152380D01*
X267647619Y-87152380D02*
X267980952Y-87676190D01*
X268314285Y-87152380D01*
D12*
G04 #@! TO.C,D7*
X262845001Y-86730001D02*
X260160001Y-86730001D01*
X260160001Y-86730001D02*
X260160001Y-88650001D01*
X260160001Y-88650001D02*
X262845001Y-88650001D01*
G04 #@! TO.C,D8*
X260115000Y-86360000D02*
X262800000Y-86360000D01*
X260115000Y-84440000D02*
X260115000Y-86360000D01*
X262800000Y-84440000D02*
X260115000Y-84440000D01*
G04 #@! TO.C,Q1*
X256440000Y-87300000D02*
X256440000Y-89200000D01*
X258760000Y-88700000D02*
X258760000Y-87300000D01*
G04 #@! TO.C,R1*
X264790000Y-75362779D02*
X264790000Y-75037221D01*
X265810000Y-75362779D02*
X265810000Y-75037221D01*
G04 #@! TO.C,R2*
X264010000Y-75362779D02*
X264010000Y-75037221D01*
X262990000Y-75362779D02*
X262990000Y-75037221D01*
G04 #@! TO.C,R3*
X210937221Y-75190000D02*
X211262779Y-75190000D01*
X210937221Y-76210000D02*
X211262779Y-76210000D01*
G04 #@! TO.C,R4*
X210937221Y-74610000D02*
X211262779Y-74610000D01*
X210937221Y-73590000D02*
X211262779Y-73590000D01*
G04 #@! TO.C,R5*
X221975279Y-72390000D02*
X221649721Y-72390000D01*
X221975279Y-73410000D02*
X221649721Y-73410000D01*
G04 #@! TO.C,R6*
X218498322Y-72390000D02*
X218823880Y-72390000D01*
X218498322Y-73410000D02*
X218823880Y-73410000D01*
G04 #@! TO.C,R7*
X218498322Y-75110000D02*
X218823880Y-75110000D01*
X218498322Y-74090000D02*
X218823880Y-74090000D01*
G04 #@! TO.C,R8*
X256337221Y-72090000D02*
X256662779Y-72090000D01*
X256337221Y-73110000D02*
X256662779Y-73110000D01*
D13*
G04 #@! TO.C,D1*
X265300000Y-77250000D02*
X266100000Y-78050000D01*
X266100000Y-78050000D02*
X266100000Y-82750000D01*
X266100000Y-82750000D02*
X262500000Y-82750000D01*
X262500000Y-82750000D02*
X262500000Y-77250000D01*
X262500000Y-77250000D02*
X265300000Y-77250000D01*
G04 #@! TO.C,D2*
X207500000Y-82750000D02*
X206700000Y-81950000D01*
X206700000Y-81950000D02*
X206700000Y-77250000D01*
X206700000Y-77250000D02*
X210300000Y-77250000D01*
X210300000Y-77250000D02*
X210300000Y-82750000D01*
X210300000Y-82750000D02*
X207500000Y-82750000D01*
G04 #@! TO.C,D3*
X260800000Y-82750000D02*
X258000000Y-82750000D01*
X260800000Y-77250000D02*
X260800000Y-82750000D01*
X257200000Y-77250000D02*
X260800000Y-77250000D01*
X257200000Y-81950000D02*
X257200000Y-77250000D01*
X258000000Y-82750000D02*
X257200000Y-81950000D01*
G04 #@! TO.C,D4*
X211900000Y-77250000D02*
X214700000Y-77250000D01*
X211900000Y-82750000D02*
X211900000Y-77250000D01*
X215500000Y-82750000D02*
X211900000Y-82750000D01*
X215500000Y-78050000D02*
X215500000Y-82750000D01*
X214700000Y-77250000D02*
X215500000Y-78050000D01*
G04 #@! TO.C,D6*
X217800000Y-82750000D02*
X217000000Y-81950000D01*
X217000000Y-81950000D02*
X217000000Y-77250000D01*
X217000000Y-77250000D02*
X220600000Y-77250000D01*
X220600000Y-77250000D02*
X220600000Y-82750000D01*
X220600000Y-82750000D02*
X217800000Y-82750000D01*
G04 #@! TO.C,Q1*
X254404761Y-88547619D02*
X254309523Y-88500000D01*
X254214285Y-88404761D01*
X254071428Y-88261904D01*
X253976190Y-88214285D01*
X253880952Y-88214285D01*
X253928571Y-88452380D02*
X253833333Y-88404761D01*
X253738095Y-88309523D01*
X253690476Y-88119047D01*
X253690476Y-87785714D01*
X253738095Y-87595238D01*
X253833333Y-87500000D01*
X253928571Y-87452380D01*
X254119047Y-87452380D01*
X254214285Y-87500000D01*
X254309523Y-87595238D01*
X254357142Y-87785714D01*
X254357142Y-88119047D01*
X254309523Y-88309523D01*
X254214285Y-88404761D01*
X254119047Y-88452380D01*
X253928571Y-88452380D01*
X255309523Y-88452380D02*
X254738095Y-88452380D01*
X255023809Y-88452380D02*
X255023809Y-87452380D01*
X254928571Y-87595238D01*
X254833333Y-87690476D01*
X254738095Y-87738095D01*
G04 #@! TO.C,R1*
X267252380Y-75266666D02*
X266776190Y-75600000D01*
X267252380Y-75838095D02*
X266252380Y-75838095D01*
X266252380Y-75457142D01*
X266300000Y-75361904D01*
X266347619Y-75314285D01*
X266442857Y-75266666D01*
X266585714Y-75266666D01*
X266680952Y-75314285D01*
X266728571Y-75361904D01*
X266776190Y-75457142D01*
X266776190Y-75838095D01*
X267252380Y-74314285D02*
X267252380Y-74885714D01*
X267252380Y-74600000D02*
X266252380Y-74600000D01*
X266395238Y-74695238D01*
X266490476Y-74790476D01*
X266538095Y-74885714D01*
G04 #@! TO.C,R2*
X262522380Y-75366666D02*
X262046190Y-75700000D01*
X262522380Y-75938095D02*
X261522380Y-75938095D01*
X261522380Y-75557142D01*
X261570000Y-75461904D01*
X261617619Y-75414285D01*
X261712857Y-75366666D01*
X261855714Y-75366666D01*
X261950952Y-75414285D01*
X261998571Y-75461904D01*
X262046190Y-75557142D01*
X262046190Y-75938095D01*
X261617619Y-74985714D02*
X261570000Y-74938095D01*
X261522380Y-74842857D01*
X261522380Y-74604761D01*
X261570000Y-74509523D01*
X261617619Y-74461904D01*
X261712857Y-74414285D01*
X261808095Y-74414285D01*
X261950952Y-74461904D01*
X262522380Y-75033333D01*
X262522380Y-74414285D01*
G04 #@! TO.C,R3*
X213433333Y-76252380D02*
X213100000Y-75776190D01*
X212861904Y-76252380D02*
X212861904Y-75252380D01*
X213242857Y-75252380D01*
X213338095Y-75300000D01*
X213385714Y-75347619D01*
X213433333Y-75442857D01*
X213433333Y-75585714D01*
X213385714Y-75680952D01*
X213338095Y-75728571D01*
X213242857Y-75776190D01*
X212861904Y-75776190D01*
X213766666Y-75252380D02*
X214385714Y-75252380D01*
X214052380Y-75633333D01*
X214195238Y-75633333D01*
X214290476Y-75680952D01*
X214338095Y-75728571D01*
X214385714Y-75823809D01*
X214385714Y-76061904D01*
X214338095Y-76157142D01*
X214290476Y-76204761D01*
X214195238Y-76252380D01*
X213909523Y-76252380D01*
X213814285Y-76204761D01*
X213766666Y-76157142D01*
G04 #@! TO.C,R4*
X213433333Y-74552380D02*
X213100000Y-74076190D01*
X212861904Y-74552380D02*
X212861904Y-73552380D01*
X213242857Y-73552380D01*
X213338095Y-73600000D01*
X213385714Y-73647619D01*
X213433333Y-73742857D01*
X213433333Y-73885714D01*
X213385714Y-73980952D01*
X213338095Y-74028571D01*
X213242857Y-74076190D01*
X212861904Y-74076190D01*
X214290476Y-73885714D02*
X214290476Y-74552380D01*
X214052380Y-73504761D02*
X213814285Y-74219047D01*
X214433333Y-74219047D01*
G04 #@! TO.C,R5*
X224733333Y-73352380D02*
X224400000Y-72876190D01*
X224161904Y-73352380D02*
X224161904Y-72352380D01*
X224542857Y-72352380D01*
X224638095Y-72400000D01*
X224685714Y-72447619D01*
X224733333Y-72542857D01*
X224733333Y-72685714D01*
X224685714Y-72780952D01*
X224638095Y-72828571D01*
X224542857Y-72876190D01*
X224161904Y-72876190D01*
X225638095Y-72352380D02*
X225161904Y-72352380D01*
X225114285Y-72828571D01*
X225161904Y-72780952D01*
X225257142Y-72733333D01*
X225495238Y-72733333D01*
X225590476Y-72780952D01*
X225638095Y-72828571D01*
X225685714Y-72923809D01*
X225685714Y-73161904D01*
X225638095Y-73257142D01*
X225590476Y-73304761D01*
X225495238Y-73352380D01*
X225257142Y-73352380D01*
X225161904Y-73304761D01*
X225114285Y-73257142D01*
G04 #@! TO.C,R6*
X216033333Y-73389342D02*
X215700000Y-72913152D01*
X215461904Y-73389342D02*
X215461904Y-72389342D01*
X215842857Y-72389342D01*
X215938095Y-72436962D01*
X215985714Y-72484581D01*
X216033333Y-72579819D01*
X216033333Y-72722676D01*
X215985714Y-72817914D01*
X215938095Y-72865533D01*
X215842857Y-72913152D01*
X215461904Y-72913152D01*
X216890476Y-72389342D02*
X216700000Y-72389342D01*
X216604761Y-72436962D01*
X216557142Y-72484581D01*
X216461904Y-72627438D01*
X216414285Y-72817914D01*
X216414285Y-73198866D01*
X216461904Y-73294104D01*
X216509523Y-73341723D01*
X216604761Y-73389342D01*
X216795238Y-73389342D01*
X216890476Y-73341723D01*
X216938095Y-73294104D01*
X216985714Y-73198866D01*
X216985714Y-72960771D01*
X216938095Y-72865533D01*
X216890476Y-72817914D01*
X216795238Y-72770295D01*
X216604761Y-72770295D01*
X216509523Y-72817914D01*
X216461904Y-72865533D01*
X216414285Y-72960771D01*
G04 #@! TO.C,R7*
X216033333Y-75089342D02*
X215700000Y-74613152D01*
X215461904Y-75089342D02*
X215461904Y-74089342D01*
X215842857Y-74089342D01*
X215938095Y-74136962D01*
X215985714Y-74184581D01*
X216033333Y-74279819D01*
X216033333Y-74422676D01*
X215985714Y-74517914D01*
X215938095Y-74565533D01*
X215842857Y-74613152D01*
X215461904Y-74613152D01*
X216366666Y-74089342D02*
X217033333Y-74089342D01*
X216604761Y-75089342D01*
G04 #@! TO.C,R8*
X258933333Y-73052380D02*
X258600000Y-72576190D01*
X258361904Y-73052380D02*
X258361904Y-72052380D01*
X258742857Y-72052380D01*
X258838095Y-72100000D01*
X258885714Y-72147619D01*
X258933333Y-72242857D01*
X258933333Y-72385714D01*
X258885714Y-72480952D01*
X258838095Y-72528571D01*
X258742857Y-72576190D01*
X258361904Y-72576190D01*
X259504761Y-72480952D02*
X259409523Y-72433333D01*
X259361904Y-72385714D01*
X259314285Y-72290476D01*
X259314285Y-72242857D01*
X259361904Y-72147619D01*
X259409523Y-72100000D01*
X259504761Y-72052380D01*
X259695238Y-72052380D01*
X259790476Y-72100000D01*
X259838095Y-72147619D01*
X259885714Y-72242857D01*
X259885714Y-72290476D01*
X259838095Y-72385714D01*
X259790476Y-72433333D01*
X259695238Y-72480952D01*
X259504761Y-72480952D01*
X259409523Y-72528571D01*
X259361904Y-72576190D01*
X259314285Y-72671428D01*
X259314285Y-72861904D01*
X259361904Y-72957142D01*
X259409523Y-73004761D01*
X259504761Y-73052380D01*
X259695238Y-73052380D01*
X259790476Y-73004761D01*
X259838095Y-72957142D01*
X259885714Y-72861904D01*
X259885714Y-72671428D01*
X259838095Y-72576190D01*
X259790476Y-72528571D01*
X259695238Y-72480952D01*
G04 #@! TO.C,D1*
X263561904Y-84452380D02*
X263561904Y-83452380D01*
X263800000Y-83452380D01*
X263942857Y-83500000D01*
X264038095Y-83595238D01*
X264085714Y-83690476D01*
X264133333Y-83880952D01*
X264133333Y-84023809D01*
X264085714Y-84214285D01*
X264038095Y-84309523D01*
X263942857Y-84404761D01*
X263800000Y-84452380D01*
X263561904Y-84452380D01*
X265085714Y-84452380D02*
X264514285Y-84452380D01*
X264800000Y-84452380D02*
X264800000Y-83452380D01*
X264704761Y-83595238D01*
X264609523Y-83690476D01*
X264514285Y-83738095D01*
G04 #@! TO.C,D2*
X207761904Y-84652380D02*
X207761904Y-83652380D01*
X208000000Y-83652380D01*
X208142857Y-83700000D01*
X208238095Y-83795238D01*
X208285714Y-83890476D01*
X208333333Y-84080952D01*
X208333333Y-84223809D01*
X208285714Y-84414285D01*
X208238095Y-84509523D01*
X208142857Y-84604761D01*
X208000000Y-84652380D01*
X207761904Y-84652380D01*
X208714285Y-83747619D02*
X208761904Y-83700000D01*
X208857142Y-83652380D01*
X209095238Y-83652380D01*
X209190476Y-83700000D01*
X209238095Y-83747619D01*
X209285714Y-83842857D01*
X209285714Y-83938095D01*
X209238095Y-84080952D01*
X208666666Y-84652380D01*
X209285714Y-84652380D01*
G04 #@! TO.C,D3*
X258261904Y-84452380D02*
X258261904Y-83452380D01*
X258500000Y-83452380D01*
X258642857Y-83500000D01*
X258738095Y-83595238D01*
X258785714Y-83690476D01*
X258833333Y-83880952D01*
X258833333Y-84023809D01*
X258785714Y-84214285D01*
X258738095Y-84309523D01*
X258642857Y-84404761D01*
X258500000Y-84452380D01*
X258261904Y-84452380D01*
X259166666Y-83452380D02*
X259785714Y-83452380D01*
X259452380Y-83833333D01*
X259595238Y-83833333D01*
X259690476Y-83880952D01*
X259738095Y-83928571D01*
X259785714Y-84023809D01*
X259785714Y-84261904D01*
X259738095Y-84357142D01*
X259690476Y-84404761D01*
X259595238Y-84452380D01*
X259309523Y-84452380D01*
X259214285Y-84404761D01*
X259166666Y-84357142D01*
G04 #@! TO.C,D4*
X212961904Y-84752380D02*
X212961904Y-83752380D01*
X213200000Y-83752380D01*
X213342857Y-83800000D01*
X213438095Y-83895238D01*
X213485714Y-83990476D01*
X213533333Y-84180952D01*
X213533333Y-84323809D01*
X213485714Y-84514285D01*
X213438095Y-84609523D01*
X213342857Y-84704761D01*
X213200000Y-84752380D01*
X212961904Y-84752380D01*
X214390476Y-84085714D02*
X214390476Y-84752380D01*
X214152380Y-83704761D02*
X213914285Y-84419047D01*
X214533333Y-84419047D01*
G04 #@! TO.C,D6*
X218361904Y-84452380D02*
X218361904Y-83452380D01*
X218600000Y-83452380D01*
X218742857Y-83500000D01*
X218838095Y-83595238D01*
X218885714Y-83690476D01*
X218933333Y-83880952D01*
X218933333Y-84023809D01*
X218885714Y-84214285D01*
X218838095Y-84309523D01*
X218742857Y-84404761D01*
X218600000Y-84452380D01*
X218361904Y-84452380D01*
X219790476Y-83452380D02*
X219600000Y-83452380D01*
X219504761Y-83500000D01*
X219457142Y-83547619D01*
X219361904Y-83690476D01*
X219314285Y-83880952D01*
X219314285Y-84261904D01*
X219361904Y-84357142D01*
X219409523Y-84404761D01*
X219504761Y-84452380D01*
X219695238Y-84452380D01*
X219790476Y-84404761D01*
X219838095Y-84357142D01*
X219885714Y-84261904D01*
X219885714Y-84023809D01*
X219838095Y-83928571D01*
X219790476Y-83880952D01*
X219695238Y-83833333D01*
X219504761Y-83833333D01*
X219409523Y-83880952D01*
X219361904Y-83928571D01*
X219314285Y-84023809D01*
G04 #@! TD*
M02*
