G04 #@! TF.GenerationSoftware,KiCad,Pcbnew,(5.0.2)-1*
G04 #@! TF.CreationDate,2019-03-22T12:40:45+11:00*
G04 #@! TF.ProjectId,VeinCamHatZero,5665696e-4361-46d4-9861-745a65726f2e,rev?*
G04 #@! TF.SameCoordinates,Original*
G04 #@! TF.FileFunction,Soldermask,Top*
G04 #@! TF.FilePolarity,Negative*
%FSLAX46Y46*%
G04 Gerber Fmt 4.6, Leading zero omitted, Abs format (unit mm)*
G04 Created by KiCad (PCBNEW (5.0.2)-1) date 22/03/2019 12:40:45*
%MOMM*%
%LPD*%
G01*
G04 APERTURE LIST*
%ADD10C,0.150000*%
G04 APERTURE END LIST*
D10*
G36*
X266893779Y-90201879D02*
X267139466Y-90303646D01*
X267360576Y-90451387D01*
X267548613Y-90639424D01*
X267696354Y-90860534D01*
X267798121Y-91106221D01*
X267850000Y-91367035D01*
X267850000Y-91632965D01*
X267798121Y-91893779D01*
X267696354Y-92139466D01*
X267548613Y-92360576D01*
X267360576Y-92548613D01*
X267139466Y-92696354D01*
X266893779Y-92798121D01*
X266632965Y-92850000D01*
X266367035Y-92850000D01*
X266106221Y-92798121D01*
X265860534Y-92696354D01*
X265639424Y-92548613D01*
X265451387Y-92360576D01*
X265303646Y-92139466D01*
X265201879Y-91893779D01*
X265150000Y-91632965D01*
X265150000Y-91367035D01*
X265201879Y-91106221D01*
X265303646Y-90860534D01*
X265451387Y-90639424D01*
X265639424Y-90451387D01*
X265860534Y-90303646D01*
X266106221Y-90201879D01*
X266367035Y-90150000D01*
X266632965Y-90150000D01*
X266893779Y-90201879D01*
X266893779Y-90201879D01*
G37*
G36*
X208893779Y-90201879D02*
X209139466Y-90303646D01*
X209360576Y-90451387D01*
X209548613Y-90639424D01*
X209696354Y-90860534D01*
X209798121Y-91106221D01*
X209850000Y-91367035D01*
X209850000Y-91632965D01*
X209798121Y-91893779D01*
X209696354Y-92139466D01*
X209548613Y-92360576D01*
X209360576Y-92548613D01*
X209139466Y-92696354D01*
X208893779Y-92798121D01*
X208632965Y-92850000D01*
X208367035Y-92850000D01*
X208106221Y-92798121D01*
X207860534Y-92696354D01*
X207639424Y-92548613D01*
X207451387Y-92360576D01*
X207303646Y-92139466D01*
X207201879Y-91893779D01*
X207150000Y-91632965D01*
X207150000Y-91367035D01*
X207201879Y-91106221D01*
X207303646Y-90860534D01*
X207451387Y-90639424D01*
X207639424Y-90451387D01*
X207860534Y-90303646D01*
X208106221Y-90201879D01*
X208367035Y-90150000D01*
X208632965Y-90150000D01*
X208893779Y-90201879D01*
X208893779Y-90201879D01*
G37*
G36*
X257800000Y-89275000D02*
X257400000Y-89275000D01*
X257400000Y-88625000D01*
X257800000Y-88625000D01*
X257800000Y-89275000D01*
X257800000Y-89275000D01*
G37*
G36*
X257150000Y-89275000D02*
X256750000Y-89275000D01*
X256750000Y-88625000D01*
X257150000Y-88625000D01*
X257150000Y-89275000D01*
X257150000Y-89275000D01*
G37*
G36*
X258450000Y-89275000D02*
X258050000Y-89275000D01*
X258050000Y-88625000D01*
X258450000Y-88625000D01*
X258450000Y-89275000D01*
X258450000Y-89275000D01*
G37*
G36*
X261218880Y-86994441D02*
X261259870Y-87006875D01*
X261297645Y-87027067D01*
X261330759Y-87054243D01*
X261357935Y-87087357D01*
X261378127Y-87125132D01*
X261390561Y-87166122D01*
X261395001Y-87211205D01*
X261395001Y-88168797D01*
X261390561Y-88213880D01*
X261378127Y-88254870D01*
X261357935Y-88292645D01*
X261330759Y-88325759D01*
X261297645Y-88352935D01*
X261259870Y-88373127D01*
X261218880Y-88385561D01*
X261173797Y-88390001D01*
X260641205Y-88390001D01*
X260596122Y-88385561D01*
X260555132Y-88373127D01*
X260517357Y-88352935D01*
X260484243Y-88325759D01*
X260457067Y-88292645D01*
X260436875Y-88254870D01*
X260424441Y-88213880D01*
X260420001Y-88168797D01*
X260420001Y-87211205D01*
X260424441Y-87166122D01*
X260436875Y-87125132D01*
X260457067Y-87087357D01*
X260484243Y-87054243D01*
X260517357Y-87027067D01*
X260555132Y-87006875D01*
X260596122Y-86994441D01*
X260641205Y-86990001D01*
X261173797Y-86990001D01*
X261218880Y-86994441D01*
X261218880Y-86994441D01*
G37*
G36*
X263093880Y-86994441D02*
X263134870Y-87006875D01*
X263172645Y-87027067D01*
X263205759Y-87054243D01*
X263232935Y-87087357D01*
X263253127Y-87125132D01*
X263265561Y-87166122D01*
X263270001Y-87211205D01*
X263270001Y-88168797D01*
X263265561Y-88213880D01*
X263253127Y-88254870D01*
X263232935Y-88292645D01*
X263205759Y-88325759D01*
X263172645Y-88352935D01*
X263134870Y-88373127D01*
X263093880Y-88385561D01*
X263048797Y-88390001D01*
X262516205Y-88390001D01*
X262471122Y-88385561D01*
X262430132Y-88373127D01*
X262392357Y-88352935D01*
X262359243Y-88325759D01*
X262332067Y-88292645D01*
X262311875Y-88254870D01*
X262299441Y-88213880D01*
X262295001Y-88168797D01*
X262295001Y-87211205D01*
X262299441Y-87166122D01*
X262311875Y-87125132D01*
X262332067Y-87087357D01*
X262359243Y-87054243D01*
X262392357Y-87027067D01*
X262430132Y-87006875D01*
X262471122Y-86994441D01*
X262516205Y-86990001D01*
X263048797Y-86990001D01*
X263093880Y-86994441D01*
X263093880Y-86994441D01*
G37*
G36*
X258450000Y-87375000D02*
X258050000Y-87375000D01*
X258050000Y-86725000D01*
X258450000Y-86725000D01*
X258450000Y-87375000D01*
X258450000Y-87375000D01*
G37*
G36*
X257800000Y-87375000D02*
X257400000Y-87375000D01*
X257400000Y-86725000D01*
X257800000Y-86725000D01*
X257800000Y-87375000D01*
X257800000Y-87375000D01*
G37*
G36*
X257150000Y-87375000D02*
X256750000Y-87375000D01*
X256750000Y-86725000D01*
X257150000Y-86725000D01*
X257150000Y-87375000D01*
X257150000Y-87375000D01*
G37*
G36*
X261173879Y-84704440D02*
X261214869Y-84716874D01*
X261252644Y-84737066D01*
X261285758Y-84764242D01*
X261312934Y-84797356D01*
X261333126Y-84835131D01*
X261345560Y-84876121D01*
X261350000Y-84921204D01*
X261350000Y-85878796D01*
X261345560Y-85923879D01*
X261333126Y-85964869D01*
X261312934Y-86002644D01*
X261285758Y-86035758D01*
X261252644Y-86062934D01*
X261214869Y-86083126D01*
X261173879Y-86095560D01*
X261128796Y-86100000D01*
X260596204Y-86100000D01*
X260551121Y-86095560D01*
X260510131Y-86083126D01*
X260472356Y-86062934D01*
X260439242Y-86035758D01*
X260412066Y-86002644D01*
X260391874Y-85964869D01*
X260379440Y-85923879D01*
X260375000Y-85878796D01*
X260375000Y-84921204D01*
X260379440Y-84876121D01*
X260391874Y-84835131D01*
X260412066Y-84797356D01*
X260439242Y-84764242D01*
X260472356Y-84737066D01*
X260510131Y-84716874D01*
X260551121Y-84704440D01*
X260596204Y-84700000D01*
X261128796Y-84700000D01*
X261173879Y-84704440D01*
X261173879Y-84704440D01*
G37*
G36*
X263048879Y-84704440D02*
X263089869Y-84716874D01*
X263127644Y-84737066D01*
X263160758Y-84764242D01*
X263187934Y-84797356D01*
X263208126Y-84835131D01*
X263220560Y-84876121D01*
X263225000Y-84921204D01*
X263225000Y-85878796D01*
X263220560Y-85923879D01*
X263208126Y-85964869D01*
X263187934Y-86002644D01*
X263160758Y-86035758D01*
X263127644Y-86062934D01*
X263089869Y-86083126D01*
X263048879Y-86095560D01*
X263003796Y-86100000D01*
X262471204Y-86100000D01*
X262426121Y-86095560D01*
X262385131Y-86083126D01*
X262347356Y-86062934D01*
X262314242Y-86035758D01*
X262287066Y-86002644D01*
X262266874Y-85964869D01*
X262254440Y-85923879D01*
X262250000Y-85878796D01*
X262250000Y-84921204D01*
X262254440Y-84876121D01*
X262266874Y-84835131D01*
X262287066Y-84797356D01*
X262314242Y-84764242D01*
X262347356Y-84737066D01*
X262385131Y-84716874D01*
X262426121Y-84704440D01*
X262471204Y-84700000D01*
X263003796Y-84700000D01*
X263048879Y-84704440D01*
X263048879Y-84704440D01*
G37*
G36*
X215000000Y-82250000D02*
X213900000Y-82250000D01*
X213900000Y-80550000D01*
X215000000Y-80550000D01*
X215000000Y-82250000D01*
X215000000Y-82250000D01*
G37*
G36*
X218600000Y-82250000D02*
X217500000Y-82250000D01*
X217500000Y-80550000D01*
X218600000Y-80550000D01*
X218600000Y-82250000D01*
X218600000Y-82250000D01*
G37*
G36*
X213500000Y-82250000D02*
X212400000Y-82250000D01*
X212400000Y-80550000D01*
X213500000Y-80550000D01*
X213500000Y-82250000D01*
X213500000Y-82250000D01*
G37*
G36*
X258800000Y-82250000D02*
X257700000Y-82250000D01*
X257700000Y-80550000D01*
X258800000Y-80550000D01*
X258800000Y-82250000D01*
X258800000Y-82250000D01*
G37*
G36*
X260300000Y-82250000D02*
X259200000Y-82250000D01*
X259200000Y-80550000D01*
X260300000Y-80550000D01*
X260300000Y-82250000D01*
X260300000Y-82250000D01*
G37*
G36*
X208300000Y-82250000D02*
X207200000Y-82250000D01*
X207200000Y-80550000D01*
X208300000Y-80550000D01*
X208300000Y-82250000D01*
X208300000Y-82250000D01*
G37*
G36*
X264100000Y-82250000D02*
X263000000Y-82250000D01*
X263000000Y-80550000D01*
X264100000Y-80550000D01*
X264100000Y-82250000D01*
X264100000Y-82250000D01*
G37*
G36*
X265600000Y-82250000D02*
X264500000Y-82250000D01*
X264500000Y-80550000D01*
X265600000Y-80550000D01*
X265600000Y-82250000D01*
X265600000Y-82250000D01*
G37*
G36*
X220100000Y-82250000D02*
X219000000Y-82250000D01*
X219000000Y-80550000D01*
X220100000Y-80550000D01*
X220100000Y-82250000D01*
X220100000Y-82250000D01*
G37*
G36*
X209800000Y-82250000D02*
X208700000Y-82250000D01*
X208700000Y-80550000D01*
X209800000Y-80550000D01*
X209800000Y-82250000D01*
X209800000Y-82250000D01*
G37*
G36*
X264100000Y-79450000D02*
X263000000Y-79450000D01*
X263000000Y-77750000D01*
X264100000Y-77750000D01*
X264100000Y-79450000D01*
X264100000Y-79450000D01*
G37*
G36*
X208300000Y-79450000D02*
X207200000Y-79450000D01*
X207200000Y-77750000D01*
X208300000Y-77750000D01*
X208300000Y-79450000D01*
X208300000Y-79450000D01*
G37*
G36*
X209800000Y-79450000D02*
X208700000Y-79450000D01*
X208700000Y-77750000D01*
X209800000Y-77750000D01*
X209800000Y-79450000D01*
X209800000Y-79450000D01*
G37*
G36*
X213500000Y-79450000D02*
X212400000Y-79450000D01*
X212400000Y-77750000D01*
X213500000Y-77750000D01*
X213500000Y-79450000D01*
X213500000Y-79450000D01*
G37*
G36*
X260300000Y-79450000D02*
X259200000Y-79450000D01*
X259200000Y-77750000D01*
X260300000Y-77750000D01*
X260300000Y-79450000D01*
X260300000Y-79450000D01*
G37*
G36*
X258800000Y-79450000D02*
X257700000Y-79450000D01*
X257700000Y-77750000D01*
X258800000Y-77750000D01*
X258800000Y-79450000D01*
X258800000Y-79450000D01*
G37*
G36*
X220100000Y-79450000D02*
X219000000Y-79450000D01*
X219000000Y-77750000D01*
X220100000Y-77750000D01*
X220100000Y-79450000D01*
X220100000Y-79450000D01*
G37*
G36*
X218600000Y-79450000D02*
X217500000Y-79450000D01*
X217500000Y-77750000D01*
X218600000Y-77750000D01*
X218600000Y-79450000D01*
X218600000Y-79450000D01*
G37*
G36*
X215000000Y-79450000D02*
X213900000Y-79450000D01*
X213900000Y-77750000D01*
X215000000Y-77750000D01*
X215000000Y-79450000D01*
X215000000Y-79450000D01*
G37*
G36*
X265600000Y-79450000D02*
X264500000Y-79450000D01*
X264500000Y-77750000D01*
X265600000Y-77750000D01*
X265600000Y-79450000D01*
X265600000Y-79450000D01*
G37*
G36*
X265619002Y-75553960D02*
X265655301Y-75564971D01*
X265688758Y-75582854D01*
X265718081Y-75606919D01*
X265742146Y-75636242D01*
X265760029Y-75669699D01*
X265771040Y-75705998D01*
X265775000Y-75746204D01*
X265775000Y-76228796D01*
X265771040Y-76269002D01*
X265760029Y-76305301D01*
X265742146Y-76338758D01*
X265718081Y-76368081D01*
X265688758Y-76392146D01*
X265655301Y-76410029D01*
X265619002Y-76421040D01*
X265578796Y-76425000D01*
X265021204Y-76425000D01*
X264980998Y-76421040D01*
X264944699Y-76410029D01*
X264911242Y-76392146D01*
X264881919Y-76368081D01*
X264857854Y-76338758D01*
X264839971Y-76305301D01*
X264828960Y-76269002D01*
X264825000Y-76228796D01*
X264825000Y-75746204D01*
X264828960Y-75705998D01*
X264839971Y-75669699D01*
X264857854Y-75636242D01*
X264881919Y-75606919D01*
X264911242Y-75582854D01*
X264944699Y-75564971D01*
X264980998Y-75553960D01*
X265021204Y-75550000D01*
X265578796Y-75550000D01*
X265619002Y-75553960D01*
X265619002Y-75553960D01*
G37*
G36*
X263819002Y-75553960D02*
X263855301Y-75564971D01*
X263888758Y-75582854D01*
X263918081Y-75606919D01*
X263942146Y-75636242D01*
X263960029Y-75669699D01*
X263971040Y-75705998D01*
X263975000Y-75746204D01*
X263975000Y-76228796D01*
X263971040Y-76269002D01*
X263960029Y-76305301D01*
X263942146Y-76338758D01*
X263918081Y-76368081D01*
X263888758Y-76392146D01*
X263855301Y-76410029D01*
X263819002Y-76421040D01*
X263778796Y-76425000D01*
X263221204Y-76425000D01*
X263180998Y-76421040D01*
X263144699Y-76410029D01*
X263111242Y-76392146D01*
X263081919Y-76368081D01*
X263057854Y-76338758D01*
X263039971Y-76305301D01*
X263028960Y-76269002D01*
X263025000Y-76228796D01*
X263025000Y-75746204D01*
X263028960Y-75705998D01*
X263039971Y-75669699D01*
X263057854Y-75636242D01*
X263081919Y-75606919D01*
X263111242Y-75582854D01*
X263144699Y-75564971D01*
X263180998Y-75553960D01*
X263221204Y-75550000D01*
X263778796Y-75550000D01*
X263819002Y-75553960D01*
X263819002Y-75553960D01*
G37*
G36*
X210594002Y-75228960D02*
X210630301Y-75239971D01*
X210663758Y-75257854D01*
X210693081Y-75281919D01*
X210717146Y-75311242D01*
X210735029Y-75344699D01*
X210746040Y-75380998D01*
X210750000Y-75421204D01*
X210750000Y-75978796D01*
X210746040Y-76019002D01*
X210735029Y-76055301D01*
X210717146Y-76088758D01*
X210693081Y-76118081D01*
X210663758Y-76142146D01*
X210630301Y-76160029D01*
X210594002Y-76171040D01*
X210553796Y-76175000D01*
X210071204Y-76175000D01*
X210030998Y-76171040D01*
X209994699Y-76160029D01*
X209961242Y-76142146D01*
X209931919Y-76118081D01*
X209907854Y-76088758D01*
X209889971Y-76055301D01*
X209878960Y-76019002D01*
X209875000Y-75978796D01*
X209875000Y-75421204D01*
X209878960Y-75380998D01*
X209889971Y-75344699D01*
X209907854Y-75311242D01*
X209931919Y-75281919D01*
X209961242Y-75257854D01*
X209994699Y-75239971D01*
X210030998Y-75228960D01*
X210071204Y-75225000D01*
X210553796Y-75225000D01*
X210594002Y-75228960D01*
X210594002Y-75228960D01*
G37*
G36*
X212169002Y-75228960D02*
X212205301Y-75239971D01*
X212238758Y-75257854D01*
X212268081Y-75281919D01*
X212292146Y-75311242D01*
X212310029Y-75344699D01*
X212321040Y-75380998D01*
X212325000Y-75421204D01*
X212325000Y-75978796D01*
X212321040Y-76019002D01*
X212310029Y-76055301D01*
X212292146Y-76088758D01*
X212268081Y-76118081D01*
X212238758Y-76142146D01*
X212205301Y-76160029D01*
X212169002Y-76171040D01*
X212128796Y-76175000D01*
X211646204Y-76175000D01*
X211605998Y-76171040D01*
X211569699Y-76160029D01*
X211536242Y-76142146D01*
X211506919Y-76118081D01*
X211482854Y-76088758D01*
X211464971Y-76055301D01*
X211453960Y-76019002D01*
X211450000Y-75978796D01*
X211450000Y-75421204D01*
X211453960Y-75380998D01*
X211464971Y-75344699D01*
X211482854Y-75311242D01*
X211506919Y-75281919D01*
X211536242Y-75257854D01*
X211569699Y-75239971D01*
X211605998Y-75228960D01*
X211646204Y-75225000D01*
X212128796Y-75225000D01*
X212169002Y-75228960D01*
X212169002Y-75228960D01*
G37*
G36*
X219730103Y-74128960D02*
X219766402Y-74139971D01*
X219799859Y-74157854D01*
X219829182Y-74181919D01*
X219853247Y-74211242D01*
X219871130Y-74244699D01*
X219882141Y-74280998D01*
X219886101Y-74321204D01*
X219886101Y-74878796D01*
X219882141Y-74919002D01*
X219871130Y-74955301D01*
X219853247Y-74988758D01*
X219829182Y-75018081D01*
X219799859Y-75042146D01*
X219766402Y-75060029D01*
X219730103Y-75071040D01*
X219689897Y-75075000D01*
X219207305Y-75075000D01*
X219167099Y-75071040D01*
X219130800Y-75060029D01*
X219097343Y-75042146D01*
X219068020Y-75018081D01*
X219043955Y-74988758D01*
X219026072Y-74955301D01*
X219015061Y-74919002D01*
X219011101Y-74878796D01*
X219011101Y-74321204D01*
X219015061Y-74280998D01*
X219026072Y-74244699D01*
X219043955Y-74211242D01*
X219068020Y-74181919D01*
X219097343Y-74157854D01*
X219130800Y-74139971D01*
X219167099Y-74128960D01*
X219207305Y-74125000D01*
X219689897Y-74125000D01*
X219730103Y-74128960D01*
X219730103Y-74128960D01*
G37*
G36*
X218155103Y-74128960D02*
X218191402Y-74139971D01*
X218224859Y-74157854D01*
X218254182Y-74181919D01*
X218278247Y-74211242D01*
X218296130Y-74244699D01*
X218307141Y-74280998D01*
X218311101Y-74321204D01*
X218311101Y-74878796D01*
X218307141Y-74919002D01*
X218296130Y-74955301D01*
X218278247Y-74988758D01*
X218254182Y-75018081D01*
X218224859Y-75042146D01*
X218191402Y-75060029D01*
X218155103Y-75071040D01*
X218114897Y-75075000D01*
X217632305Y-75075000D01*
X217592099Y-75071040D01*
X217555800Y-75060029D01*
X217522343Y-75042146D01*
X217493020Y-75018081D01*
X217468955Y-74988758D01*
X217451072Y-74955301D01*
X217440061Y-74919002D01*
X217436101Y-74878796D01*
X217436101Y-74321204D01*
X217440061Y-74280998D01*
X217451072Y-74244699D01*
X217468955Y-74211242D01*
X217493020Y-74181919D01*
X217522343Y-74157854D01*
X217555800Y-74139971D01*
X217592099Y-74128960D01*
X217632305Y-74125000D01*
X218114897Y-74125000D01*
X218155103Y-74128960D01*
X218155103Y-74128960D01*
G37*
G36*
X265619002Y-73978960D02*
X265655301Y-73989971D01*
X265688758Y-74007854D01*
X265718081Y-74031919D01*
X265742146Y-74061242D01*
X265760029Y-74094699D01*
X265771040Y-74130998D01*
X265775000Y-74171204D01*
X265775000Y-74653796D01*
X265771040Y-74694002D01*
X265760029Y-74730301D01*
X265742146Y-74763758D01*
X265718081Y-74793081D01*
X265688758Y-74817146D01*
X265655301Y-74835029D01*
X265619002Y-74846040D01*
X265578796Y-74850000D01*
X265021204Y-74850000D01*
X264980998Y-74846040D01*
X264944699Y-74835029D01*
X264911242Y-74817146D01*
X264881919Y-74793081D01*
X264857854Y-74763758D01*
X264839971Y-74730301D01*
X264828960Y-74694002D01*
X264825000Y-74653796D01*
X264825000Y-74171204D01*
X264828960Y-74130998D01*
X264839971Y-74094699D01*
X264857854Y-74061242D01*
X264881919Y-74031919D01*
X264911242Y-74007854D01*
X264944699Y-73989971D01*
X264980998Y-73978960D01*
X265021204Y-73975000D01*
X265578796Y-73975000D01*
X265619002Y-73978960D01*
X265619002Y-73978960D01*
G37*
G36*
X263819002Y-73978960D02*
X263855301Y-73989971D01*
X263888758Y-74007854D01*
X263918081Y-74031919D01*
X263942146Y-74061242D01*
X263960029Y-74094699D01*
X263971040Y-74130998D01*
X263975000Y-74171204D01*
X263975000Y-74653796D01*
X263971040Y-74694002D01*
X263960029Y-74730301D01*
X263942146Y-74763758D01*
X263918081Y-74793081D01*
X263888758Y-74817146D01*
X263855301Y-74835029D01*
X263819002Y-74846040D01*
X263778796Y-74850000D01*
X263221204Y-74850000D01*
X263180998Y-74846040D01*
X263144699Y-74835029D01*
X263111242Y-74817146D01*
X263081919Y-74793081D01*
X263057854Y-74763758D01*
X263039971Y-74730301D01*
X263028960Y-74694002D01*
X263025000Y-74653796D01*
X263025000Y-74171204D01*
X263028960Y-74130998D01*
X263039971Y-74094699D01*
X263057854Y-74061242D01*
X263081919Y-74031919D01*
X263111242Y-74007854D01*
X263144699Y-73989971D01*
X263180998Y-73978960D01*
X263221204Y-73975000D01*
X263778796Y-73975000D01*
X263819002Y-73978960D01*
X263819002Y-73978960D01*
G37*
G36*
X212169002Y-73628960D02*
X212205301Y-73639971D01*
X212238758Y-73657854D01*
X212268081Y-73681919D01*
X212292146Y-73711242D01*
X212310029Y-73744699D01*
X212321040Y-73780998D01*
X212325000Y-73821204D01*
X212325000Y-74378796D01*
X212321040Y-74419002D01*
X212310029Y-74455301D01*
X212292146Y-74488758D01*
X212268081Y-74518081D01*
X212238758Y-74542146D01*
X212205301Y-74560029D01*
X212169002Y-74571040D01*
X212128796Y-74575000D01*
X211646204Y-74575000D01*
X211605998Y-74571040D01*
X211569699Y-74560029D01*
X211536242Y-74542146D01*
X211506919Y-74518081D01*
X211482854Y-74488758D01*
X211464971Y-74455301D01*
X211453960Y-74419002D01*
X211450000Y-74378796D01*
X211450000Y-73821204D01*
X211453960Y-73780998D01*
X211464971Y-73744699D01*
X211482854Y-73711242D01*
X211506919Y-73681919D01*
X211536242Y-73657854D01*
X211569699Y-73639971D01*
X211605998Y-73628960D01*
X211646204Y-73625000D01*
X212128796Y-73625000D01*
X212169002Y-73628960D01*
X212169002Y-73628960D01*
G37*
G36*
X210594002Y-73628960D02*
X210630301Y-73639971D01*
X210663758Y-73657854D01*
X210693081Y-73681919D01*
X210717146Y-73711242D01*
X210735029Y-73744699D01*
X210746040Y-73780998D01*
X210750000Y-73821204D01*
X210750000Y-74378796D01*
X210746040Y-74419002D01*
X210735029Y-74455301D01*
X210717146Y-74488758D01*
X210693081Y-74518081D01*
X210663758Y-74542146D01*
X210630301Y-74560029D01*
X210594002Y-74571040D01*
X210553796Y-74575000D01*
X210071204Y-74575000D01*
X210030998Y-74571040D01*
X209994699Y-74560029D01*
X209961242Y-74542146D01*
X209931919Y-74518081D01*
X209907854Y-74488758D01*
X209889971Y-74455301D01*
X209878960Y-74419002D01*
X209875000Y-74378796D01*
X209875000Y-73821204D01*
X209878960Y-73780998D01*
X209889971Y-73744699D01*
X209907854Y-73711242D01*
X209931919Y-73681919D01*
X209961242Y-73657854D01*
X209994699Y-73639971D01*
X210030998Y-73628960D01*
X210071204Y-73625000D01*
X210553796Y-73625000D01*
X210594002Y-73628960D01*
X210594002Y-73628960D01*
G37*
G36*
X218155103Y-72428960D02*
X218191402Y-72439971D01*
X218224859Y-72457854D01*
X218254182Y-72481919D01*
X218278247Y-72511242D01*
X218296130Y-72544699D01*
X218307141Y-72580998D01*
X218311101Y-72621204D01*
X218311101Y-73178796D01*
X218307141Y-73219002D01*
X218296130Y-73255301D01*
X218278247Y-73288758D01*
X218254182Y-73318081D01*
X218224859Y-73342146D01*
X218191402Y-73360029D01*
X218155103Y-73371040D01*
X218114897Y-73375000D01*
X217632305Y-73375000D01*
X217592099Y-73371040D01*
X217555800Y-73360029D01*
X217522343Y-73342146D01*
X217493020Y-73318081D01*
X217468955Y-73288758D01*
X217451072Y-73255301D01*
X217440061Y-73219002D01*
X217436101Y-73178796D01*
X217436101Y-72621204D01*
X217440061Y-72580998D01*
X217451072Y-72544699D01*
X217468955Y-72511242D01*
X217493020Y-72481919D01*
X217522343Y-72457854D01*
X217555800Y-72439971D01*
X217592099Y-72428960D01*
X217632305Y-72425000D01*
X218114897Y-72425000D01*
X218155103Y-72428960D01*
X218155103Y-72428960D01*
G37*
G36*
X219730103Y-72428960D02*
X219766402Y-72439971D01*
X219799859Y-72457854D01*
X219829182Y-72481919D01*
X219853247Y-72511242D01*
X219871130Y-72544699D01*
X219882141Y-72580998D01*
X219886101Y-72621204D01*
X219886101Y-73178796D01*
X219882141Y-73219002D01*
X219871130Y-73255301D01*
X219853247Y-73288758D01*
X219829182Y-73318081D01*
X219799859Y-73342146D01*
X219766402Y-73360029D01*
X219730103Y-73371040D01*
X219689897Y-73375000D01*
X219207305Y-73375000D01*
X219167099Y-73371040D01*
X219130800Y-73360029D01*
X219097343Y-73342146D01*
X219068020Y-73318081D01*
X219043955Y-73288758D01*
X219026072Y-73255301D01*
X219015061Y-73219002D01*
X219011101Y-73178796D01*
X219011101Y-72621204D01*
X219015061Y-72580998D01*
X219026072Y-72544699D01*
X219043955Y-72511242D01*
X219068020Y-72481919D01*
X219097343Y-72457854D01*
X219130800Y-72439971D01*
X219167099Y-72428960D01*
X219207305Y-72425000D01*
X219689897Y-72425000D01*
X219730103Y-72428960D01*
X219730103Y-72428960D01*
G37*
G36*
X222881502Y-72428960D02*
X222917801Y-72439971D01*
X222951258Y-72457854D01*
X222980581Y-72481919D01*
X223004646Y-72511242D01*
X223022529Y-72544699D01*
X223033540Y-72580998D01*
X223037500Y-72621204D01*
X223037500Y-73178796D01*
X223033540Y-73219002D01*
X223022529Y-73255301D01*
X223004646Y-73288758D01*
X222980581Y-73318081D01*
X222951258Y-73342146D01*
X222917801Y-73360029D01*
X222881502Y-73371040D01*
X222841296Y-73375000D01*
X222358704Y-73375000D01*
X222318498Y-73371040D01*
X222282199Y-73360029D01*
X222248742Y-73342146D01*
X222219419Y-73318081D01*
X222195354Y-73288758D01*
X222177471Y-73255301D01*
X222166460Y-73219002D01*
X222162500Y-73178796D01*
X222162500Y-72621204D01*
X222166460Y-72580998D01*
X222177471Y-72544699D01*
X222195354Y-72511242D01*
X222219419Y-72481919D01*
X222248742Y-72457854D01*
X222282199Y-72439971D01*
X222318498Y-72428960D01*
X222358704Y-72425000D01*
X222841296Y-72425000D01*
X222881502Y-72428960D01*
X222881502Y-72428960D01*
G37*
G36*
X221306502Y-72428960D02*
X221342801Y-72439971D01*
X221376258Y-72457854D01*
X221405581Y-72481919D01*
X221429646Y-72511242D01*
X221447529Y-72544699D01*
X221458540Y-72580998D01*
X221462500Y-72621204D01*
X221462500Y-73178796D01*
X221458540Y-73219002D01*
X221447529Y-73255301D01*
X221429646Y-73288758D01*
X221405581Y-73318081D01*
X221376258Y-73342146D01*
X221342801Y-73360029D01*
X221306502Y-73371040D01*
X221266296Y-73375000D01*
X220783704Y-73375000D01*
X220743498Y-73371040D01*
X220707199Y-73360029D01*
X220673742Y-73342146D01*
X220644419Y-73318081D01*
X220620354Y-73288758D01*
X220602471Y-73255301D01*
X220591460Y-73219002D01*
X220587500Y-73178796D01*
X220587500Y-72621204D01*
X220591460Y-72580998D01*
X220602471Y-72544699D01*
X220620354Y-72511242D01*
X220644419Y-72481919D01*
X220673742Y-72457854D01*
X220707199Y-72439971D01*
X220743498Y-72428960D01*
X220783704Y-72425000D01*
X221266296Y-72425000D01*
X221306502Y-72428960D01*
X221306502Y-72428960D01*
G37*
G36*
X257569002Y-72128960D02*
X257605301Y-72139971D01*
X257638758Y-72157854D01*
X257668081Y-72181919D01*
X257692146Y-72211242D01*
X257710029Y-72244699D01*
X257721040Y-72280998D01*
X257725000Y-72321204D01*
X257725000Y-72878796D01*
X257721040Y-72919002D01*
X257710029Y-72955301D01*
X257692146Y-72988758D01*
X257668081Y-73018081D01*
X257638758Y-73042146D01*
X257605301Y-73060029D01*
X257569002Y-73071040D01*
X257528796Y-73075000D01*
X257046204Y-73075000D01*
X257005998Y-73071040D01*
X256969699Y-73060029D01*
X256936242Y-73042146D01*
X256906919Y-73018081D01*
X256882854Y-72988758D01*
X256864971Y-72955301D01*
X256853960Y-72919002D01*
X256850000Y-72878796D01*
X256850000Y-72321204D01*
X256853960Y-72280998D01*
X256864971Y-72244699D01*
X256882854Y-72211242D01*
X256906919Y-72181919D01*
X256936242Y-72157854D01*
X256969699Y-72139971D01*
X257005998Y-72128960D01*
X257046204Y-72125000D01*
X257528796Y-72125000D01*
X257569002Y-72128960D01*
X257569002Y-72128960D01*
G37*
G36*
X255994002Y-72128960D02*
X256030301Y-72139971D01*
X256063758Y-72157854D01*
X256093081Y-72181919D01*
X256117146Y-72211242D01*
X256135029Y-72244699D01*
X256146040Y-72280998D01*
X256150000Y-72321204D01*
X256150000Y-72878796D01*
X256146040Y-72919002D01*
X256135029Y-72955301D01*
X256117146Y-72988758D01*
X256093081Y-73018081D01*
X256063758Y-73042146D01*
X256030301Y-73060029D01*
X255994002Y-73071040D01*
X255953796Y-73075000D01*
X255471204Y-73075000D01*
X255430998Y-73071040D01*
X255394699Y-73060029D01*
X255361242Y-73042146D01*
X255331919Y-73018081D01*
X255307854Y-72988758D01*
X255289971Y-72955301D01*
X255278960Y-72919002D01*
X255275000Y-72878796D01*
X255275000Y-72321204D01*
X255278960Y-72280998D01*
X255289971Y-72244699D01*
X255307854Y-72211242D01*
X255331919Y-72181919D01*
X255361242Y-72157854D01*
X255394699Y-72139971D01*
X255430998Y-72128960D01*
X255471204Y-72125000D01*
X255953796Y-72125000D01*
X255994002Y-72128960D01*
X255994002Y-72128960D01*
G37*
G36*
X259256629Y-68932299D02*
X259379563Y-68969591D01*
X259416855Y-68980903D01*
X259470712Y-69009691D01*
X259564517Y-69059830D01*
X259693948Y-69166052D01*
X259800170Y-69295483D01*
X259850309Y-69389288D01*
X259879097Y-69443145D01*
X259879097Y-69443146D01*
X259927701Y-69603371D01*
X259944112Y-69770000D01*
X259927701Y-69936629D01*
X259890409Y-70059563D01*
X259879097Y-70096855D01*
X259850309Y-70150712D01*
X259800170Y-70244517D01*
X259693948Y-70373948D01*
X259564517Y-70480170D01*
X259470712Y-70530309D01*
X259416855Y-70559097D01*
X259379563Y-70570409D01*
X259256629Y-70607701D01*
X259131753Y-70620000D01*
X259048247Y-70620000D01*
X258923371Y-70607701D01*
X258800437Y-70570409D01*
X258763145Y-70559097D01*
X258709288Y-70530309D01*
X258615483Y-70480170D01*
X258486052Y-70373948D01*
X258379830Y-70244517D01*
X258329691Y-70150712D01*
X258300903Y-70096855D01*
X258289591Y-70059563D01*
X258252299Y-69936629D01*
X258235888Y-69770000D01*
X258252299Y-69603371D01*
X258300903Y-69443146D01*
X258300903Y-69443145D01*
X258329691Y-69389288D01*
X258379830Y-69295483D01*
X258486052Y-69166052D01*
X258615483Y-69059830D01*
X258709288Y-69009691D01*
X258763145Y-68980903D01*
X258800437Y-68969591D01*
X258923371Y-68932299D01*
X259048247Y-68920000D01*
X259131753Y-68920000D01*
X259256629Y-68932299D01*
X259256629Y-68932299D01*
G37*
G36*
X254176629Y-68932299D02*
X254299563Y-68969591D01*
X254336855Y-68980903D01*
X254390712Y-69009691D01*
X254484517Y-69059830D01*
X254613948Y-69166052D01*
X254720170Y-69295483D01*
X254770309Y-69389288D01*
X254799097Y-69443145D01*
X254799097Y-69443146D01*
X254847701Y-69603371D01*
X254864112Y-69770000D01*
X254847701Y-69936629D01*
X254810409Y-70059563D01*
X254799097Y-70096855D01*
X254770309Y-70150712D01*
X254720170Y-70244517D01*
X254613948Y-70373948D01*
X254484517Y-70480170D01*
X254390712Y-70530309D01*
X254336855Y-70559097D01*
X254299563Y-70570409D01*
X254176629Y-70607701D01*
X254051753Y-70620000D01*
X253968247Y-70620000D01*
X253843371Y-70607701D01*
X253720437Y-70570409D01*
X253683145Y-70559097D01*
X253629288Y-70530309D01*
X253535483Y-70480170D01*
X253406052Y-70373948D01*
X253299830Y-70244517D01*
X253249691Y-70150712D01*
X253220903Y-70096855D01*
X253209591Y-70059563D01*
X253172299Y-69936629D01*
X253155888Y-69770000D01*
X253172299Y-69603371D01*
X253220903Y-69443146D01*
X253220903Y-69443145D01*
X253249691Y-69389288D01*
X253299830Y-69295483D01*
X253406052Y-69166052D01*
X253535483Y-69059830D01*
X253629288Y-69009691D01*
X253683145Y-68980903D01*
X253720437Y-68969591D01*
X253843371Y-68932299D01*
X253968247Y-68920000D01*
X254051753Y-68920000D01*
X254176629Y-68932299D01*
X254176629Y-68932299D01*
G37*
G36*
X256716629Y-68932299D02*
X256839563Y-68969591D01*
X256876855Y-68980903D01*
X256930712Y-69009691D01*
X257024517Y-69059830D01*
X257153948Y-69166052D01*
X257260170Y-69295483D01*
X257310309Y-69389288D01*
X257339097Y-69443145D01*
X257339097Y-69443146D01*
X257387701Y-69603371D01*
X257404112Y-69770000D01*
X257387701Y-69936629D01*
X257350409Y-70059563D01*
X257339097Y-70096855D01*
X257310309Y-70150712D01*
X257260170Y-70244517D01*
X257153948Y-70373948D01*
X257024517Y-70480170D01*
X256930712Y-70530309D01*
X256876855Y-70559097D01*
X256839563Y-70570409D01*
X256716629Y-70607701D01*
X256591753Y-70620000D01*
X256508247Y-70620000D01*
X256383371Y-70607701D01*
X256260437Y-70570409D01*
X256223145Y-70559097D01*
X256169288Y-70530309D01*
X256075483Y-70480170D01*
X255946052Y-70373948D01*
X255839830Y-70244517D01*
X255789691Y-70150712D01*
X255760903Y-70096855D01*
X255749591Y-70059563D01*
X255712299Y-69936629D01*
X255695888Y-69770000D01*
X255712299Y-69603371D01*
X255760903Y-69443146D01*
X255760903Y-69443145D01*
X255789691Y-69389288D01*
X255839830Y-69295483D01*
X255946052Y-69166052D01*
X256075483Y-69059830D01*
X256169288Y-69009691D01*
X256223145Y-68980903D01*
X256260437Y-68969591D01*
X256383371Y-68932299D01*
X256508247Y-68920000D01*
X256591753Y-68920000D01*
X256716629Y-68932299D01*
X256716629Y-68932299D01*
G37*
G36*
X236396629Y-68932299D02*
X236519563Y-68969591D01*
X236556855Y-68980903D01*
X236610712Y-69009691D01*
X236704517Y-69059830D01*
X236833948Y-69166052D01*
X236940170Y-69295483D01*
X236990309Y-69389288D01*
X237019097Y-69443145D01*
X237019097Y-69443146D01*
X237067701Y-69603371D01*
X237084112Y-69770000D01*
X237067701Y-69936629D01*
X237030409Y-70059563D01*
X237019097Y-70096855D01*
X236990309Y-70150712D01*
X236940170Y-70244517D01*
X236833948Y-70373948D01*
X236704517Y-70480170D01*
X236610712Y-70530309D01*
X236556855Y-70559097D01*
X236519563Y-70570409D01*
X236396629Y-70607701D01*
X236271753Y-70620000D01*
X236188247Y-70620000D01*
X236063371Y-70607701D01*
X235940437Y-70570409D01*
X235903145Y-70559097D01*
X235849288Y-70530309D01*
X235755483Y-70480170D01*
X235626052Y-70373948D01*
X235519830Y-70244517D01*
X235469691Y-70150712D01*
X235440903Y-70096855D01*
X235429591Y-70059563D01*
X235392299Y-69936629D01*
X235375888Y-69770000D01*
X235392299Y-69603371D01*
X235440903Y-69443146D01*
X235440903Y-69443145D01*
X235469691Y-69389288D01*
X235519830Y-69295483D01*
X235626052Y-69166052D01*
X235755483Y-69059830D01*
X235849288Y-69009691D01*
X235903145Y-68980903D01*
X235940437Y-68969591D01*
X236063371Y-68932299D01*
X236188247Y-68920000D01*
X236271753Y-68920000D01*
X236396629Y-68932299D01*
X236396629Y-68932299D01*
G37*
G36*
X261796629Y-68932299D02*
X261919563Y-68969591D01*
X261956855Y-68980903D01*
X262010712Y-69009691D01*
X262104517Y-69059830D01*
X262233948Y-69166052D01*
X262340170Y-69295483D01*
X262390309Y-69389288D01*
X262419097Y-69443145D01*
X262419097Y-69443146D01*
X262467701Y-69603371D01*
X262484112Y-69770000D01*
X262467701Y-69936629D01*
X262430409Y-70059563D01*
X262419097Y-70096855D01*
X262390309Y-70150712D01*
X262340170Y-70244517D01*
X262233948Y-70373948D01*
X262104517Y-70480170D01*
X262010712Y-70530309D01*
X261956855Y-70559097D01*
X261919563Y-70570409D01*
X261796629Y-70607701D01*
X261671753Y-70620000D01*
X261588247Y-70620000D01*
X261463371Y-70607701D01*
X261340437Y-70570409D01*
X261303145Y-70559097D01*
X261249288Y-70530309D01*
X261155483Y-70480170D01*
X261026052Y-70373948D01*
X260919830Y-70244517D01*
X260869691Y-70150712D01*
X260840903Y-70096855D01*
X260829591Y-70059563D01*
X260792299Y-69936629D01*
X260775888Y-69770000D01*
X260792299Y-69603371D01*
X260840903Y-69443146D01*
X260840903Y-69443145D01*
X260869691Y-69389288D01*
X260919830Y-69295483D01*
X261026052Y-69166052D01*
X261155483Y-69059830D01*
X261249288Y-69009691D01*
X261303145Y-68980903D01*
X261340437Y-68969591D01*
X261463371Y-68932299D01*
X261588247Y-68920000D01*
X261671753Y-68920000D01*
X261796629Y-68932299D01*
X261796629Y-68932299D01*
G37*
G36*
X233856629Y-68932299D02*
X233979563Y-68969591D01*
X234016855Y-68980903D01*
X234070712Y-69009691D01*
X234164517Y-69059830D01*
X234293948Y-69166052D01*
X234400170Y-69295483D01*
X234450309Y-69389288D01*
X234479097Y-69443145D01*
X234479097Y-69443146D01*
X234527701Y-69603371D01*
X234544112Y-69770000D01*
X234527701Y-69936629D01*
X234490409Y-70059563D01*
X234479097Y-70096855D01*
X234450309Y-70150712D01*
X234400170Y-70244517D01*
X234293948Y-70373948D01*
X234164517Y-70480170D01*
X234070712Y-70530309D01*
X234016855Y-70559097D01*
X233979563Y-70570409D01*
X233856629Y-70607701D01*
X233731753Y-70620000D01*
X233648247Y-70620000D01*
X233523371Y-70607701D01*
X233400437Y-70570409D01*
X233363145Y-70559097D01*
X233309288Y-70530309D01*
X233215483Y-70480170D01*
X233086052Y-70373948D01*
X232979830Y-70244517D01*
X232929691Y-70150712D01*
X232900903Y-70096855D01*
X232889591Y-70059563D01*
X232852299Y-69936629D01*
X232835888Y-69770000D01*
X232852299Y-69603371D01*
X232900903Y-69443146D01*
X232900903Y-69443145D01*
X232929691Y-69389288D01*
X232979830Y-69295483D01*
X233086052Y-69166052D01*
X233215483Y-69059830D01*
X233309288Y-69009691D01*
X233363145Y-68980903D01*
X233400437Y-68969591D01*
X233523371Y-68932299D01*
X233648247Y-68920000D01*
X233731753Y-68920000D01*
X233856629Y-68932299D01*
X233856629Y-68932299D01*
G37*
G36*
X231316629Y-68932299D02*
X231439563Y-68969591D01*
X231476855Y-68980903D01*
X231530712Y-69009691D01*
X231624517Y-69059830D01*
X231753948Y-69166052D01*
X231860170Y-69295483D01*
X231910309Y-69389288D01*
X231939097Y-69443145D01*
X231939097Y-69443146D01*
X231987701Y-69603371D01*
X232004112Y-69770000D01*
X231987701Y-69936629D01*
X231950409Y-70059563D01*
X231939097Y-70096855D01*
X231910309Y-70150712D01*
X231860170Y-70244517D01*
X231753948Y-70373948D01*
X231624517Y-70480170D01*
X231530712Y-70530309D01*
X231476855Y-70559097D01*
X231439563Y-70570409D01*
X231316629Y-70607701D01*
X231191753Y-70620000D01*
X231108247Y-70620000D01*
X230983371Y-70607701D01*
X230860437Y-70570409D01*
X230823145Y-70559097D01*
X230769288Y-70530309D01*
X230675483Y-70480170D01*
X230546052Y-70373948D01*
X230439830Y-70244517D01*
X230389691Y-70150712D01*
X230360903Y-70096855D01*
X230349591Y-70059563D01*
X230312299Y-69936629D01*
X230295888Y-69770000D01*
X230312299Y-69603371D01*
X230360903Y-69443146D01*
X230360903Y-69443145D01*
X230389691Y-69389288D01*
X230439830Y-69295483D01*
X230546052Y-69166052D01*
X230675483Y-69059830D01*
X230769288Y-69009691D01*
X230823145Y-68980903D01*
X230860437Y-68969591D01*
X230983371Y-68932299D01*
X231108247Y-68920000D01*
X231191753Y-68920000D01*
X231316629Y-68932299D01*
X231316629Y-68932299D01*
G37*
G36*
X221156629Y-68932299D02*
X221279563Y-68969591D01*
X221316855Y-68980903D01*
X221370712Y-69009691D01*
X221464517Y-69059830D01*
X221593948Y-69166052D01*
X221700170Y-69295483D01*
X221750309Y-69389288D01*
X221779097Y-69443145D01*
X221779097Y-69443146D01*
X221827701Y-69603371D01*
X221844112Y-69770000D01*
X221827701Y-69936629D01*
X221790409Y-70059563D01*
X221779097Y-70096855D01*
X221750309Y-70150712D01*
X221700170Y-70244517D01*
X221593948Y-70373948D01*
X221464517Y-70480170D01*
X221370712Y-70530309D01*
X221316855Y-70559097D01*
X221279563Y-70570409D01*
X221156629Y-70607701D01*
X221031753Y-70620000D01*
X220948247Y-70620000D01*
X220823371Y-70607701D01*
X220700437Y-70570409D01*
X220663145Y-70559097D01*
X220609288Y-70530309D01*
X220515483Y-70480170D01*
X220386052Y-70373948D01*
X220279830Y-70244517D01*
X220229691Y-70150712D01*
X220200903Y-70096855D01*
X220189591Y-70059563D01*
X220152299Y-69936629D01*
X220135888Y-69770000D01*
X220152299Y-69603371D01*
X220200903Y-69443146D01*
X220200903Y-69443145D01*
X220229691Y-69389288D01*
X220279830Y-69295483D01*
X220386052Y-69166052D01*
X220515483Y-69059830D01*
X220609288Y-69009691D01*
X220663145Y-68980903D01*
X220700437Y-68969591D01*
X220823371Y-68932299D01*
X220948247Y-68920000D01*
X221031753Y-68920000D01*
X221156629Y-68932299D01*
X221156629Y-68932299D01*
G37*
G36*
X218616629Y-68932299D02*
X218739563Y-68969591D01*
X218776855Y-68980903D01*
X218830712Y-69009691D01*
X218924517Y-69059830D01*
X219053948Y-69166052D01*
X219160170Y-69295483D01*
X219210309Y-69389288D01*
X219239097Y-69443145D01*
X219239097Y-69443146D01*
X219287701Y-69603371D01*
X219304112Y-69770000D01*
X219287701Y-69936629D01*
X219250409Y-70059563D01*
X219239097Y-70096855D01*
X219210309Y-70150712D01*
X219160170Y-70244517D01*
X219053948Y-70373948D01*
X218924517Y-70480170D01*
X218830712Y-70530309D01*
X218776855Y-70559097D01*
X218739563Y-70570409D01*
X218616629Y-70607701D01*
X218491753Y-70620000D01*
X218408247Y-70620000D01*
X218283371Y-70607701D01*
X218160437Y-70570409D01*
X218123145Y-70559097D01*
X218069288Y-70530309D01*
X217975483Y-70480170D01*
X217846052Y-70373948D01*
X217739830Y-70244517D01*
X217689691Y-70150712D01*
X217660903Y-70096855D01*
X217649591Y-70059563D01*
X217612299Y-69936629D01*
X217595888Y-69770000D01*
X217612299Y-69603371D01*
X217660903Y-69443146D01*
X217660903Y-69443145D01*
X217689691Y-69389288D01*
X217739830Y-69295483D01*
X217846052Y-69166052D01*
X217975483Y-69059830D01*
X218069288Y-69009691D01*
X218123145Y-68980903D01*
X218160437Y-68969591D01*
X218283371Y-68932299D01*
X218408247Y-68920000D01*
X218491753Y-68920000D01*
X218616629Y-68932299D01*
X218616629Y-68932299D01*
G37*
G36*
X226236629Y-68932299D02*
X226359563Y-68969591D01*
X226396855Y-68980903D01*
X226450712Y-69009691D01*
X226544517Y-69059830D01*
X226673948Y-69166052D01*
X226780170Y-69295483D01*
X226830309Y-69389288D01*
X226859097Y-69443145D01*
X226859097Y-69443146D01*
X226907701Y-69603371D01*
X226924112Y-69770000D01*
X226907701Y-69936629D01*
X226870409Y-70059563D01*
X226859097Y-70096855D01*
X226830309Y-70150712D01*
X226780170Y-70244517D01*
X226673948Y-70373948D01*
X226544517Y-70480170D01*
X226450712Y-70530309D01*
X226396855Y-70559097D01*
X226359563Y-70570409D01*
X226236629Y-70607701D01*
X226111753Y-70620000D01*
X226028247Y-70620000D01*
X225903371Y-70607701D01*
X225780437Y-70570409D01*
X225743145Y-70559097D01*
X225689288Y-70530309D01*
X225595483Y-70480170D01*
X225466052Y-70373948D01*
X225359830Y-70244517D01*
X225309691Y-70150712D01*
X225280903Y-70096855D01*
X225269591Y-70059563D01*
X225232299Y-69936629D01*
X225215888Y-69770000D01*
X225232299Y-69603371D01*
X225280903Y-69443146D01*
X225280903Y-69443145D01*
X225309691Y-69389288D01*
X225359830Y-69295483D01*
X225466052Y-69166052D01*
X225595483Y-69059830D01*
X225689288Y-69009691D01*
X225743145Y-68980903D01*
X225780437Y-68969591D01*
X225903371Y-68932299D01*
X226028247Y-68920000D01*
X226111753Y-68920000D01*
X226236629Y-68932299D01*
X226236629Y-68932299D01*
G37*
G36*
X216076629Y-68932299D02*
X216199563Y-68969591D01*
X216236855Y-68980903D01*
X216290712Y-69009691D01*
X216384517Y-69059830D01*
X216513948Y-69166052D01*
X216620170Y-69295483D01*
X216670309Y-69389288D01*
X216699097Y-69443145D01*
X216699097Y-69443146D01*
X216747701Y-69603371D01*
X216764112Y-69770000D01*
X216747701Y-69936629D01*
X216710409Y-70059563D01*
X216699097Y-70096855D01*
X216670309Y-70150712D01*
X216620170Y-70244517D01*
X216513948Y-70373948D01*
X216384517Y-70480170D01*
X216290712Y-70530309D01*
X216236855Y-70559097D01*
X216199563Y-70570409D01*
X216076629Y-70607701D01*
X215951753Y-70620000D01*
X215868247Y-70620000D01*
X215743371Y-70607701D01*
X215620437Y-70570409D01*
X215583145Y-70559097D01*
X215529288Y-70530309D01*
X215435483Y-70480170D01*
X215306052Y-70373948D01*
X215199830Y-70244517D01*
X215149691Y-70150712D01*
X215120903Y-70096855D01*
X215109591Y-70059563D01*
X215072299Y-69936629D01*
X215055888Y-69770000D01*
X215072299Y-69603371D01*
X215120903Y-69443146D01*
X215120903Y-69443145D01*
X215149691Y-69389288D01*
X215199830Y-69295483D01*
X215306052Y-69166052D01*
X215435483Y-69059830D01*
X215529288Y-69009691D01*
X215583145Y-68980903D01*
X215620437Y-68969591D01*
X215743371Y-68932299D01*
X215868247Y-68920000D01*
X215951753Y-68920000D01*
X216076629Y-68932299D01*
X216076629Y-68932299D01*
G37*
G36*
X228776629Y-68932299D02*
X228899563Y-68969591D01*
X228936855Y-68980903D01*
X228990712Y-69009691D01*
X229084517Y-69059830D01*
X229213948Y-69166052D01*
X229320170Y-69295483D01*
X229370309Y-69389288D01*
X229399097Y-69443145D01*
X229399097Y-69443146D01*
X229447701Y-69603371D01*
X229464112Y-69770000D01*
X229447701Y-69936629D01*
X229410409Y-70059563D01*
X229399097Y-70096855D01*
X229370309Y-70150712D01*
X229320170Y-70244517D01*
X229213948Y-70373948D01*
X229084517Y-70480170D01*
X228990712Y-70530309D01*
X228936855Y-70559097D01*
X228899563Y-70570409D01*
X228776629Y-70607701D01*
X228651753Y-70620000D01*
X228568247Y-70620000D01*
X228443371Y-70607701D01*
X228320437Y-70570409D01*
X228283145Y-70559097D01*
X228229288Y-70530309D01*
X228135483Y-70480170D01*
X228006052Y-70373948D01*
X227899830Y-70244517D01*
X227849691Y-70150712D01*
X227820903Y-70096855D01*
X227809591Y-70059563D01*
X227772299Y-69936629D01*
X227755888Y-69770000D01*
X227772299Y-69603371D01*
X227820903Y-69443146D01*
X227820903Y-69443145D01*
X227849691Y-69389288D01*
X227899830Y-69295483D01*
X228006052Y-69166052D01*
X228135483Y-69059830D01*
X228229288Y-69009691D01*
X228283145Y-68980903D01*
X228320437Y-68969591D01*
X228443371Y-68932299D01*
X228568247Y-68920000D01*
X228651753Y-68920000D01*
X228776629Y-68932299D01*
X228776629Y-68932299D01*
G37*
G36*
X214220000Y-70620000D02*
X212520000Y-70620000D01*
X212520000Y-68920000D01*
X214220000Y-68920000D01*
X214220000Y-70620000D01*
X214220000Y-70620000D01*
G37*
G36*
X223696629Y-68932299D02*
X223819563Y-68969591D01*
X223856855Y-68980903D01*
X223910712Y-69009691D01*
X224004517Y-69059830D01*
X224133948Y-69166052D01*
X224240170Y-69295483D01*
X224290309Y-69389288D01*
X224319097Y-69443145D01*
X224319097Y-69443146D01*
X224367701Y-69603371D01*
X224384112Y-69770000D01*
X224367701Y-69936629D01*
X224330409Y-70059563D01*
X224319097Y-70096855D01*
X224290309Y-70150712D01*
X224240170Y-70244517D01*
X224133948Y-70373948D01*
X224004517Y-70480170D01*
X223910712Y-70530309D01*
X223856855Y-70559097D01*
X223819563Y-70570409D01*
X223696629Y-70607701D01*
X223571753Y-70620000D01*
X223488247Y-70620000D01*
X223363371Y-70607701D01*
X223240437Y-70570409D01*
X223203145Y-70559097D01*
X223149288Y-70530309D01*
X223055483Y-70480170D01*
X222926052Y-70373948D01*
X222819830Y-70244517D01*
X222769691Y-70150712D01*
X222740903Y-70096855D01*
X222729591Y-70059563D01*
X222692299Y-69936629D01*
X222675888Y-69770000D01*
X222692299Y-69603371D01*
X222740903Y-69443146D01*
X222740903Y-69443145D01*
X222769691Y-69389288D01*
X222819830Y-69295483D01*
X222926052Y-69166052D01*
X223055483Y-69059830D01*
X223149288Y-69009691D01*
X223203145Y-68980903D01*
X223240437Y-68969591D01*
X223363371Y-68932299D01*
X223488247Y-68920000D01*
X223571753Y-68920000D01*
X223696629Y-68932299D01*
X223696629Y-68932299D01*
G37*
G36*
X266893779Y-67201879D02*
X267139466Y-67303646D01*
X267360576Y-67451387D01*
X267548613Y-67639424D01*
X267696354Y-67860534D01*
X267798121Y-68106221D01*
X267850000Y-68367035D01*
X267850000Y-68632965D01*
X267798121Y-68893779D01*
X267696354Y-69139466D01*
X267548613Y-69360576D01*
X267360576Y-69548613D01*
X267139466Y-69696354D01*
X266893779Y-69798121D01*
X266632965Y-69850000D01*
X266367035Y-69850000D01*
X266106221Y-69798121D01*
X265860534Y-69696354D01*
X265639424Y-69548613D01*
X265451387Y-69360576D01*
X265303646Y-69139466D01*
X265201879Y-68893779D01*
X265150000Y-68632965D01*
X265150000Y-68367035D01*
X265201879Y-68106221D01*
X265303646Y-67860534D01*
X265451387Y-67639424D01*
X265639424Y-67451387D01*
X265860534Y-67303646D01*
X266106221Y-67201879D01*
X266367035Y-67150000D01*
X266632965Y-67150000D01*
X266893779Y-67201879D01*
X266893779Y-67201879D01*
G37*
G36*
X208893779Y-67201879D02*
X209139466Y-67303646D01*
X209360576Y-67451387D01*
X209548613Y-67639424D01*
X209696354Y-67860534D01*
X209798121Y-68106221D01*
X209850000Y-68367035D01*
X209850000Y-68632965D01*
X209798121Y-68893779D01*
X209696354Y-69139466D01*
X209548613Y-69360576D01*
X209360576Y-69548613D01*
X209139466Y-69696354D01*
X208893779Y-69798121D01*
X208632965Y-69850000D01*
X208367035Y-69850000D01*
X208106221Y-69798121D01*
X207860534Y-69696354D01*
X207639424Y-69548613D01*
X207451387Y-69360576D01*
X207303646Y-69139466D01*
X207201879Y-68893779D01*
X207150000Y-68632965D01*
X207150000Y-68367035D01*
X207201879Y-68106221D01*
X207303646Y-67860534D01*
X207451387Y-67639424D01*
X207639424Y-67451387D01*
X207860534Y-67303646D01*
X208106221Y-67201879D01*
X208367035Y-67150000D01*
X208632965Y-67150000D01*
X208893779Y-67201879D01*
X208893779Y-67201879D01*
G37*
G36*
X261796629Y-66392299D02*
X261919563Y-66429591D01*
X261956855Y-66440903D01*
X262010712Y-66469691D01*
X262104517Y-66519830D01*
X262233948Y-66626052D01*
X262340170Y-66755483D01*
X262390309Y-66849288D01*
X262419097Y-66903145D01*
X262419097Y-66903146D01*
X262467701Y-67063371D01*
X262484112Y-67230000D01*
X262467701Y-67396629D01*
X262451090Y-67451387D01*
X262419097Y-67556855D01*
X262390309Y-67610712D01*
X262340170Y-67704517D01*
X262233948Y-67833948D01*
X262104517Y-67940170D01*
X262010712Y-67990309D01*
X261956855Y-68019097D01*
X261919563Y-68030409D01*
X261796629Y-68067701D01*
X261671753Y-68080000D01*
X261588247Y-68080000D01*
X261463371Y-68067701D01*
X261340437Y-68030409D01*
X261303145Y-68019097D01*
X261249288Y-67990309D01*
X261155483Y-67940170D01*
X261026052Y-67833948D01*
X260919830Y-67704517D01*
X260869691Y-67610712D01*
X260840903Y-67556855D01*
X260808910Y-67451387D01*
X260792299Y-67396629D01*
X260775888Y-67230000D01*
X260792299Y-67063371D01*
X260840903Y-66903146D01*
X260840903Y-66903145D01*
X260869691Y-66849288D01*
X260919830Y-66755483D01*
X261026052Y-66626052D01*
X261155483Y-66519830D01*
X261249288Y-66469691D01*
X261303145Y-66440903D01*
X261340437Y-66429591D01*
X261463371Y-66392299D01*
X261588247Y-66380000D01*
X261671753Y-66380000D01*
X261796629Y-66392299D01*
X261796629Y-66392299D01*
G37*
G36*
X259256629Y-66392299D02*
X259379563Y-66429591D01*
X259416855Y-66440903D01*
X259470712Y-66469691D01*
X259564517Y-66519830D01*
X259693948Y-66626052D01*
X259800170Y-66755483D01*
X259850309Y-66849288D01*
X259879097Y-66903145D01*
X259879097Y-66903146D01*
X259927701Y-67063371D01*
X259944112Y-67230000D01*
X259927701Y-67396629D01*
X259911090Y-67451387D01*
X259879097Y-67556855D01*
X259850309Y-67610712D01*
X259800170Y-67704517D01*
X259693948Y-67833948D01*
X259564517Y-67940170D01*
X259470712Y-67990309D01*
X259416855Y-68019097D01*
X259379563Y-68030409D01*
X259256629Y-68067701D01*
X259131753Y-68080000D01*
X259048247Y-68080000D01*
X258923371Y-68067701D01*
X258800437Y-68030409D01*
X258763145Y-68019097D01*
X258709288Y-67990309D01*
X258615483Y-67940170D01*
X258486052Y-67833948D01*
X258379830Y-67704517D01*
X258329691Y-67610712D01*
X258300903Y-67556855D01*
X258268910Y-67451387D01*
X258252299Y-67396629D01*
X258235888Y-67230000D01*
X258252299Y-67063371D01*
X258300903Y-66903146D01*
X258300903Y-66903145D01*
X258329691Y-66849288D01*
X258379830Y-66755483D01*
X258486052Y-66626052D01*
X258615483Y-66519830D01*
X258709288Y-66469691D01*
X258763145Y-66440903D01*
X258800437Y-66429591D01*
X258923371Y-66392299D01*
X259048247Y-66380000D01*
X259131753Y-66380000D01*
X259256629Y-66392299D01*
X259256629Y-66392299D01*
G37*
G36*
X256716629Y-66392299D02*
X256839563Y-66429591D01*
X256876855Y-66440903D01*
X256930712Y-66469691D01*
X257024517Y-66519830D01*
X257153948Y-66626052D01*
X257260170Y-66755483D01*
X257310309Y-66849288D01*
X257339097Y-66903145D01*
X257339097Y-66903146D01*
X257387701Y-67063371D01*
X257404112Y-67230000D01*
X257387701Y-67396629D01*
X257371090Y-67451387D01*
X257339097Y-67556855D01*
X257310309Y-67610712D01*
X257260170Y-67704517D01*
X257153948Y-67833948D01*
X257024517Y-67940170D01*
X256930712Y-67990309D01*
X256876855Y-68019097D01*
X256839563Y-68030409D01*
X256716629Y-68067701D01*
X256591753Y-68080000D01*
X256508247Y-68080000D01*
X256383371Y-68067701D01*
X256260437Y-68030409D01*
X256223145Y-68019097D01*
X256169288Y-67990309D01*
X256075483Y-67940170D01*
X255946052Y-67833948D01*
X255839830Y-67704517D01*
X255789691Y-67610712D01*
X255760903Y-67556855D01*
X255728910Y-67451387D01*
X255712299Y-67396629D01*
X255695888Y-67230000D01*
X255712299Y-67063371D01*
X255760903Y-66903146D01*
X255760903Y-66903145D01*
X255789691Y-66849288D01*
X255839830Y-66755483D01*
X255946052Y-66626052D01*
X256075483Y-66519830D01*
X256169288Y-66469691D01*
X256223145Y-66440903D01*
X256260437Y-66429591D01*
X256383371Y-66392299D01*
X256508247Y-66380000D01*
X256591753Y-66380000D01*
X256716629Y-66392299D01*
X256716629Y-66392299D01*
G37*
G36*
X254176629Y-66392299D02*
X254299563Y-66429591D01*
X254336855Y-66440903D01*
X254390712Y-66469691D01*
X254484517Y-66519830D01*
X254613948Y-66626052D01*
X254720170Y-66755483D01*
X254770309Y-66849288D01*
X254799097Y-66903145D01*
X254799097Y-66903146D01*
X254847701Y-67063371D01*
X254864112Y-67230000D01*
X254847701Y-67396629D01*
X254831090Y-67451387D01*
X254799097Y-67556855D01*
X254770309Y-67610712D01*
X254720170Y-67704517D01*
X254613948Y-67833948D01*
X254484517Y-67940170D01*
X254390712Y-67990309D01*
X254336855Y-68019097D01*
X254299563Y-68030409D01*
X254176629Y-68067701D01*
X254051753Y-68080000D01*
X253968247Y-68080000D01*
X253843371Y-68067701D01*
X253720437Y-68030409D01*
X253683145Y-68019097D01*
X253629288Y-67990309D01*
X253535483Y-67940170D01*
X253406052Y-67833948D01*
X253299830Y-67704517D01*
X253249691Y-67610712D01*
X253220903Y-67556855D01*
X253188910Y-67451387D01*
X253172299Y-67396629D01*
X253155888Y-67230000D01*
X253172299Y-67063371D01*
X253220903Y-66903146D01*
X253220903Y-66903145D01*
X253249691Y-66849288D01*
X253299830Y-66755483D01*
X253406052Y-66626052D01*
X253535483Y-66519830D01*
X253629288Y-66469691D01*
X253683145Y-66440903D01*
X253720437Y-66429591D01*
X253843371Y-66392299D01*
X253968247Y-66380000D01*
X254051753Y-66380000D01*
X254176629Y-66392299D01*
X254176629Y-66392299D01*
G37*
G36*
X236396629Y-66392299D02*
X236519563Y-66429591D01*
X236556855Y-66440903D01*
X236610712Y-66469691D01*
X236704517Y-66519830D01*
X236833948Y-66626052D01*
X236940170Y-66755483D01*
X236990309Y-66849288D01*
X237019097Y-66903145D01*
X237019097Y-66903146D01*
X237067701Y-67063371D01*
X237084112Y-67230000D01*
X237067701Y-67396629D01*
X237051090Y-67451387D01*
X237019097Y-67556855D01*
X236990309Y-67610712D01*
X236940170Y-67704517D01*
X236833948Y-67833948D01*
X236704517Y-67940170D01*
X236610712Y-67990309D01*
X236556855Y-68019097D01*
X236519563Y-68030409D01*
X236396629Y-68067701D01*
X236271753Y-68080000D01*
X236188247Y-68080000D01*
X236063371Y-68067701D01*
X235940437Y-68030409D01*
X235903145Y-68019097D01*
X235849288Y-67990309D01*
X235755483Y-67940170D01*
X235626052Y-67833948D01*
X235519830Y-67704517D01*
X235469691Y-67610712D01*
X235440903Y-67556855D01*
X235408910Y-67451387D01*
X235392299Y-67396629D01*
X235375888Y-67230000D01*
X235392299Y-67063371D01*
X235440903Y-66903146D01*
X235440903Y-66903145D01*
X235469691Y-66849288D01*
X235519830Y-66755483D01*
X235626052Y-66626052D01*
X235755483Y-66519830D01*
X235849288Y-66469691D01*
X235903145Y-66440903D01*
X235940437Y-66429591D01*
X236063371Y-66392299D01*
X236188247Y-66380000D01*
X236271753Y-66380000D01*
X236396629Y-66392299D01*
X236396629Y-66392299D01*
G37*
G36*
X233856629Y-66392299D02*
X233979563Y-66429591D01*
X234016855Y-66440903D01*
X234070712Y-66469691D01*
X234164517Y-66519830D01*
X234293948Y-66626052D01*
X234400170Y-66755483D01*
X234450309Y-66849288D01*
X234479097Y-66903145D01*
X234479097Y-66903146D01*
X234527701Y-67063371D01*
X234544112Y-67230000D01*
X234527701Y-67396629D01*
X234511090Y-67451387D01*
X234479097Y-67556855D01*
X234450309Y-67610712D01*
X234400170Y-67704517D01*
X234293948Y-67833948D01*
X234164517Y-67940170D01*
X234070712Y-67990309D01*
X234016855Y-68019097D01*
X233979563Y-68030409D01*
X233856629Y-68067701D01*
X233731753Y-68080000D01*
X233648247Y-68080000D01*
X233523371Y-68067701D01*
X233400437Y-68030409D01*
X233363145Y-68019097D01*
X233309288Y-67990309D01*
X233215483Y-67940170D01*
X233086052Y-67833948D01*
X232979830Y-67704517D01*
X232929691Y-67610712D01*
X232900903Y-67556855D01*
X232868910Y-67451387D01*
X232852299Y-67396629D01*
X232835888Y-67230000D01*
X232852299Y-67063371D01*
X232900903Y-66903146D01*
X232900903Y-66903145D01*
X232929691Y-66849288D01*
X232979830Y-66755483D01*
X233086052Y-66626052D01*
X233215483Y-66519830D01*
X233309288Y-66469691D01*
X233363145Y-66440903D01*
X233400437Y-66429591D01*
X233523371Y-66392299D01*
X233648247Y-66380000D01*
X233731753Y-66380000D01*
X233856629Y-66392299D01*
X233856629Y-66392299D01*
G37*
G36*
X213536629Y-66392299D02*
X213659563Y-66429591D01*
X213696855Y-66440903D01*
X213750712Y-66469691D01*
X213844517Y-66519830D01*
X213973948Y-66626052D01*
X214080170Y-66755483D01*
X214130309Y-66849288D01*
X214159097Y-66903145D01*
X214159097Y-66903146D01*
X214207701Y-67063371D01*
X214224112Y-67230000D01*
X214207701Y-67396629D01*
X214191090Y-67451387D01*
X214159097Y-67556855D01*
X214130309Y-67610712D01*
X214080170Y-67704517D01*
X213973948Y-67833948D01*
X213844517Y-67940170D01*
X213750712Y-67990309D01*
X213696855Y-68019097D01*
X213659563Y-68030409D01*
X213536629Y-68067701D01*
X213411753Y-68080000D01*
X213328247Y-68080000D01*
X213203371Y-68067701D01*
X213080437Y-68030409D01*
X213043145Y-68019097D01*
X212989288Y-67990309D01*
X212895483Y-67940170D01*
X212766052Y-67833948D01*
X212659830Y-67704517D01*
X212609691Y-67610712D01*
X212580903Y-67556855D01*
X212548910Y-67451387D01*
X212532299Y-67396629D01*
X212515888Y-67230000D01*
X212532299Y-67063371D01*
X212580903Y-66903146D01*
X212580903Y-66903145D01*
X212609691Y-66849288D01*
X212659830Y-66755483D01*
X212766052Y-66626052D01*
X212895483Y-66519830D01*
X212989288Y-66469691D01*
X213043145Y-66440903D01*
X213080437Y-66429591D01*
X213203371Y-66392299D01*
X213328247Y-66380000D01*
X213411753Y-66380000D01*
X213536629Y-66392299D01*
X213536629Y-66392299D01*
G37*
G36*
X216076629Y-66392299D02*
X216199563Y-66429591D01*
X216236855Y-66440903D01*
X216290712Y-66469691D01*
X216384517Y-66519830D01*
X216513948Y-66626052D01*
X216620170Y-66755483D01*
X216670309Y-66849288D01*
X216699097Y-66903145D01*
X216699097Y-66903146D01*
X216747701Y-67063371D01*
X216764112Y-67230000D01*
X216747701Y-67396629D01*
X216731090Y-67451387D01*
X216699097Y-67556855D01*
X216670309Y-67610712D01*
X216620170Y-67704517D01*
X216513948Y-67833948D01*
X216384517Y-67940170D01*
X216290712Y-67990309D01*
X216236855Y-68019097D01*
X216199563Y-68030409D01*
X216076629Y-68067701D01*
X215951753Y-68080000D01*
X215868247Y-68080000D01*
X215743371Y-68067701D01*
X215620437Y-68030409D01*
X215583145Y-68019097D01*
X215529288Y-67990309D01*
X215435483Y-67940170D01*
X215306052Y-67833948D01*
X215199830Y-67704517D01*
X215149691Y-67610712D01*
X215120903Y-67556855D01*
X215088910Y-67451387D01*
X215072299Y-67396629D01*
X215055888Y-67230000D01*
X215072299Y-67063371D01*
X215120903Y-66903146D01*
X215120903Y-66903145D01*
X215149691Y-66849288D01*
X215199830Y-66755483D01*
X215306052Y-66626052D01*
X215435483Y-66519830D01*
X215529288Y-66469691D01*
X215583145Y-66440903D01*
X215620437Y-66429591D01*
X215743371Y-66392299D01*
X215868247Y-66380000D01*
X215951753Y-66380000D01*
X216076629Y-66392299D01*
X216076629Y-66392299D01*
G37*
G36*
X218616629Y-66392299D02*
X218739563Y-66429591D01*
X218776855Y-66440903D01*
X218830712Y-66469691D01*
X218924517Y-66519830D01*
X219053948Y-66626052D01*
X219160170Y-66755483D01*
X219210309Y-66849288D01*
X219239097Y-66903145D01*
X219239097Y-66903146D01*
X219287701Y-67063371D01*
X219304112Y-67230000D01*
X219287701Y-67396629D01*
X219271090Y-67451387D01*
X219239097Y-67556855D01*
X219210309Y-67610712D01*
X219160170Y-67704517D01*
X219053948Y-67833948D01*
X218924517Y-67940170D01*
X218830712Y-67990309D01*
X218776855Y-68019097D01*
X218739563Y-68030409D01*
X218616629Y-68067701D01*
X218491753Y-68080000D01*
X218408247Y-68080000D01*
X218283371Y-68067701D01*
X218160437Y-68030409D01*
X218123145Y-68019097D01*
X218069288Y-67990309D01*
X217975483Y-67940170D01*
X217846052Y-67833948D01*
X217739830Y-67704517D01*
X217689691Y-67610712D01*
X217660903Y-67556855D01*
X217628910Y-67451387D01*
X217612299Y-67396629D01*
X217595888Y-67230000D01*
X217612299Y-67063371D01*
X217660903Y-66903146D01*
X217660903Y-66903145D01*
X217689691Y-66849288D01*
X217739830Y-66755483D01*
X217846052Y-66626052D01*
X217975483Y-66519830D01*
X218069288Y-66469691D01*
X218123145Y-66440903D01*
X218160437Y-66429591D01*
X218283371Y-66392299D01*
X218408247Y-66380000D01*
X218491753Y-66380000D01*
X218616629Y-66392299D01*
X218616629Y-66392299D01*
G37*
G36*
X221156629Y-66392299D02*
X221279563Y-66429591D01*
X221316855Y-66440903D01*
X221370712Y-66469691D01*
X221464517Y-66519830D01*
X221593948Y-66626052D01*
X221700170Y-66755483D01*
X221750309Y-66849288D01*
X221779097Y-66903145D01*
X221779097Y-66903146D01*
X221827701Y-67063371D01*
X221844112Y-67230000D01*
X221827701Y-67396629D01*
X221811090Y-67451387D01*
X221779097Y-67556855D01*
X221750309Y-67610712D01*
X221700170Y-67704517D01*
X221593948Y-67833948D01*
X221464517Y-67940170D01*
X221370712Y-67990309D01*
X221316855Y-68019097D01*
X221279563Y-68030409D01*
X221156629Y-68067701D01*
X221031753Y-68080000D01*
X220948247Y-68080000D01*
X220823371Y-68067701D01*
X220700437Y-68030409D01*
X220663145Y-68019097D01*
X220609288Y-67990309D01*
X220515483Y-67940170D01*
X220386052Y-67833948D01*
X220279830Y-67704517D01*
X220229691Y-67610712D01*
X220200903Y-67556855D01*
X220168910Y-67451387D01*
X220152299Y-67396629D01*
X220135888Y-67230000D01*
X220152299Y-67063371D01*
X220200903Y-66903146D01*
X220200903Y-66903145D01*
X220229691Y-66849288D01*
X220279830Y-66755483D01*
X220386052Y-66626052D01*
X220515483Y-66519830D01*
X220609288Y-66469691D01*
X220663145Y-66440903D01*
X220700437Y-66429591D01*
X220823371Y-66392299D01*
X220948247Y-66380000D01*
X221031753Y-66380000D01*
X221156629Y-66392299D01*
X221156629Y-66392299D01*
G37*
G36*
X223696629Y-66392299D02*
X223819563Y-66429591D01*
X223856855Y-66440903D01*
X223910712Y-66469691D01*
X224004517Y-66519830D01*
X224133948Y-66626052D01*
X224240170Y-66755483D01*
X224290309Y-66849288D01*
X224319097Y-66903145D01*
X224319097Y-66903146D01*
X224367701Y-67063371D01*
X224384112Y-67230000D01*
X224367701Y-67396629D01*
X224351090Y-67451387D01*
X224319097Y-67556855D01*
X224290309Y-67610712D01*
X224240170Y-67704517D01*
X224133948Y-67833948D01*
X224004517Y-67940170D01*
X223910712Y-67990309D01*
X223856855Y-68019097D01*
X223819563Y-68030409D01*
X223696629Y-68067701D01*
X223571753Y-68080000D01*
X223488247Y-68080000D01*
X223363371Y-68067701D01*
X223240437Y-68030409D01*
X223203145Y-68019097D01*
X223149288Y-67990309D01*
X223055483Y-67940170D01*
X222926052Y-67833948D01*
X222819830Y-67704517D01*
X222769691Y-67610712D01*
X222740903Y-67556855D01*
X222708910Y-67451387D01*
X222692299Y-67396629D01*
X222675888Y-67230000D01*
X222692299Y-67063371D01*
X222740903Y-66903146D01*
X222740903Y-66903145D01*
X222769691Y-66849288D01*
X222819830Y-66755483D01*
X222926052Y-66626052D01*
X223055483Y-66519830D01*
X223149288Y-66469691D01*
X223203145Y-66440903D01*
X223240437Y-66429591D01*
X223363371Y-66392299D01*
X223488247Y-66380000D01*
X223571753Y-66380000D01*
X223696629Y-66392299D01*
X223696629Y-66392299D01*
G37*
G36*
X228776629Y-66392299D02*
X228899563Y-66429591D01*
X228936855Y-66440903D01*
X228990712Y-66469691D01*
X229084517Y-66519830D01*
X229213948Y-66626052D01*
X229320170Y-66755483D01*
X229370309Y-66849288D01*
X229399097Y-66903145D01*
X229399097Y-66903146D01*
X229447701Y-67063371D01*
X229464112Y-67230000D01*
X229447701Y-67396629D01*
X229431090Y-67451387D01*
X229399097Y-67556855D01*
X229370309Y-67610712D01*
X229320170Y-67704517D01*
X229213948Y-67833948D01*
X229084517Y-67940170D01*
X228990712Y-67990309D01*
X228936855Y-68019097D01*
X228899563Y-68030409D01*
X228776629Y-68067701D01*
X228651753Y-68080000D01*
X228568247Y-68080000D01*
X228443371Y-68067701D01*
X228320437Y-68030409D01*
X228283145Y-68019097D01*
X228229288Y-67990309D01*
X228135483Y-67940170D01*
X228006052Y-67833948D01*
X227899830Y-67704517D01*
X227849691Y-67610712D01*
X227820903Y-67556855D01*
X227788910Y-67451387D01*
X227772299Y-67396629D01*
X227755888Y-67230000D01*
X227772299Y-67063371D01*
X227820903Y-66903146D01*
X227820903Y-66903145D01*
X227849691Y-66849288D01*
X227899830Y-66755483D01*
X228006052Y-66626052D01*
X228135483Y-66519830D01*
X228229288Y-66469691D01*
X228283145Y-66440903D01*
X228320437Y-66429591D01*
X228443371Y-66392299D01*
X228568247Y-66380000D01*
X228651753Y-66380000D01*
X228776629Y-66392299D01*
X228776629Y-66392299D01*
G37*
G36*
X226236629Y-66392299D02*
X226359563Y-66429591D01*
X226396855Y-66440903D01*
X226450712Y-66469691D01*
X226544517Y-66519830D01*
X226673948Y-66626052D01*
X226780170Y-66755483D01*
X226830309Y-66849288D01*
X226859097Y-66903145D01*
X226859097Y-66903146D01*
X226907701Y-67063371D01*
X226924112Y-67230000D01*
X226907701Y-67396629D01*
X226891090Y-67451387D01*
X226859097Y-67556855D01*
X226830309Y-67610712D01*
X226780170Y-67704517D01*
X226673948Y-67833948D01*
X226544517Y-67940170D01*
X226450712Y-67990309D01*
X226396855Y-68019097D01*
X226359563Y-68030409D01*
X226236629Y-68067701D01*
X226111753Y-68080000D01*
X226028247Y-68080000D01*
X225903371Y-68067701D01*
X225780437Y-68030409D01*
X225743145Y-68019097D01*
X225689288Y-67990309D01*
X225595483Y-67940170D01*
X225466052Y-67833948D01*
X225359830Y-67704517D01*
X225309691Y-67610712D01*
X225280903Y-67556855D01*
X225248910Y-67451387D01*
X225232299Y-67396629D01*
X225215888Y-67230000D01*
X225232299Y-67063371D01*
X225280903Y-66903146D01*
X225280903Y-66903145D01*
X225309691Y-66849288D01*
X225359830Y-66755483D01*
X225466052Y-66626052D01*
X225595483Y-66519830D01*
X225689288Y-66469691D01*
X225743145Y-66440903D01*
X225780437Y-66429591D01*
X225903371Y-66392299D01*
X226028247Y-66380000D01*
X226111753Y-66380000D01*
X226236629Y-66392299D01*
X226236629Y-66392299D01*
G37*
G36*
X231316629Y-66392299D02*
X231439563Y-66429591D01*
X231476855Y-66440903D01*
X231530712Y-66469691D01*
X231624517Y-66519830D01*
X231753948Y-66626052D01*
X231860170Y-66755483D01*
X231910309Y-66849288D01*
X231939097Y-66903145D01*
X231939097Y-66903146D01*
X231987701Y-67063371D01*
X232004112Y-67230000D01*
X231987701Y-67396629D01*
X231971090Y-67451387D01*
X231939097Y-67556855D01*
X231910309Y-67610712D01*
X231860170Y-67704517D01*
X231753948Y-67833948D01*
X231624517Y-67940170D01*
X231530712Y-67990309D01*
X231476855Y-68019097D01*
X231439563Y-68030409D01*
X231316629Y-68067701D01*
X231191753Y-68080000D01*
X231108247Y-68080000D01*
X230983371Y-68067701D01*
X230860437Y-68030409D01*
X230823145Y-68019097D01*
X230769288Y-67990309D01*
X230675483Y-67940170D01*
X230546052Y-67833948D01*
X230439830Y-67704517D01*
X230389691Y-67610712D01*
X230360903Y-67556855D01*
X230328910Y-67451387D01*
X230312299Y-67396629D01*
X230295888Y-67230000D01*
X230312299Y-67063371D01*
X230360903Y-66903146D01*
X230360903Y-66903145D01*
X230389691Y-66849288D01*
X230439830Y-66755483D01*
X230546052Y-66626052D01*
X230675483Y-66519830D01*
X230769288Y-66469691D01*
X230823145Y-66440903D01*
X230860437Y-66429591D01*
X230983371Y-66392299D01*
X231108247Y-66380000D01*
X231191753Y-66380000D01*
X231316629Y-66392299D01*
X231316629Y-66392299D01*
G37*
M02*
