G04 #@! TF.GenerationSoftware,KiCad,Pcbnew,(5.0.2)-1*
G04 #@! TF.CreationDate,2019-03-22T12:40:45+11:00*
G04 #@! TF.ProjectId,VeinCamHatZero,5665696e-4361-46d4-9861-745a65726f2e,rev?*
G04 #@! TF.SameCoordinates,Original*
G04 #@! TF.FileFunction,Copper,L2,Bot*
G04 #@! TF.FilePolarity,Positive*
%FSLAX46Y46*%
G04 Gerber Fmt 4.6, Leading zero omitted, Abs format (unit mm)*
G04 Created by KiCad (PCBNEW (5.0.2)-1) date 22/03/2019 12:40:45*
%MOMM*%
%LPD*%
G01*
G04 APERTURE LIST*
G04 #@! TA.AperFunction,ComponentPad*
%ADD10R,1.700000X1.700000*%
G04 #@! TD*
G04 #@! TA.AperFunction,ComponentPad*
%ADD11O,1.700000X1.700000*%
G04 #@! TD*
G04 #@! TA.AperFunction,ViaPad*
%ADD12C,0.600000*%
G04 #@! TD*
G04 #@! TA.AperFunction,Conductor*
%ADD13C,0.300000*%
G04 #@! TD*
G04 #@! TA.AperFunction,Conductor*
%ADD14C,0.400000*%
G04 #@! TD*
G04 #@! TA.AperFunction,Conductor*
%ADD15C,0.200000*%
G04 #@! TD*
G04 APERTURE END LIST*
D10*
G04 #@! TO.P,J1,1*
G04 #@! TO.N,N/C*
X213370000Y-69770000D03*
D11*
G04 #@! TO.P,J1,2*
G04 #@! TO.N,+5V*
X213370000Y-67230000D03*
G04 #@! TO.P,J1,3*
G04 #@! TO.N,N/C*
X215910000Y-69770000D03*
G04 #@! TO.P,J1,4*
G04 #@! TO.N,+5V*
X215910000Y-67230000D03*
G04 #@! TO.P,J1,5*
G04 #@! TO.N,N/C*
X218450000Y-69770000D03*
G04 #@! TO.P,J1,6*
G04 #@! TO.N,GND*
X218450000Y-67230000D03*
G04 #@! TO.P,J1,7*
G04 #@! TO.N,/LED_READY*
X220990000Y-69770000D03*
G04 #@! TO.P,J1,8*
G04 #@! TO.N,/LED_BOOT*
X220990000Y-67230000D03*
G04 #@! TO.P,J1,9*
G04 #@! TO.N,GND*
X223530000Y-69770000D03*
G04 #@! TO.P,J1,10*
G04 #@! TO.N,N/C*
X223530000Y-67230000D03*
G04 #@! TO.P,J1,11*
X226070000Y-69770000D03*
G04 #@! TO.P,J1,12*
G04 #@! TO.N,/LED_940*
X226070000Y-67230000D03*
G04 #@! TO.P,J1,13*
G04 #@! TO.N,N/C*
X228610000Y-69770000D03*
G04 #@! TO.P,J1,14*
G04 #@! TO.N,GND*
X228610000Y-67230000D03*
G04 #@! TO.P,J1,15*
G04 #@! TO.N,N/C*
X231150000Y-69770000D03*
G04 #@! TO.P,J1,16*
X231150000Y-67230000D03*
G04 #@! TO.P,J1,17*
X233690000Y-69770000D03*
G04 #@! TO.P,J1,18*
X233690000Y-67230000D03*
G04 #@! TO.P,J1,19*
X236230000Y-69770000D03*
G04 #@! TO.P,J1,20*
G04 #@! TO.N,GND*
X236230000Y-67230000D03*
G04 #@! TO.P,J1,33*
G04 #@! TO.N,/LED_850*
X254010000Y-69770000D03*
G04 #@! TO.P,J1,34*
G04 #@! TO.N,GND*
X254010000Y-67230000D03*
G04 #@! TO.P,J1,35*
G04 #@! TO.N,N/C*
X256550000Y-69770000D03*
G04 #@! TO.P,J1,36*
X256550000Y-67230000D03*
G04 #@! TO.P,J1,37*
X259090000Y-69770000D03*
G04 #@! TO.P,J1,38*
X259090000Y-67230000D03*
G04 #@! TO.P,J1,39*
G04 #@! TO.N,GND*
X261630000Y-69770000D03*
G04 #@! TO.P,J1,40*
G04 #@! TO.N,N/C*
X261630000Y-67230000D03*
G04 #@! TD*
D12*
G04 #@! TO.N,GND*
X258500000Y-85800000D03*
X256700000Y-90500000D03*
X255800000Y-91400000D03*
X255800000Y-87900000D03*
X255800000Y-89700000D03*
X257900000Y-85200000D03*
X257000000Y-85300000D03*
X256300000Y-84800000D03*
X239000000Y-66500000D03*
X244000000Y-66400000D03*
X249000000Y-66500000D03*
X268000000Y-73000000D03*
X268000000Y-88000000D03*
X262000000Y-84000000D03*
X262000000Y-92000000D03*
X252000000Y-91000000D03*
X249000000Y-91000000D03*
X256000000Y-75000000D03*
X260000000Y-75000000D03*
X263000000Y-72000000D03*
X237000000Y-73000000D03*
X233900000Y-73400000D03*
X231000000Y-73400000D03*
X208000000Y-73000000D03*
X206000000Y-76000000D03*
X206000000Y-81000000D03*
X206000000Y-86000000D03*
X209000000Y-86000000D03*
X214000000Y-86000000D03*
X219000000Y-86000000D03*
X223000000Y-86000000D03*
X226000000Y-90000000D03*
X226000000Y-93000000D03*
X229000000Y-93000000D03*
X233000000Y-87000000D03*
X237000000Y-87000000D03*
X237000000Y-90000000D03*
X263900000Y-67100000D03*
X222000000Y-74200000D03*
X224600000Y-74000000D03*
X226700000Y-73000000D03*
X227300000Y-71000000D03*
X232400000Y-71000000D03*
X222100000Y-71000000D03*
X227700000Y-77000000D03*
X227700000Y-80500000D03*
X225200000Y-78700000D03*
X253300000Y-75100000D03*
X253300000Y-79300000D03*
G04 #@! TO.N,/LED_850*
X254040000Y-72600000D03*
X256000000Y-86000000D03*
G04 #@! TO.N,/LED_940*
X223600000Y-72900000D03*
X257600000Y-90800000D03*
G04 #@! TD*
D13*
G04 #@! TO.N,GND*
X218480000Y-66900000D02*
X218480000Y-66920000D01*
D14*
X223530000Y-69770000D02*
X222400000Y-70900000D01*
D13*
G04 #@! TO.N,/LED_850*
X254040000Y-69440000D02*
X254040000Y-72600000D01*
X254040000Y-73900000D02*
X254040000Y-72600000D01*
X255100000Y-74960000D02*
X254040000Y-73900000D01*
X255100000Y-85300000D02*
X255100000Y-74960000D01*
X256000000Y-86000000D02*
X255800000Y-86000000D01*
X255800000Y-86000000D02*
X255100000Y-85300000D01*
G04 #@! TO.N,/LED_940*
X257600000Y-92200000D02*
X257600000Y-90800000D01*
X256800000Y-93000000D02*
X257600000Y-92200000D01*
X234000000Y-93000000D02*
X256800000Y-93000000D01*
X223600000Y-82600000D02*
X234000000Y-93000000D01*
X224100000Y-71500000D02*
X223600000Y-72000000D01*
X225100000Y-68200000D02*
X226070000Y-67230000D01*
X224800000Y-68500000D02*
X225100000Y-68200000D01*
X224100000Y-71500000D02*
X224800000Y-70800000D01*
X224800000Y-70800000D02*
X224800000Y-68500000D01*
X223600000Y-74200000D02*
X223600000Y-82600000D01*
X223600000Y-72000000D02*
X223600000Y-72900000D01*
X223600000Y-72900000D02*
X223600000Y-74200000D01*
G04 #@! TD*
D15*
G04 #@! TO.N,GND*
G36*
X267544933Y-65694780D02*
X268060630Y-65881969D01*
X268519436Y-66182776D01*
X268896735Y-66581061D01*
X269172289Y-67055463D01*
X269333804Y-67588744D01*
X269373001Y-68027938D01*
X269373000Y-91963570D01*
X269305220Y-92544933D01*
X269118031Y-93060630D01*
X268817226Y-93519434D01*
X268418938Y-93896736D01*
X267944541Y-94172288D01*
X267411255Y-94333804D01*
X266972073Y-94373000D01*
X224627000Y-94373000D01*
X224627000Y-87069750D01*
X224639283Y-87008000D01*
X224590620Y-86763357D01*
X224452041Y-86555959D01*
X224244643Y-86417380D01*
X224061750Y-86381000D01*
X224000000Y-86368717D01*
X223938250Y-86381000D01*
X211161750Y-86381000D01*
X211100000Y-86368717D01*
X211038250Y-86381000D01*
X210855357Y-86417380D01*
X210647959Y-86555959D01*
X210509380Y-86763357D01*
X210460717Y-87008000D01*
X210473000Y-87069750D01*
X210473001Y-94373000D01*
X208036430Y-94373000D01*
X207455067Y-94305220D01*
X206939370Y-94118031D01*
X206480566Y-93817226D01*
X206103264Y-93418938D01*
X205827712Y-92944541D01*
X205666196Y-92411255D01*
X205627000Y-91972073D01*
X205627000Y-91132012D01*
X206650000Y-91132012D01*
X206650000Y-91867988D01*
X206931645Y-92547941D01*
X207452059Y-93068355D01*
X208132012Y-93350000D01*
X208867988Y-93350000D01*
X209547941Y-93068355D01*
X210068355Y-92547941D01*
X210350000Y-91867988D01*
X210350000Y-91132012D01*
X210068355Y-90452059D01*
X209547941Y-89931645D01*
X208867988Y-89650000D01*
X208132012Y-89650000D01*
X207452059Y-89931645D01*
X206931645Y-90452059D01*
X206650000Y-91132012D01*
X205627000Y-91132012D01*
X205627000Y-68132012D01*
X206650000Y-68132012D01*
X206650000Y-68867988D01*
X206931645Y-69547941D01*
X207452059Y-70068355D01*
X208132012Y-70350000D01*
X208867988Y-70350000D01*
X209547941Y-70068355D01*
X210068355Y-69547941D01*
X210350000Y-68867988D01*
X210350000Y-68132012D01*
X210068355Y-67452059D01*
X209846296Y-67230000D01*
X211993552Y-67230000D01*
X212098328Y-67756744D01*
X212396704Y-68203296D01*
X212706366Y-68410205D01*
X212520000Y-68410205D01*
X212324910Y-68449011D01*
X212159520Y-68559520D01*
X212049011Y-68724910D01*
X212010205Y-68920000D01*
X212010205Y-70620000D01*
X212049011Y-70815090D01*
X212159520Y-70980480D01*
X212324910Y-71090989D01*
X212520000Y-71129795D01*
X214220000Y-71129795D01*
X214415090Y-71090989D01*
X214580480Y-70980480D01*
X214690989Y-70815090D01*
X214729795Y-70620000D01*
X214729795Y-70433634D01*
X214936704Y-70743296D01*
X215383256Y-71041672D01*
X215777037Y-71120000D01*
X216042963Y-71120000D01*
X216436744Y-71041672D01*
X216883296Y-70743296D01*
X217180000Y-70299246D01*
X217476704Y-70743296D01*
X217923256Y-71041672D01*
X218317037Y-71120000D01*
X218582963Y-71120000D01*
X218976744Y-71041672D01*
X219423296Y-70743296D01*
X219720000Y-70299246D01*
X220016704Y-70743296D01*
X220463256Y-71041672D01*
X220857037Y-71120000D01*
X221122963Y-71120000D01*
X221516744Y-71041672D01*
X221963296Y-70743296D01*
X222223466Y-70353923D01*
X222374259Y-70658854D01*
X222802384Y-71033477D01*
X223151090Y-71177903D01*
X223375998Y-71066890D01*
X223375998Y-71228000D01*
X223452761Y-71228000D01*
X223185653Y-71495109D01*
X223131376Y-71531376D01*
X222987714Y-71746384D01*
X222954303Y-71914352D01*
X222937266Y-72000000D01*
X222950000Y-72064017D01*
X222950000Y-72418629D01*
X222921793Y-72446836D01*
X222800000Y-72740870D01*
X222800000Y-73059130D01*
X222921793Y-73353164D01*
X222950000Y-73381371D01*
X222950001Y-74135978D01*
X222950000Y-74135983D01*
X222950001Y-82535979D01*
X222937266Y-82600000D01*
X222987715Y-82853617D01*
X223131377Y-83068624D01*
X223185652Y-83104889D01*
X233495111Y-93414349D01*
X233531376Y-93468624D01*
X233746383Y-93612286D01*
X233935982Y-93650000D01*
X233935983Y-93650000D01*
X233999999Y-93662734D01*
X234064016Y-93650000D01*
X256735984Y-93650000D01*
X256800000Y-93662734D01*
X256864016Y-93650000D01*
X256864018Y-93650000D01*
X257053617Y-93612286D01*
X257268624Y-93468624D01*
X257304891Y-93414346D01*
X258014352Y-92704887D01*
X258068624Y-92668624D01*
X258212286Y-92453617D01*
X258250000Y-92264018D01*
X258250000Y-92264017D01*
X258262734Y-92200000D01*
X258250000Y-92135984D01*
X258250000Y-91281371D01*
X258278207Y-91253164D01*
X258328389Y-91132012D01*
X264650000Y-91132012D01*
X264650000Y-91867988D01*
X264931645Y-92547941D01*
X265452059Y-93068355D01*
X266132012Y-93350000D01*
X266867988Y-93350000D01*
X267547941Y-93068355D01*
X268068355Y-92547941D01*
X268350000Y-91867988D01*
X268350000Y-91132012D01*
X268068355Y-90452059D01*
X267547941Y-89931645D01*
X266867988Y-89650000D01*
X266132012Y-89650000D01*
X265452059Y-89931645D01*
X264931645Y-90452059D01*
X264650000Y-91132012D01*
X258328389Y-91132012D01*
X258400000Y-90959130D01*
X258400000Y-90640870D01*
X258278207Y-90346836D01*
X258053164Y-90121793D01*
X257759130Y-90000000D01*
X257440870Y-90000000D01*
X257146836Y-90121793D01*
X256921793Y-90346836D01*
X256800000Y-90640870D01*
X256800000Y-90959130D01*
X256921793Y-91253164D01*
X256950001Y-91281372D01*
X256950000Y-91930761D01*
X256530762Y-92350000D01*
X234269238Y-92350000D01*
X224250000Y-82330763D01*
X224250000Y-75000000D01*
X229282461Y-75000000D01*
X229293500Y-75055497D01*
X229293501Y-84944498D01*
X229282461Y-85000000D01*
X229326195Y-85219867D01*
X229450740Y-85406260D01*
X229637133Y-85530805D01*
X229801503Y-85563500D01*
X229857000Y-85574539D01*
X229912497Y-85563500D01*
X238556900Y-85563500D01*
X238556901Y-91444498D01*
X238545861Y-91500000D01*
X238589595Y-91719867D01*
X238714140Y-91906260D01*
X238900533Y-92030805D01*
X239064903Y-92063500D01*
X239120400Y-92074539D01*
X239175897Y-92063500D01*
X248124503Y-92063500D01*
X248180000Y-92074539D01*
X248235497Y-92063500D01*
X248399867Y-92030805D01*
X248586260Y-91906260D01*
X248710805Y-91719867D01*
X248754539Y-91500000D01*
X248743500Y-91444503D01*
X248743500Y-90813700D01*
X252569503Y-90813700D01*
X252625000Y-90824739D01*
X252680497Y-90813700D01*
X252844867Y-90781005D01*
X253031260Y-90656460D01*
X253155805Y-90470067D01*
X253199539Y-90250200D01*
X253188500Y-90194703D01*
X253188500Y-70844723D01*
X253390000Y-70979361D01*
X253390001Y-72118628D01*
X253361793Y-72146836D01*
X253240000Y-72440870D01*
X253240000Y-72759130D01*
X253361793Y-73053164D01*
X253390001Y-73081372D01*
X253390000Y-73835983D01*
X253377266Y-73900000D01*
X253390000Y-73964016D01*
X253390000Y-73964017D01*
X253427714Y-74153616D01*
X253571376Y-74368624D01*
X253625654Y-74404891D01*
X254450001Y-75229240D01*
X254450000Y-85235984D01*
X254437266Y-85300000D01*
X254450000Y-85364016D01*
X254450000Y-85364017D01*
X254487714Y-85553616D01*
X254631376Y-85768624D01*
X254685654Y-85804891D01*
X255295112Y-86414351D01*
X255331376Y-86468624D01*
X255349087Y-86480458D01*
X255546836Y-86678207D01*
X255840870Y-86800000D01*
X256159130Y-86800000D01*
X256453164Y-86678207D01*
X256678207Y-86453164D01*
X256800000Y-86159130D01*
X256800000Y-85840870D01*
X256678207Y-85546836D01*
X256453164Y-85321793D01*
X256159130Y-85200000D01*
X255919238Y-85200000D01*
X255750000Y-85030762D01*
X255750000Y-75024016D01*
X255762734Y-74959999D01*
X255743386Y-74862734D01*
X255712286Y-74706383D01*
X255568624Y-74491376D01*
X255514351Y-74455112D01*
X254690000Y-73630763D01*
X254690000Y-73081371D01*
X254718207Y-73053164D01*
X254840000Y-72759130D01*
X254840000Y-72440870D01*
X254718207Y-72146836D01*
X254690000Y-72118629D01*
X254690000Y-70939270D01*
X254983296Y-70743296D01*
X255280000Y-70299246D01*
X255576704Y-70743296D01*
X256023256Y-71041672D01*
X256417037Y-71120000D01*
X256682963Y-71120000D01*
X257076744Y-71041672D01*
X257523296Y-70743296D01*
X257820000Y-70299246D01*
X258116704Y-70743296D01*
X258563256Y-71041672D01*
X258957037Y-71120000D01*
X259222963Y-71120000D01*
X259616744Y-71041672D01*
X260063296Y-70743296D01*
X260323466Y-70353923D01*
X260474259Y-70658854D01*
X260902384Y-71033477D01*
X261251090Y-71177903D01*
X261476000Y-71066889D01*
X261476000Y-69924000D01*
X261784000Y-69924000D01*
X261784000Y-71066889D01*
X262008910Y-71177903D01*
X262357616Y-71033477D01*
X262785741Y-70658854D01*
X263037915Y-70148911D01*
X262927856Y-69924000D01*
X261784000Y-69924000D01*
X261476000Y-69924000D01*
X261456000Y-69924000D01*
X261456000Y-69616000D01*
X261476000Y-69616000D01*
X261476000Y-69596000D01*
X261784000Y-69596000D01*
X261784000Y-69616000D01*
X262927856Y-69616000D01*
X263037915Y-69391089D01*
X262785741Y-68881146D01*
X262357616Y-68506523D01*
X262229128Y-68453306D01*
X262603296Y-68203296D01*
X262650926Y-68132012D01*
X264650000Y-68132012D01*
X264650000Y-68867988D01*
X264931645Y-69547941D01*
X265452059Y-70068355D01*
X266132012Y-70350000D01*
X266867988Y-70350000D01*
X267547941Y-70068355D01*
X268068355Y-69547941D01*
X268350000Y-68867988D01*
X268350000Y-68132012D01*
X268068355Y-67452059D01*
X267547941Y-66931645D01*
X266867988Y-66650000D01*
X266132012Y-66650000D01*
X265452059Y-66931645D01*
X264931645Y-67452059D01*
X264650000Y-68132012D01*
X262650926Y-68132012D01*
X262901672Y-67756744D01*
X263006448Y-67230000D01*
X262901672Y-66703256D01*
X262603296Y-66256704D01*
X262156744Y-65958328D01*
X261762963Y-65880000D01*
X261497037Y-65880000D01*
X261103256Y-65958328D01*
X260656704Y-66256704D01*
X260360000Y-66700754D01*
X260063296Y-66256704D01*
X259616744Y-65958328D01*
X259222963Y-65880000D01*
X258957037Y-65880000D01*
X258563256Y-65958328D01*
X258116704Y-66256704D01*
X257820000Y-66700754D01*
X257523296Y-66256704D01*
X257076744Y-65958328D01*
X256682963Y-65880000D01*
X256417037Y-65880000D01*
X256023256Y-65958328D01*
X255576704Y-66256704D01*
X255316534Y-66646077D01*
X255165741Y-66341146D01*
X254737616Y-65966523D01*
X254388910Y-65822097D01*
X254164000Y-65933111D01*
X254164000Y-67076000D01*
X254184000Y-67076000D01*
X254184000Y-67384000D01*
X254164000Y-67384000D01*
X254164000Y-67404000D01*
X253856000Y-67404000D01*
X253856000Y-67384000D01*
X252712144Y-67384000D01*
X252602085Y-67608911D01*
X252854259Y-68118854D01*
X253282384Y-68493477D01*
X253410872Y-68546694D01*
X253036704Y-68796704D01*
X252738328Y-69243256D01*
X252702787Y-69421934D01*
X252680497Y-69417500D01*
X252625000Y-69406461D01*
X252569503Y-69417500D01*
X248743500Y-69417500D01*
X248743500Y-68885697D01*
X248754539Y-68830200D01*
X248710805Y-68610333D01*
X248586260Y-68423940D01*
X248399867Y-68299395D01*
X248235497Y-68266700D01*
X248180000Y-68255661D01*
X248124503Y-68266700D01*
X239175897Y-68266700D01*
X239120400Y-68255661D01*
X239064903Y-68266700D01*
X238900533Y-68299395D01*
X238714140Y-68423940D01*
X238589595Y-68610333D01*
X238545861Y-68830200D01*
X238556900Y-68885697D01*
X238556901Y-74436500D01*
X229912497Y-74436500D01*
X229857000Y-74425461D01*
X229801503Y-74436500D01*
X229637133Y-74469195D01*
X229450740Y-74593740D01*
X229326195Y-74780133D01*
X229282461Y-75000000D01*
X224250000Y-75000000D01*
X224250000Y-73381371D01*
X224278207Y-73353164D01*
X224400000Y-73059130D01*
X224400000Y-72740870D01*
X224278207Y-72446836D01*
X224250000Y-72418629D01*
X224250000Y-72269238D01*
X224604887Y-71914352D01*
X224604891Y-71914347D01*
X225214351Y-71304887D01*
X225268624Y-71268624D01*
X225412286Y-71053617D01*
X225429748Y-70965829D01*
X225543256Y-71041672D01*
X225937037Y-71120000D01*
X226202963Y-71120000D01*
X226596744Y-71041672D01*
X227043296Y-70743296D01*
X227340000Y-70299246D01*
X227636704Y-70743296D01*
X228083256Y-71041672D01*
X228477037Y-71120000D01*
X228742963Y-71120000D01*
X229136744Y-71041672D01*
X229583296Y-70743296D01*
X229880000Y-70299246D01*
X230176704Y-70743296D01*
X230623256Y-71041672D01*
X231017037Y-71120000D01*
X231282963Y-71120000D01*
X231676744Y-71041672D01*
X232123296Y-70743296D01*
X232420000Y-70299246D01*
X232716704Y-70743296D01*
X233163256Y-71041672D01*
X233557037Y-71120000D01*
X233822963Y-71120000D01*
X234216744Y-71041672D01*
X234663296Y-70743296D01*
X234960000Y-70299246D01*
X235256704Y-70743296D01*
X235703256Y-71041672D01*
X236097037Y-71120000D01*
X236362963Y-71120000D01*
X236756744Y-71041672D01*
X237203296Y-70743296D01*
X237501672Y-70296744D01*
X237606448Y-69770000D01*
X237501672Y-69243256D01*
X237203296Y-68796704D01*
X236829128Y-68546694D01*
X236957616Y-68493477D01*
X237385741Y-68118854D01*
X237637915Y-67608911D01*
X237527856Y-67384000D01*
X236384000Y-67384000D01*
X236384000Y-67404000D01*
X236076000Y-67404000D01*
X236076000Y-67384000D01*
X236056000Y-67384000D01*
X236056000Y-67076000D01*
X236076000Y-67076000D01*
X236076000Y-65933111D01*
X236384000Y-65933111D01*
X236384000Y-67076000D01*
X237527856Y-67076000D01*
X237637915Y-66851089D01*
X252602085Y-66851089D01*
X252712144Y-67076000D01*
X253856000Y-67076000D01*
X253856000Y-65933111D01*
X253631090Y-65822097D01*
X253282384Y-65966523D01*
X252854259Y-66341146D01*
X252602085Y-66851089D01*
X237637915Y-66851089D01*
X237385741Y-66341146D01*
X236957616Y-65966523D01*
X236608910Y-65822097D01*
X236384000Y-65933111D01*
X236076000Y-65933111D01*
X235851090Y-65822097D01*
X235502384Y-65966523D01*
X235074259Y-66341146D01*
X234923466Y-66646077D01*
X234663296Y-66256704D01*
X234216744Y-65958328D01*
X233822963Y-65880000D01*
X233557037Y-65880000D01*
X233163256Y-65958328D01*
X232716704Y-66256704D01*
X232420000Y-66700754D01*
X232123296Y-66256704D01*
X231676744Y-65958328D01*
X231282963Y-65880000D01*
X231017037Y-65880000D01*
X230623256Y-65958328D01*
X230176704Y-66256704D01*
X229916534Y-66646077D01*
X229765741Y-66341146D01*
X229337616Y-65966523D01*
X228988910Y-65822097D01*
X228764000Y-65933111D01*
X228764000Y-67076000D01*
X228784000Y-67076000D01*
X228784000Y-67384000D01*
X228764000Y-67384000D01*
X228764000Y-67404000D01*
X228456000Y-67404000D01*
X228456000Y-67384000D01*
X228436000Y-67384000D01*
X228436000Y-67076000D01*
X228456000Y-67076000D01*
X228456000Y-65933111D01*
X228231090Y-65822097D01*
X227882384Y-65966523D01*
X227454259Y-66341146D01*
X227303466Y-66646077D01*
X227043296Y-66256704D01*
X226596744Y-65958328D01*
X226202963Y-65880000D01*
X225937037Y-65880000D01*
X225543256Y-65958328D01*
X225096704Y-66256704D01*
X224800000Y-66700754D01*
X224503296Y-66256704D01*
X224056744Y-65958328D01*
X223662963Y-65880000D01*
X223397037Y-65880000D01*
X223003256Y-65958328D01*
X222556704Y-66256704D01*
X222260000Y-66700754D01*
X221963296Y-66256704D01*
X221516744Y-65958328D01*
X221122963Y-65880000D01*
X220857037Y-65880000D01*
X220463256Y-65958328D01*
X220016704Y-66256704D01*
X219756534Y-66646077D01*
X219605741Y-66341146D01*
X219177616Y-65966523D01*
X218828910Y-65822097D01*
X218604000Y-65933111D01*
X218604000Y-67076000D01*
X218624000Y-67076000D01*
X218624000Y-67384000D01*
X218604000Y-67384000D01*
X218604000Y-67404000D01*
X218296000Y-67404000D01*
X218296000Y-67384000D01*
X218276000Y-67384000D01*
X218276000Y-67076000D01*
X218296000Y-67076000D01*
X218296000Y-65933111D01*
X218071090Y-65822097D01*
X217722384Y-65966523D01*
X217294259Y-66341146D01*
X217143466Y-66646077D01*
X216883296Y-66256704D01*
X216436744Y-65958328D01*
X216042963Y-65880000D01*
X215777037Y-65880000D01*
X215383256Y-65958328D01*
X214936704Y-66256704D01*
X214640000Y-66700754D01*
X214343296Y-66256704D01*
X213896744Y-65958328D01*
X213502963Y-65880000D01*
X213237037Y-65880000D01*
X212843256Y-65958328D01*
X212396704Y-66256704D01*
X212098328Y-66703256D01*
X211993552Y-67230000D01*
X209846296Y-67230000D01*
X209547941Y-66931645D01*
X208867988Y-66650000D01*
X208132012Y-66650000D01*
X207452059Y-66931645D01*
X206931645Y-67452059D01*
X206650000Y-68132012D01*
X205627000Y-68132012D01*
X205627000Y-68036430D01*
X205694780Y-67455067D01*
X205881969Y-66939370D01*
X206182776Y-66480564D01*
X206581061Y-66103265D01*
X207055463Y-65827711D01*
X207588744Y-65666196D01*
X208027927Y-65627000D01*
X266963570Y-65627000D01*
X267544933Y-65694780D01*
X267544933Y-65694780D01*
G37*
X267544933Y-65694780D02*
X268060630Y-65881969D01*
X268519436Y-66182776D01*
X268896735Y-66581061D01*
X269172289Y-67055463D01*
X269333804Y-67588744D01*
X269373001Y-68027938D01*
X269373000Y-91963570D01*
X269305220Y-92544933D01*
X269118031Y-93060630D01*
X268817226Y-93519434D01*
X268418938Y-93896736D01*
X267944541Y-94172288D01*
X267411255Y-94333804D01*
X266972073Y-94373000D01*
X224627000Y-94373000D01*
X224627000Y-87069750D01*
X224639283Y-87008000D01*
X224590620Y-86763357D01*
X224452041Y-86555959D01*
X224244643Y-86417380D01*
X224061750Y-86381000D01*
X224000000Y-86368717D01*
X223938250Y-86381000D01*
X211161750Y-86381000D01*
X211100000Y-86368717D01*
X211038250Y-86381000D01*
X210855357Y-86417380D01*
X210647959Y-86555959D01*
X210509380Y-86763357D01*
X210460717Y-87008000D01*
X210473000Y-87069750D01*
X210473001Y-94373000D01*
X208036430Y-94373000D01*
X207455067Y-94305220D01*
X206939370Y-94118031D01*
X206480566Y-93817226D01*
X206103264Y-93418938D01*
X205827712Y-92944541D01*
X205666196Y-92411255D01*
X205627000Y-91972073D01*
X205627000Y-91132012D01*
X206650000Y-91132012D01*
X206650000Y-91867988D01*
X206931645Y-92547941D01*
X207452059Y-93068355D01*
X208132012Y-93350000D01*
X208867988Y-93350000D01*
X209547941Y-93068355D01*
X210068355Y-92547941D01*
X210350000Y-91867988D01*
X210350000Y-91132012D01*
X210068355Y-90452059D01*
X209547941Y-89931645D01*
X208867988Y-89650000D01*
X208132012Y-89650000D01*
X207452059Y-89931645D01*
X206931645Y-90452059D01*
X206650000Y-91132012D01*
X205627000Y-91132012D01*
X205627000Y-68132012D01*
X206650000Y-68132012D01*
X206650000Y-68867988D01*
X206931645Y-69547941D01*
X207452059Y-70068355D01*
X208132012Y-70350000D01*
X208867988Y-70350000D01*
X209547941Y-70068355D01*
X210068355Y-69547941D01*
X210350000Y-68867988D01*
X210350000Y-68132012D01*
X210068355Y-67452059D01*
X209846296Y-67230000D01*
X211993552Y-67230000D01*
X212098328Y-67756744D01*
X212396704Y-68203296D01*
X212706366Y-68410205D01*
X212520000Y-68410205D01*
X212324910Y-68449011D01*
X212159520Y-68559520D01*
X212049011Y-68724910D01*
X212010205Y-68920000D01*
X212010205Y-70620000D01*
X212049011Y-70815090D01*
X212159520Y-70980480D01*
X212324910Y-71090989D01*
X212520000Y-71129795D01*
X214220000Y-71129795D01*
X214415090Y-71090989D01*
X214580480Y-70980480D01*
X214690989Y-70815090D01*
X214729795Y-70620000D01*
X214729795Y-70433634D01*
X214936704Y-70743296D01*
X215383256Y-71041672D01*
X215777037Y-71120000D01*
X216042963Y-71120000D01*
X216436744Y-71041672D01*
X216883296Y-70743296D01*
X217180000Y-70299246D01*
X217476704Y-70743296D01*
X217923256Y-71041672D01*
X218317037Y-71120000D01*
X218582963Y-71120000D01*
X218976744Y-71041672D01*
X219423296Y-70743296D01*
X219720000Y-70299246D01*
X220016704Y-70743296D01*
X220463256Y-71041672D01*
X220857037Y-71120000D01*
X221122963Y-71120000D01*
X221516744Y-71041672D01*
X221963296Y-70743296D01*
X222223466Y-70353923D01*
X222374259Y-70658854D01*
X222802384Y-71033477D01*
X223151090Y-71177903D01*
X223375998Y-71066890D01*
X223375998Y-71228000D01*
X223452761Y-71228000D01*
X223185653Y-71495109D01*
X223131376Y-71531376D01*
X222987714Y-71746384D01*
X222954303Y-71914352D01*
X222937266Y-72000000D01*
X222950000Y-72064017D01*
X222950000Y-72418629D01*
X222921793Y-72446836D01*
X222800000Y-72740870D01*
X222800000Y-73059130D01*
X222921793Y-73353164D01*
X222950000Y-73381371D01*
X222950001Y-74135978D01*
X222950000Y-74135983D01*
X222950001Y-82535979D01*
X222937266Y-82600000D01*
X222987715Y-82853617D01*
X223131377Y-83068624D01*
X223185652Y-83104889D01*
X233495111Y-93414349D01*
X233531376Y-93468624D01*
X233746383Y-93612286D01*
X233935982Y-93650000D01*
X233935983Y-93650000D01*
X233999999Y-93662734D01*
X234064016Y-93650000D01*
X256735984Y-93650000D01*
X256800000Y-93662734D01*
X256864016Y-93650000D01*
X256864018Y-93650000D01*
X257053617Y-93612286D01*
X257268624Y-93468624D01*
X257304891Y-93414346D01*
X258014352Y-92704887D01*
X258068624Y-92668624D01*
X258212286Y-92453617D01*
X258250000Y-92264018D01*
X258250000Y-92264017D01*
X258262734Y-92200000D01*
X258250000Y-92135984D01*
X258250000Y-91281371D01*
X258278207Y-91253164D01*
X258328389Y-91132012D01*
X264650000Y-91132012D01*
X264650000Y-91867988D01*
X264931645Y-92547941D01*
X265452059Y-93068355D01*
X266132012Y-93350000D01*
X266867988Y-93350000D01*
X267547941Y-93068355D01*
X268068355Y-92547941D01*
X268350000Y-91867988D01*
X268350000Y-91132012D01*
X268068355Y-90452059D01*
X267547941Y-89931645D01*
X266867988Y-89650000D01*
X266132012Y-89650000D01*
X265452059Y-89931645D01*
X264931645Y-90452059D01*
X264650000Y-91132012D01*
X258328389Y-91132012D01*
X258400000Y-90959130D01*
X258400000Y-90640870D01*
X258278207Y-90346836D01*
X258053164Y-90121793D01*
X257759130Y-90000000D01*
X257440870Y-90000000D01*
X257146836Y-90121793D01*
X256921793Y-90346836D01*
X256800000Y-90640870D01*
X256800000Y-90959130D01*
X256921793Y-91253164D01*
X256950001Y-91281372D01*
X256950000Y-91930761D01*
X256530762Y-92350000D01*
X234269238Y-92350000D01*
X224250000Y-82330763D01*
X224250000Y-75000000D01*
X229282461Y-75000000D01*
X229293500Y-75055497D01*
X229293501Y-84944498D01*
X229282461Y-85000000D01*
X229326195Y-85219867D01*
X229450740Y-85406260D01*
X229637133Y-85530805D01*
X229801503Y-85563500D01*
X229857000Y-85574539D01*
X229912497Y-85563500D01*
X238556900Y-85563500D01*
X238556901Y-91444498D01*
X238545861Y-91500000D01*
X238589595Y-91719867D01*
X238714140Y-91906260D01*
X238900533Y-92030805D01*
X239064903Y-92063500D01*
X239120400Y-92074539D01*
X239175897Y-92063500D01*
X248124503Y-92063500D01*
X248180000Y-92074539D01*
X248235497Y-92063500D01*
X248399867Y-92030805D01*
X248586260Y-91906260D01*
X248710805Y-91719867D01*
X248754539Y-91500000D01*
X248743500Y-91444503D01*
X248743500Y-90813700D01*
X252569503Y-90813700D01*
X252625000Y-90824739D01*
X252680497Y-90813700D01*
X252844867Y-90781005D01*
X253031260Y-90656460D01*
X253155805Y-90470067D01*
X253199539Y-90250200D01*
X253188500Y-90194703D01*
X253188500Y-70844723D01*
X253390000Y-70979361D01*
X253390001Y-72118628D01*
X253361793Y-72146836D01*
X253240000Y-72440870D01*
X253240000Y-72759130D01*
X253361793Y-73053164D01*
X253390001Y-73081372D01*
X253390000Y-73835983D01*
X253377266Y-73900000D01*
X253390000Y-73964016D01*
X253390000Y-73964017D01*
X253427714Y-74153616D01*
X253571376Y-74368624D01*
X253625654Y-74404891D01*
X254450001Y-75229240D01*
X254450000Y-85235984D01*
X254437266Y-85300000D01*
X254450000Y-85364016D01*
X254450000Y-85364017D01*
X254487714Y-85553616D01*
X254631376Y-85768624D01*
X254685654Y-85804891D01*
X255295112Y-86414351D01*
X255331376Y-86468624D01*
X255349087Y-86480458D01*
X255546836Y-86678207D01*
X255840870Y-86800000D01*
X256159130Y-86800000D01*
X256453164Y-86678207D01*
X256678207Y-86453164D01*
X256800000Y-86159130D01*
X256800000Y-85840870D01*
X256678207Y-85546836D01*
X256453164Y-85321793D01*
X256159130Y-85200000D01*
X255919238Y-85200000D01*
X255750000Y-85030762D01*
X255750000Y-75024016D01*
X255762734Y-74959999D01*
X255743386Y-74862734D01*
X255712286Y-74706383D01*
X255568624Y-74491376D01*
X255514351Y-74455112D01*
X254690000Y-73630763D01*
X254690000Y-73081371D01*
X254718207Y-73053164D01*
X254840000Y-72759130D01*
X254840000Y-72440870D01*
X254718207Y-72146836D01*
X254690000Y-72118629D01*
X254690000Y-70939270D01*
X254983296Y-70743296D01*
X255280000Y-70299246D01*
X255576704Y-70743296D01*
X256023256Y-71041672D01*
X256417037Y-71120000D01*
X256682963Y-71120000D01*
X257076744Y-71041672D01*
X257523296Y-70743296D01*
X257820000Y-70299246D01*
X258116704Y-70743296D01*
X258563256Y-71041672D01*
X258957037Y-71120000D01*
X259222963Y-71120000D01*
X259616744Y-71041672D01*
X260063296Y-70743296D01*
X260323466Y-70353923D01*
X260474259Y-70658854D01*
X260902384Y-71033477D01*
X261251090Y-71177903D01*
X261476000Y-71066889D01*
X261476000Y-69924000D01*
X261784000Y-69924000D01*
X261784000Y-71066889D01*
X262008910Y-71177903D01*
X262357616Y-71033477D01*
X262785741Y-70658854D01*
X263037915Y-70148911D01*
X262927856Y-69924000D01*
X261784000Y-69924000D01*
X261476000Y-69924000D01*
X261456000Y-69924000D01*
X261456000Y-69616000D01*
X261476000Y-69616000D01*
X261476000Y-69596000D01*
X261784000Y-69596000D01*
X261784000Y-69616000D01*
X262927856Y-69616000D01*
X263037915Y-69391089D01*
X262785741Y-68881146D01*
X262357616Y-68506523D01*
X262229128Y-68453306D01*
X262603296Y-68203296D01*
X262650926Y-68132012D01*
X264650000Y-68132012D01*
X264650000Y-68867988D01*
X264931645Y-69547941D01*
X265452059Y-70068355D01*
X266132012Y-70350000D01*
X266867988Y-70350000D01*
X267547941Y-70068355D01*
X268068355Y-69547941D01*
X268350000Y-68867988D01*
X268350000Y-68132012D01*
X268068355Y-67452059D01*
X267547941Y-66931645D01*
X266867988Y-66650000D01*
X266132012Y-66650000D01*
X265452059Y-66931645D01*
X264931645Y-67452059D01*
X264650000Y-68132012D01*
X262650926Y-68132012D01*
X262901672Y-67756744D01*
X263006448Y-67230000D01*
X262901672Y-66703256D01*
X262603296Y-66256704D01*
X262156744Y-65958328D01*
X261762963Y-65880000D01*
X261497037Y-65880000D01*
X261103256Y-65958328D01*
X260656704Y-66256704D01*
X260360000Y-66700754D01*
X260063296Y-66256704D01*
X259616744Y-65958328D01*
X259222963Y-65880000D01*
X258957037Y-65880000D01*
X258563256Y-65958328D01*
X258116704Y-66256704D01*
X257820000Y-66700754D01*
X257523296Y-66256704D01*
X257076744Y-65958328D01*
X256682963Y-65880000D01*
X256417037Y-65880000D01*
X256023256Y-65958328D01*
X255576704Y-66256704D01*
X255316534Y-66646077D01*
X255165741Y-66341146D01*
X254737616Y-65966523D01*
X254388910Y-65822097D01*
X254164000Y-65933111D01*
X254164000Y-67076000D01*
X254184000Y-67076000D01*
X254184000Y-67384000D01*
X254164000Y-67384000D01*
X254164000Y-67404000D01*
X253856000Y-67404000D01*
X253856000Y-67384000D01*
X252712144Y-67384000D01*
X252602085Y-67608911D01*
X252854259Y-68118854D01*
X253282384Y-68493477D01*
X253410872Y-68546694D01*
X253036704Y-68796704D01*
X252738328Y-69243256D01*
X252702787Y-69421934D01*
X252680497Y-69417500D01*
X252625000Y-69406461D01*
X252569503Y-69417500D01*
X248743500Y-69417500D01*
X248743500Y-68885697D01*
X248754539Y-68830200D01*
X248710805Y-68610333D01*
X248586260Y-68423940D01*
X248399867Y-68299395D01*
X248235497Y-68266700D01*
X248180000Y-68255661D01*
X248124503Y-68266700D01*
X239175897Y-68266700D01*
X239120400Y-68255661D01*
X239064903Y-68266700D01*
X238900533Y-68299395D01*
X238714140Y-68423940D01*
X238589595Y-68610333D01*
X238545861Y-68830200D01*
X238556900Y-68885697D01*
X238556901Y-74436500D01*
X229912497Y-74436500D01*
X229857000Y-74425461D01*
X229801503Y-74436500D01*
X229637133Y-74469195D01*
X229450740Y-74593740D01*
X229326195Y-74780133D01*
X229282461Y-75000000D01*
X224250000Y-75000000D01*
X224250000Y-73381371D01*
X224278207Y-73353164D01*
X224400000Y-73059130D01*
X224400000Y-72740870D01*
X224278207Y-72446836D01*
X224250000Y-72418629D01*
X224250000Y-72269238D01*
X224604887Y-71914352D01*
X224604891Y-71914347D01*
X225214351Y-71304887D01*
X225268624Y-71268624D01*
X225412286Y-71053617D01*
X225429748Y-70965829D01*
X225543256Y-71041672D01*
X225937037Y-71120000D01*
X226202963Y-71120000D01*
X226596744Y-71041672D01*
X227043296Y-70743296D01*
X227340000Y-70299246D01*
X227636704Y-70743296D01*
X228083256Y-71041672D01*
X228477037Y-71120000D01*
X228742963Y-71120000D01*
X229136744Y-71041672D01*
X229583296Y-70743296D01*
X229880000Y-70299246D01*
X230176704Y-70743296D01*
X230623256Y-71041672D01*
X231017037Y-71120000D01*
X231282963Y-71120000D01*
X231676744Y-71041672D01*
X232123296Y-70743296D01*
X232420000Y-70299246D01*
X232716704Y-70743296D01*
X233163256Y-71041672D01*
X233557037Y-71120000D01*
X233822963Y-71120000D01*
X234216744Y-71041672D01*
X234663296Y-70743296D01*
X234960000Y-70299246D01*
X235256704Y-70743296D01*
X235703256Y-71041672D01*
X236097037Y-71120000D01*
X236362963Y-71120000D01*
X236756744Y-71041672D01*
X237203296Y-70743296D01*
X237501672Y-70296744D01*
X237606448Y-69770000D01*
X237501672Y-69243256D01*
X237203296Y-68796704D01*
X236829128Y-68546694D01*
X236957616Y-68493477D01*
X237385741Y-68118854D01*
X237637915Y-67608911D01*
X237527856Y-67384000D01*
X236384000Y-67384000D01*
X236384000Y-67404000D01*
X236076000Y-67404000D01*
X236076000Y-67384000D01*
X236056000Y-67384000D01*
X236056000Y-67076000D01*
X236076000Y-67076000D01*
X236076000Y-65933111D01*
X236384000Y-65933111D01*
X236384000Y-67076000D01*
X237527856Y-67076000D01*
X237637915Y-66851089D01*
X252602085Y-66851089D01*
X252712144Y-67076000D01*
X253856000Y-67076000D01*
X253856000Y-65933111D01*
X253631090Y-65822097D01*
X253282384Y-65966523D01*
X252854259Y-66341146D01*
X252602085Y-66851089D01*
X237637915Y-66851089D01*
X237385741Y-66341146D01*
X236957616Y-65966523D01*
X236608910Y-65822097D01*
X236384000Y-65933111D01*
X236076000Y-65933111D01*
X235851090Y-65822097D01*
X235502384Y-65966523D01*
X235074259Y-66341146D01*
X234923466Y-66646077D01*
X234663296Y-66256704D01*
X234216744Y-65958328D01*
X233822963Y-65880000D01*
X233557037Y-65880000D01*
X233163256Y-65958328D01*
X232716704Y-66256704D01*
X232420000Y-66700754D01*
X232123296Y-66256704D01*
X231676744Y-65958328D01*
X231282963Y-65880000D01*
X231017037Y-65880000D01*
X230623256Y-65958328D01*
X230176704Y-66256704D01*
X229916534Y-66646077D01*
X229765741Y-66341146D01*
X229337616Y-65966523D01*
X228988910Y-65822097D01*
X228764000Y-65933111D01*
X228764000Y-67076000D01*
X228784000Y-67076000D01*
X228784000Y-67384000D01*
X228764000Y-67384000D01*
X228764000Y-67404000D01*
X228456000Y-67404000D01*
X228456000Y-67384000D01*
X228436000Y-67384000D01*
X228436000Y-67076000D01*
X228456000Y-67076000D01*
X228456000Y-65933111D01*
X228231090Y-65822097D01*
X227882384Y-65966523D01*
X227454259Y-66341146D01*
X227303466Y-66646077D01*
X227043296Y-66256704D01*
X226596744Y-65958328D01*
X226202963Y-65880000D01*
X225937037Y-65880000D01*
X225543256Y-65958328D01*
X225096704Y-66256704D01*
X224800000Y-66700754D01*
X224503296Y-66256704D01*
X224056744Y-65958328D01*
X223662963Y-65880000D01*
X223397037Y-65880000D01*
X223003256Y-65958328D01*
X222556704Y-66256704D01*
X222260000Y-66700754D01*
X221963296Y-66256704D01*
X221516744Y-65958328D01*
X221122963Y-65880000D01*
X220857037Y-65880000D01*
X220463256Y-65958328D01*
X220016704Y-66256704D01*
X219756534Y-66646077D01*
X219605741Y-66341146D01*
X219177616Y-65966523D01*
X218828910Y-65822097D01*
X218604000Y-65933111D01*
X218604000Y-67076000D01*
X218624000Y-67076000D01*
X218624000Y-67384000D01*
X218604000Y-67384000D01*
X218604000Y-67404000D01*
X218296000Y-67404000D01*
X218296000Y-67384000D01*
X218276000Y-67384000D01*
X218276000Y-67076000D01*
X218296000Y-67076000D01*
X218296000Y-65933111D01*
X218071090Y-65822097D01*
X217722384Y-65966523D01*
X217294259Y-66341146D01*
X217143466Y-66646077D01*
X216883296Y-66256704D01*
X216436744Y-65958328D01*
X216042963Y-65880000D01*
X215777037Y-65880000D01*
X215383256Y-65958328D01*
X214936704Y-66256704D01*
X214640000Y-66700754D01*
X214343296Y-66256704D01*
X213896744Y-65958328D01*
X213502963Y-65880000D01*
X213237037Y-65880000D01*
X212843256Y-65958328D01*
X212396704Y-66256704D01*
X212098328Y-66703256D01*
X211993552Y-67230000D01*
X209846296Y-67230000D01*
X209547941Y-66931645D01*
X208867988Y-66650000D01*
X208132012Y-66650000D01*
X207452059Y-66931645D01*
X206931645Y-67452059D01*
X206650000Y-68132012D01*
X205627000Y-68132012D01*
X205627000Y-68036430D01*
X205694780Y-67455067D01*
X205881969Y-66939370D01*
X206182776Y-66480564D01*
X206581061Y-66103265D01*
X207055463Y-65827711D01*
X207588744Y-65666196D01*
X208027927Y-65627000D01*
X266963570Y-65627000D01*
X267544933Y-65694780D01*
G36*
X223684000Y-69616000D02*
X223704000Y-69616000D01*
X223704000Y-69924000D01*
X223684000Y-69924000D01*
X223684000Y-69944000D01*
X223376000Y-69944000D01*
X223376000Y-69924000D01*
X223356000Y-69924000D01*
X223356000Y-69616000D01*
X223376000Y-69616000D01*
X223376000Y-69596000D01*
X223684000Y-69596000D01*
X223684000Y-69616000D01*
X223684000Y-69616000D01*
G37*
X223684000Y-69616000D02*
X223704000Y-69616000D01*
X223704000Y-69924000D01*
X223684000Y-69924000D01*
X223684000Y-69944000D01*
X223376000Y-69944000D01*
X223376000Y-69924000D01*
X223356000Y-69924000D01*
X223356000Y-69616000D01*
X223376000Y-69616000D01*
X223376000Y-69596000D01*
X223684000Y-69596000D01*
X223684000Y-69616000D01*
G04 #@! TD*
M02*
