G04 #@! TF.GenerationSoftware,KiCad,Pcbnew,(5.0.2)-1*
G04 #@! TF.CreationDate,2019-03-22T12:40:45+11:00*
G04 #@! TF.ProjectId,VeinCamHatZero,5665696e-4361-46d4-9861-745a65726f2e,rev?*
G04 #@! TF.SameCoordinates,Original*
G04 #@! TF.FileFunction,Profile,NP*
%FSLAX46Y46*%
G04 Gerber Fmt 4.6, Leading zero omitted, Abs format (unit mm)*
G04 Created by KiCad (PCBNEW (5.0.2)-1) date 22/03/2019 12:40:45*
%MOMM*%
%LPD*%
G01*
G04 APERTURE LIST*
G04 #@! TA.AperFunction,NonConductor*
%ADD10C,0.127000*%
G04 #@! TD*
G04 #@! TA.AperFunction,NonConductor*
%ADD11C,0.254000*%
G04 #@! TD*
G04 APERTURE END LIST*
D10*
G04 #@! TO.C,TP1*
X229857000Y-75000000D02*
X229857000Y-85000000D01*
X239120400Y-75000000D02*
X229857000Y-75000000D01*
X239120400Y-68830200D02*
X239120400Y-75000000D01*
X248180000Y-68830200D02*
X239120400Y-68830200D01*
X248180000Y-69981000D02*
X248180000Y-68830200D01*
X252625000Y-69981000D02*
X248180000Y-69981000D01*
X252625000Y-90250200D02*
X252625000Y-69981000D01*
X248180000Y-90250200D02*
X252625000Y-90250200D01*
X248180000Y-91500000D02*
X248180000Y-90250200D01*
X239120400Y-91500000D02*
X248180000Y-91500000D01*
X239120400Y-85000000D02*
X239120400Y-91500000D01*
X229857000Y-85000000D02*
X239120400Y-85000000D01*
D11*
X224000000Y-87008000D02*
X224000000Y-95000000D01*
X211100000Y-87008000D02*
X211100000Y-95000000D01*
X211100000Y-87008000D02*
X224000000Y-87008000D01*
X205000000Y-68000000D02*
X205000000Y-92000000D01*
X205000000Y-68000000D02*
G75*
G02X208000000Y-65000000I3000000J0D01*
G01*
X267000000Y-65000000D02*
X208000000Y-65000000D01*
X267000000Y-65000000D02*
G75*
G02X270000000Y-68000000I0J-3000000D01*
G01*
X270000000Y-92000000D02*
X270000000Y-68000000D01*
X270000000Y-92000000D02*
G75*
G02X267000000Y-95000000I-3000000J0D01*
G01*
X224000000Y-95000000D02*
X267000000Y-95000000D01*
X208000000Y-95000000D02*
X211100000Y-95000000D01*
X208000000Y-95000000D02*
G75*
G02X205000000Y-92000000I0J3000000D01*
G01*
G04 #@! TD*
M02*
