G04 #@! TF.GenerationSoftware,KiCad,Pcbnew,(5.1.0)-1*
G04 #@! TF.CreationDate,2019-03-23T08:53:22+11:00*
G04 #@! TF.ProjectId,VeinCamHatZero,5665696e-4361-46d4-9861-745a65726f2e,rev?*
G04 #@! TF.SameCoordinates,Original*
G04 #@! TF.FileFunction,Paste,Top*
G04 #@! TF.FilePolarity,Positive*
%FSLAX46Y46*%
G04 Gerber Fmt 4.6, Leading zero omitted, Abs format (unit mm)*
G04 Created by KiCad (PCBNEW (5.1.0)-1) date 2019-03-23 08:53:22*
%MOMM*%
%LPD*%
G04 APERTURE LIST*
%ADD10C,0.150000*%
%ADD11C,0.975000*%
%ADD12R,0.400000X0.650000*%
%ADD13C,0.875000*%
%ADD14R,1.100000X1.700000*%
G04 APERTURE END LIST*
D10*
G36*
X261175143Y-86991175D02*
G01*
X261198804Y-86994685D01*
X261222008Y-87000497D01*
X261244530Y-87008555D01*
X261266154Y-87018783D01*
X261286671Y-87031080D01*
X261305884Y-87045330D01*
X261323608Y-87061394D01*
X261339672Y-87079118D01*
X261353922Y-87098331D01*
X261366219Y-87118848D01*
X261376447Y-87140472D01*
X261384505Y-87162994D01*
X261390317Y-87186198D01*
X261393827Y-87209859D01*
X261395001Y-87233751D01*
X261395001Y-88146251D01*
X261393827Y-88170143D01*
X261390317Y-88193804D01*
X261384505Y-88217008D01*
X261376447Y-88239530D01*
X261366219Y-88261154D01*
X261353922Y-88281671D01*
X261339672Y-88300884D01*
X261323608Y-88318608D01*
X261305884Y-88334672D01*
X261286671Y-88348922D01*
X261266154Y-88361219D01*
X261244530Y-88371447D01*
X261222008Y-88379505D01*
X261198804Y-88385317D01*
X261175143Y-88388827D01*
X261151251Y-88390001D01*
X260663751Y-88390001D01*
X260639859Y-88388827D01*
X260616198Y-88385317D01*
X260592994Y-88379505D01*
X260570472Y-88371447D01*
X260548848Y-88361219D01*
X260528331Y-88348922D01*
X260509118Y-88334672D01*
X260491394Y-88318608D01*
X260475330Y-88300884D01*
X260461080Y-88281671D01*
X260448783Y-88261154D01*
X260438555Y-88239530D01*
X260430497Y-88217008D01*
X260424685Y-88193804D01*
X260421175Y-88170143D01*
X260420001Y-88146251D01*
X260420001Y-87233751D01*
X260421175Y-87209859D01*
X260424685Y-87186198D01*
X260430497Y-87162994D01*
X260438555Y-87140472D01*
X260448783Y-87118848D01*
X260461080Y-87098331D01*
X260475330Y-87079118D01*
X260491394Y-87061394D01*
X260509118Y-87045330D01*
X260528331Y-87031080D01*
X260548848Y-87018783D01*
X260570472Y-87008555D01*
X260592994Y-87000497D01*
X260616198Y-86994685D01*
X260639859Y-86991175D01*
X260663751Y-86990001D01*
X261151251Y-86990001D01*
X261175143Y-86991175D01*
X261175143Y-86991175D01*
G37*
D11*
X260907501Y-87690001D03*
D10*
G36*
X263050143Y-86991175D02*
G01*
X263073804Y-86994685D01*
X263097008Y-87000497D01*
X263119530Y-87008555D01*
X263141154Y-87018783D01*
X263161671Y-87031080D01*
X263180884Y-87045330D01*
X263198608Y-87061394D01*
X263214672Y-87079118D01*
X263228922Y-87098331D01*
X263241219Y-87118848D01*
X263251447Y-87140472D01*
X263259505Y-87162994D01*
X263265317Y-87186198D01*
X263268827Y-87209859D01*
X263270001Y-87233751D01*
X263270001Y-88146251D01*
X263268827Y-88170143D01*
X263265317Y-88193804D01*
X263259505Y-88217008D01*
X263251447Y-88239530D01*
X263241219Y-88261154D01*
X263228922Y-88281671D01*
X263214672Y-88300884D01*
X263198608Y-88318608D01*
X263180884Y-88334672D01*
X263161671Y-88348922D01*
X263141154Y-88361219D01*
X263119530Y-88371447D01*
X263097008Y-88379505D01*
X263073804Y-88385317D01*
X263050143Y-88388827D01*
X263026251Y-88390001D01*
X262538751Y-88390001D01*
X262514859Y-88388827D01*
X262491198Y-88385317D01*
X262467994Y-88379505D01*
X262445472Y-88371447D01*
X262423848Y-88361219D01*
X262403331Y-88348922D01*
X262384118Y-88334672D01*
X262366394Y-88318608D01*
X262350330Y-88300884D01*
X262336080Y-88281671D01*
X262323783Y-88261154D01*
X262313555Y-88239530D01*
X262305497Y-88217008D01*
X262299685Y-88193804D01*
X262296175Y-88170143D01*
X262295001Y-88146251D01*
X262295001Y-87233751D01*
X262296175Y-87209859D01*
X262299685Y-87186198D01*
X262305497Y-87162994D01*
X262313555Y-87140472D01*
X262323783Y-87118848D01*
X262336080Y-87098331D01*
X262350330Y-87079118D01*
X262366394Y-87061394D01*
X262384118Y-87045330D01*
X262403331Y-87031080D01*
X262423848Y-87018783D01*
X262445472Y-87008555D01*
X262467994Y-87000497D01*
X262491198Y-86994685D01*
X262514859Y-86991175D01*
X262538751Y-86990001D01*
X263026251Y-86990001D01*
X263050143Y-86991175D01*
X263050143Y-86991175D01*
G37*
D11*
X262782501Y-87690001D03*
D10*
G36*
X263005142Y-84701174D02*
G01*
X263028803Y-84704684D01*
X263052007Y-84710496D01*
X263074529Y-84718554D01*
X263096153Y-84728782D01*
X263116670Y-84741079D01*
X263135883Y-84755329D01*
X263153607Y-84771393D01*
X263169671Y-84789117D01*
X263183921Y-84808330D01*
X263196218Y-84828847D01*
X263206446Y-84850471D01*
X263214504Y-84872993D01*
X263220316Y-84896197D01*
X263223826Y-84919858D01*
X263225000Y-84943750D01*
X263225000Y-85856250D01*
X263223826Y-85880142D01*
X263220316Y-85903803D01*
X263214504Y-85927007D01*
X263206446Y-85949529D01*
X263196218Y-85971153D01*
X263183921Y-85991670D01*
X263169671Y-86010883D01*
X263153607Y-86028607D01*
X263135883Y-86044671D01*
X263116670Y-86058921D01*
X263096153Y-86071218D01*
X263074529Y-86081446D01*
X263052007Y-86089504D01*
X263028803Y-86095316D01*
X263005142Y-86098826D01*
X262981250Y-86100000D01*
X262493750Y-86100000D01*
X262469858Y-86098826D01*
X262446197Y-86095316D01*
X262422993Y-86089504D01*
X262400471Y-86081446D01*
X262378847Y-86071218D01*
X262358330Y-86058921D01*
X262339117Y-86044671D01*
X262321393Y-86028607D01*
X262305329Y-86010883D01*
X262291079Y-85991670D01*
X262278782Y-85971153D01*
X262268554Y-85949529D01*
X262260496Y-85927007D01*
X262254684Y-85903803D01*
X262251174Y-85880142D01*
X262250000Y-85856250D01*
X262250000Y-84943750D01*
X262251174Y-84919858D01*
X262254684Y-84896197D01*
X262260496Y-84872993D01*
X262268554Y-84850471D01*
X262278782Y-84828847D01*
X262291079Y-84808330D01*
X262305329Y-84789117D01*
X262321393Y-84771393D01*
X262339117Y-84755329D01*
X262358330Y-84741079D01*
X262378847Y-84728782D01*
X262400471Y-84718554D01*
X262422993Y-84710496D01*
X262446197Y-84704684D01*
X262469858Y-84701174D01*
X262493750Y-84700000D01*
X262981250Y-84700000D01*
X263005142Y-84701174D01*
X263005142Y-84701174D01*
G37*
D11*
X262737500Y-85400000D03*
D10*
G36*
X261130142Y-84701174D02*
G01*
X261153803Y-84704684D01*
X261177007Y-84710496D01*
X261199529Y-84718554D01*
X261221153Y-84728782D01*
X261241670Y-84741079D01*
X261260883Y-84755329D01*
X261278607Y-84771393D01*
X261294671Y-84789117D01*
X261308921Y-84808330D01*
X261321218Y-84828847D01*
X261331446Y-84850471D01*
X261339504Y-84872993D01*
X261345316Y-84896197D01*
X261348826Y-84919858D01*
X261350000Y-84943750D01*
X261350000Y-85856250D01*
X261348826Y-85880142D01*
X261345316Y-85903803D01*
X261339504Y-85927007D01*
X261331446Y-85949529D01*
X261321218Y-85971153D01*
X261308921Y-85991670D01*
X261294671Y-86010883D01*
X261278607Y-86028607D01*
X261260883Y-86044671D01*
X261241670Y-86058921D01*
X261221153Y-86071218D01*
X261199529Y-86081446D01*
X261177007Y-86089504D01*
X261153803Y-86095316D01*
X261130142Y-86098826D01*
X261106250Y-86100000D01*
X260618750Y-86100000D01*
X260594858Y-86098826D01*
X260571197Y-86095316D01*
X260547993Y-86089504D01*
X260525471Y-86081446D01*
X260503847Y-86071218D01*
X260483330Y-86058921D01*
X260464117Y-86044671D01*
X260446393Y-86028607D01*
X260430329Y-86010883D01*
X260416079Y-85991670D01*
X260403782Y-85971153D01*
X260393554Y-85949529D01*
X260385496Y-85927007D01*
X260379684Y-85903803D01*
X260376174Y-85880142D01*
X260375000Y-85856250D01*
X260375000Y-84943750D01*
X260376174Y-84919858D01*
X260379684Y-84896197D01*
X260385496Y-84872993D01*
X260393554Y-84850471D01*
X260403782Y-84828847D01*
X260416079Y-84808330D01*
X260430329Y-84789117D01*
X260446393Y-84771393D01*
X260464117Y-84755329D01*
X260483330Y-84741079D01*
X260503847Y-84728782D01*
X260525471Y-84718554D01*
X260547993Y-84710496D01*
X260571197Y-84704684D01*
X260594858Y-84701174D01*
X260618750Y-84700000D01*
X261106250Y-84700000D01*
X261130142Y-84701174D01*
X261130142Y-84701174D01*
G37*
D11*
X260862500Y-85400000D03*
D12*
X256950000Y-88950000D03*
X258250000Y-88950000D03*
X257600000Y-87050000D03*
X257600000Y-88950000D03*
X258250000Y-87050000D03*
X256950000Y-87050000D03*
D10*
G36*
X265577691Y-75551053D02*
G01*
X265598926Y-75554203D01*
X265619750Y-75559419D01*
X265639962Y-75566651D01*
X265659368Y-75575830D01*
X265677781Y-75586866D01*
X265695024Y-75599654D01*
X265710930Y-75614070D01*
X265725346Y-75629976D01*
X265738134Y-75647219D01*
X265749170Y-75665632D01*
X265758349Y-75685038D01*
X265765581Y-75705250D01*
X265770797Y-75726074D01*
X265773947Y-75747309D01*
X265775000Y-75768750D01*
X265775000Y-76206250D01*
X265773947Y-76227691D01*
X265770797Y-76248926D01*
X265765581Y-76269750D01*
X265758349Y-76289962D01*
X265749170Y-76309368D01*
X265738134Y-76327781D01*
X265725346Y-76345024D01*
X265710930Y-76360930D01*
X265695024Y-76375346D01*
X265677781Y-76388134D01*
X265659368Y-76399170D01*
X265639962Y-76408349D01*
X265619750Y-76415581D01*
X265598926Y-76420797D01*
X265577691Y-76423947D01*
X265556250Y-76425000D01*
X265043750Y-76425000D01*
X265022309Y-76423947D01*
X265001074Y-76420797D01*
X264980250Y-76415581D01*
X264960038Y-76408349D01*
X264940632Y-76399170D01*
X264922219Y-76388134D01*
X264904976Y-76375346D01*
X264889070Y-76360930D01*
X264874654Y-76345024D01*
X264861866Y-76327781D01*
X264850830Y-76309368D01*
X264841651Y-76289962D01*
X264834419Y-76269750D01*
X264829203Y-76248926D01*
X264826053Y-76227691D01*
X264825000Y-76206250D01*
X264825000Y-75768750D01*
X264826053Y-75747309D01*
X264829203Y-75726074D01*
X264834419Y-75705250D01*
X264841651Y-75685038D01*
X264850830Y-75665632D01*
X264861866Y-75647219D01*
X264874654Y-75629976D01*
X264889070Y-75614070D01*
X264904976Y-75599654D01*
X264922219Y-75586866D01*
X264940632Y-75575830D01*
X264960038Y-75566651D01*
X264980250Y-75559419D01*
X265001074Y-75554203D01*
X265022309Y-75551053D01*
X265043750Y-75550000D01*
X265556250Y-75550000D01*
X265577691Y-75551053D01*
X265577691Y-75551053D01*
G37*
D13*
X265300000Y-75987500D03*
D10*
G36*
X265577691Y-73976053D02*
G01*
X265598926Y-73979203D01*
X265619750Y-73984419D01*
X265639962Y-73991651D01*
X265659368Y-74000830D01*
X265677781Y-74011866D01*
X265695024Y-74024654D01*
X265710930Y-74039070D01*
X265725346Y-74054976D01*
X265738134Y-74072219D01*
X265749170Y-74090632D01*
X265758349Y-74110038D01*
X265765581Y-74130250D01*
X265770797Y-74151074D01*
X265773947Y-74172309D01*
X265775000Y-74193750D01*
X265775000Y-74631250D01*
X265773947Y-74652691D01*
X265770797Y-74673926D01*
X265765581Y-74694750D01*
X265758349Y-74714962D01*
X265749170Y-74734368D01*
X265738134Y-74752781D01*
X265725346Y-74770024D01*
X265710930Y-74785930D01*
X265695024Y-74800346D01*
X265677781Y-74813134D01*
X265659368Y-74824170D01*
X265639962Y-74833349D01*
X265619750Y-74840581D01*
X265598926Y-74845797D01*
X265577691Y-74848947D01*
X265556250Y-74850000D01*
X265043750Y-74850000D01*
X265022309Y-74848947D01*
X265001074Y-74845797D01*
X264980250Y-74840581D01*
X264960038Y-74833349D01*
X264940632Y-74824170D01*
X264922219Y-74813134D01*
X264904976Y-74800346D01*
X264889070Y-74785930D01*
X264874654Y-74770024D01*
X264861866Y-74752781D01*
X264850830Y-74734368D01*
X264841651Y-74714962D01*
X264834419Y-74694750D01*
X264829203Y-74673926D01*
X264826053Y-74652691D01*
X264825000Y-74631250D01*
X264825000Y-74193750D01*
X264826053Y-74172309D01*
X264829203Y-74151074D01*
X264834419Y-74130250D01*
X264841651Y-74110038D01*
X264850830Y-74090632D01*
X264861866Y-74072219D01*
X264874654Y-74054976D01*
X264889070Y-74039070D01*
X264904976Y-74024654D01*
X264922219Y-74011866D01*
X264940632Y-74000830D01*
X264960038Y-73991651D01*
X264980250Y-73984419D01*
X265001074Y-73979203D01*
X265022309Y-73976053D01*
X265043750Y-73975000D01*
X265556250Y-73975000D01*
X265577691Y-73976053D01*
X265577691Y-73976053D01*
G37*
D13*
X265300000Y-74412500D03*
D10*
G36*
X263777691Y-73976053D02*
G01*
X263798926Y-73979203D01*
X263819750Y-73984419D01*
X263839962Y-73991651D01*
X263859368Y-74000830D01*
X263877781Y-74011866D01*
X263895024Y-74024654D01*
X263910930Y-74039070D01*
X263925346Y-74054976D01*
X263938134Y-74072219D01*
X263949170Y-74090632D01*
X263958349Y-74110038D01*
X263965581Y-74130250D01*
X263970797Y-74151074D01*
X263973947Y-74172309D01*
X263975000Y-74193750D01*
X263975000Y-74631250D01*
X263973947Y-74652691D01*
X263970797Y-74673926D01*
X263965581Y-74694750D01*
X263958349Y-74714962D01*
X263949170Y-74734368D01*
X263938134Y-74752781D01*
X263925346Y-74770024D01*
X263910930Y-74785930D01*
X263895024Y-74800346D01*
X263877781Y-74813134D01*
X263859368Y-74824170D01*
X263839962Y-74833349D01*
X263819750Y-74840581D01*
X263798926Y-74845797D01*
X263777691Y-74848947D01*
X263756250Y-74850000D01*
X263243750Y-74850000D01*
X263222309Y-74848947D01*
X263201074Y-74845797D01*
X263180250Y-74840581D01*
X263160038Y-74833349D01*
X263140632Y-74824170D01*
X263122219Y-74813134D01*
X263104976Y-74800346D01*
X263089070Y-74785930D01*
X263074654Y-74770024D01*
X263061866Y-74752781D01*
X263050830Y-74734368D01*
X263041651Y-74714962D01*
X263034419Y-74694750D01*
X263029203Y-74673926D01*
X263026053Y-74652691D01*
X263025000Y-74631250D01*
X263025000Y-74193750D01*
X263026053Y-74172309D01*
X263029203Y-74151074D01*
X263034419Y-74130250D01*
X263041651Y-74110038D01*
X263050830Y-74090632D01*
X263061866Y-74072219D01*
X263074654Y-74054976D01*
X263089070Y-74039070D01*
X263104976Y-74024654D01*
X263122219Y-74011866D01*
X263140632Y-74000830D01*
X263160038Y-73991651D01*
X263180250Y-73984419D01*
X263201074Y-73979203D01*
X263222309Y-73976053D01*
X263243750Y-73975000D01*
X263756250Y-73975000D01*
X263777691Y-73976053D01*
X263777691Y-73976053D01*
G37*
D13*
X263500000Y-74412500D03*
D10*
G36*
X263777691Y-75551053D02*
G01*
X263798926Y-75554203D01*
X263819750Y-75559419D01*
X263839962Y-75566651D01*
X263859368Y-75575830D01*
X263877781Y-75586866D01*
X263895024Y-75599654D01*
X263910930Y-75614070D01*
X263925346Y-75629976D01*
X263938134Y-75647219D01*
X263949170Y-75665632D01*
X263958349Y-75685038D01*
X263965581Y-75705250D01*
X263970797Y-75726074D01*
X263973947Y-75747309D01*
X263975000Y-75768750D01*
X263975000Y-76206250D01*
X263973947Y-76227691D01*
X263970797Y-76248926D01*
X263965581Y-76269750D01*
X263958349Y-76289962D01*
X263949170Y-76309368D01*
X263938134Y-76327781D01*
X263925346Y-76345024D01*
X263910930Y-76360930D01*
X263895024Y-76375346D01*
X263877781Y-76388134D01*
X263859368Y-76399170D01*
X263839962Y-76408349D01*
X263819750Y-76415581D01*
X263798926Y-76420797D01*
X263777691Y-76423947D01*
X263756250Y-76425000D01*
X263243750Y-76425000D01*
X263222309Y-76423947D01*
X263201074Y-76420797D01*
X263180250Y-76415581D01*
X263160038Y-76408349D01*
X263140632Y-76399170D01*
X263122219Y-76388134D01*
X263104976Y-76375346D01*
X263089070Y-76360930D01*
X263074654Y-76345024D01*
X263061866Y-76327781D01*
X263050830Y-76309368D01*
X263041651Y-76289962D01*
X263034419Y-76269750D01*
X263029203Y-76248926D01*
X263026053Y-76227691D01*
X263025000Y-76206250D01*
X263025000Y-75768750D01*
X263026053Y-75747309D01*
X263029203Y-75726074D01*
X263034419Y-75705250D01*
X263041651Y-75685038D01*
X263050830Y-75665632D01*
X263061866Y-75647219D01*
X263074654Y-75629976D01*
X263089070Y-75614070D01*
X263104976Y-75599654D01*
X263122219Y-75586866D01*
X263140632Y-75575830D01*
X263160038Y-75566651D01*
X263180250Y-75559419D01*
X263201074Y-75554203D01*
X263222309Y-75551053D01*
X263243750Y-75550000D01*
X263756250Y-75550000D01*
X263777691Y-75551053D01*
X263777691Y-75551053D01*
G37*
D13*
X263500000Y-75987500D03*
D10*
G36*
X210552691Y-75226053D02*
G01*
X210573926Y-75229203D01*
X210594750Y-75234419D01*
X210614962Y-75241651D01*
X210634368Y-75250830D01*
X210652781Y-75261866D01*
X210670024Y-75274654D01*
X210685930Y-75289070D01*
X210700346Y-75304976D01*
X210713134Y-75322219D01*
X210724170Y-75340632D01*
X210733349Y-75360038D01*
X210740581Y-75380250D01*
X210745797Y-75401074D01*
X210748947Y-75422309D01*
X210750000Y-75443750D01*
X210750000Y-75956250D01*
X210748947Y-75977691D01*
X210745797Y-75998926D01*
X210740581Y-76019750D01*
X210733349Y-76039962D01*
X210724170Y-76059368D01*
X210713134Y-76077781D01*
X210700346Y-76095024D01*
X210685930Y-76110930D01*
X210670024Y-76125346D01*
X210652781Y-76138134D01*
X210634368Y-76149170D01*
X210614962Y-76158349D01*
X210594750Y-76165581D01*
X210573926Y-76170797D01*
X210552691Y-76173947D01*
X210531250Y-76175000D01*
X210093750Y-76175000D01*
X210072309Y-76173947D01*
X210051074Y-76170797D01*
X210030250Y-76165581D01*
X210010038Y-76158349D01*
X209990632Y-76149170D01*
X209972219Y-76138134D01*
X209954976Y-76125346D01*
X209939070Y-76110930D01*
X209924654Y-76095024D01*
X209911866Y-76077781D01*
X209900830Y-76059368D01*
X209891651Y-76039962D01*
X209884419Y-76019750D01*
X209879203Y-75998926D01*
X209876053Y-75977691D01*
X209875000Y-75956250D01*
X209875000Y-75443750D01*
X209876053Y-75422309D01*
X209879203Y-75401074D01*
X209884419Y-75380250D01*
X209891651Y-75360038D01*
X209900830Y-75340632D01*
X209911866Y-75322219D01*
X209924654Y-75304976D01*
X209939070Y-75289070D01*
X209954976Y-75274654D01*
X209972219Y-75261866D01*
X209990632Y-75250830D01*
X210010038Y-75241651D01*
X210030250Y-75234419D01*
X210051074Y-75229203D01*
X210072309Y-75226053D01*
X210093750Y-75225000D01*
X210531250Y-75225000D01*
X210552691Y-75226053D01*
X210552691Y-75226053D01*
G37*
D13*
X210312500Y-75700000D03*
D10*
G36*
X212127691Y-75226053D02*
G01*
X212148926Y-75229203D01*
X212169750Y-75234419D01*
X212189962Y-75241651D01*
X212209368Y-75250830D01*
X212227781Y-75261866D01*
X212245024Y-75274654D01*
X212260930Y-75289070D01*
X212275346Y-75304976D01*
X212288134Y-75322219D01*
X212299170Y-75340632D01*
X212308349Y-75360038D01*
X212315581Y-75380250D01*
X212320797Y-75401074D01*
X212323947Y-75422309D01*
X212325000Y-75443750D01*
X212325000Y-75956250D01*
X212323947Y-75977691D01*
X212320797Y-75998926D01*
X212315581Y-76019750D01*
X212308349Y-76039962D01*
X212299170Y-76059368D01*
X212288134Y-76077781D01*
X212275346Y-76095024D01*
X212260930Y-76110930D01*
X212245024Y-76125346D01*
X212227781Y-76138134D01*
X212209368Y-76149170D01*
X212189962Y-76158349D01*
X212169750Y-76165581D01*
X212148926Y-76170797D01*
X212127691Y-76173947D01*
X212106250Y-76175000D01*
X211668750Y-76175000D01*
X211647309Y-76173947D01*
X211626074Y-76170797D01*
X211605250Y-76165581D01*
X211585038Y-76158349D01*
X211565632Y-76149170D01*
X211547219Y-76138134D01*
X211529976Y-76125346D01*
X211514070Y-76110930D01*
X211499654Y-76095024D01*
X211486866Y-76077781D01*
X211475830Y-76059368D01*
X211466651Y-76039962D01*
X211459419Y-76019750D01*
X211454203Y-75998926D01*
X211451053Y-75977691D01*
X211450000Y-75956250D01*
X211450000Y-75443750D01*
X211451053Y-75422309D01*
X211454203Y-75401074D01*
X211459419Y-75380250D01*
X211466651Y-75360038D01*
X211475830Y-75340632D01*
X211486866Y-75322219D01*
X211499654Y-75304976D01*
X211514070Y-75289070D01*
X211529976Y-75274654D01*
X211547219Y-75261866D01*
X211565632Y-75250830D01*
X211585038Y-75241651D01*
X211605250Y-75234419D01*
X211626074Y-75229203D01*
X211647309Y-75226053D01*
X211668750Y-75225000D01*
X212106250Y-75225000D01*
X212127691Y-75226053D01*
X212127691Y-75226053D01*
G37*
D13*
X211887500Y-75700000D03*
D10*
G36*
X212127691Y-73626053D02*
G01*
X212148926Y-73629203D01*
X212169750Y-73634419D01*
X212189962Y-73641651D01*
X212209368Y-73650830D01*
X212227781Y-73661866D01*
X212245024Y-73674654D01*
X212260930Y-73689070D01*
X212275346Y-73704976D01*
X212288134Y-73722219D01*
X212299170Y-73740632D01*
X212308349Y-73760038D01*
X212315581Y-73780250D01*
X212320797Y-73801074D01*
X212323947Y-73822309D01*
X212325000Y-73843750D01*
X212325000Y-74356250D01*
X212323947Y-74377691D01*
X212320797Y-74398926D01*
X212315581Y-74419750D01*
X212308349Y-74439962D01*
X212299170Y-74459368D01*
X212288134Y-74477781D01*
X212275346Y-74495024D01*
X212260930Y-74510930D01*
X212245024Y-74525346D01*
X212227781Y-74538134D01*
X212209368Y-74549170D01*
X212189962Y-74558349D01*
X212169750Y-74565581D01*
X212148926Y-74570797D01*
X212127691Y-74573947D01*
X212106250Y-74575000D01*
X211668750Y-74575000D01*
X211647309Y-74573947D01*
X211626074Y-74570797D01*
X211605250Y-74565581D01*
X211585038Y-74558349D01*
X211565632Y-74549170D01*
X211547219Y-74538134D01*
X211529976Y-74525346D01*
X211514070Y-74510930D01*
X211499654Y-74495024D01*
X211486866Y-74477781D01*
X211475830Y-74459368D01*
X211466651Y-74439962D01*
X211459419Y-74419750D01*
X211454203Y-74398926D01*
X211451053Y-74377691D01*
X211450000Y-74356250D01*
X211450000Y-73843750D01*
X211451053Y-73822309D01*
X211454203Y-73801074D01*
X211459419Y-73780250D01*
X211466651Y-73760038D01*
X211475830Y-73740632D01*
X211486866Y-73722219D01*
X211499654Y-73704976D01*
X211514070Y-73689070D01*
X211529976Y-73674654D01*
X211547219Y-73661866D01*
X211565632Y-73650830D01*
X211585038Y-73641651D01*
X211605250Y-73634419D01*
X211626074Y-73629203D01*
X211647309Y-73626053D01*
X211668750Y-73625000D01*
X212106250Y-73625000D01*
X212127691Y-73626053D01*
X212127691Y-73626053D01*
G37*
D13*
X211887500Y-74100000D03*
D10*
G36*
X210552691Y-73626053D02*
G01*
X210573926Y-73629203D01*
X210594750Y-73634419D01*
X210614962Y-73641651D01*
X210634368Y-73650830D01*
X210652781Y-73661866D01*
X210670024Y-73674654D01*
X210685930Y-73689070D01*
X210700346Y-73704976D01*
X210713134Y-73722219D01*
X210724170Y-73740632D01*
X210733349Y-73760038D01*
X210740581Y-73780250D01*
X210745797Y-73801074D01*
X210748947Y-73822309D01*
X210750000Y-73843750D01*
X210750000Y-74356250D01*
X210748947Y-74377691D01*
X210745797Y-74398926D01*
X210740581Y-74419750D01*
X210733349Y-74439962D01*
X210724170Y-74459368D01*
X210713134Y-74477781D01*
X210700346Y-74495024D01*
X210685930Y-74510930D01*
X210670024Y-74525346D01*
X210652781Y-74538134D01*
X210634368Y-74549170D01*
X210614962Y-74558349D01*
X210594750Y-74565581D01*
X210573926Y-74570797D01*
X210552691Y-74573947D01*
X210531250Y-74575000D01*
X210093750Y-74575000D01*
X210072309Y-74573947D01*
X210051074Y-74570797D01*
X210030250Y-74565581D01*
X210010038Y-74558349D01*
X209990632Y-74549170D01*
X209972219Y-74538134D01*
X209954976Y-74525346D01*
X209939070Y-74510930D01*
X209924654Y-74495024D01*
X209911866Y-74477781D01*
X209900830Y-74459368D01*
X209891651Y-74439962D01*
X209884419Y-74419750D01*
X209879203Y-74398926D01*
X209876053Y-74377691D01*
X209875000Y-74356250D01*
X209875000Y-73843750D01*
X209876053Y-73822309D01*
X209879203Y-73801074D01*
X209884419Y-73780250D01*
X209891651Y-73760038D01*
X209900830Y-73740632D01*
X209911866Y-73722219D01*
X209924654Y-73704976D01*
X209939070Y-73689070D01*
X209954976Y-73674654D01*
X209972219Y-73661866D01*
X209990632Y-73650830D01*
X210010038Y-73641651D01*
X210030250Y-73634419D01*
X210051074Y-73629203D01*
X210072309Y-73626053D01*
X210093750Y-73625000D01*
X210531250Y-73625000D01*
X210552691Y-73626053D01*
X210552691Y-73626053D01*
G37*
D13*
X210312500Y-74100000D03*
D10*
G36*
X221265191Y-72426053D02*
G01*
X221286426Y-72429203D01*
X221307250Y-72434419D01*
X221327462Y-72441651D01*
X221346868Y-72450830D01*
X221365281Y-72461866D01*
X221382524Y-72474654D01*
X221398430Y-72489070D01*
X221412846Y-72504976D01*
X221425634Y-72522219D01*
X221436670Y-72540632D01*
X221445849Y-72560038D01*
X221453081Y-72580250D01*
X221458297Y-72601074D01*
X221461447Y-72622309D01*
X221462500Y-72643750D01*
X221462500Y-73156250D01*
X221461447Y-73177691D01*
X221458297Y-73198926D01*
X221453081Y-73219750D01*
X221445849Y-73239962D01*
X221436670Y-73259368D01*
X221425634Y-73277781D01*
X221412846Y-73295024D01*
X221398430Y-73310930D01*
X221382524Y-73325346D01*
X221365281Y-73338134D01*
X221346868Y-73349170D01*
X221327462Y-73358349D01*
X221307250Y-73365581D01*
X221286426Y-73370797D01*
X221265191Y-73373947D01*
X221243750Y-73375000D01*
X220806250Y-73375000D01*
X220784809Y-73373947D01*
X220763574Y-73370797D01*
X220742750Y-73365581D01*
X220722538Y-73358349D01*
X220703132Y-73349170D01*
X220684719Y-73338134D01*
X220667476Y-73325346D01*
X220651570Y-73310930D01*
X220637154Y-73295024D01*
X220624366Y-73277781D01*
X220613330Y-73259368D01*
X220604151Y-73239962D01*
X220596919Y-73219750D01*
X220591703Y-73198926D01*
X220588553Y-73177691D01*
X220587500Y-73156250D01*
X220587500Y-72643750D01*
X220588553Y-72622309D01*
X220591703Y-72601074D01*
X220596919Y-72580250D01*
X220604151Y-72560038D01*
X220613330Y-72540632D01*
X220624366Y-72522219D01*
X220637154Y-72504976D01*
X220651570Y-72489070D01*
X220667476Y-72474654D01*
X220684719Y-72461866D01*
X220703132Y-72450830D01*
X220722538Y-72441651D01*
X220742750Y-72434419D01*
X220763574Y-72429203D01*
X220784809Y-72426053D01*
X220806250Y-72425000D01*
X221243750Y-72425000D01*
X221265191Y-72426053D01*
X221265191Y-72426053D01*
G37*
D13*
X221025000Y-72900000D03*
D10*
G36*
X222840191Y-72426053D02*
G01*
X222861426Y-72429203D01*
X222882250Y-72434419D01*
X222902462Y-72441651D01*
X222921868Y-72450830D01*
X222940281Y-72461866D01*
X222957524Y-72474654D01*
X222973430Y-72489070D01*
X222987846Y-72504976D01*
X223000634Y-72522219D01*
X223011670Y-72540632D01*
X223020849Y-72560038D01*
X223028081Y-72580250D01*
X223033297Y-72601074D01*
X223036447Y-72622309D01*
X223037500Y-72643750D01*
X223037500Y-73156250D01*
X223036447Y-73177691D01*
X223033297Y-73198926D01*
X223028081Y-73219750D01*
X223020849Y-73239962D01*
X223011670Y-73259368D01*
X223000634Y-73277781D01*
X222987846Y-73295024D01*
X222973430Y-73310930D01*
X222957524Y-73325346D01*
X222940281Y-73338134D01*
X222921868Y-73349170D01*
X222902462Y-73358349D01*
X222882250Y-73365581D01*
X222861426Y-73370797D01*
X222840191Y-73373947D01*
X222818750Y-73375000D01*
X222381250Y-73375000D01*
X222359809Y-73373947D01*
X222338574Y-73370797D01*
X222317750Y-73365581D01*
X222297538Y-73358349D01*
X222278132Y-73349170D01*
X222259719Y-73338134D01*
X222242476Y-73325346D01*
X222226570Y-73310930D01*
X222212154Y-73295024D01*
X222199366Y-73277781D01*
X222188330Y-73259368D01*
X222179151Y-73239962D01*
X222171919Y-73219750D01*
X222166703Y-73198926D01*
X222163553Y-73177691D01*
X222162500Y-73156250D01*
X222162500Y-72643750D01*
X222163553Y-72622309D01*
X222166703Y-72601074D01*
X222171919Y-72580250D01*
X222179151Y-72560038D01*
X222188330Y-72540632D01*
X222199366Y-72522219D01*
X222212154Y-72504976D01*
X222226570Y-72489070D01*
X222242476Y-72474654D01*
X222259719Y-72461866D01*
X222278132Y-72450830D01*
X222297538Y-72441651D01*
X222317750Y-72434419D01*
X222338574Y-72429203D01*
X222359809Y-72426053D01*
X222381250Y-72425000D01*
X222818750Y-72425000D01*
X222840191Y-72426053D01*
X222840191Y-72426053D01*
G37*
D13*
X222600000Y-72900000D03*
D10*
G36*
X218113792Y-72426053D02*
G01*
X218135027Y-72429203D01*
X218155851Y-72434419D01*
X218176063Y-72441651D01*
X218195469Y-72450830D01*
X218213882Y-72461866D01*
X218231125Y-72474654D01*
X218247031Y-72489070D01*
X218261447Y-72504976D01*
X218274235Y-72522219D01*
X218285271Y-72540632D01*
X218294450Y-72560038D01*
X218301682Y-72580250D01*
X218306898Y-72601074D01*
X218310048Y-72622309D01*
X218311101Y-72643750D01*
X218311101Y-73156250D01*
X218310048Y-73177691D01*
X218306898Y-73198926D01*
X218301682Y-73219750D01*
X218294450Y-73239962D01*
X218285271Y-73259368D01*
X218274235Y-73277781D01*
X218261447Y-73295024D01*
X218247031Y-73310930D01*
X218231125Y-73325346D01*
X218213882Y-73338134D01*
X218195469Y-73349170D01*
X218176063Y-73358349D01*
X218155851Y-73365581D01*
X218135027Y-73370797D01*
X218113792Y-73373947D01*
X218092351Y-73375000D01*
X217654851Y-73375000D01*
X217633410Y-73373947D01*
X217612175Y-73370797D01*
X217591351Y-73365581D01*
X217571139Y-73358349D01*
X217551733Y-73349170D01*
X217533320Y-73338134D01*
X217516077Y-73325346D01*
X217500171Y-73310930D01*
X217485755Y-73295024D01*
X217472967Y-73277781D01*
X217461931Y-73259368D01*
X217452752Y-73239962D01*
X217445520Y-73219750D01*
X217440304Y-73198926D01*
X217437154Y-73177691D01*
X217436101Y-73156250D01*
X217436101Y-72643750D01*
X217437154Y-72622309D01*
X217440304Y-72601074D01*
X217445520Y-72580250D01*
X217452752Y-72560038D01*
X217461931Y-72540632D01*
X217472967Y-72522219D01*
X217485755Y-72504976D01*
X217500171Y-72489070D01*
X217516077Y-72474654D01*
X217533320Y-72461866D01*
X217551733Y-72450830D01*
X217571139Y-72441651D01*
X217591351Y-72434419D01*
X217612175Y-72429203D01*
X217633410Y-72426053D01*
X217654851Y-72425000D01*
X218092351Y-72425000D01*
X218113792Y-72426053D01*
X218113792Y-72426053D01*
G37*
D13*
X217873601Y-72900000D03*
D10*
G36*
X219688792Y-72426053D02*
G01*
X219710027Y-72429203D01*
X219730851Y-72434419D01*
X219751063Y-72441651D01*
X219770469Y-72450830D01*
X219788882Y-72461866D01*
X219806125Y-72474654D01*
X219822031Y-72489070D01*
X219836447Y-72504976D01*
X219849235Y-72522219D01*
X219860271Y-72540632D01*
X219869450Y-72560038D01*
X219876682Y-72580250D01*
X219881898Y-72601074D01*
X219885048Y-72622309D01*
X219886101Y-72643750D01*
X219886101Y-73156250D01*
X219885048Y-73177691D01*
X219881898Y-73198926D01*
X219876682Y-73219750D01*
X219869450Y-73239962D01*
X219860271Y-73259368D01*
X219849235Y-73277781D01*
X219836447Y-73295024D01*
X219822031Y-73310930D01*
X219806125Y-73325346D01*
X219788882Y-73338134D01*
X219770469Y-73349170D01*
X219751063Y-73358349D01*
X219730851Y-73365581D01*
X219710027Y-73370797D01*
X219688792Y-73373947D01*
X219667351Y-73375000D01*
X219229851Y-73375000D01*
X219208410Y-73373947D01*
X219187175Y-73370797D01*
X219166351Y-73365581D01*
X219146139Y-73358349D01*
X219126733Y-73349170D01*
X219108320Y-73338134D01*
X219091077Y-73325346D01*
X219075171Y-73310930D01*
X219060755Y-73295024D01*
X219047967Y-73277781D01*
X219036931Y-73259368D01*
X219027752Y-73239962D01*
X219020520Y-73219750D01*
X219015304Y-73198926D01*
X219012154Y-73177691D01*
X219011101Y-73156250D01*
X219011101Y-72643750D01*
X219012154Y-72622309D01*
X219015304Y-72601074D01*
X219020520Y-72580250D01*
X219027752Y-72560038D01*
X219036931Y-72540632D01*
X219047967Y-72522219D01*
X219060755Y-72504976D01*
X219075171Y-72489070D01*
X219091077Y-72474654D01*
X219108320Y-72461866D01*
X219126733Y-72450830D01*
X219146139Y-72441651D01*
X219166351Y-72434419D01*
X219187175Y-72429203D01*
X219208410Y-72426053D01*
X219229851Y-72425000D01*
X219667351Y-72425000D01*
X219688792Y-72426053D01*
X219688792Y-72426053D01*
G37*
D13*
X219448601Y-72900000D03*
D10*
G36*
X219688792Y-74126053D02*
G01*
X219710027Y-74129203D01*
X219730851Y-74134419D01*
X219751063Y-74141651D01*
X219770469Y-74150830D01*
X219788882Y-74161866D01*
X219806125Y-74174654D01*
X219822031Y-74189070D01*
X219836447Y-74204976D01*
X219849235Y-74222219D01*
X219860271Y-74240632D01*
X219869450Y-74260038D01*
X219876682Y-74280250D01*
X219881898Y-74301074D01*
X219885048Y-74322309D01*
X219886101Y-74343750D01*
X219886101Y-74856250D01*
X219885048Y-74877691D01*
X219881898Y-74898926D01*
X219876682Y-74919750D01*
X219869450Y-74939962D01*
X219860271Y-74959368D01*
X219849235Y-74977781D01*
X219836447Y-74995024D01*
X219822031Y-75010930D01*
X219806125Y-75025346D01*
X219788882Y-75038134D01*
X219770469Y-75049170D01*
X219751063Y-75058349D01*
X219730851Y-75065581D01*
X219710027Y-75070797D01*
X219688792Y-75073947D01*
X219667351Y-75075000D01*
X219229851Y-75075000D01*
X219208410Y-75073947D01*
X219187175Y-75070797D01*
X219166351Y-75065581D01*
X219146139Y-75058349D01*
X219126733Y-75049170D01*
X219108320Y-75038134D01*
X219091077Y-75025346D01*
X219075171Y-75010930D01*
X219060755Y-74995024D01*
X219047967Y-74977781D01*
X219036931Y-74959368D01*
X219027752Y-74939962D01*
X219020520Y-74919750D01*
X219015304Y-74898926D01*
X219012154Y-74877691D01*
X219011101Y-74856250D01*
X219011101Y-74343750D01*
X219012154Y-74322309D01*
X219015304Y-74301074D01*
X219020520Y-74280250D01*
X219027752Y-74260038D01*
X219036931Y-74240632D01*
X219047967Y-74222219D01*
X219060755Y-74204976D01*
X219075171Y-74189070D01*
X219091077Y-74174654D01*
X219108320Y-74161866D01*
X219126733Y-74150830D01*
X219146139Y-74141651D01*
X219166351Y-74134419D01*
X219187175Y-74129203D01*
X219208410Y-74126053D01*
X219229851Y-74125000D01*
X219667351Y-74125000D01*
X219688792Y-74126053D01*
X219688792Y-74126053D01*
G37*
D13*
X219448601Y-74600000D03*
D10*
G36*
X218113792Y-74126053D02*
G01*
X218135027Y-74129203D01*
X218155851Y-74134419D01*
X218176063Y-74141651D01*
X218195469Y-74150830D01*
X218213882Y-74161866D01*
X218231125Y-74174654D01*
X218247031Y-74189070D01*
X218261447Y-74204976D01*
X218274235Y-74222219D01*
X218285271Y-74240632D01*
X218294450Y-74260038D01*
X218301682Y-74280250D01*
X218306898Y-74301074D01*
X218310048Y-74322309D01*
X218311101Y-74343750D01*
X218311101Y-74856250D01*
X218310048Y-74877691D01*
X218306898Y-74898926D01*
X218301682Y-74919750D01*
X218294450Y-74939962D01*
X218285271Y-74959368D01*
X218274235Y-74977781D01*
X218261447Y-74995024D01*
X218247031Y-75010930D01*
X218231125Y-75025346D01*
X218213882Y-75038134D01*
X218195469Y-75049170D01*
X218176063Y-75058349D01*
X218155851Y-75065581D01*
X218135027Y-75070797D01*
X218113792Y-75073947D01*
X218092351Y-75075000D01*
X217654851Y-75075000D01*
X217633410Y-75073947D01*
X217612175Y-75070797D01*
X217591351Y-75065581D01*
X217571139Y-75058349D01*
X217551733Y-75049170D01*
X217533320Y-75038134D01*
X217516077Y-75025346D01*
X217500171Y-75010930D01*
X217485755Y-74995024D01*
X217472967Y-74977781D01*
X217461931Y-74959368D01*
X217452752Y-74939962D01*
X217445520Y-74919750D01*
X217440304Y-74898926D01*
X217437154Y-74877691D01*
X217436101Y-74856250D01*
X217436101Y-74343750D01*
X217437154Y-74322309D01*
X217440304Y-74301074D01*
X217445520Y-74280250D01*
X217452752Y-74260038D01*
X217461931Y-74240632D01*
X217472967Y-74222219D01*
X217485755Y-74204976D01*
X217500171Y-74189070D01*
X217516077Y-74174654D01*
X217533320Y-74161866D01*
X217551733Y-74150830D01*
X217571139Y-74141651D01*
X217591351Y-74134419D01*
X217612175Y-74129203D01*
X217633410Y-74126053D01*
X217654851Y-74125000D01*
X218092351Y-74125000D01*
X218113792Y-74126053D01*
X218113792Y-74126053D01*
G37*
D13*
X217873601Y-74600000D03*
D10*
G36*
X255952691Y-72126053D02*
G01*
X255973926Y-72129203D01*
X255994750Y-72134419D01*
X256014962Y-72141651D01*
X256034368Y-72150830D01*
X256052781Y-72161866D01*
X256070024Y-72174654D01*
X256085930Y-72189070D01*
X256100346Y-72204976D01*
X256113134Y-72222219D01*
X256124170Y-72240632D01*
X256133349Y-72260038D01*
X256140581Y-72280250D01*
X256145797Y-72301074D01*
X256148947Y-72322309D01*
X256150000Y-72343750D01*
X256150000Y-72856250D01*
X256148947Y-72877691D01*
X256145797Y-72898926D01*
X256140581Y-72919750D01*
X256133349Y-72939962D01*
X256124170Y-72959368D01*
X256113134Y-72977781D01*
X256100346Y-72995024D01*
X256085930Y-73010930D01*
X256070024Y-73025346D01*
X256052781Y-73038134D01*
X256034368Y-73049170D01*
X256014962Y-73058349D01*
X255994750Y-73065581D01*
X255973926Y-73070797D01*
X255952691Y-73073947D01*
X255931250Y-73075000D01*
X255493750Y-73075000D01*
X255472309Y-73073947D01*
X255451074Y-73070797D01*
X255430250Y-73065581D01*
X255410038Y-73058349D01*
X255390632Y-73049170D01*
X255372219Y-73038134D01*
X255354976Y-73025346D01*
X255339070Y-73010930D01*
X255324654Y-72995024D01*
X255311866Y-72977781D01*
X255300830Y-72959368D01*
X255291651Y-72939962D01*
X255284419Y-72919750D01*
X255279203Y-72898926D01*
X255276053Y-72877691D01*
X255275000Y-72856250D01*
X255275000Y-72343750D01*
X255276053Y-72322309D01*
X255279203Y-72301074D01*
X255284419Y-72280250D01*
X255291651Y-72260038D01*
X255300830Y-72240632D01*
X255311866Y-72222219D01*
X255324654Y-72204976D01*
X255339070Y-72189070D01*
X255354976Y-72174654D01*
X255372219Y-72161866D01*
X255390632Y-72150830D01*
X255410038Y-72141651D01*
X255430250Y-72134419D01*
X255451074Y-72129203D01*
X255472309Y-72126053D01*
X255493750Y-72125000D01*
X255931250Y-72125000D01*
X255952691Y-72126053D01*
X255952691Y-72126053D01*
G37*
D13*
X255712500Y-72600000D03*
D10*
G36*
X257527691Y-72126053D02*
G01*
X257548926Y-72129203D01*
X257569750Y-72134419D01*
X257589962Y-72141651D01*
X257609368Y-72150830D01*
X257627781Y-72161866D01*
X257645024Y-72174654D01*
X257660930Y-72189070D01*
X257675346Y-72204976D01*
X257688134Y-72222219D01*
X257699170Y-72240632D01*
X257708349Y-72260038D01*
X257715581Y-72280250D01*
X257720797Y-72301074D01*
X257723947Y-72322309D01*
X257725000Y-72343750D01*
X257725000Y-72856250D01*
X257723947Y-72877691D01*
X257720797Y-72898926D01*
X257715581Y-72919750D01*
X257708349Y-72939962D01*
X257699170Y-72959368D01*
X257688134Y-72977781D01*
X257675346Y-72995024D01*
X257660930Y-73010930D01*
X257645024Y-73025346D01*
X257627781Y-73038134D01*
X257609368Y-73049170D01*
X257589962Y-73058349D01*
X257569750Y-73065581D01*
X257548926Y-73070797D01*
X257527691Y-73073947D01*
X257506250Y-73075000D01*
X257068750Y-73075000D01*
X257047309Y-73073947D01*
X257026074Y-73070797D01*
X257005250Y-73065581D01*
X256985038Y-73058349D01*
X256965632Y-73049170D01*
X256947219Y-73038134D01*
X256929976Y-73025346D01*
X256914070Y-73010930D01*
X256899654Y-72995024D01*
X256886866Y-72977781D01*
X256875830Y-72959368D01*
X256866651Y-72939962D01*
X256859419Y-72919750D01*
X256854203Y-72898926D01*
X256851053Y-72877691D01*
X256850000Y-72856250D01*
X256850000Y-72343750D01*
X256851053Y-72322309D01*
X256854203Y-72301074D01*
X256859419Y-72280250D01*
X256866651Y-72260038D01*
X256875830Y-72240632D01*
X256886866Y-72222219D01*
X256899654Y-72204976D01*
X256914070Y-72189070D01*
X256929976Y-72174654D01*
X256947219Y-72161866D01*
X256965632Y-72150830D01*
X256985038Y-72141651D01*
X257005250Y-72134419D01*
X257026074Y-72129203D01*
X257047309Y-72126053D01*
X257068750Y-72125000D01*
X257506250Y-72125000D01*
X257527691Y-72126053D01*
X257527691Y-72126053D01*
G37*
D13*
X257287500Y-72600000D03*
D14*
X265050000Y-81400000D03*
X265050000Y-78600000D03*
X263550000Y-81400000D03*
X263550000Y-78600000D03*
X207750000Y-78600000D03*
X207750000Y-81400000D03*
X209250000Y-78600000D03*
X209250000Y-81400000D03*
X259750000Y-81400000D03*
X259750000Y-78600000D03*
X258250000Y-81400000D03*
X258250000Y-78600000D03*
X212950000Y-78600000D03*
X212950000Y-81400000D03*
X214450000Y-78600000D03*
X214450000Y-81400000D03*
X218050000Y-78600000D03*
X218050000Y-81400000D03*
X219550000Y-78600000D03*
X219550000Y-81400000D03*
M02*
