M48
;DRILL file {KiCad (5.0.2)-1} date 22/03/2019 12:39:34
;FORMAT={-:-/ absolute / metric / decimal}
FMAT,2
METRIC,TZ
T1C0.300
T2C1.000
T3C2.700
%
G90
G05
T1
X206.Y-76.
X206.Y-81.
X206.Y-86.
X208.Y-73.
X209.Y-86.
X214.Y-86.
X219.Y-86.
X222.Y-74.2
X222.1Y-71.
X223.Y-86.
X223.6Y-72.9
X224.6Y-74.
X225.2Y-78.7
X226.Y-90.
X226.Y-93.
X226.7Y-73.
X227.3Y-71.
X227.7Y-77.
X227.7Y-80.5
X229.Y-93.
X231.Y-73.4
X232.4Y-71.
X233.Y-87.
X233.9Y-73.4
X237.Y-73.
X237.Y-87.
X237.Y-90.
X239.Y-66.5
X244.Y-66.4
X249.Y-66.5
X249.Y-91.
X252.Y-91.
X253.3Y-75.1
X253.3Y-79.3
X254.04Y-72.6
X255.8Y-87.9
X255.8Y-89.7
X255.8Y-91.4
X256.Y-75.
X256.Y-86.
X256.3Y-84.8
X256.7Y-90.5
X257.Y-85.3
X257.6Y-90.8
X257.9Y-85.2
X258.5Y-85.8
X260.Y-75.
X262.Y-84.
X262.Y-92.
X263.Y-72.
X263.9Y-67.1
X268.Y-73.
X268.Y-88.
T2
X213.37Y-67.23
X213.37Y-69.77
X215.91Y-67.23
X215.91Y-69.77
X218.45Y-67.23
X218.45Y-69.77
X220.99Y-67.23
X220.99Y-69.77
X223.53Y-67.23
X223.53Y-69.77
X226.07Y-67.23
X226.07Y-69.77
X228.61Y-67.23
X228.61Y-69.77
X231.15Y-67.23
X231.15Y-69.77
X233.69Y-67.23
X233.69Y-69.77
X236.23Y-67.23
X236.23Y-69.77
X254.01Y-67.23
X254.01Y-69.77
X256.55Y-67.23
X256.55Y-69.77
X259.09Y-67.23
X259.09Y-69.77
X261.63Y-67.23
X261.63Y-69.77
T3
X208.5Y-68.5
X208.5Y-91.5
X266.5Y-91.5
X266.5Y-68.5
T0
M30
