G04 #@! TF.GenerationSoftware,KiCad,Pcbnew,(5.1.0)-1*
G04 #@! TF.CreationDate,2019-03-23T08:53:22+11:00*
G04 #@! TF.ProjectId,VeinCamHatZero,5665696e-4361-46d4-9861-745a65726f2e,rev?*
G04 #@! TF.SameCoordinates,Original*
G04 #@! TF.FileFunction,Legend,Bot*
G04 #@! TF.FilePolarity,Positive*
%FSLAX46Y46*%
G04 Gerber Fmt 4.6, Leading zero omitted, Abs format (unit mm)*
G04 Created by KiCad (PCBNEW (5.1.0)-1) date 2019-03-23 08:53:22*
%MOMM*%
%LPD*%
G04 APERTURE LIST*
%ADD10C,0.200000*%
G04 APERTURE END LIST*
D10*
X248157142Y-92785714D02*
X247919047Y-93452380D01*
X247680952Y-92785714D01*
X246919047Y-93404761D02*
X247014285Y-93452380D01*
X247204761Y-93452380D01*
X247300000Y-93404761D01*
X247347619Y-93309523D01*
X247347619Y-92928571D01*
X247300000Y-92833333D01*
X247204761Y-92785714D01*
X247014285Y-92785714D01*
X246919047Y-92833333D01*
X246871428Y-92928571D01*
X246871428Y-93023809D01*
X247347619Y-93119047D01*
X246442857Y-93452380D02*
X246442857Y-92785714D01*
X246442857Y-92452380D02*
X246490476Y-92500000D01*
X246442857Y-92547619D01*
X246395238Y-92500000D01*
X246442857Y-92452380D01*
X246442857Y-92547619D01*
X245966666Y-92785714D02*
X245966666Y-93452380D01*
X245966666Y-92880952D02*
X245919047Y-92833333D01*
X245823809Y-92785714D01*
X245680952Y-92785714D01*
X245585714Y-92833333D01*
X245538095Y-92928571D01*
X245538095Y-93452380D01*
X244633333Y-93404761D02*
X244728571Y-93452380D01*
X244919047Y-93452380D01*
X245014285Y-93404761D01*
X245061904Y-93357142D01*
X245109523Y-93261904D01*
X245109523Y-92976190D01*
X245061904Y-92880952D01*
X245014285Y-92833333D01*
X244919047Y-92785714D01*
X244728571Y-92785714D01*
X244633333Y-92833333D01*
X243776190Y-93452380D02*
X243776190Y-92928571D01*
X243823809Y-92833333D01*
X243919047Y-92785714D01*
X244109523Y-92785714D01*
X244204761Y-92833333D01*
X243776190Y-93404761D02*
X243871428Y-93452380D01*
X244109523Y-93452380D01*
X244204761Y-93404761D01*
X244252380Y-93309523D01*
X244252380Y-93214285D01*
X244204761Y-93119047D01*
X244109523Y-93071428D01*
X243871428Y-93071428D01*
X243776190Y-93023809D01*
X243300000Y-93452380D02*
X243300000Y-92785714D01*
X243300000Y-92880952D02*
X243252380Y-92833333D01*
X243157142Y-92785714D01*
X243014285Y-92785714D01*
X242919047Y-92833333D01*
X242871428Y-92928571D01*
X242871428Y-93452380D01*
X242871428Y-92928571D02*
X242823809Y-92833333D01*
X242728571Y-92785714D01*
X242585714Y-92785714D01*
X242490476Y-92833333D01*
X242442857Y-92928571D01*
X242442857Y-93452380D01*
X241966666Y-93357142D02*
X241919047Y-93404761D01*
X241966666Y-93452380D01*
X242014285Y-93404761D01*
X241966666Y-93357142D01*
X241966666Y-93452380D01*
X241347619Y-93452380D02*
X241442857Y-93404761D01*
X241490476Y-93357142D01*
X241538095Y-93261904D01*
X241538095Y-92976190D01*
X241490476Y-92880952D01*
X241442857Y-92833333D01*
X241347619Y-92785714D01*
X241204761Y-92785714D01*
X241109523Y-92833333D01*
X241061904Y-92880952D01*
X241014285Y-92976190D01*
X241014285Y-93261904D01*
X241061904Y-93357142D01*
X241109523Y-93404761D01*
X241204761Y-93452380D01*
X241347619Y-93452380D01*
X240585714Y-93452380D02*
X240585714Y-92785714D01*
X240585714Y-92976190D02*
X240538095Y-92880952D01*
X240490476Y-92833333D01*
X240395238Y-92785714D01*
X240300000Y-92785714D01*
X239538095Y-92785714D02*
X239538095Y-93595238D01*
X239585714Y-93690476D01*
X239633333Y-93738095D01*
X239728571Y-93785714D01*
X239871428Y-93785714D01*
X239966666Y-93738095D01*
X239538095Y-93404761D02*
X239633333Y-93452380D01*
X239823809Y-93452380D01*
X239919047Y-93404761D01*
X239966666Y-93357142D01*
X240014285Y-93261904D01*
X240014285Y-92976190D01*
X239966666Y-92880952D01*
X239919047Y-92833333D01*
X239823809Y-92785714D01*
X239633333Y-92785714D01*
X239538095Y-92833333D01*
M02*
