M48
;DRILL file {KiCad (5.0.2)-1} date 22/03/2019 13:00:00
;FORMAT={-:-/ absolute / metric / decimal}
FMAT,2
METRIC,TZ
T1C0.300
T2C1.000
T3C2.200
T4C2.700
%
G90
G05
T1
X207.4Y-148.1
X210.Y-105.
X219.4Y-148.3
X224.7Y-101.4
X225.7Y-101.1
X227.Y-108.6
X229.Y-109.5
X229.6Y-104.7
X230.Y-108.4
X231.3Y-108.2
X231.3Y-104.7
X231.9Y-112.
X234.Y-109.8
X234.3Y-112.7
X235.6Y-111.5
X237.Y-102.
X239.1Y-101.3
X240.Y-105.
X240.Y-145.
X250.Y-110.
X250.Y-120.
X250.Y-130.
X250.Y-140.
X260.Y-105.
X260.Y-115.
X260.Y-125.
X260.Y-135.
T2
X208.37Y-96.23
X208.37Y-98.77
X210.91Y-96.23
X210.91Y-98.77
X213.45Y-96.23
X213.45Y-98.77
X215.99Y-96.23
X215.99Y-98.77
X218.53Y-96.23
X218.53Y-98.77
X221.07Y-96.23
X221.07Y-98.77
X223.61Y-96.23
X223.61Y-98.77
X226.15Y-96.23
X226.15Y-98.77
X228.69Y-96.23
X228.69Y-98.77
X231.23Y-96.23
X231.23Y-98.77
X233.77Y-96.23
X233.77Y-98.77
X236.31Y-96.23
X236.31Y-98.77
X238.85Y-96.23
X238.85Y-98.77
X241.39Y-96.23
X241.39Y-98.77
X243.93Y-96.23
X243.93Y-98.77
X246.47Y-96.23
X246.47Y-98.77
X249.01Y-96.23
X249.01Y-98.77
X251.55Y-96.23
X251.55Y-98.77
X254.09Y-96.23
X254.09Y-98.77
X256.63Y-96.23
X256.63Y-98.77
T3
X219.5Y-116.
X219.5Y-137.
X232.Y-116.
X232.Y-137.
T4
X203.5Y-97.5
X261.5Y-146.5
X261.5Y-97.5
X203.5Y-146.5
T0
M30
