G04 #@! TF.GenerationSoftware,KiCad,Pcbnew,(5.1.0)-1*
G04 #@! TF.CreationDate,2019-03-23T08:59:44+11:00*
G04 #@! TF.ProjectId,VeinCamHat,5665696e-4361-46d4-9861-742e6b696361,rev?*
G04 #@! TF.SameCoordinates,Original*
G04 #@! TF.FileFunction,Copper,L2,Bot*
G04 #@! TF.FilePolarity,Positive*
%FSLAX46Y46*%
G04 Gerber Fmt 4.6, Leading zero omitted, Abs format (unit mm)*
G04 Created by KiCad (PCBNEW (5.1.0)-1) date 2019-03-23 08:59:44*
%MOMM*%
%LPD*%
G04 APERTURE LIST*
%ADD10R,1.700000X1.700000*%
%ADD11O,1.700000X1.700000*%
%ADD12C,0.600000*%
%ADD13C,0.200000*%
G04 APERTURE END LIST*
D10*
X208370000Y-98770000D03*
D11*
X208370000Y-96230000D03*
X210910000Y-98770000D03*
X210910000Y-96230000D03*
X213450000Y-98770000D03*
X213450000Y-96230000D03*
X215990000Y-98770000D03*
X215990000Y-96230000D03*
X218530000Y-98770000D03*
X218530000Y-96230000D03*
X221070000Y-98770000D03*
X221070000Y-96230000D03*
X223610000Y-98770000D03*
X223610000Y-96230000D03*
X226150000Y-98770000D03*
X226150000Y-96230000D03*
X228690000Y-98770000D03*
X228690000Y-96230000D03*
X231230000Y-98770000D03*
X231230000Y-96230000D03*
X233770000Y-98770000D03*
X233770000Y-96230000D03*
X236310000Y-98770000D03*
X236310000Y-96230000D03*
X238850000Y-98770000D03*
X238850000Y-96230000D03*
X241390000Y-98770000D03*
X241390000Y-96230000D03*
X243930000Y-98770000D03*
X243930000Y-96230000D03*
X246470000Y-98770000D03*
X246470000Y-96230000D03*
X249010000Y-98770000D03*
X249010000Y-96230000D03*
X251550000Y-98770000D03*
X251550000Y-96230000D03*
X254090000Y-98770000D03*
X254090000Y-96230000D03*
X256630000Y-98770000D03*
X256630000Y-96230000D03*
D12*
X234000000Y-109800000D03*
X235600000Y-111500000D03*
X234300000Y-112700000D03*
X231900000Y-112000000D03*
X230000000Y-108400000D03*
X227000000Y-108600000D03*
X260000000Y-105000000D03*
X260000000Y-115000000D03*
X260000000Y-125000000D03*
X260000000Y-135000000D03*
X250000000Y-120000000D03*
X250000000Y-130000000D03*
X250000000Y-140000000D03*
X250000000Y-110000000D03*
X240000000Y-105000000D03*
X240000000Y-145000000D03*
X210000000Y-105000000D03*
X207400000Y-148100000D03*
X219400000Y-148300000D03*
X237000000Y-102000000D03*
X224700000Y-101400000D03*
X225700000Y-101100000D03*
X239100000Y-102300002D03*
X229600000Y-104700000D03*
X229000005Y-109500000D03*
X231300000Y-104700000D03*
X231299987Y-108200013D03*
D13*
X236575736Y-102000000D02*
X237000000Y-102000000D01*
X225200000Y-102000000D02*
X224700000Y-101500000D01*
X224700000Y-101500000D02*
X224700000Y-101400000D01*
X237000000Y-102000000D02*
X225200000Y-102000000D01*
X237899998Y-101100000D02*
X238800001Y-102000003D01*
X238800001Y-102000003D02*
X239100000Y-102300002D01*
X225700000Y-101100000D02*
X237899998Y-101100000D01*
X229000005Y-105299995D02*
X229000005Y-109075736D01*
X229000005Y-109075736D02*
X229000005Y-109500000D01*
X229600000Y-104700000D02*
X229000005Y-105299995D01*
X231300000Y-104700000D02*
X231300000Y-108199988D01*
G36*
X262455846Y-94697814D02*
G01*
X262894331Y-94830200D01*
X263298745Y-95045230D01*
X263653695Y-95334722D01*
X263945654Y-95687638D01*
X264163504Y-96090545D01*
X264298949Y-96528097D01*
X264350001Y-97013822D01*
X264350000Y-146968207D01*
X264302186Y-147455846D01*
X264169800Y-147894329D01*
X263954769Y-148298745D01*
X263665279Y-148653695D01*
X263312362Y-148945654D01*
X262909455Y-149163504D01*
X262471904Y-149298949D01*
X261986187Y-149350000D01*
X203031793Y-149350000D01*
X202544154Y-149302186D01*
X202105671Y-149169800D01*
X201701255Y-148954769D01*
X201346305Y-148665279D01*
X201054346Y-148312362D01*
X200836496Y-147909455D01*
X200701051Y-147471904D01*
X200650000Y-146986187D01*
X200650000Y-146307942D01*
X201550000Y-146307942D01*
X201550000Y-146692058D01*
X201624938Y-147068794D01*
X201771933Y-147423671D01*
X201985336Y-147743052D01*
X202256948Y-148014664D01*
X202576329Y-148228067D01*
X202931206Y-148375062D01*
X203307942Y-148450000D01*
X203692058Y-148450000D01*
X204068794Y-148375062D01*
X204423671Y-148228067D01*
X204743052Y-148014664D01*
X205014664Y-147743052D01*
X205228067Y-147423671D01*
X205375062Y-147068794D01*
X205450000Y-146692058D01*
X205450000Y-146307942D01*
X205395098Y-146031931D01*
X242350000Y-146031931D01*
X242353297Y-146065406D01*
X242353297Y-146091354D01*
X242354246Y-146100379D01*
X242397756Y-146488278D01*
X242410005Y-146545904D01*
X242421447Y-146603693D01*
X242424130Y-146612358D01*
X242424131Y-146612364D01*
X242424133Y-146612370D01*
X242542155Y-146984423D01*
X242565344Y-147038528D01*
X242587813Y-147093042D01*
X242592130Y-147101024D01*
X242780174Y-147443075D01*
X242813469Y-147491701D01*
X242846059Y-147540754D01*
X242851840Y-147547741D01*
X242851844Y-147547747D01*
X242851849Y-147547752D01*
X243102744Y-147846757D01*
X243144820Y-147887961D01*
X243186347Y-147929779D01*
X243193380Y-147935515D01*
X243497582Y-148180099D01*
X243546871Y-148212353D01*
X243595718Y-148245301D01*
X243603727Y-148249558D01*
X243603731Y-148249561D01*
X243603735Y-148249563D01*
X243949644Y-148430400D01*
X244004263Y-148452468D01*
X244058576Y-148475299D01*
X244067264Y-148477922D01*
X244441714Y-148588129D01*
X244499587Y-148599169D01*
X244557295Y-148611015D01*
X244566323Y-148611900D01*
X244566327Y-148611900D01*
X244955053Y-148647276D01*
X245013964Y-148646865D01*
X245072875Y-148647276D01*
X245081907Y-148646390D01*
X245470100Y-148605589D01*
X245527804Y-148593744D01*
X245585678Y-148582704D01*
X245594366Y-148580081D01*
X245967241Y-148464657D01*
X246021550Y-148441828D01*
X246076173Y-148419759D01*
X246084186Y-148415498D01*
X246427541Y-148229847D01*
X246476371Y-148196911D01*
X246525680Y-148164644D01*
X246532712Y-148158908D01*
X246833467Y-147910101D01*
X246874974Y-147868303D01*
X246917070Y-147827080D01*
X246922855Y-147820087D01*
X247169555Y-147517603D01*
X247202150Y-147468543D01*
X247235441Y-147419923D01*
X247239758Y-147411940D01*
X247423007Y-147067299D01*
X247445443Y-147012865D01*
X247468667Y-146958681D01*
X247471350Y-146950011D01*
X247584168Y-146576340D01*
X247595615Y-146518530D01*
X247607859Y-146460924D01*
X247608808Y-146451898D01*
X247622923Y-146307942D01*
X259550000Y-146307942D01*
X259550000Y-146692058D01*
X259624938Y-147068794D01*
X259771933Y-147423671D01*
X259985336Y-147743052D01*
X260256948Y-148014664D01*
X260576329Y-148228067D01*
X260931206Y-148375062D01*
X261307942Y-148450000D01*
X261692058Y-148450000D01*
X262068794Y-148375062D01*
X262423671Y-148228067D01*
X262743052Y-148014664D01*
X263014664Y-147743052D01*
X263228067Y-147423671D01*
X263375062Y-147068794D01*
X263450000Y-146692058D01*
X263450000Y-146307942D01*
X263375062Y-145931206D01*
X263228067Y-145576329D01*
X263014664Y-145256948D01*
X262743052Y-144985336D01*
X262423671Y-144771933D01*
X262068794Y-144624938D01*
X261692058Y-144550000D01*
X261307942Y-144550000D01*
X260931206Y-144624938D01*
X260576329Y-144771933D01*
X260256948Y-144985336D01*
X259985336Y-145256948D01*
X259771933Y-145576329D01*
X259624938Y-145931206D01*
X259550000Y-146307942D01*
X247622923Y-146307942D01*
X247646898Y-146063429D01*
X247646898Y-146063427D01*
X247650000Y-146031932D01*
X247650000Y-130968068D01*
X247646703Y-130934593D01*
X247646703Y-130908647D01*
X247645754Y-130899621D01*
X247602244Y-130511722D01*
X247589997Y-130454103D01*
X247578553Y-130396307D01*
X247575869Y-130387638D01*
X247457845Y-130015577D01*
X247434650Y-129961459D01*
X247412187Y-129906959D01*
X247407870Y-129898976D01*
X247219826Y-129556926D01*
X247186554Y-129508333D01*
X247153941Y-129459246D01*
X247148156Y-129452254D01*
X246897256Y-129153243D01*
X246855180Y-129112039D01*
X246813653Y-129070221D01*
X246806626Y-129064491D01*
X246806620Y-129064485D01*
X246806613Y-129064481D01*
X246502419Y-128819901D01*
X246453117Y-128787639D01*
X246404281Y-128754699D01*
X246396273Y-128750442D01*
X246396269Y-128750439D01*
X246396265Y-128750437D01*
X246050355Y-128569600D01*
X245995748Y-128547537D01*
X245941423Y-128524701D01*
X245932735Y-128522078D01*
X245558286Y-128411871D01*
X245500405Y-128400830D01*
X245442704Y-128388985D01*
X245433678Y-128388101D01*
X245433675Y-128388100D01*
X245433672Y-128388100D01*
X245044947Y-128352724D01*
X244986036Y-128353135D01*
X244927125Y-128352724D01*
X244918093Y-128353610D01*
X244918091Y-128353610D01*
X244529900Y-128394411D01*
X244472203Y-128406254D01*
X244414321Y-128417296D01*
X244405634Y-128419919D01*
X244032759Y-128535343D01*
X243978479Y-128558160D01*
X243923827Y-128580241D01*
X243915814Y-128584502D01*
X243572459Y-128770153D01*
X243523629Y-128803089D01*
X243474320Y-128835356D01*
X243467287Y-128841092D01*
X243166533Y-129089899D01*
X243125026Y-129131697D01*
X243082930Y-129172920D01*
X243077145Y-129179913D01*
X242830444Y-129482398D01*
X242797846Y-129531462D01*
X242764558Y-129580077D01*
X242760242Y-129588060D01*
X242576992Y-129932702D01*
X242554554Y-129987140D01*
X242531333Y-130041320D01*
X242528650Y-130049989D01*
X242415832Y-130423661D01*
X242404387Y-130481463D01*
X242392141Y-130539076D01*
X242391192Y-130548102D01*
X242353102Y-130936571D01*
X242353102Y-130936583D01*
X242350001Y-130968068D01*
X242350000Y-146031931D01*
X205395098Y-146031931D01*
X205375062Y-145931206D01*
X205228067Y-145576329D01*
X205014664Y-145256948D01*
X204743052Y-144985336D01*
X204423671Y-144771933D01*
X204068794Y-144624938D01*
X203692058Y-144550000D01*
X203307942Y-144550000D01*
X202931206Y-144624938D01*
X202576329Y-144771933D01*
X202256948Y-144985336D01*
X201985336Y-145256948D01*
X201771933Y-145576329D01*
X201624938Y-145931206D01*
X201550000Y-146307942D01*
X200650000Y-146307942D01*
X200650000Y-136832565D01*
X217800000Y-136832565D01*
X217800000Y-137167435D01*
X217865330Y-137495872D01*
X217993479Y-137805252D01*
X218179523Y-138083687D01*
X218416313Y-138320477D01*
X218694748Y-138506521D01*
X219004128Y-138634670D01*
X219332565Y-138700000D01*
X219667435Y-138700000D01*
X219995872Y-138634670D01*
X220305252Y-138506521D01*
X220583687Y-138320477D01*
X220820477Y-138083687D01*
X221006521Y-137805252D01*
X221134670Y-137495872D01*
X221200000Y-137167435D01*
X221200000Y-136832565D01*
X230300000Y-136832565D01*
X230300000Y-137167435D01*
X230365330Y-137495872D01*
X230493479Y-137805252D01*
X230679523Y-138083687D01*
X230916313Y-138320477D01*
X231194748Y-138506521D01*
X231504128Y-138634670D01*
X231832565Y-138700000D01*
X232167435Y-138700000D01*
X232495872Y-138634670D01*
X232805252Y-138506521D01*
X233083687Y-138320477D01*
X233320477Y-138083687D01*
X233506521Y-137805252D01*
X233634670Y-137495872D01*
X233700000Y-137167435D01*
X233700000Y-136832565D01*
X233634670Y-136504128D01*
X233506521Y-136194748D01*
X233320477Y-135916313D01*
X233083687Y-135679523D01*
X232805252Y-135493479D01*
X232495872Y-135365330D01*
X232167435Y-135300000D01*
X231832565Y-135300000D01*
X231504128Y-135365330D01*
X231194748Y-135493479D01*
X230916313Y-135679523D01*
X230679523Y-135916313D01*
X230493479Y-136194748D01*
X230365330Y-136504128D01*
X230300000Y-136832565D01*
X221200000Y-136832565D01*
X221134670Y-136504128D01*
X221006521Y-136194748D01*
X220820477Y-135916313D01*
X220583687Y-135679523D01*
X220305252Y-135493479D01*
X219995872Y-135365330D01*
X219667435Y-135300000D01*
X219332565Y-135300000D01*
X219004128Y-135365330D01*
X218694748Y-135493479D01*
X218416313Y-135679523D01*
X218179523Y-135916313D01*
X217993479Y-136194748D01*
X217865330Y-136504128D01*
X217800000Y-136832565D01*
X200650000Y-136832565D01*
X200650000Y-120966842D01*
X212325000Y-120966842D01*
X212325001Y-132033159D01*
X212327914Y-132062730D01*
X212327827Y-132075141D01*
X212328747Y-132084520D01*
X212369548Y-132472713D01*
X212381847Y-132532630D01*
X212393313Y-132592737D01*
X212396037Y-132601759D01*
X212511461Y-132974634D01*
X212535178Y-133031053D01*
X212558087Y-133087756D01*
X212562511Y-133096077D01*
X212748162Y-133439432D01*
X212782377Y-133490158D01*
X212815873Y-133541345D01*
X212821829Y-133548648D01*
X213070636Y-133849403D01*
X213114056Y-133892520D01*
X213156851Y-133936221D01*
X213164112Y-133942228D01*
X213466597Y-134188929D01*
X213517530Y-134222769D01*
X213568033Y-134257349D01*
X213576323Y-134261831D01*
X213920964Y-134445081D01*
X213977510Y-134468388D01*
X214033760Y-134492496D01*
X214042763Y-134495283D01*
X214416434Y-134608101D01*
X214476481Y-134619991D01*
X214536289Y-134632703D01*
X214545651Y-134633687D01*
X214545662Y-134633689D01*
X214545672Y-134633689D01*
X214933496Y-134671716D01*
X214966841Y-134675000D01*
X231033159Y-134675000D01*
X231062740Y-134672086D01*
X231075141Y-134672173D01*
X231084520Y-134671253D01*
X231472713Y-134630452D01*
X231532630Y-134618153D01*
X231592737Y-134606687D01*
X231601759Y-134603963D01*
X231974634Y-134488539D01*
X232031053Y-134464822D01*
X232087756Y-134441913D01*
X232096077Y-134437489D01*
X232439432Y-134251838D01*
X232490158Y-134217623D01*
X232541345Y-134184127D01*
X232548648Y-134178171D01*
X232849403Y-133929364D01*
X232892520Y-133885944D01*
X232936221Y-133843149D01*
X232942228Y-133835888D01*
X233188929Y-133533403D01*
X233222769Y-133482470D01*
X233257349Y-133431967D01*
X233261831Y-133423677D01*
X233445081Y-133079036D01*
X233468388Y-133022490D01*
X233492496Y-132966240D01*
X233495283Y-132957237D01*
X233608101Y-132583566D01*
X233619991Y-132523519D01*
X233632703Y-132463711D01*
X233633687Y-132454349D01*
X233633689Y-132454338D01*
X233633689Y-132454328D01*
X233671778Y-132065869D01*
X233675000Y-132033159D01*
X233675000Y-120966841D01*
X233672086Y-120937260D01*
X233672173Y-120924859D01*
X233671253Y-120915480D01*
X233630452Y-120527287D01*
X233618154Y-120467376D01*
X233606687Y-120407263D01*
X233603963Y-120398241D01*
X233488539Y-120025366D01*
X233464822Y-119968947D01*
X233441913Y-119912244D01*
X233437489Y-119903923D01*
X233251838Y-119560568D01*
X233217633Y-119509857D01*
X233184127Y-119458655D01*
X233178171Y-119451352D01*
X232929364Y-119150597D01*
X232885944Y-119107480D01*
X232843149Y-119063779D01*
X232835888Y-119057771D01*
X232533403Y-118811071D01*
X232482447Y-118777216D01*
X232431967Y-118742651D01*
X232423685Y-118738173D01*
X232423677Y-118738168D01*
X232423669Y-118738165D01*
X232079035Y-118554919D01*
X232022461Y-118531600D01*
X231966239Y-118507504D01*
X231957245Y-118504719D01*
X231957239Y-118504717D01*
X231957233Y-118504716D01*
X231583565Y-118391899D01*
X231523532Y-118380012D01*
X231463711Y-118367297D01*
X231454347Y-118366313D01*
X231454337Y-118366311D01*
X231454328Y-118366311D01*
X231066504Y-118328284D01*
X231033159Y-118325000D01*
X214966841Y-118325000D01*
X214937260Y-118327914D01*
X214924859Y-118327827D01*
X214915480Y-118328747D01*
X214527287Y-118369548D01*
X214467376Y-118381846D01*
X214407263Y-118393313D01*
X214398241Y-118396037D01*
X214025366Y-118511461D01*
X213968947Y-118535178D01*
X213912244Y-118558087D01*
X213903923Y-118562511D01*
X213560568Y-118748162D01*
X213509857Y-118782367D01*
X213458655Y-118815873D01*
X213451352Y-118821829D01*
X213150597Y-119070636D01*
X213107480Y-119114056D01*
X213063779Y-119156851D01*
X213057771Y-119164112D01*
X212811071Y-119466597D01*
X212777216Y-119517553D01*
X212742651Y-119568033D01*
X212738173Y-119576315D01*
X212738168Y-119576323D01*
X212738165Y-119576331D01*
X212554919Y-119920965D01*
X212531600Y-119977539D01*
X212507504Y-120033761D01*
X212504719Y-120042755D01*
X212504717Y-120042761D01*
X212504717Y-120042763D01*
X212391899Y-120416435D01*
X212380012Y-120476468D01*
X212367297Y-120536289D01*
X212366313Y-120545653D01*
X212366311Y-120545663D01*
X212366311Y-120545672D01*
X212328262Y-120933719D01*
X212325000Y-120966842D01*
X200650000Y-120966842D01*
X200650000Y-115832565D01*
X217800000Y-115832565D01*
X217800000Y-116167435D01*
X217865330Y-116495872D01*
X217993479Y-116805252D01*
X218179523Y-117083687D01*
X218416313Y-117320477D01*
X218694748Y-117506521D01*
X219004128Y-117634670D01*
X219332565Y-117700000D01*
X219667435Y-117700000D01*
X219995872Y-117634670D01*
X220305252Y-117506521D01*
X220583687Y-117320477D01*
X220820477Y-117083687D01*
X221006521Y-116805252D01*
X221134670Y-116495872D01*
X221200000Y-116167435D01*
X221200000Y-115832565D01*
X230300000Y-115832565D01*
X230300000Y-116167435D01*
X230365330Y-116495872D01*
X230493479Y-116805252D01*
X230679523Y-117083687D01*
X230916313Y-117320477D01*
X231194748Y-117506521D01*
X231504128Y-117634670D01*
X231832565Y-117700000D01*
X232167435Y-117700000D01*
X232495872Y-117634670D01*
X232805252Y-117506521D01*
X233083687Y-117320477D01*
X233320477Y-117083687D01*
X233506521Y-116805252D01*
X233634670Y-116495872D01*
X233700000Y-116167435D01*
X233700000Y-115832565D01*
X233634670Y-115504128D01*
X233506521Y-115194748D01*
X233320477Y-114916313D01*
X233083687Y-114679523D01*
X232805252Y-114493479D01*
X232495872Y-114365330D01*
X232167435Y-114300000D01*
X231832565Y-114300000D01*
X231504128Y-114365330D01*
X231194748Y-114493479D01*
X230916313Y-114679523D01*
X230679523Y-114916313D01*
X230493479Y-115194748D01*
X230365330Y-115504128D01*
X230300000Y-115832565D01*
X221200000Y-115832565D01*
X221134670Y-115504128D01*
X221006521Y-115194748D01*
X220820477Y-114916313D01*
X220583687Y-114679523D01*
X220305252Y-114493479D01*
X219995872Y-114365330D01*
X219667435Y-114300000D01*
X219332565Y-114300000D01*
X219004128Y-114365330D01*
X218694748Y-114493479D01*
X218416313Y-114679523D01*
X218179523Y-114916313D01*
X217993479Y-115194748D01*
X217865330Y-115504128D01*
X217800000Y-115832565D01*
X200650000Y-115832565D01*
X200650000Y-109411358D01*
X228100005Y-109411358D01*
X228100005Y-109588642D01*
X228134591Y-109762520D01*
X228202435Y-109926310D01*
X228300929Y-110073717D01*
X228426288Y-110199076D01*
X228573695Y-110297570D01*
X228737485Y-110365414D01*
X228911363Y-110400000D01*
X229088647Y-110400000D01*
X229262525Y-110365414D01*
X229426315Y-110297570D01*
X229573722Y-110199076D01*
X229699081Y-110073717D01*
X229797575Y-109926310D01*
X229865419Y-109762520D01*
X229900005Y-109588642D01*
X229900005Y-109411358D01*
X229865419Y-109237480D01*
X229797575Y-109073690D01*
X229700005Y-108927666D01*
X229700005Y-105597740D01*
X229862520Y-105565414D01*
X230026310Y-105497570D01*
X230173717Y-105399076D01*
X230299076Y-105273717D01*
X230397570Y-105126310D01*
X230450000Y-104999733D01*
X230502430Y-105126310D01*
X230600000Y-105272334D01*
X230600001Y-107627658D01*
X230502417Y-107773703D01*
X230434573Y-107937493D01*
X230399987Y-108111371D01*
X230399987Y-108288655D01*
X230434573Y-108462533D01*
X230502417Y-108626323D01*
X230600911Y-108773730D01*
X230726270Y-108899089D01*
X230873677Y-108997583D01*
X231037467Y-109065427D01*
X231211345Y-109100013D01*
X231388629Y-109100013D01*
X231562507Y-109065427D01*
X231726297Y-108997583D01*
X231873704Y-108899089D01*
X231999063Y-108773730D01*
X232097557Y-108626323D01*
X232165401Y-108462533D01*
X232199987Y-108288655D01*
X232199987Y-108111371D01*
X232165401Y-107937493D01*
X232097557Y-107773703D01*
X232000000Y-107627698D01*
X232000000Y-105272334D01*
X232097570Y-105126310D01*
X232165414Y-104962520D01*
X232200000Y-104788642D01*
X232200000Y-104611358D01*
X232165414Y-104437480D01*
X232097570Y-104273690D01*
X231999076Y-104126283D01*
X231873717Y-104000924D01*
X231726310Y-103902430D01*
X231562520Y-103834586D01*
X231388642Y-103800000D01*
X231211358Y-103800000D01*
X231037480Y-103834586D01*
X230873690Y-103902430D01*
X230726283Y-104000924D01*
X230600924Y-104126283D01*
X230502430Y-104273690D01*
X230450000Y-104400267D01*
X230397570Y-104273690D01*
X230299076Y-104126283D01*
X230173717Y-104000924D01*
X230026310Y-103902430D01*
X229862520Y-103834586D01*
X229688642Y-103800000D01*
X229511358Y-103800000D01*
X229337480Y-103834586D01*
X229173690Y-103902430D01*
X229026283Y-104000924D01*
X228900924Y-104126283D01*
X228802430Y-104273690D01*
X228734586Y-104437480D01*
X228700325Y-104609726D01*
X228529347Y-104780704D01*
X228502635Y-104802626D01*
X228480714Y-104829337D01*
X228480713Y-104829338D01*
X228415160Y-104909214D01*
X228350161Y-105030820D01*
X228350160Y-105030821D01*
X228310133Y-105162772D01*
X228300005Y-105265605D01*
X228296618Y-105299995D01*
X228300005Y-105334382D01*
X228300006Y-108927664D01*
X228202435Y-109073690D01*
X228134591Y-109237480D01*
X228100005Y-109411358D01*
X200650000Y-109411358D01*
X200650000Y-101311358D01*
X223800000Y-101311358D01*
X223800000Y-101488642D01*
X223834586Y-101662520D01*
X223902430Y-101826310D01*
X224000924Y-101973717D01*
X224126283Y-102099076D01*
X224273690Y-102197570D01*
X224437480Y-102265414D01*
X224484896Y-102274845D01*
X224680708Y-102470658D01*
X224702630Y-102497370D01*
X224729341Y-102519291D01*
X224729342Y-102519292D01*
X224782018Y-102562522D01*
X224809219Y-102584845D01*
X224930825Y-102649845D01*
X225062776Y-102689872D01*
X225165610Y-102700000D01*
X225165613Y-102700000D01*
X225200000Y-102703387D01*
X225234387Y-102700000D01*
X236427666Y-102700000D01*
X236573690Y-102797570D01*
X236737480Y-102865414D01*
X236911358Y-102900000D01*
X237088642Y-102900000D01*
X237262520Y-102865414D01*
X237426310Y-102797570D01*
X237573717Y-102699076D01*
X237699076Y-102573717D01*
X237797570Y-102426310D01*
X237865414Y-102262520D01*
X237899783Y-102089734D01*
X238200325Y-102390276D01*
X238234586Y-102562522D01*
X238302430Y-102726312D01*
X238400924Y-102873719D01*
X238526283Y-102999078D01*
X238673690Y-103097572D01*
X238837480Y-103165416D01*
X239011358Y-103200002D01*
X239188642Y-103200002D01*
X239362520Y-103165416D01*
X239526310Y-103097572D01*
X239673717Y-102999078D01*
X239799076Y-102873719D01*
X239897570Y-102726312D01*
X239965414Y-102562522D01*
X240000000Y-102388644D01*
X240000000Y-102211360D01*
X239965414Y-102037482D01*
X239897570Y-101873692D01*
X239799076Y-101726285D01*
X239673717Y-101600926D01*
X239526310Y-101502432D01*
X239362520Y-101434588D01*
X239190274Y-101400327D01*
X238419294Y-100629347D01*
X238397368Y-100602630D01*
X238290779Y-100515155D01*
X238169173Y-100450155D01*
X238037222Y-100410128D01*
X237934388Y-100400000D01*
X237934385Y-100400000D01*
X237899998Y-100396613D01*
X237865611Y-100400000D01*
X226272334Y-100400000D01*
X226126310Y-100302430D01*
X225962520Y-100234586D01*
X225788642Y-100200000D01*
X225611358Y-100200000D01*
X225437480Y-100234586D01*
X225273690Y-100302430D01*
X225126283Y-100400924D01*
X225000924Y-100526283D01*
X224988254Y-100545245D01*
X224962520Y-100534586D01*
X224788642Y-100500000D01*
X224611358Y-100500000D01*
X224437480Y-100534586D01*
X224273690Y-100602430D01*
X224126283Y-100700924D01*
X224000924Y-100826283D01*
X223902430Y-100973690D01*
X223834586Y-101137480D01*
X223800000Y-101311358D01*
X200650000Y-101311358D01*
X200650000Y-97307942D01*
X201550000Y-97307942D01*
X201550000Y-97692058D01*
X201624938Y-98068794D01*
X201771933Y-98423671D01*
X201985336Y-98743052D01*
X202256948Y-99014664D01*
X202576329Y-99228067D01*
X202931206Y-99375062D01*
X203307942Y-99450000D01*
X203692058Y-99450000D01*
X204068794Y-99375062D01*
X204423671Y-99228067D01*
X204743052Y-99014664D01*
X205014664Y-98743052D01*
X205228067Y-98423671D01*
X205375062Y-98068794D01*
X205450000Y-97692058D01*
X205450000Y-97307942D01*
X205375062Y-96931206D01*
X205228067Y-96576329D01*
X205014664Y-96256948D01*
X204987716Y-96230000D01*
X206912985Y-96230000D01*
X206940981Y-96514250D01*
X207023894Y-96787576D01*
X207158536Y-97039474D01*
X207339735Y-97260265D01*
X207420881Y-97326860D01*
X207402379Y-97328682D01*
X207289279Y-97362990D01*
X207185045Y-97418704D01*
X207093683Y-97493683D01*
X207018704Y-97585045D01*
X206962990Y-97689279D01*
X206928682Y-97802379D01*
X206917097Y-97920000D01*
X206917097Y-99620000D01*
X206928682Y-99737621D01*
X206962990Y-99850721D01*
X207018704Y-99954955D01*
X207093683Y-100046317D01*
X207185045Y-100121296D01*
X207289279Y-100177010D01*
X207402379Y-100211318D01*
X207520000Y-100222903D01*
X209220000Y-100222903D01*
X209337621Y-100211318D01*
X209450721Y-100177010D01*
X209554955Y-100121296D01*
X209646317Y-100046317D01*
X209721296Y-99954955D01*
X209777010Y-99850721D01*
X209811318Y-99737621D01*
X209813140Y-99719119D01*
X209879735Y-99800265D01*
X210100526Y-99981464D01*
X210352424Y-100116106D01*
X210625750Y-100199019D01*
X210838775Y-100220000D01*
X210981225Y-100220000D01*
X211194250Y-100199019D01*
X211467576Y-100116106D01*
X211719474Y-99981464D01*
X211940265Y-99800265D01*
X212121464Y-99579474D01*
X212180000Y-99469961D01*
X212238536Y-99579474D01*
X212419735Y-99800265D01*
X212640526Y-99981464D01*
X212892424Y-100116106D01*
X213165750Y-100199019D01*
X213378775Y-100220000D01*
X213521225Y-100220000D01*
X213734250Y-100199019D01*
X214007576Y-100116106D01*
X214259474Y-99981464D01*
X214480265Y-99800265D01*
X214661464Y-99579474D01*
X214720000Y-99469961D01*
X214778536Y-99579474D01*
X214959735Y-99800265D01*
X215180526Y-99981464D01*
X215432424Y-100116106D01*
X215705750Y-100199019D01*
X215918775Y-100220000D01*
X216061225Y-100220000D01*
X216274250Y-100199019D01*
X216547576Y-100116106D01*
X216799474Y-99981464D01*
X217020265Y-99800265D01*
X217201464Y-99579474D01*
X217336106Y-99327576D01*
X217414775Y-99068242D01*
X217443439Y-99176183D01*
X217543559Y-99380356D01*
X217681588Y-99561073D01*
X217852221Y-99711390D01*
X218048900Y-99825530D01*
X218264068Y-99899106D01*
X218343599Y-99914925D01*
X218525000Y-99852488D01*
X218525000Y-98775000D01*
X218505000Y-98775000D01*
X218505000Y-98765000D01*
X218525000Y-98765000D01*
X218525000Y-98745000D01*
X218535000Y-98745000D01*
X218535000Y-98765000D01*
X218555000Y-98765000D01*
X218555000Y-98775000D01*
X218535000Y-98775000D01*
X218535000Y-99852488D01*
X218716401Y-99914925D01*
X218795932Y-99899106D01*
X219011100Y-99825530D01*
X219207779Y-99711390D01*
X219378412Y-99561073D01*
X219516441Y-99380356D01*
X219616561Y-99176183D01*
X219645225Y-99068242D01*
X219723894Y-99327576D01*
X219858536Y-99579474D01*
X220039735Y-99800265D01*
X220260526Y-99981464D01*
X220512424Y-100116106D01*
X220785750Y-100199019D01*
X220998775Y-100220000D01*
X221141225Y-100220000D01*
X221354250Y-100199019D01*
X221627576Y-100116106D01*
X221879474Y-99981464D01*
X222100265Y-99800265D01*
X222281464Y-99579474D01*
X222340000Y-99469961D01*
X222398536Y-99579474D01*
X222579735Y-99800265D01*
X222800526Y-99981464D01*
X223052424Y-100116106D01*
X223325750Y-100199019D01*
X223538775Y-100220000D01*
X223681225Y-100220000D01*
X223894250Y-100199019D01*
X224167576Y-100116106D01*
X224419474Y-99981464D01*
X224640265Y-99800265D01*
X224821464Y-99579474D01*
X224880000Y-99469961D01*
X224938536Y-99579474D01*
X225119735Y-99800265D01*
X225340526Y-99981464D01*
X225592424Y-100116106D01*
X225865750Y-100199019D01*
X226078775Y-100220000D01*
X226221225Y-100220000D01*
X226434250Y-100199019D01*
X226707576Y-100116106D01*
X226959474Y-99981464D01*
X227180265Y-99800265D01*
X227361464Y-99579474D01*
X227420000Y-99469961D01*
X227478536Y-99579474D01*
X227659735Y-99800265D01*
X227880526Y-99981464D01*
X228132424Y-100116106D01*
X228405750Y-100199019D01*
X228618775Y-100220000D01*
X228761225Y-100220000D01*
X228974250Y-100199019D01*
X229247576Y-100116106D01*
X229499474Y-99981464D01*
X229720265Y-99800265D01*
X229901464Y-99579474D01*
X229960000Y-99469961D01*
X230018536Y-99579474D01*
X230199735Y-99800265D01*
X230420526Y-99981464D01*
X230672424Y-100116106D01*
X230945750Y-100199019D01*
X231158775Y-100220000D01*
X231301225Y-100220000D01*
X231514250Y-100199019D01*
X231787576Y-100116106D01*
X232039474Y-99981464D01*
X232260265Y-99800265D01*
X232441464Y-99579474D01*
X232500000Y-99469961D01*
X232558536Y-99579474D01*
X232739735Y-99800265D01*
X232960526Y-99981464D01*
X233212424Y-100116106D01*
X233485750Y-100199019D01*
X233698775Y-100220000D01*
X233841225Y-100220000D01*
X234054250Y-100199019D01*
X234327576Y-100116106D01*
X234579474Y-99981464D01*
X234800265Y-99800265D01*
X234981464Y-99579474D01*
X235040000Y-99469961D01*
X235098536Y-99579474D01*
X235279735Y-99800265D01*
X235500526Y-99981464D01*
X235752424Y-100116106D01*
X236025750Y-100199019D01*
X236238775Y-100220000D01*
X236381225Y-100220000D01*
X236594250Y-100199019D01*
X236867576Y-100116106D01*
X237119474Y-99981464D01*
X237340265Y-99800265D01*
X237521464Y-99579474D01*
X237656106Y-99327576D01*
X237734775Y-99068242D01*
X237763439Y-99176183D01*
X237863559Y-99380356D01*
X238001588Y-99561073D01*
X238172221Y-99711390D01*
X238368900Y-99825530D01*
X238584068Y-99899106D01*
X238663599Y-99914925D01*
X238845000Y-99852488D01*
X238845000Y-98775000D01*
X238825000Y-98775000D01*
X238825000Y-98765000D01*
X238845000Y-98765000D01*
X238845000Y-98745000D01*
X238855000Y-98745000D01*
X238855000Y-98765000D01*
X238875000Y-98765000D01*
X238875000Y-98775000D01*
X238855000Y-98775000D01*
X238855000Y-99852488D01*
X239036401Y-99914925D01*
X239115932Y-99899106D01*
X239331100Y-99825530D01*
X239527779Y-99711390D01*
X239698412Y-99561073D01*
X239836441Y-99380356D01*
X239936561Y-99176183D01*
X239965225Y-99068242D01*
X240043894Y-99327576D01*
X240178536Y-99579474D01*
X240359735Y-99800265D01*
X240580526Y-99981464D01*
X240832424Y-100116106D01*
X241105750Y-100199019D01*
X241318775Y-100220000D01*
X241461225Y-100220000D01*
X241674250Y-100199019D01*
X241947576Y-100116106D01*
X242199474Y-99981464D01*
X242420265Y-99800265D01*
X242601464Y-99579474D01*
X242660000Y-99469961D01*
X242718536Y-99579474D01*
X242899735Y-99800265D01*
X243120526Y-99981464D01*
X243372424Y-100116106D01*
X243645750Y-100199019D01*
X243858775Y-100220000D01*
X244001225Y-100220000D01*
X244214250Y-100199019D01*
X244487576Y-100116106D01*
X244739474Y-99981464D01*
X244960265Y-99800265D01*
X245141464Y-99579474D01*
X245200000Y-99469961D01*
X245258536Y-99579474D01*
X245439735Y-99800265D01*
X245660526Y-99981464D01*
X245912424Y-100116106D01*
X246185750Y-100199019D01*
X246398775Y-100220000D01*
X246541225Y-100220000D01*
X246754250Y-100199019D01*
X247027576Y-100116106D01*
X247279474Y-99981464D01*
X247500265Y-99800265D01*
X247681464Y-99579474D01*
X247740000Y-99469961D01*
X247798536Y-99579474D01*
X247979735Y-99800265D01*
X248200526Y-99981464D01*
X248452424Y-100116106D01*
X248725750Y-100199019D01*
X248938775Y-100220000D01*
X249081225Y-100220000D01*
X249294250Y-100199019D01*
X249567576Y-100116106D01*
X249819474Y-99981464D01*
X250040265Y-99800265D01*
X250221464Y-99579474D01*
X250280000Y-99469961D01*
X250338536Y-99579474D01*
X250519735Y-99800265D01*
X250740526Y-99981464D01*
X250992424Y-100116106D01*
X251265750Y-100199019D01*
X251478775Y-100220000D01*
X251621225Y-100220000D01*
X251834250Y-100199019D01*
X252107576Y-100116106D01*
X252359474Y-99981464D01*
X252580265Y-99800265D01*
X252761464Y-99579474D01*
X252820000Y-99469961D01*
X252878536Y-99579474D01*
X253059735Y-99800265D01*
X253280526Y-99981464D01*
X253532424Y-100116106D01*
X253805750Y-100199019D01*
X254018775Y-100220000D01*
X254161225Y-100220000D01*
X254374250Y-100199019D01*
X254647576Y-100116106D01*
X254899474Y-99981464D01*
X255120265Y-99800265D01*
X255301464Y-99579474D01*
X255436106Y-99327576D01*
X255514775Y-99068242D01*
X255543439Y-99176183D01*
X255643559Y-99380356D01*
X255781588Y-99561073D01*
X255952221Y-99711390D01*
X256148900Y-99825530D01*
X256364068Y-99899106D01*
X256443599Y-99914925D01*
X256625000Y-99852488D01*
X256625000Y-98775000D01*
X256635000Y-98775000D01*
X256635000Y-99852488D01*
X256816401Y-99914925D01*
X256895932Y-99899106D01*
X257111100Y-99825530D01*
X257307779Y-99711390D01*
X257478412Y-99561073D01*
X257616441Y-99380356D01*
X257716561Y-99176183D01*
X257774925Y-98956401D01*
X257712489Y-98775000D01*
X256635000Y-98775000D01*
X256625000Y-98775000D01*
X256605000Y-98775000D01*
X256605000Y-98765000D01*
X256625000Y-98765000D01*
X256625000Y-98745000D01*
X256635000Y-98745000D01*
X256635000Y-98765000D01*
X257712489Y-98765000D01*
X257774925Y-98583599D01*
X257716561Y-98363817D01*
X257616441Y-98159644D01*
X257478412Y-97978927D01*
X257307779Y-97828610D01*
X257111100Y-97714470D01*
X256932631Y-97653443D01*
X257187576Y-97576106D01*
X257439474Y-97441464D01*
X257602170Y-97307942D01*
X259550000Y-97307942D01*
X259550000Y-97692058D01*
X259624938Y-98068794D01*
X259771933Y-98423671D01*
X259985336Y-98743052D01*
X260256948Y-99014664D01*
X260576329Y-99228067D01*
X260931206Y-99375062D01*
X261307942Y-99450000D01*
X261692058Y-99450000D01*
X262068794Y-99375062D01*
X262423671Y-99228067D01*
X262743052Y-99014664D01*
X263014664Y-98743052D01*
X263228067Y-98423671D01*
X263375062Y-98068794D01*
X263450000Y-97692058D01*
X263450000Y-97307942D01*
X263375062Y-96931206D01*
X263228067Y-96576329D01*
X263014664Y-96256948D01*
X262743052Y-95985336D01*
X262423671Y-95771933D01*
X262068794Y-95624938D01*
X261692058Y-95550000D01*
X261307942Y-95550000D01*
X260931206Y-95624938D01*
X260576329Y-95771933D01*
X260256948Y-95985336D01*
X259985336Y-96256948D01*
X259771933Y-96576329D01*
X259624938Y-96931206D01*
X259550000Y-97307942D01*
X257602170Y-97307942D01*
X257660265Y-97260265D01*
X257841464Y-97039474D01*
X257976106Y-96787576D01*
X258059019Y-96514250D01*
X258087015Y-96230000D01*
X258059019Y-95945750D01*
X257976106Y-95672424D01*
X257841464Y-95420526D01*
X257660265Y-95199735D01*
X257439474Y-95018536D01*
X257187576Y-94883894D01*
X256914250Y-94800981D01*
X256701225Y-94780000D01*
X256558775Y-94780000D01*
X256345750Y-94800981D01*
X256072424Y-94883894D01*
X255820526Y-95018536D01*
X255599735Y-95199735D01*
X255418536Y-95420526D01*
X255360000Y-95530039D01*
X255301464Y-95420526D01*
X255120265Y-95199735D01*
X254899474Y-95018536D01*
X254647576Y-94883894D01*
X254374250Y-94800981D01*
X254161225Y-94780000D01*
X254018775Y-94780000D01*
X253805750Y-94800981D01*
X253532424Y-94883894D01*
X253280526Y-95018536D01*
X253059735Y-95199735D01*
X252878536Y-95420526D01*
X252820000Y-95530039D01*
X252761464Y-95420526D01*
X252580265Y-95199735D01*
X252359474Y-95018536D01*
X252107576Y-94883894D01*
X251834250Y-94800981D01*
X251621225Y-94780000D01*
X251478775Y-94780000D01*
X251265750Y-94800981D01*
X250992424Y-94883894D01*
X250740526Y-95018536D01*
X250519735Y-95199735D01*
X250338536Y-95420526D01*
X250203894Y-95672424D01*
X250125225Y-95931758D01*
X250096561Y-95823817D01*
X249996441Y-95619644D01*
X249858412Y-95438927D01*
X249687779Y-95288610D01*
X249491100Y-95174470D01*
X249275932Y-95100894D01*
X249196401Y-95085075D01*
X249015000Y-95147512D01*
X249015000Y-96225000D01*
X249035000Y-96225000D01*
X249035000Y-96235000D01*
X249015000Y-96235000D01*
X249015000Y-96255000D01*
X249005000Y-96255000D01*
X249005000Y-96235000D01*
X248985000Y-96235000D01*
X248985000Y-96225000D01*
X249005000Y-96225000D01*
X249005000Y-95147512D01*
X248823599Y-95085075D01*
X248744068Y-95100894D01*
X248528900Y-95174470D01*
X248332221Y-95288610D01*
X248161588Y-95438927D01*
X248023559Y-95619644D01*
X247923439Y-95823817D01*
X247894775Y-95931758D01*
X247816106Y-95672424D01*
X247681464Y-95420526D01*
X247500265Y-95199735D01*
X247279474Y-95018536D01*
X247027576Y-94883894D01*
X246754250Y-94800981D01*
X246541225Y-94780000D01*
X246398775Y-94780000D01*
X246185750Y-94800981D01*
X245912424Y-94883894D01*
X245660526Y-95018536D01*
X245439735Y-95199735D01*
X245258536Y-95420526D01*
X245123894Y-95672424D01*
X245045225Y-95931758D01*
X245016561Y-95823817D01*
X244916441Y-95619644D01*
X244778412Y-95438927D01*
X244607779Y-95288610D01*
X244411100Y-95174470D01*
X244195932Y-95100894D01*
X244116401Y-95085075D01*
X243935000Y-95147512D01*
X243935000Y-96225000D01*
X243955000Y-96225000D01*
X243955000Y-96235000D01*
X243935000Y-96235000D01*
X243935000Y-96255000D01*
X243925000Y-96255000D01*
X243925000Y-96235000D01*
X243905000Y-96235000D01*
X243905000Y-96225000D01*
X243925000Y-96225000D01*
X243925000Y-95147512D01*
X243743599Y-95085075D01*
X243664068Y-95100894D01*
X243448900Y-95174470D01*
X243252221Y-95288610D01*
X243081588Y-95438927D01*
X242943559Y-95619644D01*
X242843439Y-95823817D01*
X242814775Y-95931758D01*
X242736106Y-95672424D01*
X242601464Y-95420526D01*
X242420265Y-95199735D01*
X242199474Y-95018536D01*
X241947576Y-94883894D01*
X241674250Y-94800981D01*
X241461225Y-94780000D01*
X241318775Y-94780000D01*
X241105750Y-94800981D01*
X240832424Y-94883894D01*
X240580526Y-95018536D01*
X240359735Y-95199735D01*
X240178536Y-95420526D01*
X240120000Y-95530039D01*
X240061464Y-95420526D01*
X239880265Y-95199735D01*
X239659474Y-95018536D01*
X239407576Y-94883894D01*
X239134250Y-94800981D01*
X238921225Y-94780000D01*
X238778775Y-94780000D01*
X238565750Y-94800981D01*
X238292424Y-94883894D01*
X238040526Y-95018536D01*
X237819735Y-95199735D01*
X237638536Y-95420526D01*
X237580000Y-95530039D01*
X237521464Y-95420526D01*
X237340265Y-95199735D01*
X237119474Y-95018536D01*
X236867576Y-94883894D01*
X236594250Y-94800981D01*
X236381225Y-94780000D01*
X236238775Y-94780000D01*
X236025750Y-94800981D01*
X235752424Y-94883894D01*
X235500526Y-95018536D01*
X235279735Y-95199735D01*
X235098536Y-95420526D01*
X235040000Y-95530039D01*
X234981464Y-95420526D01*
X234800265Y-95199735D01*
X234579474Y-95018536D01*
X234327576Y-94883894D01*
X234054250Y-94800981D01*
X233841225Y-94780000D01*
X233698775Y-94780000D01*
X233485750Y-94800981D01*
X233212424Y-94883894D01*
X232960526Y-95018536D01*
X232739735Y-95199735D01*
X232558536Y-95420526D01*
X232423894Y-95672424D01*
X232345225Y-95931758D01*
X232316561Y-95823817D01*
X232216441Y-95619644D01*
X232078412Y-95438927D01*
X231907779Y-95288610D01*
X231711100Y-95174470D01*
X231495932Y-95100894D01*
X231416401Y-95085075D01*
X231235000Y-95147512D01*
X231235000Y-96225000D01*
X231255000Y-96225000D01*
X231255000Y-96235000D01*
X231235000Y-96235000D01*
X231235000Y-96255000D01*
X231225000Y-96255000D01*
X231225000Y-96235000D01*
X231205000Y-96235000D01*
X231205000Y-96225000D01*
X231225000Y-96225000D01*
X231225000Y-95147512D01*
X231043599Y-95085075D01*
X230964068Y-95100894D01*
X230748900Y-95174470D01*
X230552221Y-95288610D01*
X230381588Y-95438927D01*
X230243559Y-95619644D01*
X230143439Y-95823817D01*
X230114775Y-95931758D01*
X230036106Y-95672424D01*
X229901464Y-95420526D01*
X229720265Y-95199735D01*
X229499474Y-95018536D01*
X229247576Y-94883894D01*
X228974250Y-94800981D01*
X228761225Y-94780000D01*
X228618775Y-94780000D01*
X228405750Y-94800981D01*
X228132424Y-94883894D01*
X227880526Y-95018536D01*
X227659735Y-95199735D01*
X227478536Y-95420526D01*
X227420000Y-95530039D01*
X227361464Y-95420526D01*
X227180265Y-95199735D01*
X226959474Y-95018536D01*
X226707576Y-94883894D01*
X226434250Y-94800981D01*
X226221225Y-94780000D01*
X226078775Y-94780000D01*
X225865750Y-94800981D01*
X225592424Y-94883894D01*
X225340526Y-95018536D01*
X225119735Y-95199735D01*
X224938536Y-95420526D01*
X224803894Y-95672424D01*
X224725225Y-95931758D01*
X224696561Y-95823817D01*
X224596441Y-95619644D01*
X224458412Y-95438927D01*
X224287779Y-95288610D01*
X224091100Y-95174470D01*
X223875932Y-95100894D01*
X223796401Y-95085075D01*
X223615000Y-95147512D01*
X223615000Y-96225000D01*
X223635000Y-96225000D01*
X223635000Y-96235000D01*
X223615000Y-96235000D01*
X223615000Y-96255000D01*
X223605000Y-96255000D01*
X223605000Y-96235000D01*
X223585000Y-96235000D01*
X223585000Y-96225000D01*
X223605000Y-96225000D01*
X223605000Y-95147512D01*
X223423599Y-95085075D01*
X223344068Y-95100894D01*
X223128900Y-95174470D01*
X222932221Y-95288610D01*
X222761588Y-95438927D01*
X222623559Y-95619644D01*
X222523439Y-95823817D01*
X222494775Y-95931758D01*
X222416106Y-95672424D01*
X222281464Y-95420526D01*
X222100265Y-95199735D01*
X221879474Y-95018536D01*
X221627576Y-94883894D01*
X221354250Y-94800981D01*
X221141225Y-94780000D01*
X220998775Y-94780000D01*
X220785750Y-94800981D01*
X220512424Y-94883894D01*
X220260526Y-95018536D01*
X220039735Y-95199735D01*
X219858536Y-95420526D01*
X219800000Y-95530039D01*
X219741464Y-95420526D01*
X219560265Y-95199735D01*
X219339474Y-95018536D01*
X219087576Y-94883894D01*
X218814250Y-94800981D01*
X218601225Y-94780000D01*
X218458775Y-94780000D01*
X218245750Y-94800981D01*
X217972424Y-94883894D01*
X217720526Y-95018536D01*
X217499735Y-95199735D01*
X217318536Y-95420526D01*
X217260000Y-95530039D01*
X217201464Y-95420526D01*
X217020265Y-95199735D01*
X216799474Y-95018536D01*
X216547576Y-94883894D01*
X216274250Y-94800981D01*
X216061225Y-94780000D01*
X215918775Y-94780000D01*
X215705750Y-94800981D01*
X215432424Y-94883894D01*
X215180526Y-95018536D01*
X214959735Y-95199735D01*
X214778536Y-95420526D01*
X214643894Y-95672424D01*
X214565225Y-95931758D01*
X214536561Y-95823817D01*
X214436441Y-95619644D01*
X214298412Y-95438927D01*
X214127779Y-95288610D01*
X213931100Y-95174470D01*
X213715932Y-95100894D01*
X213636401Y-95085075D01*
X213455000Y-95147512D01*
X213455000Y-96225000D01*
X213475000Y-96225000D01*
X213475000Y-96235000D01*
X213455000Y-96235000D01*
X213455000Y-96255000D01*
X213445000Y-96255000D01*
X213445000Y-96235000D01*
X213425000Y-96235000D01*
X213425000Y-96225000D01*
X213445000Y-96225000D01*
X213445000Y-95147512D01*
X213263599Y-95085075D01*
X213184068Y-95100894D01*
X212968900Y-95174470D01*
X212772221Y-95288610D01*
X212601588Y-95438927D01*
X212463559Y-95619644D01*
X212363439Y-95823817D01*
X212334775Y-95931758D01*
X212256106Y-95672424D01*
X212121464Y-95420526D01*
X211940265Y-95199735D01*
X211719474Y-95018536D01*
X211467576Y-94883894D01*
X211194250Y-94800981D01*
X210981225Y-94780000D01*
X210838775Y-94780000D01*
X210625750Y-94800981D01*
X210352424Y-94883894D01*
X210100526Y-95018536D01*
X209879735Y-95199735D01*
X209698536Y-95420526D01*
X209640000Y-95530039D01*
X209581464Y-95420526D01*
X209400265Y-95199735D01*
X209179474Y-95018536D01*
X208927576Y-94883894D01*
X208654250Y-94800981D01*
X208441225Y-94780000D01*
X208298775Y-94780000D01*
X208085750Y-94800981D01*
X207812424Y-94883894D01*
X207560526Y-95018536D01*
X207339735Y-95199735D01*
X207158536Y-95420526D01*
X207023894Y-95672424D01*
X206940981Y-95945750D01*
X206912985Y-96230000D01*
X204987716Y-96230000D01*
X204743052Y-95985336D01*
X204423671Y-95771933D01*
X204068794Y-95624938D01*
X203692058Y-95550000D01*
X203307942Y-95550000D01*
X202931206Y-95624938D01*
X202576329Y-95771933D01*
X202256948Y-95985336D01*
X201985336Y-96256948D01*
X201771933Y-96576329D01*
X201624938Y-96931206D01*
X201550000Y-97307942D01*
X200650000Y-97307942D01*
X200650000Y-97031793D01*
X200697814Y-96544154D01*
X200830200Y-96105669D01*
X201045230Y-95701255D01*
X201334722Y-95346305D01*
X201687638Y-95054346D01*
X202090545Y-94836496D01*
X202528097Y-94701051D01*
X203013813Y-94650000D01*
X261968207Y-94650000D01*
X262455846Y-94697814D01*
X262455846Y-94697814D01*
G37*
X262455846Y-94697814D02*
X262894331Y-94830200D01*
X263298745Y-95045230D01*
X263653695Y-95334722D01*
X263945654Y-95687638D01*
X264163504Y-96090545D01*
X264298949Y-96528097D01*
X264350001Y-97013822D01*
X264350000Y-146968207D01*
X264302186Y-147455846D01*
X264169800Y-147894329D01*
X263954769Y-148298745D01*
X263665279Y-148653695D01*
X263312362Y-148945654D01*
X262909455Y-149163504D01*
X262471904Y-149298949D01*
X261986187Y-149350000D01*
X203031793Y-149350000D01*
X202544154Y-149302186D01*
X202105671Y-149169800D01*
X201701255Y-148954769D01*
X201346305Y-148665279D01*
X201054346Y-148312362D01*
X200836496Y-147909455D01*
X200701051Y-147471904D01*
X200650000Y-146986187D01*
X200650000Y-146307942D01*
X201550000Y-146307942D01*
X201550000Y-146692058D01*
X201624938Y-147068794D01*
X201771933Y-147423671D01*
X201985336Y-147743052D01*
X202256948Y-148014664D01*
X202576329Y-148228067D01*
X202931206Y-148375062D01*
X203307942Y-148450000D01*
X203692058Y-148450000D01*
X204068794Y-148375062D01*
X204423671Y-148228067D01*
X204743052Y-148014664D01*
X205014664Y-147743052D01*
X205228067Y-147423671D01*
X205375062Y-147068794D01*
X205450000Y-146692058D01*
X205450000Y-146307942D01*
X205395098Y-146031931D01*
X242350000Y-146031931D01*
X242353297Y-146065406D01*
X242353297Y-146091354D01*
X242354246Y-146100379D01*
X242397756Y-146488278D01*
X242410005Y-146545904D01*
X242421447Y-146603693D01*
X242424130Y-146612358D01*
X242424131Y-146612364D01*
X242424133Y-146612370D01*
X242542155Y-146984423D01*
X242565344Y-147038528D01*
X242587813Y-147093042D01*
X242592130Y-147101024D01*
X242780174Y-147443075D01*
X242813469Y-147491701D01*
X242846059Y-147540754D01*
X242851840Y-147547741D01*
X242851844Y-147547747D01*
X242851849Y-147547752D01*
X243102744Y-147846757D01*
X243144820Y-147887961D01*
X243186347Y-147929779D01*
X243193380Y-147935515D01*
X243497582Y-148180099D01*
X243546871Y-148212353D01*
X243595718Y-148245301D01*
X243603727Y-148249558D01*
X243603731Y-148249561D01*
X243603735Y-148249563D01*
X243949644Y-148430400D01*
X244004263Y-148452468D01*
X244058576Y-148475299D01*
X244067264Y-148477922D01*
X244441714Y-148588129D01*
X244499587Y-148599169D01*
X244557295Y-148611015D01*
X244566323Y-148611900D01*
X244566327Y-148611900D01*
X244955053Y-148647276D01*
X245013964Y-148646865D01*
X245072875Y-148647276D01*
X245081907Y-148646390D01*
X245470100Y-148605589D01*
X245527804Y-148593744D01*
X245585678Y-148582704D01*
X245594366Y-148580081D01*
X245967241Y-148464657D01*
X246021550Y-148441828D01*
X246076173Y-148419759D01*
X246084186Y-148415498D01*
X246427541Y-148229847D01*
X246476371Y-148196911D01*
X246525680Y-148164644D01*
X246532712Y-148158908D01*
X246833467Y-147910101D01*
X246874974Y-147868303D01*
X246917070Y-147827080D01*
X246922855Y-147820087D01*
X247169555Y-147517603D01*
X247202150Y-147468543D01*
X247235441Y-147419923D01*
X247239758Y-147411940D01*
X247423007Y-147067299D01*
X247445443Y-147012865D01*
X247468667Y-146958681D01*
X247471350Y-146950011D01*
X247584168Y-146576340D01*
X247595615Y-146518530D01*
X247607859Y-146460924D01*
X247608808Y-146451898D01*
X247622923Y-146307942D01*
X259550000Y-146307942D01*
X259550000Y-146692058D01*
X259624938Y-147068794D01*
X259771933Y-147423671D01*
X259985336Y-147743052D01*
X260256948Y-148014664D01*
X260576329Y-148228067D01*
X260931206Y-148375062D01*
X261307942Y-148450000D01*
X261692058Y-148450000D01*
X262068794Y-148375062D01*
X262423671Y-148228067D01*
X262743052Y-148014664D01*
X263014664Y-147743052D01*
X263228067Y-147423671D01*
X263375062Y-147068794D01*
X263450000Y-146692058D01*
X263450000Y-146307942D01*
X263375062Y-145931206D01*
X263228067Y-145576329D01*
X263014664Y-145256948D01*
X262743052Y-144985336D01*
X262423671Y-144771933D01*
X262068794Y-144624938D01*
X261692058Y-144550000D01*
X261307942Y-144550000D01*
X260931206Y-144624938D01*
X260576329Y-144771933D01*
X260256948Y-144985336D01*
X259985336Y-145256948D01*
X259771933Y-145576329D01*
X259624938Y-145931206D01*
X259550000Y-146307942D01*
X247622923Y-146307942D01*
X247646898Y-146063429D01*
X247646898Y-146063427D01*
X247650000Y-146031932D01*
X247650000Y-130968068D01*
X247646703Y-130934593D01*
X247646703Y-130908647D01*
X247645754Y-130899621D01*
X247602244Y-130511722D01*
X247589997Y-130454103D01*
X247578553Y-130396307D01*
X247575869Y-130387638D01*
X247457845Y-130015577D01*
X247434650Y-129961459D01*
X247412187Y-129906959D01*
X247407870Y-129898976D01*
X247219826Y-129556926D01*
X247186554Y-129508333D01*
X247153941Y-129459246D01*
X247148156Y-129452254D01*
X246897256Y-129153243D01*
X246855180Y-129112039D01*
X246813653Y-129070221D01*
X246806626Y-129064491D01*
X246806620Y-129064485D01*
X246806613Y-129064481D01*
X246502419Y-128819901D01*
X246453117Y-128787639D01*
X246404281Y-128754699D01*
X246396273Y-128750442D01*
X246396269Y-128750439D01*
X246396265Y-128750437D01*
X246050355Y-128569600D01*
X245995748Y-128547537D01*
X245941423Y-128524701D01*
X245932735Y-128522078D01*
X245558286Y-128411871D01*
X245500405Y-128400830D01*
X245442704Y-128388985D01*
X245433678Y-128388101D01*
X245433675Y-128388100D01*
X245433672Y-128388100D01*
X245044947Y-128352724D01*
X244986036Y-128353135D01*
X244927125Y-128352724D01*
X244918093Y-128353610D01*
X244918091Y-128353610D01*
X244529900Y-128394411D01*
X244472203Y-128406254D01*
X244414321Y-128417296D01*
X244405634Y-128419919D01*
X244032759Y-128535343D01*
X243978479Y-128558160D01*
X243923827Y-128580241D01*
X243915814Y-128584502D01*
X243572459Y-128770153D01*
X243523629Y-128803089D01*
X243474320Y-128835356D01*
X243467287Y-128841092D01*
X243166533Y-129089899D01*
X243125026Y-129131697D01*
X243082930Y-129172920D01*
X243077145Y-129179913D01*
X242830444Y-129482398D01*
X242797846Y-129531462D01*
X242764558Y-129580077D01*
X242760242Y-129588060D01*
X242576992Y-129932702D01*
X242554554Y-129987140D01*
X242531333Y-130041320D01*
X242528650Y-130049989D01*
X242415832Y-130423661D01*
X242404387Y-130481463D01*
X242392141Y-130539076D01*
X242391192Y-130548102D01*
X242353102Y-130936571D01*
X242353102Y-130936583D01*
X242350001Y-130968068D01*
X242350000Y-146031931D01*
X205395098Y-146031931D01*
X205375062Y-145931206D01*
X205228067Y-145576329D01*
X205014664Y-145256948D01*
X204743052Y-144985336D01*
X204423671Y-144771933D01*
X204068794Y-144624938D01*
X203692058Y-144550000D01*
X203307942Y-144550000D01*
X202931206Y-144624938D01*
X202576329Y-144771933D01*
X202256948Y-144985336D01*
X201985336Y-145256948D01*
X201771933Y-145576329D01*
X201624938Y-145931206D01*
X201550000Y-146307942D01*
X200650000Y-146307942D01*
X200650000Y-136832565D01*
X217800000Y-136832565D01*
X217800000Y-137167435D01*
X217865330Y-137495872D01*
X217993479Y-137805252D01*
X218179523Y-138083687D01*
X218416313Y-138320477D01*
X218694748Y-138506521D01*
X219004128Y-138634670D01*
X219332565Y-138700000D01*
X219667435Y-138700000D01*
X219995872Y-138634670D01*
X220305252Y-138506521D01*
X220583687Y-138320477D01*
X220820477Y-138083687D01*
X221006521Y-137805252D01*
X221134670Y-137495872D01*
X221200000Y-137167435D01*
X221200000Y-136832565D01*
X230300000Y-136832565D01*
X230300000Y-137167435D01*
X230365330Y-137495872D01*
X230493479Y-137805252D01*
X230679523Y-138083687D01*
X230916313Y-138320477D01*
X231194748Y-138506521D01*
X231504128Y-138634670D01*
X231832565Y-138700000D01*
X232167435Y-138700000D01*
X232495872Y-138634670D01*
X232805252Y-138506521D01*
X233083687Y-138320477D01*
X233320477Y-138083687D01*
X233506521Y-137805252D01*
X233634670Y-137495872D01*
X233700000Y-137167435D01*
X233700000Y-136832565D01*
X233634670Y-136504128D01*
X233506521Y-136194748D01*
X233320477Y-135916313D01*
X233083687Y-135679523D01*
X232805252Y-135493479D01*
X232495872Y-135365330D01*
X232167435Y-135300000D01*
X231832565Y-135300000D01*
X231504128Y-135365330D01*
X231194748Y-135493479D01*
X230916313Y-135679523D01*
X230679523Y-135916313D01*
X230493479Y-136194748D01*
X230365330Y-136504128D01*
X230300000Y-136832565D01*
X221200000Y-136832565D01*
X221134670Y-136504128D01*
X221006521Y-136194748D01*
X220820477Y-135916313D01*
X220583687Y-135679523D01*
X220305252Y-135493479D01*
X219995872Y-135365330D01*
X219667435Y-135300000D01*
X219332565Y-135300000D01*
X219004128Y-135365330D01*
X218694748Y-135493479D01*
X218416313Y-135679523D01*
X218179523Y-135916313D01*
X217993479Y-136194748D01*
X217865330Y-136504128D01*
X217800000Y-136832565D01*
X200650000Y-136832565D01*
X200650000Y-120966842D01*
X212325000Y-120966842D01*
X212325001Y-132033159D01*
X212327914Y-132062730D01*
X212327827Y-132075141D01*
X212328747Y-132084520D01*
X212369548Y-132472713D01*
X212381847Y-132532630D01*
X212393313Y-132592737D01*
X212396037Y-132601759D01*
X212511461Y-132974634D01*
X212535178Y-133031053D01*
X212558087Y-133087756D01*
X212562511Y-133096077D01*
X212748162Y-133439432D01*
X212782377Y-133490158D01*
X212815873Y-133541345D01*
X212821829Y-133548648D01*
X213070636Y-133849403D01*
X213114056Y-133892520D01*
X213156851Y-133936221D01*
X213164112Y-133942228D01*
X213466597Y-134188929D01*
X213517530Y-134222769D01*
X213568033Y-134257349D01*
X213576323Y-134261831D01*
X213920964Y-134445081D01*
X213977510Y-134468388D01*
X214033760Y-134492496D01*
X214042763Y-134495283D01*
X214416434Y-134608101D01*
X214476481Y-134619991D01*
X214536289Y-134632703D01*
X214545651Y-134633687D01*
X214545662Y-134633689D01*
X214545672Y-134633689D01*
X214933496Y-134671716D01*
X214966841Y-134675000D01*
X231033159Y-134675000D01*
X231062740Y-134672086D01*
X231075141Y-134672173D01*
X231084520Y-134671253D01*
X231472713Y-134630452D01*
X231532630Y-134618153D01*
X231592737Y-134606687D01*
X231601759Y-134603963D01*
X231974634Y-134488539D01*
X232031053Y-134464822D01*
X232087756Y-134441913D01*
X232096077Y-134437489D01*
X232439432Y-134251838D01*
X232490158Y-134217623D01*
X232541345Y-134184127D01*
X232548648Y-134178171D01*
X232849403Y-133929364D01*
X232892520Y-133885944D01*
X232936221Y-133843149D01*
X232942228Y-133835888D01*
X233188929Y-133533403D01*
X233222769Y-133482470D01*
X233257349Y-133431967D01*
X233261831Y-133423677D01*
X233445081Y-133079036D01*
X233468388Y-133022490D01*
X233492496Y-132966240D01*
X233495283Y-132957237D01*
X233608101Y-132583566D01*
X233619991Y-132523519D01*
X233632703Y-132463711D01*
X233633687Y-132454349D01*
X233633689Y-132454338D01*
X233633689Y-132454328D01*
X233671778Y-132065869D01*
X233675000Y-132033159D01*
X233675000Y-120966841D01*
X233672086Y-120937260D01*
X233672173Y-120924859D01*
X233671253Y-120915480D01*
X233630452Y-120527287D01*
X233618154Y-120467376D01*
X233606687Y-120407263D01*
X233603963Y-120398241D01*
X233488539Y-120025366D01*
X233464822Y-119968947D01*
X233441913Y-119912244D01*
X233437489Y-119903923D01*
X233251838Y-119560568D01*
X233217633Y-119509857D01*
X233184127Y-119458655D01*
X233178171Y-119451352D01*
X232929364Y-119150597D01*
X232885944Y-119107480D01*
X232843149Y-119063779D01*
X232835888Y-119057771D01*
X232533403Y-118811071D01*
X232482447Y-118777216D01*
X232431967Y-118742651D01*
X232423685Y-118738173D01*
X232423677Y-118738168D01*
X232423669Y-118738165D01*
X232079035Y-118554919D01*
X232022461Y-118531600D01*
X231966239Y-118507504D01*
X231957245Y-118504719D01*
X231957239Y-118504717D01*
X231957233Y-118504716D01*
X231583565Y-118391899D01*
X231523532Y-118380012D01*
X231463711Y-118367297D01*
X231454347Y-118366313D01*
X231454337Y-118366311D01*
X231454328Y-118366311D01*
X231066504Y-118328284D01*
X231033159Y-118325000D01*
X214966841Y-118325000D01*
X214937260Y-118327914D01*
X214924859Y-118327827D01*
X214915480Y-118328747D01*
X214527287Y-118369548D01*
X214467376Y-118381846D01*
X214407263Y-118393313D01*
X214398241Y-118396037D01*
X214025366Y-118511461D01*
X213968947Y-118535178D01*
X213912244Y-118558087D01*
X213903923Y-118562511D01*
X213560568Y-118748162D01*
X213509857Y-118782367D01*
X213458655Y-118815873D01*
X213451352Y-118821829D01*
X213150597Y-119070636D01*
X213107480Y-119114056D01*
X213063779Y-119156851D01*
X213057771Y-119164112D01*
X212811071Y-119466597D01*
X212777216Y-119517553D01*
X212742651Y-119568033D01*
X212738173Y-119576315D01*
X212738168Y-119576323D01*
X212738165Y-119576331D01*
X212554919Y-119920965D01*
X212531600Y-119977539D01*
X212507504Y-120033761D01*
X212504719Y-120042755D01*
X212504717Y-120042761D01*
X212504717Y-120042763D01*
X212391899Y-120416435D01*
X212380012Y-120476468D01*
X212367297Y-120536289D01*
X212366313Y-120545653D01*
X212366311Y-120545663D01*
X212366311Y-120545672D01*
X212328262Y-120933719D01*
X212325000Y-120966842D01*
X200650000Y-120966842D01*
X200650000Y-115832565D01*
X217800000Y-115832565D01*
X217800000Y-116167435D01*
X217865330Y-116495872D01*
X217993479Y-116805252D01*
X218179523Y-117083687D01*
X218416313Y-117320477D01*
X218694748Y-117506521D01*
X219004128Y-117634670D01*
X219332565Y-117700000D01*
X219667435Y-117700000D01*
X219995872Y-117634670D01*
X220305252Y-117506521D01*
X220583687Y-117320477D01*
X220820477Y-117083687D01*
X221006521Y-116805252D01*
X221134670Y-116495872D01*
X221200000Y-116167435D01*
X221200000Y-115832565D01*
X230300000Y-115832565D01*
X230300000Y-116167435D01*
X230365330Y-116495872D01*
X230493479Y-116805252D01*
X230679523Y-117083687D01*
X230916313Y-117320477D01*
X231194748Y-117506521D01*
X231504128Y-117634670D01*
X231832565Y-117700000D01*
X232167435Y-117700000D01*
X232495872Y-117634670D01*
X232805252Y-117506521D01*
X233083687Y-117320477D01*
X233320477Y-117083687D01*
X233506521Y-116805252D01*
X233634670Y-116495872D01*
X233700000Y-116167435D01*
X233700000Y-115832565D01*
X233634670Y-115504128D01*
X233506521Y-115194748D01*
X233320477Y-114916313D01*
X233083687Y-114679523D01*
X232805252Y-114493479D01*
X232495872Y-114365330D01*
X232167435Y-114300000D01*
X231832565Y-114300000D01*
X231504128Y-114365330D01*
X231194748Y-114493479D01*
X230916313Y-114679523D01*
X230679523Y-114916313D01*
X230493479Y-115194748D01*
X230365330Y-115504128D01*
X230300000Y-115832565D01*
X221200000Y-115832565D01*
X221134670Y-115504128D01*
X221006521Y-115194748D01*
X220820477Y-114916313D01*
X220583687Y-114679523D01*
X220305252Y-114493479D01*
X219995872Y-114365330D01*
X219667435Y-114300000D01*
X219332565Y-114300000D01*
X219004128Y-114365330D01*
X218694748Y-114493479D01*
X218416313Y-114679523D01*
X218179523Y-114916313D01*
X217993479Y-115194748D01*
X217865330Y-115504128D01*
X217800000Y-115832565D01*
X200650000Y-115832565D01*
X200650000Y-109411358D01*
X228100005Y-109411358D01*
X228100005Y-109588642D01*
X228134591Y-109762520D01*
X228202435Y-109926310D01*
X228300929Y-110073717D01*
X228426288Y-110199076D01*
X228573695Y-110297570D01*
X228737485Y-110365414D01*
X228911363Y-110400000D01*
X229088647Y-110400000D01*
X229262525Y-110365414D01*
X229426315Y-110297570D01*
X229573722Y-110199076D01*
X229699081Y-110073717D01*
X229797575Y-109926310D01*
X229865419Y-109762520D01*
X229900005Y-109588642D01*
X229900005Y-109411358D01*
X229865419Y-109237480D01*
X229797575Y-109073690D01*
X229700005Y-108927666D01*
X229700005Y-105597740D01*
X229862520Y-105565414D01*
X230026310Y-105497570D01*
X230173717Y-105399076D01*
X230299076Y-105273717D01*
X230397570Y-105126310D01*
X230450000Y-104999733D01*
X230502430Y-105126310D01*
X230600000Y-105272334D01*
X230600001Y-107627658D01*
X230502417Y-107773703D01*
X230434573Y-107937493D01*
X230399987Y-108111371D01*
X230399987Y-108288655D01*
X230434573Y-108462533D01*
X230502417Y-108626323D01*
X230600911Y-108773730D01*
X230726270Y-108899089D01*
X230873677Y-108997583D01*
X231037467Y-109065427D01*
X231211345Y-109100013D01*
X231388629Y-109100013D01*
X231562507Y-109065427D01*
X231726297Y-108997583D01*
X231873704Y-108899089D01*
X231999063Y-108773730D01*
X232097557Y-108626323D01*
X232165401Y-108462533D01*
X232199987Y-108288655D01*
X232199987Y-108111371D01*
X232165401Y-107937493D01*
X232097557Y-107773703D01*
X232000000Y-107627698D01*
X232000000Y-105272334D01*
X232097570Y-105126310D01*
X232165414Y-104962520D01*
X232200000Y-104788642D01*
X232200000Y-104611358D01*
X232165414Y-104437480D01*
X232097570Y-104273690D01*
X231999076Y-104126283D01*
X231873717Y-104000924D01*
X231726310Y-103902430D01*
X231562520Y-103834586D01*
X231388642Y-103800000D01*
X231211358Y-103800000D01*
X231037480Y-103834586D01*
X230873690Y-103902430D01*
X230726283Y-104000924D01*
X230600924Y-104126283D01*
X230502430Y-104273690D01*
X230450000Y-104400267D01*
X230397570Y-104273690D01*
X230299076Y-104126283D01*
X230173717Y-104000924D01*
X230026310Y-103902430D01*
X229862520Y-103834586D01*
X229688642Y-103800000D01*
X229511358Y-103800000D01*
X229337480Y-103834586D01*
X229173690Y-103902430D01*
X229026283Y-104000924D01*
X228900924Y-104126283D01*
X228802430Y-104273690D01*
X228734586Y-104437480D01*
X228700325Y-104609726D01*
X228529347Y-104780704D01*
X228502635Y-104802626D01*
X228480714Y-104829337D01*
X228480713Y-104829338D01*
X228415160Y-104909214D01*
X228350161Y-105030820D01*
X228350160Y-105030821D01*
X228310133Y-105162772D01*
X228300005Y-105265605D01*
X228296618Y-105299995D01*
X228300005Y-105334382D01*
X228300006Y-108927664D01*
X228202435Y-109073690D01*
X228134591Y-109237480D01*
X228100005Y-109411358D01*
X200650000Y-109411358D01*
X200650000Y-101311358D01*
X223800000Y-101311358D01*
X223800000Y-101488642D01*
X223834586Y-101662520D01*
X223902430Y-101826310D01*
X224000924Y-101973717D01*
X224126283Y-102099076D01*
X224273690Y-102197570D01*
X224437480Y-102265414D01*
X224484896Y-102274845D01*
X224680708Y-102470658D01*
X224702630Y-102497370D01*
X224729341Y-102519291D01*
X224729342Y-102519292D01*
X224782018Y-102562522D01*
X224809219Y-102584845D01*
X224930825Y-102649845D01*
X225062776Y-102689872D01*
X225165610Y-102700000D01*
X225165613Y-102700000D01*
X225200000Y-102703387D01*
X225234387Y-102700000D01*
X236427666Y-102700000D01*
X236573690Y-102797570D01*
X236737480Y-102865414D01*
X236911358Y-102900000D01*
X237088642Y-102900000D01*
X237262520Y-102865414D01*
X237426310Y-102797570D01*
X237573717Y-102699076D01*
X237699076Y-102573717D01*
X237797570Y-102426310D01*
X237865414Y-102262520D01*
X237899783Y-102089734D01*
X238200325Y-102390276D01*
X238234586Y-102562522D01*
X238302430Y-102726312D01*
X238400924Y-102873719D01*
X238526283Y-102999078D01*
X238673690Y-103097572D01*
X238837480Y-103165416D01*
X239011358Y-103200002D01*
X239188642Y-103200002D01*
X239362520Y-103165416D01*
X239526310Y-103097572D01*
X239673717Y-102999078D01*
X239799076Y-102873719D01*
X239897570Y-102726312D01*
X239965414Y-102562522D01*
X240000000Y-102388644D01*
X240000000Y-102211360D01*
X239965414Y-102037482D01*
X239897570Y-101873692D01*
X239799076Y-101726285D01*
X239673717Y-101600926D01*
X239526310Y-101502432D01*
X239362520Y-101434588D01*
X239190274Y-101400327D01*
X238419294Y-100629347D01*
X238397368Y-100602630D01*
X238290779Y-100515155D01*
X238169173Y-100450155D01*
X238037222Y-100410128D01*
X237934388Y-100400000D01*
X237934385Y-100400000D01*
X237899998Y-100396613D01*
X237865611Y-100400000D01*
X226272334Y-100400000D01*
X226126310Y-100302430D01*
X225962520Y-100234586D01*
X225788642Y-100200000D01*
X225611358Y-100200000D01*
X225437480Y-100234586D01*
X225273690Y-100302430D01*
X225126283Y-100400924D01*
X225000924Y-100526283D01*
X224988254Y-100545245D01*
X224962520Y-100534586D01*
X224788642Y-100500000D01*
X224611358Y-100500000D01*
X224437480Y-100534586D01*
X224273690Y-100602430D01*
X224126283Y-100700924D01*
X224000924Y-100826283D01*
X223902430Y-100973690D01*
X223834586Y-101137480D01*
X223800000Y-101311358D01*
X200650000Y-101311358D01*
X200650000Y-97307942D01*
X201550000Y-97307942D01*
X201550000Y-97692058D01*
X201624938Y-98068794D01*
X201771933Y-98423671D01*
X201985336Y-98743052D01*
X202256948Y-99014664D01*
X202576329Y-99228067D01*
X202931206Y-99375062D01*
X203307942Y-99450000D01*
X203692058Y-99450000D01*
X204068794Y-99375062D01*
X204423671Y-99228067D01*
X204743052Y-99014664D01*
X205014664Y-98743052D01*
X205228067Y-98423671D01*
X205375062Y-98068794D01*
X205450000Y-97692058D01*
X205450000Y-97307942D01*
X205375062Y-96931206D01*
X205228067Y-96576329D01*
X205014664Y-96256948D01*
X204987716Y-96230000D01*
X206912985Y-96230000D01*
X206940981Y-96514250D01*
X207023894Y-96787576D01*
X207158536Y-97039474D01*
X207339735Y-97260265D01*
X207420881Y-97326860D01*
X207402379Y-97328682D01*
X207289279Y-97362990D01*
X207185045Y-97418704D01*
X207093683Y-97493683D01*
X207018704Y-97585045D01*
X206962990Y-97689279D01*
X206928682Y-97802379D01*
X206917097Y-97920000D01*
X206917097Y-99620000D01*
X206928682Y-99737621D01*
X206962990Y-99850721D01*
X207018704Y-99954955D01*
X207093683Y-100046317D01*
X207185045Y-100121296D01*
X207289279Y-100177010D01*
X207402379Y-100211318D01*
X207520000Y-100222903D01*
X209220000Y-100222903D01*
X209337621Y-100211318D01*
X209450721Y-100177010D01*
X209554955Y-100121296D01*
X209646317Y-100046317D01*
X209721296Y-99954955D01*
X209777010Y-99850721D01*
X209811318Y-99737621D01*
X209813140Y-99719119D01*
X209879735Y-99800265D01*
X210100526Y-99981464D01*
X210352424Y-100116106D01*
X210625750Y-100199019D01*
X210838775Y-100220000D01*
X210981225Y-100220000D01*
X211194250Y-100199019D01*
X211467576Y-100116106D01*
X211719474Y-99981464D01*
X211940265Y-99800265D01*
X212121464Y-99579474D01*
X212180000Y-99469961D01*
X212238536Y-99579474D01*
X212419735Y-99800265D01*
X212640526Y-99981464D01*
X212892424Y-100116106D01*
X213165750Y-100199019D01*
X213378775Y-100220000D01*
X213521225Y-100220000D01*
X213734250Y-100199019D01*
X214007576Y-100116106D01*
X214259474Y-99981464D01*
X214480265Y-99800265D01*
X214661464Y-99579474D01*
X214720000Y-99469961D01*
X214778536Y-99579474D01*
X214959735Y-99800265D01*
X215180526Y-99981464D01*
X215432424Y-100116106D01*
X215705750Y-100199019D01*
X215918775Y-100220000D01*
X216061225Y-100220000D01*
X216274250Y-100199019D01*
X216547576Y-100116106D01*
X216799474Y-99981464D01*
X217020265Y-99800265D01*
X217201464Y-99579474D01*
X217336106Y-99327576D01*
X217414775Y-99068242D01*
X217443439Y-99176183D01*
X217543559Y-99380356D01*
X217681588Y-99561073D01*
X217852221Y-99711390D01*
X218048900Y-99825530D01*
X218264068Y-99899106D01*
X218343599Y-99914925D01*
X218525000Y-99852488D01*
X218525000Y-98775000D01*
X218505000Y-98775000D01*
X218505000Y-98765000D01*
X218525000Y-98765000D01*
X218525000Y-98745000D01*
X218535000Y-98745000D01*
X218535000Y-98765000D01*
X218555000Y-98765000D01*
X218555000Y-98775000D01*
X218535000Y-98775000D01*
X218535000Y-99852488D01*
X218716401Y-99914925D01*
X218795932Y-99899106D01*
X219011100Y-99825530D01*
X219207779Y-99711390D01*
X219378412Y-99561073D01*
X219516441Y-99380356D01*
X219616561Y-99176183D01*
X219645225Y-99068242D01*
X219723894Y-99327576D01*
X219858536Y-99579474D01*
X220039735Y-99800265D01*
X220260526Y-99981464D01*
X220512424Y-100116106D01*
X220785750Y-100199019D01*
X220998775Y-100220000D01*
X221141225Y-100220000D01*
X221354250Y-100199019D01*
X221627576Y-100116106D01*
X221879474Y-99981464D01*
X222100265Y-99800265D01*
X222281464Y-99579474D01*
X222340000Y-99469961D01*
X222398536Y-99579474D01*
X222579735Y-99800265D01*
X222800526Y-99981464D01*
X223052424Y-100116106D01*
X223325750Y-100199019D01*
X223538775Y-100220000D01*
X223681225Y-100220000D01*
X223894250Y-100199019D01*
X224167576Y-100116106D01*
X224419474Y-99981464D01*
X224640265Y-99800265D01*
X224821464Y-99579474D01*
X224880000Y-99469961D01*
X224938536Y-99579474D01*
X225119735Y-99800265D01*
X225340526Y-99981464D01*
X225592424Y-100116106D01*
X225865750Y-100199019D01*
X226078775Y-100220000D01*
X226221225Y-100220000D01*
X226434250Y-100199019D01*
X226707576Y-100116106D01*
X226959474Y-99981464D01*
X227180265Y-99800265D01*
X227361464Y-99579474D01*
X227420000Y-99469961D01*
X227478536Y-99579474D01*
X227659735Y-99800265D01*
X227880526Y-99981464D01*
X228132424Y-100116106D01*
X228405750Y-100199019D01*
X228618775Y-100220000D01*
X228761225Y-100220000D01*
X228974250Y-100199019D01*
X229247576Y-100116106D01*
X229499474Y-99981464D01*
X229720265Y-99800265D01*
X229901464Y-99579474D01*
X229960000Y-99469961D01*
X230018536Y-99579474D01*
X230199735Y-99800265D01*
X230420526Y-99981464D01*
X230672424Y-100116106D01*
X230945750Y-100199019D01*
X231158775Y-100220000D01*
X231301225Y-100220000D01*
X231514250Y-100199019D01*
X231787576Y-100116106D01*
X232039474Y-99981464D01*
X232260265Y-99800265D01*
X232441464Y-99579474D01*
X232500000Y-99469961D01*
X232558536Y-99579474D01*
X232739735Y-99800265D01*
X232960526Y-99981464D01*
X233212424Y-100116106D01*
X233485750Y-100199019D01*
X233698775Y-100220000D01*
X233841225Y-100220000D01*
X234054250Y-100199019D01*
X234327576Y-100116106D01*
X234579474Y-99981464D01*
X234800265Y-99800265D01*
X234981464Y-99579474D01*
X235040000Y-99469961D01*
X235098536Y-99579474D01*
X235279735Y-99800265D01*
X235500526Y-99981464D01*
X235752424Y-100116106D01*
X236025750Y-100199019D01*
X236238775Y-100220000D01*
X236381225Y-100220000D01*
X236594250Y-100199019D01*
X236867576Y-100116106D01*
X237119474Y-99981464D01*
X237340265Y-99800265D01*
X237521464Y-99579474D01*
X237656106Y-99327576D01*
X237734775Y-99068242D01*
X237763439Y-99176183D01*
X237863559Y-99380356D01*
X238001588Y-99561073D01*
X238172221Y-99711390D01*
X238368900Y-99825530D01*
X238584068Y-99899106D01*
X238663599Y-99914925D01*
X238845000Y-99852488D01*
X238845000Y-98775000D01*
X238825000Y-98775000D01*
X238825000Y-98765000D01*
X238845000Y-98765000D01*
X238845000Y-98745000D01*
X238855000Y-98745000D01*
X238855000Y-98765000D01*
X238875000Y-98765000D01*
X238875000Y-98775000D01*
X238855000Y-98775000D01*
X238855000Y-99852488D01*
X239036401Y-99914925D01*
X239115932Y-99899106D01*
X239331100Y-99825530D01*
X239527779Y-99711390D01*
X239698412Y-99561073D01*
X239836441Y-99380356D01*
X239936561Y-99176183D01*
X239965225Y-99068242D01*
X240043894Y-99327576D01*
X240178536Y-99579474D01*
X240359735Y-99800265D01*
X240580526Y-99981464D01*
X240832424Y-100116106D01*
X241105750Y-100199019D01*
X241318775Y-100220000D01*
X241461225Y-100220000D01*
X241674250Y-100199019D01*
X241947576Y-100116106D01*
X242199474Y-99981464D01*
X242420265Y-99800265D01*
X242601464Y-99579474D01*
X242660000Y-99469961D01*
X242718536Y-99579474D01*
X242899735Y-99800265D01*
X243120526Y-99981464D01*
X243372424Y-100116106D01*
X243645750Y-100199019D01*
X243858775Y-100220000D01*
X244001225Y-100220000D01*
X244214250Y-100199019D01*
X244487576Y-100116106D01*
X244739474Y-99981464D01*
X244960265Y-99800265D01*
X245141464Y-99579474D01*
X245200000Y-99469961D01*
X245258536Y-99579474D01*
X245439735Y-99800265D01*
X245660526Y-99981464D01*
X245912424Y-100116106D01*
X246185750Y-100199019D01*
X246398775Y-100220000D01*
X246541225Y-100220000D01*
X246754250Y-100199019D01*
X247027576Y-100116106D01*
X247279474Y-99981464D01*
X247500265Y-99800265D01*
X247681464Y-99579474D01*
X247740000Y-99469961D01*
X247798536Y-99579474D01*
X247979735Y-99800265D01*
X248200526Y-99981464D01*
X248452424Y-100116106D01*
X248725750Y-100199019D01*
X248938775Y-100220000D01*
X249081225Y-100220000D01*
X249294250Y-100199019D01*
X249567576Y-100116106D01*
X249819474Y-99981464D01*
X250040265Y-99800265D01*
X250221464Y-99579474D01*
X250280000Y-99469961D01*
X250338536Y-99579474D01*
X250519735Y-99800265D01*
X250740526Y-99981464D01*
X250992424Y-100116106D01*
X251265750Y-100199019D01*
X251478775Y-100220000D01*
X251621225Y-100220000D01*
X251834250Y-100199019D01*
X252107576Y-100116106D01*
X252359474Y-99981464D01*
X252580265Y-99800265D01*
X252761464Y-99579474D01*
X252820000Y-99469961D01*
X252878536Y-99579474D01*
X253059735Y-99800265D01*
X253280526Y-99981464D01*
X253532424Y-100116106D01*
X253805750Y-100199019D01*
X254018775Y-100220000D01*
X254161225Y-100220000D01*
X254374250Y-100199019D01*
X254647576Y-100116106D01*
X254899474Y-99981464D01*
X255120265Y-99800265D01*
X255301464Y-99579474D01*
X255436106Y-99327576D01*
X255514775Y-99068242D01*
X255543439Y-99176183D01*
X255643559Y-99380356D01*
X255781588Y-99561073D01*
X255952221Y-99711390D01*
X256148900Y-99825530D01*
X256364068Y-99899106D01*
X256443599Y-99914925D01*
X256625000Y-99852488D01*
X256625000Y-98775000D01*
X256635000Y-98775000D01*
X256635000Y-99852488D01*
X256816401Y-99914925D01*
X256895932Y-99899106D01*
X257111100Y-99825530D01*
X257307779Y-99711390D01*
X257478412Y-99561073D01*
X257616441Y-99380356D01*
X257716561Y-99176183D01*
X257774925Y-98956401D01*
X257712489Y-98775000D01*
X256635000Y-98775000D01*
X256625000Y-98775000D01*
X256605000Y-98775000D01*
X256605000Y-98765000D01*
X256625000Y-98765000D01*
X256625000Y-98745000D01*
X256635000Y-98745000D01*
X256635000Y-98765000D01*
X257712489Y-98765000D01*
X257774925Y-98583599D01*
X257716561Y-98363817D01*
X257616441Y-98159644D01*
X257478412Y-97978927D01*
X257307779Y-97828610D01*
X257111100Y-97714470D01*
X256932631Y-97653443D01*
X257187576Y-97576106D01*
X257439474Y-97441464D01*
X257602170Y-97307942D01*
X259550000Y-97307942D01*
X259550000Y-97692058D01*
X259624938Y-98068794D01*
X259771933Y-98423671D01*
X259985336Y-98743052D01*
X260256948Y-99014664D01*
X260576329Y-99228067D01*
X260931206Y-99375062D01*
X261307942Y-99450000D01*
X261692058Y-99450000D01*
X262068794Y-99375062D01*
X262423671Y-99228067D01*
X262743052Y-99014664D01*
X263014664Y-98743052D01*
X263228067Y-98423671D01*
X263375062Y-98068794D01*
X263450000Y-97692058D01*
X263450000Y-97307942D01*
X263375062Y-96931206D01*
X263228067Y-96576329D01*
X263014664Y-96256948D01*
X262743052Y-95985336D01*
X262423671Y-95771933D01*
X262068794Y-95624938D01*
X261692058Y-95550000D01*
X261307942Y-95550000D01*
X260931206Y-95624938D01*
X260576329Y-95771933D01*
X260256948Y-95985336D01*
X259985336Y-96256948D01*
X259771933Y-96576329D01*
X259624938Y-96931206D01*
X259550000Y-97307942D01*
X257602170Y-97307942D01*
X257660265Y-97260265D01*
X257841464Y-97039474D01*
X257976106Y-96787576D01*
X258059019Y-96514250D01*
X258087015Y-96230000D01*
X258059019Y-95945750D01*
X257976106Y-95672424D01*
X257841464Y-95420526D01*
X257660265Y-95199735D01*
X257439474Y-95018536D01*
X257187576Y-94883894D01*
X256914250Y-94800981D01*
X256701225Y-94780000D01*
X256558775Y-94780000D01*
X256345750Y-94800981D01*
X256072424Y-94883894D01*
X255820526Y-95018536D01*
X255599735Y-95199735D01*
X255418536Y-95420526D01*
X255360000Y-95530039D01*
X255301464Y-95420526D01*
X255120265Y-95199735D01*
X254899474Y-95018536D01*
X254647576Y-94883894D01*
X254374250Y-94800981D01*
X254161225Y-94780000D01*
X254018775Y-94780000D01*
X253805750Y-94800981D01*
X253532424Y-94883894D01*
X253280526Y-95018536D01*
X253059735Y-95199735D01*
X252878536Y-95420526D01*
X252820000Y-95530039D01*
X252761464Y-95420526D01*
X252580265Y-95199735D01*
X252359474Y-95018536D01*
X252107576Y-94883894D01*
X251834250Y-94800981D01*
X251621225Y-94780000D01*
X251478775Y-94780000D01*
X251265750Y-94800981D01*
X250992424Y-94883894D01*
X250740526Y-95018536D01*
X250519735Y-95199735D01*
X250338536Y-95420526D01*
X250203894Y-95672424D01*
X250125225Y-95931758D01*
X250096561Y-95823817D01*
X249996441Y-95619644D01*
X249858412Y-95438927D01*
X249687779Y-95288610D01*
X249491100Y-95174470D01*
X249275932Y-95100894D01*
X249196401Y-95085075D01*
X249015000Y-95147512D01*
X249015000Y-96225000D01*
X249035000Y-96225000D01*
X249035000Y-96235000D01*
X249015000Y-96235000D01*
X249015000Y-96255000D01*
X249005000Y-96255000D01*
X249005000Y-96235000D01*
X248985000Y-96235000D01*
X248985000Y-96225000D01*
X249005000Y-96225000D01*
X249005000Y-95147512D01*
X248823599Y-95085075D01*
X248744068Y-95100894D01*
X248528900Y-95174470D01*
X248332221Y-95288610D01*
X248161588Y-95438927D01*
X248023559Y-95619644D01*
X247923439Y-95823817D01*
X247894775Y-95931758D01*
X247816106Y-95672424D01*
X247681464Y-95420526D01*
X247500265Y-95199735D01*
X247279474Y-95018536D01*
X247027576Y-94883894D01*
X246754250Y-94800981D01*
X246541225Y-94780000D01*
X246398775Y-94780000D01*
X246185750Y-94800981D01*
X245912424Y-94883894D01*
X245660526Y-95018536D01*
X245439735Y-95199735D01*
X245258536Y-95420526D01*
X245123894Y-95672424D01*
X245045225Y-95931758D01*
X245016561Y-95823817D01*
X244916441Y-95619644D01*
X244778412Y-95438927D01*
X244607779Y-95288610D01*
X244411100Y-95174470D01*
X244195932Y-95100894D01*
X244116401Y-95085075D01*
X243935000Y-95147512D01*
X243935000Y-96225000D01*
X243955000Y-96225000D01*
X243955000Y-96235000D01*
X243935000Y-96235000D01*
X243935000Y-96255000D01*
X243925000Y-96255000D01*
X243925000Y-96235000D01*
X243905000Y-96235000D01*
X243905000Y-96225000D01*
X243925000Y-96225000D01*
X243925000Y-95147512D01*
X243743599Y-95085075D01*
X243664068Y-95100894D01*
X243448900Y-95174470D01*
X243252221Y-95288610D01*
X243081588Y-95438927D01*
X242943559Y-95619644D01*
X242843439Y-95823817D01*
X242814775Y-95931758D01*
X242736106Y-95672424D01*
X242601464Y-95420526D01*
X242420265Y-95199735D01*
X242199474Y-95018536D01*
X241947576Y-94883894D01*
X241674250Y-94800981D01*
X241461225Y-94780000D01*
X241318775Y-94780000D01*
X241105750Y-94800981D01*
X240832424Y-94883894D01*
X240580526Y-95018536D01*
X240359735Y-95199735D01*
X240178536Y-95420526D01*
X240120000Y-95530039D01*
X240061464Y-95420526D01*
X239880265Y-95199735D01*
X239659474Y-95018536D01*
X239407576Y-94883894D01*
X239134250Y-94800981D01*
X238921225Y-94780000D01*
X238778775Y-94780000D01*
X238565750Y-94800981D01*
X238292424Y-94883894D01*
X238040526Y-95018536D01*
X237819735Y-95199735D01*
X237638536Y-95420526D01*
X237580000Y-95530039D01*
X237521464Y-95420526D01*
X237340265Y-95199735D01*
X237119474Y-95018536D01*
X236867576Y-94883894D01*
X236594250Y-94800981D01*
X236381225Y-94780000D01*
X236238775Y-94780000D01*
X236025750Y-94800981D01*
X235752424Y-94883894D01*
X235500526Y-95018536D01*
X235279735Y-95199735D01*
X235098536Y-95420526D01*
X235040000Y-95530039D01*
X234981464Y-95420526D01*
X234800265Y-95199735D01*
X234579474Y-95018536D01*
X234327576Y-94883894D01*
X234054250Y-94800981D01*
X233841225Y-94780000D01*
X233698775Y-94780000D01*
X233485750Y-94800981D01*
X233212424Y-94883894D01*
X232960526Y-95018536D01*
X232739735Y-95199735D01*
X232558536Y-95420526D01*
X232423894Y-95672424D01*
X232345225Y-95931758D01*
X232316561Y-95823817D01*
X232216441Y-95619644D01*
X232078412Y-95438927D01*
X231907779Y-95288610D01*
X231711100Y-95174470D01*
X231495932Y-95100894D01*
X231416401Y-95085075D01*
X231235000Y-95147512D01*
X231235000Y-96225000D01*
X231255000Y-96225000D01*
X231255000Y-96235000D01*
X231235000Y-96235000D01*
X231235000Y-96255000D01*
X231225000Y-96255000D01*
X231225000Y-96235000D01*
X231205000Y-96235000D01*
X231205000Y-96225000D01*
X231225000Y-96225000D01*
X231225000Y-95147512D01*
X231043599Y-95085075D01*
X230964068Y-95100894D01*
X230748900Y-95174470D01*
X230552221Y-95288610D01*
X230381588Y-95438927D01*
X230243559Y-95619644D01*
X230143439Y-95823817D01*
X230114775Y-95931758D01*
X230036106Y-95672424D01*
X229901464Y-95420526D01*
X229720265Y-95199735D01*
X229499474Y-95018536D01*
X229247576Y-94883894D01*
X228974250Y-94800981D01*
X228761225Y-94780000D01*
X228618775Y-94780000D01*
X228405750Y-94800981D01*
X228132424Y-94883894D01*
X227880526Y-95018536D01*
X227659735Y-95199735D01*
X227478536Y-95420526D01*
X227420000Y-95530039D01*
X227361464Y-95420526D01*
X227180265Y-95199735D01*
X226959474Y-95018536D01*
X226707576Y-94883894D01*
X226434250Y-94800981D01*
X226221225Y-94780000D01*
X226078775Y-94780000D01*
X225865750Y-94800981D01*
X225592424Y-94883894D01*
X225340526Y-95018536D01*
X225119735Y-95199735D01*
X224938536Y-95420526D01*
X224803894Y-95672424D01*
X224725225Y-95931758D01*
X224696561Y-95823817D01*
X224596441Y-95619644D01*
X224458412Y-95438927D01*
X224287779Y-95288610D01*
X224091100Y-95174470D01*
X223875932Y-95100894D01*
X223796401Y-95085075D01*
X223615000Y-95147512D01*
X223615000Y-96225000D01*
X223635000Y-96225000D01*
X223635000Y-96235000D01*
X223615000Y-96235000D01*
X223615000Y-96255000D01*
X223605000Y-96255000D01*
X223605000Y-96235000D01*
X223585000Y-96235000D01*
X223585000Y-96225000D01*
X223605000Y-96225000D01*
X223605000Y-95147512D01*
X223423599Y-95085075D01*
X223344068Y-95100894D01*
X223128900Y-95174470D01*
X222932221Y-95288610D01*
X222761588Y-95438927D01*
X222623559Y-95619644D01*
X222523439Y-95823817D01*
X222494775Y-95931758D01*
X222416106Y-95672424D01*
X222281464Y-95420526D01*
X222100265Y-95199735D01*
X221879474Y-95018536D01*
X221627576Y-94883894D01*
X221354250Y-94800981D01*
X221141225Y-94780000D01*
X220998775Y-94780000D01*
X220785750Y-94800981D01*
X220512424Y-94883894D01*
X220260526Y-95018536D01*
X220039735Y-95199735D01*
X219858536Y-95420526D01*
X219800000Y-95530039D01*
X219741464Y-95420526D01*
X219560265Y-95199735D01*
X219339474Y-95018536D01*
X219087576Y-94883894D01*
X218814250Y-94800981D01*
X218601225Y-94780000D01*
X218458775Y-94780000D01*
X218245750Y-94800981D01*
X217972424Y-94883894D01*
X217720526Y-95018536D01*
X217499735Y-95199735D01*
X217318536Y-95420526D01*
X217260000Y-95530039D01*
X217201464Y-95420526D01*
X217020265Y-95199735D01*
X216799474Y-95018536D01*
X216547576Y-94883894D01*
X216274250Y-94800981D01*
X216061225Y-94780000D01*
X215918775Y-94780000D01*
X215705750Y-94800981D01*
X215432424Y-94883894D01*
X215180526Y-95018536D01*
X214959735Y-95199735D01*
X214778536Y-95420526D01*
X214643894Y-95672424D01*
X214565225Y-95931758D01*
X214536561Y-95823817D01*
X214436441Y-95619644D01*
X214298412Y-95438927D01*
X214127779Y-95288610D01*
X213931100Y-95174470D01*
X213715932Y-95100894D01*
X213636401Y-95085075D01*
X213455000Y-95147512D01*
X213455000Y-96225000D01*
X213475000Y-96225000D01*
X213475000Y-96235000D01*
X213455000Y-96235000D01*
X213455000Y-96255000D01*
X213445000Y-96255000D01*
X213445000Y-96235000D01*
X213425000Y-96235000D01*
X213425000Y-96225000D01*
X213445000Y-96225000D01*
X213445000Y-95147512D01*
X213263599Y-95085075D01*
X213184068Y-95100894D01*
X212968900Y-95174470D01*
X212772221Y-95288610D01*
X212601588Y-95438927D01*
X212463559Y-95619644D01*
X212363439Y-95823817D01*
X212334775Y-95931758D01*
X212256106Y-95672424D01*
X212121464Y-95420526D01*
X211940265Y-95199735D01*
X211719474Y-95018536D01*
X211467576Y-94883894D01*
X211194250Y-94800981D01*
X210981225Y-94780000D01*
X210838775Y-94780000D01*
X210625750Y-94800981D01*
X210352424Y-94883894D01*
X210100526Y-95018536D01*
X209879735Y-95199735D01*
X209698536Y-95420526D01*
X209640000Y-95530039D01*
X209581464Y-95420526D01*
X209400265Y-95199735D01*
X209179474Y-95018536D01*
X208927576Y-94883894D01*
X208654250Y-94800981D01*
X208441225Y-94780000D01*
X208298775Y-94780000D01*
X208085750Y-94800981D01*
X207812424Y-94883894D01*
X207560526Y-95018536D01*
X207339735Y-95199735D01*
X207158536Y-95420526D01*
X207023894Y-95672424D01*
X206940981Y-95945750D01*
X206912985Y-96230000D01*
X204987716Y-96230000D01*
X204743052Y-95985336D01*
X204423671Y-95771933D01*
X204068794Y-95624938D01*
X203692058Y-95550000D01*
X203307942Y-95550000D01*
X202931206Y-95624938D01*
X202576329Y-95771933D01*
X202256948Y-95985336D01*
X201985336Y-96256948D01*
X201771933Y-96576329D01*
X201624938Y-96931206D01*
X201550000Y-97307942D01*
X200650000Y-97307942D01*
X200650000Y-97031793D01*
X200697814Y-96544154D01*
X200830200Y-96105669D01*
X201045230Y-95701255D01*
X201334722Y-95346305D01*
X201687638Y-95054346D01*
X202090545Y-94836496D01*
X202528097Y-94701051D01*
X203013813Y-94650000D01*
X261968207Y-94650000D01*
X262455846Y-94697814D01*
M02*
