G04 #@! TF.GenerationSoftware,KiCad,Pcbnew,(5.0.2)-1*
G04 #@! TF.CreationDate,2019-03-22T12:59:56+11:00*
G04 #@! TF.ProjectId,VeinCamHat,5665696e-4361-46d4-9861-742e6b696361,rev?*
G04 #@! TF.SameCoordinates,Original*
G04 #@! TF.FileFunction,Copper,L1,Top*
G04 #@! TF.FilePolarity,Positive*
%FSLAX46Y46*%
G04 Gerber Fmt 4.6, Leading zero omitted, Abs format (unit mm)*
G04 Created by KiCad (PCBNEW (5.0.2)-1) date 22/03/2019 12:59:56*
%MOMM*%
%LPD*%
G01*
G04 APERTURE LIST*
G04 #@! TA.AperFunction,ComponentPad*
%ADD10R,1.700000X1.700000*%
G04 #@! TD*
G04 #@! TA.AperFunction,ComponentPad*
%ADD11O,1.700000X1.700000*%
G04 #@! TD*
G04 #@! TA.AperFunction,SMDPad,CuDef*
%ADD12C,1.100000*%
G04 #@! TD*
G04 #@! TA.AperFunction,Conductor*
%ADD13C,0.150000*%
G04 #@! TD*
G04 #@! TA.AperFunction,SMDPad,CuDef*
%ADD14R,1.700000X1.100000*%
G04 #@! TD*
G04 #@! TA.AperFunction,SMDPad,CuDef*
%ADD15R,0.650000X0.400000*%
G04 #@! TD*
G04 #@! TA.AperFunction,SMDPad,CuDef*
%ADD16C,0.875000*%
G04 #@! TD*
G04 #@! TA.AperFunction,SMDPad,CuDef*
%ADD17C,0.975000*%
G04 #@! TD*
G04 #@! TA.AperFunction,ViaPad*
%ADD18C,0.600000*%
G04 #@! TD*
G04 #@! TA.AperFunction,Conductor*
%ADD19C,0.500000*%
G04 #@! TD*
G04 #@! TA.AperFunction,Conductor*
%ADD20C,0.200000*%
G04 #@! TD*
G04 #@! TA.AperFunction,Conductor*
%ADD21C,0.300000*%
G04 #@! TD*
G04 APERTURE END LIST*
D10*
G04 #@! TO.P,J1,1*
G04 #@! TO.N,Net-(J1-Pad1)*
X208370000Y-98770000D03*
D11*
G04 #@! TO.P,J1,2*
G04 #@! TO.N,+5V*
X208370000Y-96230000D03*
G04 #@! TO.P,J1,3*
G04 #@! TO.N,Net-(J1-Pad3)*
X210910000Y-98770000D03*
G04 #@! TO.P,J1,4*
G04 #@! TO.N,+5V*
X210910000Y-96230000D03*
G04 #@! TO.P,J1,5*
G04 #@! TO.N,Net-(J1-Pad5)*
X213450000Y-98770000D03*
G04 #@! TO.P,J1,6*
G04 #@! TO.N,GND*
X213450000Y-96230000D03*
G04 #@! TO.P,J1,7*
G04 #@! TO.N,/LED_READY*
X215990000Y-98770000D03*
G04 #@! TO.P,J1,8*
G04 #@! TO.N,/LED_BOOT*
X215990000Y-96230000D03*
G04 #@! TO.P,J1,9*
G04 #@! TO.N,GND*
X218530000Y-98770000D03*
G04 #@! TO.P,J1,10*
G04 #@! TO.N,Net-(J1-Pad10)*
X218530000Y-96230000D03*
G04 #@! TO.P,J1,11*
G04 #@! TO.N,Net-(J1-Pad11)*
X221070000Y-98770000D03*
G04 #@! TO.P,J1,12*
G04 #@! TO.N,/LED_940*
X221070000Y-96230000D03*
G04 #@! TO.P,J1,13*
G04 #@! TO.N,Net-(J1-Pad13)*
X223610000Y-98770000D03*
G04 #@! TO.P,J1,14*
G04 #@! TO.N,GND*
X223610000Y-96230000D03*
G04 #@! TO.P,J1,15*
G04 #@! TO.N,Net-(J1-Pad15)*
X226150000Y-98770000D03*
G04 #@! TO.P,J1,16*
G04 #@! TO.N,Net-(J1-Pad16)*
X226150000Y-96230000D03*
G04 #@! TO.P,J1,17*
G04 #@! TO.N,Net-(J1-Pad17)*
X228690000Y-98770000D03*
G04 #@! TO.P,J1,18*
G04 #@! TO.N,Net-(J1-Pad18)*
X228690000Y-96230000D03*
G04 #@! TO.P,J1,19*
G04 #@! TO.N,Net-(J1-Pad19)*
X231230000Y-98770000D03*
G04 #@! TO.P,J1,20*
G04 #@! TO.N,GND*
X231230000Y-96230000D03*
G04 #@! TO.P,J1,21*
G04 #@! TO.N,Net-(J1-Pad21)*
X233770000Y-98770000D03*
G04 #@! TO.P,J1,22*
G04 #@! TO.N,Net-(J1-Pad22)*
X233770000Y-96230000D03*
G04 #@! TO.P,J1,23*
G04 #@! TO.N,Net-(J1-Pad23)*
X236310000Y-98770000D03*
G04 #@! TO.P,J1,24*
G04 #@! TO.N,Net-(J1-Pad24)*
X236310000Y-96230000D03*
G04 #@! TO.P,J1,25*
G04 #@! TO.N,GND*
X238850000Y-98770000D03*
G04 #@! TO.P,J1,26*
G04 #@! TO.N,Net-(J1-Pad26)*
X238850000Y-96230000D03*
G04 #@! TO.P,J1,27*
G04 #@! TO.N,Net-(J1-Pad27)*
X241390000Y-98770000D03*
G04 #@! TO.P,J1,28*
G04 #@! TO.N,Net-(J1-Pad28)*
X241390000Y-96230000D03*
G04 #@! TO.P,J1,29*
G04 #@! TO.N,Net-(J1-Pad29)*
X243930000Y-98770000D03*
G04 #@! TO.P,J1,30*
G04 #@! TO.N,GND*
X243930000Y-96230000D03*
G04 #@! TO.P,J1,31*
G04 #@! TO.N,Net-(J1-Pad31)*
X246470000Y-98770000D03*
G04 #@! TO.P,J1,32*
G04 #@! TO.N,Net-(J1-Pad32)*
X246470000Y-96230000D03*
G04 #@! TO.P,J1,33*
G04 #@! TO.N,/LED_850*
X249010000Y-98770000D03*
G04 #@! TO.P,J1,34*
G04 #@! TO.N,GND*
X249010000Y-96230000D03*
G04 #@! TO.P,J1,35*
G04 #@! TO.N,Net-(J1-Pad35)*
X251550000Y-98770000D03*
G04 #@! TO.P,J1,36*
G04 #@! TO.N,Net-(J1-Pad36)*
X251550000Y-96230000D03*
G04 #@! TO.P,J1,37*
G04 #@! TO.N,Net-(J1-Pad37)*
X254090000Y-98770000D03*
G04 #@! TO.P,J1,38*
G04 #@! TO.N,Net-(J1-Pad38)*
X254090000Y-96230000D03*
G04 #@! TO.P,J1,39*
G04 #@! TO.N,GND*
X256630000Y-98770000D03*
G04 #@! TO.P,J1,40*
G04 #@! TO.N,Net-(J1-Pad40)*
X256630000Y-96230000D03*
G04 #@! TD*
D12*
G04 #@! TO.P,D3,2*
G04 #@! TO.N,Net-(D3-Pad2)*
X203479720Y-134540381D03*
D13*
G04 #@! TD*
G04 #@! TO.N,Net-(D3-Pad2)*
G04 #@! TO.C,D3*
G36*
X203691852Y-135530330D02*
X202489771Y-134328249D01*
X203267588Y-133550432D01*
X204469669Y-134752513D01*
X203691852Y-135530330D01*
X203691852Y-135530330D01*
G37*
D12*
G04 #@! TO.P,D3,1*
G04 #@! TO.N,Net-(D3-Pad1)*
X205459619Y-136520280D03*
D13*
G04 #@! TD*
G04 #@! TO.N,Net-(D3-Pad1)*
G04 #@! TO.C,D3*
G36*
X205671751Y-137510229D02*
X204469670Y-136308148D01*
X205247487Y-135530331D01*
X206449568Y-136732412D01*
X205671751Y-137510229D01*
X205671751Y-137510229D01*
G37*
D12*
G04 #@! TO.P,D3,3*
G04 #@! TO.N,Net-(D3-Pad3)*
X204540381Y-133479720D03*
D13*
G04 #@! TD*
G04 #@! TO.N,Net-(D3-Pad3)*
G04 #@! TO.C,D3*
G36*
X204752513Y-134469669D02*
X203550432Y-133267588D01*
X204328249Y-132489771D01*
X205530330Y-133691852D01*
X204752513Y-134469669D01*
X204752513Y-134469669D01*
G37*
D12*
G04 #@! TO.P,D3,4*
G04 #@! TO.N,Net-(D3-Pad4)*
X206520280Y-135459619D03*
D13*
G04 #@! TD*
G04 #@! TO.N,Net-(D3-Pad4)*
G04 #@! TO.C,D3*
G36*
X206732412Y-136449568D02*
X205530331Y-135247487D01*
X206308148Y-134469670D01*
X207510229Y-135671751D01*
X206732412Y-136449568D01*
X206732412Y-136449568D01*
G37*
D14*
G04 #@! TO.P,D4,4*
G04 #@! TO.N,Net-(D4-Pad4)*
X223400000Y-144249999D03*
G04 #@! TO.P,D4,3*
G04 #@! TO.N,Net-(D4-Pad3)*
X220600000Y-144249999D03*
G04 #@! TO.P,D4,1*
G04 #@! TO.N,Net-(D4-Pad1)*
X223400000Y-145750001D03*
G04 #@! TO.P,D4,2*
G04 #@! TO.N,Net-(D4-Pad2)*
X220600000Y-145750001D03*
G04 #@! TD*
D12*
G04 #@! TO.P,D5,4*
G04 #@! TO.N,Net-(D3-Pad3)*
X205459619Y-112479720D03*
D13*
G04 #@! TD*
G04 #@! TO.N,Net-(D3-Pad3)*
G04 #@! TO.C,D5*
G36*
X206449568Y-112267588D02*
X205247487Y-113469669D01*
X204469670Y-112691852D01*
X205671751Y-111489771D01*
X206449568Y-112267588D01*
X206449568Y-112267588D01*
G37*
D12*
G04 #@! TO.P,D5,3*
G04 #@! TO.N,Net-(D5-Pad3)*
X203479720Y-114459619D03*
D13*
G04 #@! TD*
G04 #@! TO.N,Net-(D5-Pad3)*
G04 #@! TO.C,D5*
G36*
X204469669Y-114247487D02*
X203267588Y-115449568D01*
X202489771Y-114671751D01*
X203691852Y-113469670D01*
X204469669Y-114247487D01*
X204469669Y-114247487D01*
G37*
D12*
G04 #@! TO.P,D5,1*
G04 #@! TO.N,Net-(D5-Pad1)*
X206520280Y-113540381D03*
D13*
G04 #@! TD*
G04 #@! TO.N,Net-(D5-Pad1)*
G04 #@! TO.C,D5*
G36*
X207510229Y-113328249D02*
X206308148Y-114530330D01*
X205530331Y-113752513D01*
X206732412Y-112550432D01*
X207510229Y-113328249D01*
X207510229Y-113328249D01*
G37*
D12*
G04 #@! TO.P,D5,2*
G04 #@! TO.N,Net-(D3-Pad1)*
X204540381Y-115520280D03*
D13*
G04 #@! TD*
G04 #@! TO.N,Net-(D3-Pad1)*
G04 #@! TO.C,D5*
G36*
X205530330Y-115308148D02*
X204328249Y-116510229D01*
X203550432Y-115732412D01*
X204752513Y-114530331D01*
X205530330Y-115308148D01*
X205530330Y-115308148D01*
G37*
D12*
G04 #@! TO.P,D6,2*
G04 #@! TO.N,Net-(D4-Pad1)*
X238540381Y-136520280D03*
D13*
G04 #@! TD*
G04 #@! TO.N,Net-(D4-Pad1)*
G04 #@! TO.C,D6*
G36*
X239530330Y-136308148D02*
X238328249Y-137510229D01*
X237550432Y-136732412D01*
X238752513Y-135530331D01*
X239530330Y-136308148D01*
X239530330Y-136308148D01*
G37*
D12*
G04 #@! TO.P,D6,1*
G04 #@! TO.N,Net-(D6-Pad1)*
X240520280Y-134540381D03*
D13*
G04 #@! TD*
G04 #@! TO.N,Net-(D6-Pad1)*
G04 #@! TO.C,D6*
G36*
X241510229Y-134328249D02*
X240308148Y-135530330D01*
X239530331Y-134752513D01*
X240732412Y-133550432D01*
X241510229Y-134328249D01*
X241510229Y-134328249D01*
G37*
D12*
G04 #@! TO.P,D6,3*
G04 #@! TO.N,Net-(D6-Pad3)*
X237479720Y-135459619D03*
D13*
G04 #@! TD*
G04 #@! TO.N,Net-(D6-Pad3)*
G04 #@! TO.C,D6*
G36*
X238469669Y-135247487D02*
X237267588Y-136449568D01*
X236489771Y-135671751D01*
X237691852Y-134469670D01*
X238469669Y-135247487D01*
X238469669Y-135247487D01*
G37*
D12*
G04 #@! TO.P,D6,4*
G04 #@! TO.N,Net-(D4-Pad3)*
X239459619Y-133479720D03*
D13*
G04 #@! TD*
G04 #@! TO.N,Net-(D4-Pad3)*
G04 #@! TO.C,D6*
G36*
X240449568Y-133267588D02*
X239247487Y-134469669D01*
X238469670Y-133691852D01*
X239671751Y-132489771D01*
X240449568Y-133267588D01*
X240449568Y-133267588D01*
G37*
D15*
G04 #@! TO.P,Q1,1*
G04 #@! TO.N,GND*
X229950000Y-109550000D03*
G04 #@! TO.P,Q1,3*
G04 #@! TO.N,Net-(D7-Pad1)*
X229950000Y-110850000D03*
G04 #@! TO.P,Q1,5*
G04 #@! TO.N,/LED_850*
X231850000Y-110200000D03*
G04 #@! TO.P,Q1,2*
G04 #@! TO.N,/LED_940*
X229950000Y-110200000D03*
G04 #@! TO.P,Q1,4*
G04 #@! TO.N,GND*
X231850000Y-110850000D03*
G04 #@! TO.P,Q1,6*
G04 #@! TO.N,Net-(D7-Pad3)*
X231850000Y-109550000D03*
G04 #@! TD*
D13*
G04 #@! TO.N,Net-(D1-Pad2)*
G04 #@! TO.C,R1*
G36*
X247477691Y-105651053D02*
X247498926Y-105654203D01*
X247519750Y-105659419D01*
X247539962Y-105666651D01*
X247559368Y-105675830D01*
X247577781Y-105686866D01*
X247595024Y-105699654D01*
X247610930Y-105714070D01*
X247625346Y-105729976D01*
X247638134Y-105747219D01*
X247649170Y-105765632D01*
X247658349Y-105785038D01*
X247665581Y-105805250D01*
X247670797Y-105826074D01*
X247673947Y-105847309D01*
X247675000Y-105868750D01*
X247675000Y-106306250D01*
X247673947Y-106327691D01*
X247670797Y-106348926D01*
X247665581Y-106369750D01*
X247658349Y-106389962D01*
X247649170Y-106409368D01*
X247638134Y-106427781D01*
X247625346Y-106445024D01*
X247610930Y-106460930D01*
X247595024Y-106475346D01*
X247577781Y-106488134D01*
X247559368Y-106499170D01*
X247539962Y-106508349D01*
X247519750Y-106515581D01*
X247498926Y-106520797D01*
X247477691Y-106523947D01*
X247456250Y-106525000D01*
X246943750Y-106525000D01*
X246922309Y-106523947D01*
X246901074Y-106520797D01*
X246880250Y-106515581D01*
X246860038Y-106508349D01*
X246840632Y-106499170D01*
X246822219Y-106488134D01*
X246804976Y-106475346D01*
X246789070Y-106460930D01*
X246774654Y-106445024D01*
X246761866Y-106427781D01*
X246750830Y-106409368D01*
X246741651Y-106389962D01*
X246734419Y-106369750D01*
X246729203Y-106348926D01*
X246726053Y-106327691D01*
X246725000Y-106306250D01*
X246725000Y-105868750D01*
X246726053Y-105847309D01*
X246729203Y-105826074D01*
X246734419Y-105805250D01*
X246741651Y-105785038D01*
X246750830Y-105765632D01*
X246761866Y-105747219D01*
X246774654Y-105729976D01*
X246789070Y-105714070D01*
X246804976Y-105699654D01*
X246822219Y-105686866D01*
X246840632Y-105675830D01*
X246860038Y-105666651D01*
X246880250Y-105659419D01*
X246901074Y-105654203D01*
X246922309Y-105651053D01*
X246943750Y-105650000D01*
X247456250Y-105650000D01*
X247477691Y-105651053D01*
X247477691Y-105651053D01*
G37*
D16*
G04 #@! TD*
G04 #@! TO.P,R1,2*
G04 #@! TO.N,Net-(D1-Pad2)*
X247200000Y-106087500D03*
D13*
G04 #@! TO.N,/LED_READY*
G04 #@! TO.C,R1*
G36*
X247477691Y-104076053D02*
X247498926Y-104079203D01*
X247519750Y-104084419D01*
X247539962Y-104091651D01*
X247559368Y-104100830D01*
X247577781Y-104111866D01*
X247595024Y-104124654D01*
X247610930Y-104139070D01*
X247625346Y-104154976D01*
X247638134Y-104172219D01*
X247649170Y-104190632D01*
X247658349Y-104210038D01*
X247665581Y-104230250D01*
X247670797Y-104251074D01*
X247673947Y-104272309D01*
X247675000Y-104293750D01*
X247675000Y-104731250D01*
X247673947Y-104752691D01*
X247670797Y-104773926D01*
X247665581Y-104794750D01*
X247658349Y-104814962D01*
X247649170Y-104834368D01*
X247638134Y-104852781D01*
X247625346Y-104870024D01*
X247610930Y-104885930D01*
X247595024Y-104900346D01*
X247577781Y-104913134D01*
X247559368Y-104924170D01*
X247539962Y-104933349D01*
X247519750Y-104940581D01*
X247498926Y-104945797D01*
X247477691Y-104948947D01*
X247456250Y-104950000D01*
X246943750Y-104950000D01*
X246922309Y-104948947D01*
X246901074Y-104945797D01*
X246880250Y-104940581D01*
X246860038Y-104933349D01*
X246840632Y-104924170D01*
X246822219Y-104913134D01*
X246804976Y-104900346D01*
X246789070Y-104885930D01*
X246774654Y-104870024D01*
X246761866Y-104852781D01*
X246750830Y-104834368D01*
X246741651Y-104814962D01*
X246734419Y-104794750D01*
X246729203Y-104773926D01*
X246726053Y-104752691D01*
X246725000Y-104731250D01*
X246725000Y-104293750D01*
X246726053Y-104272309D01*
X246729203Y-104251074D01*
X246734419Y-104230250D01*
X246741651Y-104210038D01*
X246750830Y-104190632D01*
X246761866Y-104172219D01*
X246774654Y-104154976D01*
X246789070Y-104139070D01*
X246804976Y-104124654D01*
X246822219Y-104111866D01*
X246840632Y-104100830D01*
X246860038Y-104091651D01*
X246880250Y-104084419D01*
X246901074Y-104079203D01*
X246922309Y-104076053D01*
X246943750Y-104075000D01*
X247456250Y-104075000D01*
X247477691Y-104076053D01*
X247477691Y-104076053D01*
G37*
D16*
G04 #@! TD*
G04 #@! TO.P,R1,1*
G04 #@! TO.N,/LED_READY*
X247200000Y-104512500D03*
D13*
G04 #@! TO.N,/LED_BOOT*
G04 #@! TO.C,R2*
G36*
X251677691Y-104176053D02*
X251698926Y-104179203D01*
X251719750Y-104184419D01*
X251739962Y-104191651D01*
X251759368Y-104200830D01*
X251777781Y-104211866D01*
X251795024Y-104224654D01*
X251810930Y-104239070D01*
X251825346Y-104254976D01*
X251838134Y-104272219D01*
X251849170Y-104290632D01*
X251858349Y-104310038D01*
X251865581Y-104330250D01*
X251870797Y-104351074D01*
X251873947Y-104372309D01*
X251875000Y-104393750D01*
X251875000Y-104831250D01*
X251873947Y-104852691D01*
X251870797Y-104873926D01*
X251865581Y-104894750D01*
X251858349Y-104914962D01*
X251849170Y-104934368D01*
X251838134Y-104952781D01*
X251825346Y-104970024D01*
X251810930Y-104985930D01*
X251795024Y-105000346D01*
X251777781Y-105013134D01*
X251759368Y-105024170D01*
X251739962Y-105033349D01*
X251719750Y-105040581D01*
X251698926Y-105045797D01*
X251677691Y-105048947D01*
X251656250Y-105050000D01*
X251143750Y-105050000D01*
X251122309Y-105048947D01*
X251101074Y-105045797D01*
X251080250Y-105040581D01*
X251060038Y-105033349D01*
X251040632Y-105024170D01*
X251022219Y-105013134D01*
X251004976Y-105000346D01*
X250989070Y-104985930D01*
X250974654Y-104970024D01*
X250961866Y-104952781D01*
X250950830Y-104934368D01*
X250941651Y-104914962D01*
X250934419Y-104894750D01*
X250929203Y-104873926D01*
X250926053Y-104852691D01*
X250925000Y-104831250D01*
X250925000Y-104393750D01*
X250926053Y-104372309D01*
X250929203Y-104351074D01*
X250934419Y-104330250D01*
X250941651Y-104310038D01*
X250950830Y-104290632D01*
X250961866Y-104272219D01*
X250974654Y-104254976D01*
X250989070Y-104239070D01*
X251004976Y-104224654D01*
X251022219Y-104211866D01*
X251040632Y-104200830D01*
X251060038Y-104191651D01*
X251080250Y-104184419D01*
X251101074Y-104179203D01*
X251122309Y-104176053D01*
X251143750Y-104175000D01*
X251656250Y-104175000D01*
X251677691Y-104176053D01*
X251677691Y-104176053D01*
G37*
D16*
G04 #@! TD*
G04 #@! TO.P,R2,1*
G04 #@! TO.N,/LED_BOOT*
X251400000Y-104612500D03*
D13*
G04 #@! TO.N,Net-(D2-Pad2)*
G04 #@! TO.C,R2*
G36*
X251677691Y-105751053D02*
X251698926Y-105754203D01*
X251719750Y-105759419D01*
X251739962Y-105766651D01*
X251759368Y-105775830D01*
X251777781Y-105786866D01*
X251795024Y-105799654D01*
X251810930Y-105814070D01*
X251825346Y-105829976D01*
X251838134Y-105847219D01*
X251849170Y-105865632D01*
X251858349Y-105885038D01*
X251865581Y-105905250D01*
X251870797Y-105926074D01*
X251873947Y-105947309D01*
X251875000Y-105968750D01*
X251875000Y-106406250D01*
X251873947Y-106427691D01*
X251870797Y-106448926D01*
X251865581Y-106469750D01*
X251858349Y-106489962D01*
X251849170Y-106509368D01*
X251838134Y-106527781D01*
X251825346Y-106545024D01*
X251810930Y-106560930D01*
X251795024Y-106575346D01*
X251777781Y-106588134D01*
X251759368Y-106599170D01*
X251739962Y-106608349D01*
X251719750Y-106615581D01*
X251698926Y-106620797D01*
X251677691Y-106623947D01*
X251656250Y-106625000D01*
X251143750Y-106625000D01*
X251122309Y-106623947D01*
X251101074Y-106620797D01*
X251080250Y-106615581D01*
X251060038Y-106608349D01*
X251040632Y-106599170D01*
X251022219Y-106588134D01*
X251004976Y-106575346D01*
X250989070Y-106560930D01*
X250974654Y-106545024D01*
X250961866Y-106527781D01*
X250950830Y-106509368D01*
X250941651Y-106489962D01*
X250934419Y-106469750D01*
X250929203Y-106448926D01*
X250926053Y-106427691D01*
X250925000Y-106406250D01*
X250925000Y-105968750D01*
X250926053Y-105947309D01*
X250929203Y-105926074D01*
X250934419Y-105905250D01*
X250941651Y-105885038D01*
X250950830Y-105865632D01*
X250961866Y-105847219D01*
X250974654Y-105829976D01*
X250989070Y-105814070D01*
X251004976Y-105799654D01*
X251022219Y-105786866D01*
X251040632Y-105775830D01*
X251060038Y-105766651D01*
X251080250Y-105759419D01*
X251101074Y-105754203D01*
X251122309Y-105751053D01*
X251143750Y-105750000D01*
X251656250Y-105750000D01*
X251677691Y-105751053D01*
X251677691Y-105751053D01*
G37*
D16*
G04 #@! TD*
G04 #@! TO.P,R2,2*
G04 #@! TO.N,Net-(D2-Pad2)*
X251400000Y-106187500D03*
D13*
G04 #@! TO.N,+5V*
G04 #@! TO.C,R3*
G36*
X212227691Y-144726053D02*
X212248926Y-144729203D01*
X212269750Y-144734419D01*
X212289962Y-144741651D01*
X212309368Y-144750830D01*
X212327781Y-144761866D01*
X212345024Y-144774654D01*
X212360930Y-144789070D01*
X212375346Y-144804976D01*
X212388134Y-144822219D01*
X212399170Y-144840632D01*
X212408349Y-144860038D01*
X212415581Y-144880250D01*
X212420797Y-144901074D01*
X212423947Y-144922309D01*
X212425000Y-144943750D01*
X212425000Y-145456250D01*
X212423947Y-145477691D01*
X212420797Y-145498926D01*
X212415581Y-145519750D01*
X212408349Y-145539962D01*
X212399170Y-145559368D01*
X212388134Y-145577781D01*
X212375346Y-145595024D01*
X212360930Y-145610930D01*
X212345024Y-145625346D01*
X212327781Y-145638134D01*
X212309368Y-145649170D01*
X212289962Y-145658349D01*
X212269750Y-145665581D01*
X212248926Y-145670797D01*
X212227691Y-145673947D01*
X212206250Y-145675000D01*
X211768750Y-145675000D01*
X211747309Y-145673947D01*
X211726074Y-145670797D01*
X211705250Y-145665581D01*
X211685038Y-145658349D01*
X211665632Y-145649170D01*
X211647219Y-145638134D01*
X211629976Y-145625346D01*
X211614070Y-145610930D01*
X211599654Y-145595024D01*
X211586866Y-145577781D01*
X211575830Y-145559368D01*
X211566651Y-145539962D01*
X211559419Y-145519750D01*
X211554203Y-145498926D01*
X211551053Y-145477691D01*
X211550000Y-145456250D01*
X211550000Y-144943750D01*
X211551053Y-144922309D01*
X211554203Y-144901074D01*
X211559419Y-144880250D01*
X211566651Y-144860038D01*
X211575830Y-144840632D01*
X211586866Y-144822219D01*
X211599654Y-144804976D01*
X211614070Y-144789070D01*
X211629976Y-144774654D01*
X211647219Y-144761866D01*
X211665632Y-144750830D01*
X211685038Y-144741651D01*
X211705250Y-144734419D01*
X211726074Y-144729203D01*
X211747309Y-144726053D01*
X211768750Y-144725000D01*
X212206250Y-144725000D01*
X212227691Y-144726053D01*
X212227691Y-144726053D01*
G37*
D16*
G04 #@! TD*
G04 #@! TO.P,R3,2*
G04 #@! TO.N,+5V*
X211987500Y-145200000D03*
D13*
G04 #@! TO.N,Net-(D3-Pad2)*
G04 #@! TO.C,R3*
G36*
X210652691Y-144726053D02*
X210673926Y-144729203D01*
X210694750Y-144734419D01*
X210714962Y-144741651D01*
X210734368Y-144750830D01*
X210752781Y-144761866D01*
X210770024Y-144774654D01*
X210785930Y-144789070D01*
X210800346Y-144804976D01*
X210813134Y-144822219D01*
X210824170Y-144840632D01*
X210833349Y-144860038D01*
X210840581Y-144880250D01*
X210845797Y-144901074D01*
X210848947Y-144922309D01*
X210850000Y-144943750D01*
X210850000Y-145456250D01*
X210848947Y-145477691D01*
X210845797Y-145498926D01*
X210840581Y-145519750D01*
X210833349Y-145539962D01*
X210824170Y-145559368D01*
X210813134Y-145577781D01*
X210800346Y-145595024D01*
X210785930Y-145610930D01*
X210770024Y-145625346D01*
X210752781Y-145638134D01*
X210734368Y-145649170D01*
X210714962Y-145658349D01*
X210694750Y-145665581D01*
X210673926Y-145670797D01*
X210652691Y-145673947D01*
X210631250Y-145675000D01*
X210193750Y-145675000D01*
X210172309Y-145673947D01*
X210151074Y-145670797D01*
X210130250Y-145665581D01*
X210110038Y-145658349D01*
X210090632Y-145649170D01*
X210072219Y-145638134D01*
X210054976Y-145625346D01*
X210039070Y-145610930D01*
X210024654Y-145595024D01*
X210011866Y-145577781D01*
X210000830Y-145559368D01*
X209991651Y-145539962D01*
X209984419Y-145519750D01*
X209979203Y-145498926D01*
X209976053Y-145477691D01*
X209975000Y-145456250D01*
X209975000Y-144943750D01*
X209976053Y-144922309D01*
X209979203Y-144901074D01*
X209984419Y-144880250D01*
X209991651Y-144860038D01*
X210000830Y-144840632D01*
X210011866Y-144822219D01*
X210024654Y-144804976D01*
X210039070Y-144789070D01*
X210054976Y-144774654D01*
X210072219Y-144761866D01*
X210090632Y-144750830D01*
X210110038Y-144741651D01*
X210130250Y-144734419D01*
X210151074Y-144729203D01*
X210172309Y-144726053D01*
X210193750Y-144725000D01*
X210631250Y-144725000D01*
X210652691Y-144726053D01*
X210652691Y-144726053D01*
G37*
D16*
G04 #@! TD*
G04 #@! TO.P,R3,1*
G04 #@! TO.N,Net-(D3-Pad2)*
X210412500Y-145200000D03*
D13*
G04 #@! TO.N,Net-(D3-Pad4)*
G04 #@! TO.C,R4*
G36*
X210652691Y-143126053D02*
X210673926Y-143129203D01*
X210694750Y-143134419D01*
X210714962Y-143141651D01*
X210734368Y-143150830D01*
X210752781Y-143161866D01*
X210770024Y-143174654D01*
X210785930Y-143189070D01*
X210800346Y-143204976D01*
X210813134Y-143222219D01*
X210824170Y-143240632D01*
X210833349Y-143260038D01*
X210840581Y-143280250D01*
X210845797Y-143301074D01*
X210848947Y-143322309D01*
X210850000Y-143343750D01*
X210850000Y-143856250D01*
X210848947Y-143877691D01*
X210845797Y-143898926D01*
X210840581Y-143919750D01*
X210833349Y-143939962D01*
X210824170Y-143959368D01*
X210813134Y-143977781D01*
X210800346Y-143995024D01*
X210785930Y-144010930D01*
X210770024Y-144025346D01*
X210752781Y-144038134D01*
X210734368Y-144049170D01*
X210714962Y-144058349D01*
X210694750Y-144065581D01*
X210673926Y-144070797D01*
X210652691Y-144073947D01*
X210631250Y-144075000D01*
X210193750Y-144075000D01*
X210172309Y-144073947D01*
X210151074Y-144070797D01*
X210130250Y-144065581D01*
X210110038Y-144058349D01*
X210090632Y-144049170D01*
X210072219Y-144038134D01*
X210054976Y-144025346D01*
X210039070Y-144010930D01*
X210024654Y-143995024D01*
X210011866Y-143977781D01*
X210000830Y-143959368D01*
X209991651Y-143939962D01*
X209984419Y-143919750D01*
X209979203Y-143898926D01*
X209976053Y-143877691D01*
X209975000Y-143856250D01*
X209975000Y-143343750D01*
X209976053Y-143322309D01*
X209979203Y-143301074D01*
X209984419Y-143280250D01*
X209991651Y-143260038D01*
X210000830Y-143240632D01*
X210011866Y-143222219D01*
X210024654Y-143204976D01*
X210039070Y-143189070D01*
X210054976Y-143174654D01*
X210072219Y-143161866D01*
X210090632Y-143150830D01*
X210110038Y-143141651D01*
X210130250Y-143134419D01*
X210151074Y-143129203D01*
X210172309Y-143126053D01*
X210193750Y-143125000D01*
X210631250Y-143125000D01*
X210652691Y-143126053D01*
X210652691Y-143126053D01*
G37*
D16*
G04 #@! TD*
G04 #@! TO.P,R4,1*
G04 #@! TO.N,Net-(D3-Pad4)*
X210412500Y-143600000D03*
D13*
G04 #@! TO.N,+5V*
G04 #@! TO.C,R4*
G36*
X212227691Y-143126053D02*
X212248926Y-143129203D01*
X212269750Y-143134419D01*
X212289962Y-143141651D01*
X212309368Y-143150830D01*
X212327781Y-143161866D01*
X212345024Y-143174654D01*
X212360930Y-143189070D01*
X212375346Y-143204976D01*
X212388134Y-143222219D01*
X212399170Y-143240632D01*
X212408349Y-143260038D01*
X212415581Y-143280250D01*
X212420797Y-143301074D01*
X212423947Y-143322309D01*
X212425000Y-143343750D01*
X212425000Y-143856250D01*
X212423947Y-143877691D01*
X212420797Y-143898926D01*
X212415581Y-143919750D01*
X212408349Y-143939962D01*
X212399170Y-143959368D01*
X212388134Y-143977781D01*
X212375346Y-143995024D01*
X212360930Y-144010930D01*
X212345024Y-144025346D01*
X212327781Y-144038134D01*
X212309368Y-144049170D01*
X212289962Y-144058349D01*
X212269750Y-144065581D01*
X212248926Y-144070797D01*
X212227691Y-144073947D01*
X212206250Y-144075000D01*
X211768750Y-144075000D01*
X211747309Y-144073947D01*
X211726074Y-144070797D01*
X211705250Y-144065581D01*
X211685038Y-144058349D01*
X211665632Y-144049170D01*
X211647219Y-144038134D01*
X211629976Y-144025346D01*
X211614070Y-144010930D01*
X211599654Y-143995024D01*
X211586866Y-143977781D01*
X211575830Y-143959368D01*
X211566651Y-143939962D01*
X211559419Y-143919750D01*
X211554203Y-143898926D01*
X211551053Y-143877691D01*
X211550000Y-143856250D01*
X211550000Y-143343750D01*
X211551053Y-143322309D01*
X211554203Y-143301074D01*
X211559419Y-143280250D01*
X211566651Y-143260038D01*
X211575830Y-143240632D01*
X211586866Y-143222219D01*
X211599654Y-143204976D01*
X211614070Y-143189070D01*
X211629976Y-143174654D01*
X211647219Y-143161866D01*
X211665632Y-143150830D01*
X211685038Y-143141651D01*
X211705250Y-143134419D01*
X211726074Y-143129203D01*
X211747309Y-143126053D01*
X211768750Y-143125000D01*
X212206250Y-143125000D01*
X212227691Y-143126053D01*
X212227691Y-143126053D01*
G37*
D16*
G04 #@! TD*
G04 #@! TO.P,R4,2*
G04 #@! TO.N,+5V*
X211987500Y-143600000D03*
D13*
G04 #@! TO.N,+5V*
G04 #@! TO.C,R5*
G36*
X213752691Y-144726053D02*
X213773926Y-144729203D01*
X213794750Y-144734419D01*
X213814962Y-144741651D01*
X213834368Y-144750830D01*
X213852781Y-144761866D01*
X213870024Y-144774654D01*
X213885930Y-144789070D01*
X213900346Y-144804976D01*
X213913134Y-144822219D01*
X213924170Y-144840632D01*
X213933349Y-144860038D01*
X213940581Y-144880250D01*
X213945797Y-144901074D01*
X213948947Y-144922309D01*
X213950000Y-144943750D01*
X213950000Y-145456250D01*
X213948947Y-145477691D01*
X213945797Y-145498926D01*
X213940581Y-145519750D01*
X213933349Y-145539962D01*
X213924170Y-145559368D01*
X213913134Y-145577781D01*
X213900346Y-145595024D01*
X213885930Y-145610930D01*
X213870024Y-145625346D01*
X213852781Y-145638134D01*
X213834368Y-145649170D01*
X213814962Y-145658349D01*
X213794750Y-145665581D01*
X213773926Y-145670797D01*
X213752691Y-145673947D01*
X213731250Y-145675000D01*
X213293750Y-145675000D01*
X213272309Y-145673947D01*
X213251074Y-145670797D01*
X213230250Y-145665581D01*
X213210038Y-145658349D01*
X213190632Y-145649170D01*
X213172219Y-145638134D01*
X213154976Y-145625346D01*
X213139070Y-145610930D01*
X213124654Y-145595024D01*
X213111866Y-145577781D01*
X213100830Y-145559368D01*
X213091651Y-145539962D01*
X213084419Y-145519750D01*
X213079203Y-145498926D01*
X213076053Y-145477691D01*
X213075000Y-145456250D01*
X213075000Y-144943750D01*
X213076053Y-144922309D01*
X213079203Y-144901074D01*
X213084419Y-144880250D01*
X213091651Y-144860038D01*
X213100830Y-144840632D01*
X213111866Y-144822219D01*
X213124654Y-144804976D01*
X213139070Y-144789070D01*
X213154976Y-144774654D01*
X213172219Y-144761866D01*
X213190632Y-144750830D01*
X213210038Y-144741651D01*
X213230250Y-144734419D01*
X213251074Y-144729203D01*
X213272309Y-144726053D01*
X213293750Y-144725000D01*
X213731250Y-144725000D01*
X213752691Y-144726053D01*
X213752691Y-144726053D01*
G37*
D16*
G04 #@! TD*
G04 #@! TO.P,R5,2*
G04 #@! TO.N,+5V*
X213512500Y-145200000D03*
D13*
G04 #@! TO.N,Net-(D4-Pad2)*
G04 #@! TO.C,R5*
G36*
X215327691Y-144726053D02*
X215348926Y-144729203D01*
X215369750Y-144734419D01*
X215389962Y-144741651D01*
X215409368Y-144750830D01*
X215427781Y-144761866D01*
X215445024Y-144774654D01*
X215460930Y-144789070D01*
X215475346Y-144804976D01*
X215488134Y-144822219D01*
X215499170Y-144840632D01*
X215508349Y-144860038D01*
X215515581Y-144880250D01*
X215520797Y-144901074D01*
X215523947Y-144922309D01*
X215525000Y-144943750D01*
X215525000Y-145456250D01*
X215523947Y-145477691D01*
X215520797Y-145498926D01*
X215515581Y-145519750D01*
X215508349Y-145539962D01*
X215499170Y-145559368D01*
X215488134Y-145577781D01*
X215475346Y-145595024D01*
X215460930Y-145610930D01*
X215445024Y-145625346D01*
X215427781Y-145638134D01*
X215409368Y-145649170D01*
X215389962Y-145658349D01*
X215369750Y-145665581D01*
X215348926Y-145670797D01*
X215327691Y-145673947D01*
X215306250Y-145675000D01*
X214868750Y-145675000D01*
X214847309Y-145673947D01*
X214826074Y-145670797D01*
X214805250Y-145665581D01*
X214785038Y-145658349D01*
X214765632Y-145649170D01*
X214747219Y-145638134D01*
X214729976Y-145625346D01*
X214714070Y-145610930D01*
X214699654Y-145595024D01*
X214686866Y-145577781D01*
X214675830Y-145559368D01*
X214666651Y-145539962D01*
X214659419Y-145519750D01*
X214654203Y-145498926D01*
X214651053Y-145477691D01*
X214650000Y-145456250D01*
X214650000Y-144943750D01*
X214651053Y-144922309D01*
X214654203Y-144901074D01*
X214659419Y-144880250D01*
X214666651Y-144860038D01*
X214675830Y-144840632D01*
X214686866Y-144822219D01*
X214699654Y-144804976D01*
X214714070Y-144789070D01*
X214729976Y-144774654D01*
X214747219Y-144761866D01*
X214765632Y-144750830D01*
X214785038Y-144741651D01*
X214805250Y-144734419D01*
X214826074Y-144729203D01*
X214847309Y-144726053D01*
X214868750Y-144725000D01*
X215306250Y-144725000D01*
X215327691Y-144726053D01*
X215327691Y-144726053D01*
G37*
D16*
G04 #@! TD*
G04 #@! TO.P,R5,1*
G04 #@! TO.N,Net-(D4-Pad2)*
X215087500Y-145200000D03*
D13*
G04 #@! TO.N,Net-(D4-Pad4)*
G04 #@! TO.C,R6*
G36*
X215327691Y-143126053D02*
X215348926Y-143129203D01*
X215369750Y-143134419D01*
X215389962Y-143141651D01*
X215409368Y-143150830D01*
X215427781Y-143161866D01*
X215445024Y-143174654D01*
X215460930Y-143189070D01*
X215475346Y-143204976D01*
X215488134Y-143222219D01*
X215499170Y-143240632D01*
X215508349Y-143260038D01*
X215515581Y-143280250D01*
X215520797Y-143301074D01*
X215523947Y-143322309D01*
X215525000Y-143343750D01*
X215525000Y-143856250D01*
X215523947Y-143877691D01*
X215520797Y-143898926D01*
X215515581Y-143919750D01*
X215508349Y-143939962D01*
X215499170Y-143959368D01*
X215488134Y-143977781D01*
X215475346Y-143995024D01*
X215460930Y-144010930D01*
X215445024Y-144025346D01*
X215427781Y-144038134D01*
X215409368Y-144049170D01*
X215389962Y-144058349D01*
X215369750Y-144065581D01*
X215348926Y-144070797D01*
X215327691Y-144073947D01*
X215306250Y-144075000D01*
X214868750Y-144075000D01*
X214847309Y-144073947D01*
X214826074Y-144070797D01*
X214805250Y-144065581D01*
X214785038Y-144058349D01*
X214765632Y-144049170D01*
X214747219Y-144038134D01*
X214729976Y-144025346D01*
X214714070Y-144010930D01*
X214699654Y-143995024D01*
X214686866Y-143977781D01*
X214675830Y-143959368D01*
X214666651Y-143939962D01*
X214659419Y-143919750D01*
X214654203Y-143898926D01*
X214651053Y-143877691D01*
X214650000Y-143856250D01*
X214650000Y-143343750D01*
X214651053Y-143322309D01*
X214654203Y-143301074D01*
X214659419Y-143280250D01*
X214666651Y-143260038D01*
X214675830Y-143240632D01*
X214686866Y-143222219D01*
X214699654Y-143204976D01*
X214714070Y-143189070D01*
X214729976Y-143174654D01*
X214747219Y-143161866D01*
X214765632Y-143150830D01*
X214785038Y-143141651D01*
X214805250Y-143134419D01*
X214826074Y-143129203D01*
X214847309Y-143126053D01*
X214868750Y-143125000D01*
X215306250Y-143125000D01*
X215327691Y-143126053D01*
X215327691Y-143126053D01*
G37*
D16*
G04 #@! TD*
G04 #@! TO.P,R6,1*
G04 #@! TO.N,Net-(D4-Pad4)*
X215087500Y-143600000D03*
D13*
G04 #@! TO.N,+5V*
G04 #@! TO.C,R6*
G36*
X213752691Y-143126053D02*
X213773926Y-143129203D01*
X213794750Y-143134419D01*
X213814962Y-143141651D01*
X213834368Y-143150830D01*
X213852781Y-143161866D01*
X213870024Y-143174654D01*
X213885930Y-143189070D01*
X213900346Y-143204976D01*
X213913134Y-143222219D01*
X213924170Y-143240632D01*
X213933349Y-143260038D01*
X213940581Y-143280250D01*
X213945797Y-143301074D01*
X213948947Y-143322309D01*
X213950000Y-143343750D01*
X213950000Y-143856250D01*
X213948947Y-143877691D01*
X213945797Y-143898926D01*
X213940581Y-143919750D01*
X213933349Y-143939962D01*
X213924170Y-143959368D01*
X213913134Y-143977781D01*
X213900346Y-143995024D01*
X213885930Y-144010930D01*
X213870024Y-144025346D01*
X213852781Y-144038134D01*
X213834368Y-144049170D01*
X213814962Y-144058349D01*
X213794750Y-144065581D01*
X213773926Y-144070797D01*
X213752691Y-144073947D01*
X213731250Y-144075000D01*
X213293750Y-144075000D01*
X213272309Y-144073947D01*
X213251074Y-144070797D01*
X213230250Y-144065581D01*
X213210038Y-144058349D01*
X213190632Y-144049170D01*
X213172219Y-144038134D01*
X213154976Y-144025346D01*
X213139070Y-144010930D01*
X213124654Y-143995024D01*
X213111866Y-143977781D01*
X213100830Y-143959368D01*
X213091651Y-143939962D01*
X213084419Y-143919750D01*
X213079203Y-143898926D01*
X213076053Y-143877691D01*
X213075000Y-143856250D01*
X213075000Y-143343750D01*
X213076053Y-143322309D01*
X213079203Y-143301074D01*
X213084419Y-143280250D01*
X213091651Y-143260038D01*
X213100830Y-143240632D01*
X213111866Y-143222219D01*
X213124654Y-143204976D01*
X213139070Y-143189070D01*
X213154976Y-143174654D01*
X213172219Y-143161866D01*
X213190632Y-143150830D01*
X213210038Y-143141651D01*
X213230250Y-143134419D01*
X213251074Y-143129203D01*
X213272309Y-143126053D01*
X213293750Y-143125000D01*
X213731250Y-143125000D01*
X213752691Y-143126053D01*
X213752691Y-143126053D01*
G37*
D16*
G04 #@! TD*
G04 #@! TO.P,R6,2*
G04 #@! TO.N,+5V*
X213512500Y-143600000D03*
D13*
G04 #@! TO.N,GND*
G04 #@! TO.C,R8*
G36*
X231577691Y-101376053D02*
X231598926Y-101379203D01*
X231619750Y-101384419D01*
X231639962Y-101391651D01*
X231659368Y-101400830D01*
X231677781Y-101411866D01*
X231695024Y-101424654D01*
X231710930Y-101439070D01*
X231725346Y-101454976D01*
X231738134Y-101472219D01*
X231749170Y-101490632D01*
X231758349Y-101510038D01*
X231765581Y-101530250D01*
X231770797Y-101551074D01*
X231773947Y-101572309D01*
X231775000Y-101593750D01*
X231775000Y-102031250D01*
X231773947Y-102052691D01*
X231770797Y-102073926D01*
X231765581Y-102094750D01*
X231758349Y-102114962D01*
X231749170Y-102134368D01*
X231738134Y-102152781D01*
X231725346Y-102170024D01*
X231710930Y-102185930D01*
X231695024Y-102200346D01*
X231677781Y-102213134D01*
X231659368Y-102224170D01*
X231639962Y-102233349D01*
X231619750Y-102240581D01*
X231598926Y-102245797D01*
X231577691Y-102248947D01*
X231556250Y-102250000D01*
X231043750Y-102250000D01*
X231022309Y-102248947D01*
X231001074Y-102245797D01*
X230980250Y-102240581D01*
X230960038Y-102233349D01*
X230940632Y-102224170D01*
X230922219Y-102213134D01*
X230904976Y-102200346D01*
X230889070Y-102185930D01*
X230874654Y-102170024D01*
X230861866Y-102152781D01*
X230850830Y-102134368D01*
X230841651Y-102114962D01*
X230834419Y-102094750D01*
X230829203Y-102073926D01*
X230826053Y-102052691D01*
X230825000Y-102031250D01*
X230825000Y-101593750D01*
X230826053Y-101572309D01*
X230829203Y-101551074D01*
X230834419Y-101530250D01*
X230841651Y-101510038D01*
X230850830Y-101490632D01*
X230861866Y-101472219D01*
X230874654Y-101454976D01*
X230889070Y-101439070D01*
X230904976Y-101424654D01*
X230922219Y-101411866D01*
X230940632Y-101400830D01*
X230960038Y-101391651D01*
X230980250Y-101384419D01*
X231001074Y-101379203D01*
X231022309Y-101376053D01*
X231043750Y-101375000D01*
X231556250Y-101375000D01*
X231577691Y-101376053D01*
X231577691Y-101376053D01*
G37*
D16*
G04 #@! TD*
G04 #@! TO.P,R8,2*
G04 #@! TO.N,GND*
X231300000Y-101812500D03*
D13*
G04 #@! TO.N,/LED_850*
G04 #@! TO.C,R8*
G36*
X231577691Y-102951053D02*
X231598926Y-102954203D01*
X231619750Y-102959419D01*
X231639962Y-102966651D01*
X231659368Y-102975830D01*
X231677781Y-102986866D01*
X231695024Y-102999654D01*
X231710930Y-103014070D01*
X231725346Y-103029976D01*
X231738134Y-103047219D01*
X231749170Y-103065632D01*
X231758349Y-103085038D01*
X231765581Y-103105250D01*
X231770797Y-103126074D01*
X231773947Y-103147309D01*
X231775000Y-103168750D01*
X231775000Y-103606250D01*
X231773947Y-103627691D01*
X231770797Y-103648926D01*
X231765581Y-103669750D01*
X231758349Y-103689962D01*
X231749170Y-103709368D01*
X231738134Y-103727781D01*
X231725346Y-103745024D01*
X231710930Y-103760930D01*
X231695024Y-103775346D01*
X231677781Y-103788134D01*
X231659368Y-103799170D01*
X231639962Y-103808349D01*
X231619750Y-103815581D01*
X231598926Y-103820797D01*
X231577691Y-103823947D01*
X231556250Y-103825000D01*
X231043750Y-103825000D01*
X231022309Y-103823947D01*
X231001074Y-103820797D01*
X230980250Y-103815581D01*
X230960038Y-103808349D01*
X230940632Y-103799170D01*
X230922219Y-103788134D01*
X230904976Y-103775346D01*
X230889070Y-103760930D01*
X230874654Y-103745024D01*
X230861866Y-103727781D01*
X230850830Y-103709368D01*
X230841651Y-103689962D01*
X230834419Y-103669750D01*
X230829203Y-103648926D01*
X230826053Y-103627691D01*
X230825000Y-103606250D01*
X230825000Y-103168750D01*
X230826053Y-103147309D01*
X230829203Y-103126074D01*
X230834419Y-103105250D01*
X230841651Y-103085038D01*
X230850830Y-103065632D01*
X230861866Y-103047219D01*
X230874654Y-103029976D01*
X230889070Y-103014070D01*
X230904976Y-102999654D01*
X230922219Y-102986866D01*
X230940632Y-102975830D01*
X230960038Y-102966651D01*
X230980250Y-102959419D01*
X231001074Y-102954203D01*
X231022309Y-102951053D01*
X231043750Y-102950000D01*
X231556250Y-102950000D01*
X231577691Y-102951053D01*
X231577691Y-102951053D01*
G37*
D16*
G04 #@! TD*
G04 #@! TO.P,R8,1*
G04 #@! TO.N,/LED_850*
X231300000Y-103387500D03*
D13*
G04 #@! TO.N,Net-(D1-Pad2)*
G04 #@! TO.C,D1*
G36*
X247680142Y-107176174D02*
X247703803Y-107179684D01*
X247727007Y-107185496D01*
X247749529Y-107193554D01*
X247771153Y-107203782D01*
X247791670Y-107216079D01*
X247810883Y-107230329D01*
X247828607Y-107246393D01*
X247844671Y-107264117D01*
X247858921Y-107283330D01*
X247871218Y-107303847D01*
X247881446Y-107325471D01*
X247889504Y-107347993D01*
X247895316Y-107371197D01*
X247898826Y-107394858D01*
X247900000Y-107418750D01*
X247900000Y-107906250D01*
X247898826Y-107930142D01*
X247895316Y-107953803D01*
X247889504Y-107977007D01*
X247881446Y-107999529D01*
X247871218Y-108021153D01*
X247858921Y-108041670D01*
X247844671Y-108060883D01*
X247828607Y-108078607D01*
X247810883Y-108094671D01*
X247791670Y-108108921D01*
X247771153Y-108121218D01*
X247749529Y-108131446D01*
X247727007Y-108139504D01*
X247703803Y-108145316D01*
X247680142Y-108148826D01*
X247656250Y-108150000D01*
X246743750Y-108150000D01*
X246719858Y-108148826D01*
X246696197Y-108145316D01*
X246672993Y-108139504D01*
X246650471Y-108131446D01*
X246628847Y-108121218D01*
X246608330Y-108108921D01*
X246589117Y-108094671D01*
X246571393Y-108078607D01*
X246555329Y-108060883D01*
X246541079Y-108041670D01*
X246528782Y-108021153D01*
X246518554Y-107999529D01*
X246510496Y-107977007D01*
X246504684Y-107953803D01*
X246501174Y-107930142D01*
X246500000Y-107906250D01*
X246500000Y-107418750D01*
X246501174Y-107394858D01*
X246504684Y-107371197D01*
X246510496Y-107347993D01*
X246518554Y-107325471D01*
X246528782Y-107303847D01*
X246541079Y-107283330D01*
X246555329Y-107264117D01*
X246571393Y-107246393D01*
X246589117Y-107230329D01*
X246608330Y-107216079D01*
X246628847Y-107203782D01*
X246650471Y-107193554D01*
X246672993Y-107185496D01*
X246696197Y-107179684D01*
X246719858Y-107176174D01*
X246743750Y-107175000D01*
X247656250Y-107175000D01*
X247680142Y-107176174D01*
X247680142Y-107176174D01*
G37*
D17*
G04 #@! TD*
G04 #@! TO.P,D1,2*
G04 #@! TO.N,Net-(D1-Pad2)*
X247200000Y-107662500D03*
D13*
G04 #@! TO.N,GND*
G04 #@! TO.C,D1*
G36*
X247680142Y-109051174D02*
X247703803Y-109054684D01*
X247727007Y-109060496D01*
X247749529Y-109068554D01*
X247771153Y-109078782D01*
X247791670Y-109091079D01*
X247810883Y-109105329D01*
X247828607Y-109121393D01*
X247844671Y-109139117D01*
X247858921Y-109158330D01*
X247871218Y-109178847D01*
X247881446Y-109200471D01*
X247889504Y-109222993D01*
X247895316Y-109246197D01*
X247898826Y-109269858D01*
X247900000Y-109293750D01*
X247900000Y-109781250D01*
X247898826Y-109805142D01*
X247895316Y-109828803D01*
X247889504Y-109852007D01*
X247881446Y-109874529D01*
X247871218Y-109896153D01*
X247858921Y-109916670D01*
X247844671Y-109935883D01*
X247828607Y-109953607D01*
X247810883Y-109969671D01*
X247791670Y-109983921D01*
X247771153Y-109996218D01*
X247749529Y-110006446D01*
X247727007Y-110014504D01*
X247703803Y-110020316D01*
X247680142Y-110023826D01*
X247656250Y-110025000D01*
X246743750Y-110025000D01*
X246719858Y-110023826D01*
X246696197Y-110020316D01*
X246672993Y-110014504D01*
X246650471Y-110006446D01*
X246628847Y-109996218D01*
X246608330Y-109983921D01*
X246589117Y-109969671D01*
X246571393Y-109953607D01*
X246555329Y-109935883D01*
X246541079Y-109916670D01*
X246528782Y-109896153D01*
X246518554Y-109874529D01*
X246510496Y-109852007D01*
X246504684Y-109828803D01*
X246501174Y-109805142D01*
X246500000Y-109781250D01*
X246500000Y-109293750D01*
X246501174Y-109269858D01*
X246504684Y-109246197D01*
X246510496Y-109222993D01*
X246518554Y-109200471D01*
X246528782Y-109178847D01*
X246541079Y-109158330D01*
X246555329Y-109139117D01*
X246571393Y-109121393D01*
X246589117Y-109105329D01*
X246608330Y-109091079D01*
X246628847Y-109078782D01*
X246650471Y-109068554D01*
X246672993Y-109060496D01*
X246696197Y-109054684D01*
X246719858Y-109051174D01*
X246743750Y-109050000D01*
X247656250Y-109050000D01*
X247680142Y-109051174D01*
X247680142Y-109051174D01*
G37*
D17*
G04 #@! TD*
G04 #@! TO.P,D1,1*
G04 #@! TO.N,GND*
X247200000Y-109537500D03*
D13*
G04 #@! TO.N,GND*
G04 #@! TO.C,D2*
G36*
X251880142Y-109113674D02*
X251903803Y-109117184D01*
X251927007Y-109122996D01*
X251949529Y-109131054D01*
X251971153Y-109141282D01*
X251991670Y-109153579D01*
X252010883Y-109167829D01*
X252028607Y-109183893D01*
X252044671Y-109201617D01*
X252058921Y-109220830D01*
X252071218Y-109241347D01*
X252081446Y-109262971D01*
X252089504Y-109285493D01*
X252095316Y-109308697D01*
X252098826Y-109332358D01*
X252100000Y-109356250D01*
X252100000Y-109843750D01*
X252098826Y-109867642D01*
X252095316Y-109891303D01*
X252089504Y-109914507D01*
X252081446Y-109937029D01*
X252071218Y-109958653D01*
X252058921Y-109979170D01*
X252044671Y-109998383D01*
X252028607Y-110016107D01*
X252010883Y-110032171D01*
X251991670Y-110046421D01*
X251971153Y-110058718D01*
X251949529Y-110068946D01*
X251927007Y-110077004D01*
X251903803Y-110082816D01*
X251880142Y-110086326D01*
X251856250Y-110087500D01*
X250943750Y-110087500D01*
X250919858Y-110086326D01*
X250896197Y-110082816D01*
X250872993Y-110077004D01*
X250850471Y-110068946D01*
X250828847Y-110058718D01*
X250808330Y-110046421D01*
X250789117Y-110032171D01*
X250771393Y-110016107D01*
X250755329Y-109998383D01*
X250741079Y-109979170D01*
X250728782Y-109958653D01*
X250718554Y-109937029D01*
X250710496Y-109914507D01*
X250704684Y-109891303D01*
X250701174Y-109867642D01*
X250700000Y-109843750D01*
X250700000Y-109356250D01*
X250701174Y-109332358D01*
X250704684Y-109308697D01*
X250710496Y-109285493D01*
X250718554Y-109262971D01*
X250728782Y-109241347D01*
X250741079Y-109220830D01*
X250755329Y-109201617D01*
X250771393Y-109183893D01*
X250789117Y-109167829D01*
X250808330Y-109153579D01*
X250828847Y-109141282D01*
X250850471Y-109131054D01*
X250872993Y-109122996D01*
X250896197Y-109117184D01*
X250919858Y-109113674D01*
X250943750Y-109112500D01*
X251856250Y-109112500D01*
X251880142Y-109113674D01*
X251880142Y-109113674D01*
G37*
D17*
G04 #@! TD*
G04 #@! TO.P,D2,1*
G04 #@! TO.N,GND*
X251400000Y-109600000D03*
D13*
G04 #@! TO.N,Net-(D2-Pad2)*
G04 #@! TO.C,D2*
G36*
X251880142Y-107238674D02*
X251903803Y-107242184D01*
X251927007Y-107247996D01*
X251949529Y-107256054D01*
X251971153Y-107266282D01*
X251991670Y-107278579D01*
X252010883Y-107292829D01*
X252028607Y-107308893D01*
X252044671Y-107326617D01*
X252058921Y-107345830D01*
X252071218Y-107366347D01*
X252081446Y-107387971D01*
X252089504Y-107410493D01*
X252095316Y-107433697D01*
X252098826Y-107457358D01*
X252100000Y-107481250D01*
X252100000Y-107968750D01*
X252098826Y-107992642D01*
X252095316Y-108016303D01*
X252089504Y-108039507D01*
X252081446Y-108062029D01*
X252071218Y-108083653D01*
X252058921Y-108104170D01*
X252044671Y-108123383D01*
X252028607Y-108141107D01*
X252010883Y-108157171D01*
X251991670Y-108171421D01*
X251971153Y-108183718D01*
X251949529Y-108193946D01*
X251927007Y-108202004D01*
X251903803Y-108207816D01*
X251880142Y-108211326D01*
X251856250Y-108212500D01*
X250943750Y-108212500D01*
X250919858Y-108211326D01*
X250896197Y-108207816D01*
X250872993Y-108202004D01*
X250850471Y-108193946D01*
X250828847Y-108183718D01*
X250808330Y-108171421D01*
X250789117Y-108157171D01*
X250771393Y-108141107D01*
X250755329Y-108123383D01*
X250741079Y-108104170D01*
X250728782Y-108083653D01*
X250718554Y-108062029D01*
X250710496Y-108039507D01*
X250704684Y-108016303D01*
X250701174Y-107992642D01*
X250700000Y-107968750D01*
X250700000Y-107481250D01*
X250701174Y-107457358D01*
X250704684Y-107433697D01*
X250710496Y-107410493D01*
X250718554Y-107387971D01*
X250728782Y-107366347D01*
X250741079Y-107345830D01*
X250755329Y-107326617D01*
X250771393Y-107308893D01*
X250789117Y-107292829D01*
X250808330Y-107278579D01*
X250828847Y-107266282D01*
X250850471Y-107256054D01*
X250872993Y-107247996D01*
X250896197Y-107242184D01*
X250919858Y-107238674D01*
X250943750Y-107237500D01*
X251856250Y-107237500D01*
X251880142Y-107238674D01*
X251880142Y-107238674D01*
G37*
D17*
G04 #@! TD*
G04 #@! TO.P,D2,2*
G04 #@! TO.N,Net-(D2-Pad2)*
X251400000Y-107725000D03*
D14*
G04 #@! TO.P,D7,2*
G04 #@! TO.N,Net-(D5-Pad1)*
X223400000Y-104250000D03*
G04 #@! TO.P,D7,1*
G04 #@! TO.N,Net-(D7-Pad1)*
X220600000Y-104250000D03*
G04 #@! TO.P,D7,3*
G04 #@! TO.N,Net-(D7-Pad3)*
X223400000Y-105750000D03*
G04 #@! TO.P,D7,4*
G04 #@! TO.N,Net-(D5-Pad3)*
X220600000Y-105750000D03*
G04 #@! TD*
D12*
G04 #@! TO.P,D8,4*
G04 #@! TO.N,Net-(D6-Pad3)*
X240520280Y-114459619D03*
D13*
G04 #@! TD*
G04 #@! TO.N,Net-(D6-Pad3)*
G04 #@! TO.C,D8*
G36*
X240732412Y-115449568D02*
X239530331Y-114247487D01*
X240308148Y-113469670D01*
X241510229Y-114671751D01*
X240732412Y-115449568D01*
X240732412Y-115449568D01*
G37*
D12*
G04 #@! TO.P,D8,3*
G04 #@! TO.N,Net-(D7-Pad3)*
X238540381Y-112479720D03*
D13*
G04 #@! TD*
G04 #@! TO.N,Net-(D7-Pad3)*
G04 #@! TO.C,D8*
G36*
X238752513Y-113469669D02*
X237550432Y-112267588D01*
X238328249Y-111489771D01*
X239530330Y-112691852D01*
X238752513Y-113469669D01*
X238752513Y-113469669D01*
G37*
D12*
G04 #@! TO.P,D8,1*
G04 #@! TO.N,Net-(D7-Pad1)*
X239459619Y-115520280D03*
D13*
G04 #@! TD*
G04 #@! TO.N,Net-(D7-Pad1)*
G04 #@! TO.C,D8*
G36*
X239671751Y-116510229D02*
X238469670Y-115308148D01*
X239247487Y-114530331D01*
X240449568Y-115732412D01*
X239671751Y-116510229D01*
X239671751Y-116510229D01*
G37*
D12*
G04 #@! TO.P,D8,2*
G04 #@! TO.N,Net-(D6-Pad1)*
X237479720Y-113540381D03*
D13*
G04 #@! TD*
G04 #@! TO.N,Net-(D6-Pad1)*
G04 #@! TO.C,D8*
G36*
X237691852Y-114530330D02*
X236489771Y-113328249D01*
X237267588Y-112550432D01*
X238469669Y-113752513D01*
X237691852Y-114530330D01*
X237691852Y-114530330D01*
G37*
G04 #@! TO.N,/LED_940*
G04 #@! TO.C,R7*
G36*
X229977691Y-102951053D02*
X229998926Y-102954203D01*
X230019750Y-102959419D01*
X230039962Y-102966651D01*
X230059368Y-102975830D01*
X230077781Y-102986866D01*
X230095024Y-102999654D01*
X230110930Y-103014070D01*
X230125346Y-103029976D01*
X230138134Y-103047219D01*
X230149170Y-103065632D01*
X230158349Y-103085038D01*
X230165581Y-103105250D01*
X230170797Y-103126074D01*
X230173947Y-103147309D01*
X230175000Y-103168750D01*
X230175000Y-103606250D01*
X230173947Y-103627691D01*
X230170797Y-103648926D01*
X230165581Y-103669750D01*
X230158349Y-103689962D01*
X230149170Y-103709368D01*
X230138134Y-103727781D01*
X230125346Y-103745024D01*
X230110930Y-103760930D01*
X230095024Y-103775346D01*
X230077781Y-103788134D01*
X230059368Y-103799170D01*
X230039962Y-103808349D01*
X230019750Y-103815581D01*
X229998926Y-103820797D01*
X229977691Y-103823947D01*
X229956250Y-103825000D01*
X229443750Y-103825000D01*
X229422309Y-103823947D01*
X229401074Y-103820797D01*
X229380250Y-103815581D01*
X229360038Y-103808349D01*
X229340632Y-103799170D01*
X229322219Y-103788134D01*
X229304976Y-103775346D01*
X229289070Y-103760930D01*
X229274654Y-103745024D01*
X229261866Y-103727781D01*
X229250830Y-103709368D01*
X229241651Y-103689962D01*
X229234419Y-103669750D01*
X229229203Y-103648926D01*
X229226053Y-103627691D01*
X229225000Y-103606250D01*
X229225000Y-103168750D01*
X229226053Y-103147309D01*
X229229203Y-103126074D01*
X229234419Y-103105250D01*
X229241651Y-103085038D01*
X229250830Y-103065632D01*
X229261866Y-103047219D01*
X229274654Y-103029976D01*
X229289070Y-103014070D01*
X229304976Y-102999654D01*
X229322219Y-102986866D01*
X229340632Y-102975830D01*
X229360038Y-102966651D01*
X229380250Y-102959419D01*
X229401074Y-102954203D01*
X229422309Y-102951053D01*
X229443750Y-102950000D01*
X229956250Y-102950000D01*
X229977691Y-102951053D01*
X229977691Y-102951053D01*
G37*
D16*
G04 #@! TD*
G04 #@! TO.P,R7,1*
G04 #@! TO.N,/LED_940*
X229700000Y-103387500D03*
D13*
G04 #@! TO.N,GND*
G04 #@! TO.C,R7*
G36*
X229977691Y-101376053D02*
X229998926Y-101379203D01*
X230019750Y-101384419D01*
X230039962Y-101391651D01*
X230059368Y-101400830D01*
X230077781Y-101411866D01*
X230095024Y-101424654D01*
X230110930Y-101439070D01*
X230125346Y-101454976D01*
X230138134Y-101472219D01*
X230149170Y-101490632D01*
X230158349Y-101510038D01*
X230165581Y-101530250D01*
X230170797Y-101551074D01*
X230173947Y-101572309D01*
X230175000Y-101593750D01*
X230175000Y-102031250D01*
X230173947Y-102052691D01*
X230170797Y-102073926D01*
X230165581Y-102094750D01*
X230158349Y-102114962D01*
X230149170Y-102134368D01*
X230138134Y-102152781D01*
X230125346Y-102170024D01*
X230110930Y-102185930D01*
X230095024Y-102200346D01*
X230077781Y-102213134D01*
X230059368Y-102224170D01*
X230039962Y-102233349D01*
X230019750Y-102240581D01*
X229998926Y-102245797D01*
X229977691Y-102248947D01*
X229956250Y-102250000D01*
X229443750Y-102250000D01*
X229422309Y-102248947D01*
X229401074Y-102245797D01*
X229380250Y-102240581D01*
X229360038Y-102233349D01*
X229340632Y-102224170D01*
X229322219Y-102213134D01*
X229304976Y-102200346D01*
X229289070Y-102185930D01*
X229274654Y-102170024D01*
X229261866Y-102152781D01*
X229250830Y-102134368D01*
X229241651Y-102114962D01*
X229234419Y-102094750D01*
X229229203Y-102073926D01*
X229226053Y-102052691D01*
X229225000Y-102031250D01*
X229225000Y-101593750D01*
X229226053Y-101572309D01*
X229229203Y-101551074D01*
X229234419Y-101530250D01*
X229241651Y-101510038D01*
X229250830Y-101490632D01*
X229261866Y-101472219D01*
X229274654Y-101454976D01*
X229289070Y-101439070D01*
X229304976Y-101424654D01*
X229322219Y-101411866D01*
X229340632Y-101400830D01*
X229360038Y-101391651D01*
X229380250Y-101384419D01*
X229401074Y-101379203D01*
X229422309Y-101376053D01*
X229443750Y-101375000D01*
X229956250Y-101375000D01*
X229977691Y-101376053D01*
X229977691Y-101376053D01*
G37*
D16*
G04 #@! TD*
G04 #@! TO.P,R7,2*
G04 #@! TO.N,GND*
X229700000Y-101812500D03*
D18*
G04 #@! TO.N,GND*
X234000000Y-109800000D03*
X235600000Y-111500000D03*
X234300000Y-112700000D03*
X231900000Y-112000000D03*
X230000000Y-108400000D03*
X227000000Y-108600000D03*
X260000000Y-105000000D03*
X260000000Y-115000000D03*
X260000000Y-125000000D03*
X260000000Y-135000000D03*
X250000000Y-120000000D03*
X250000000Y-130000000D03*
X250000000Y-140000000D03*
X250000000Y-110000000D03*
X240000000Y-105000000D03*
X240000000Y-145000000D03*
X210000000Y-105000000D03*
X207400000Y-148100000D03*
X219400000Y-148300000D03*
G04 #@! TO.N,/LED_READY*
X237000000Y-102000000D03*
X224700000Y-101400000D03*
G04 #@! TO.N,/LED_BOOT*
X239100000Y-101300000D03*
X225700000Y-101100000D03*
G04 #@! TO.N,/LED_940*
X229600000Y-104700000D03*
X229000005Y-109500000D03*
G04 #@! TO.N,/LED_850*
X231300000Y-104700000D03*
X231299987Y-108200013D03*
G04 #@! TD*
D19*
G04 #@! TO.N,+5V*
X212800000Y-145200000D02*
X212800000Y-143600000D01*
X212800000Y-143600000D02*
X213512500Y-143600000D01*
X211987500Y-143600000D02*
X212800000Y-143600000D01*
X212800000Y-145200000D02*
X211987500Y-145200000D01*
X213512500Y-145200000D02*
X212800000Y-145200000D01*
X210910000Y-96230000D02*
X208370000Y-96230000D01*
X206600000Y-98000000D02*
X208370000Y-96230000D01*
X206600000Y-103800000D02*
X206600000Y-98000000D01*
X212800000Y-146100000D02*
X212200000Y-146700000D01*
X212800000Y-145200000D02*
X212800000Y-146100000D01*
X212200000Y-146700000D02*
X209500000Y-146700000D01*
X209500000Y-146700000D02*
X200800000Y-138000000D01*
X200800000Y-138000000D02*
X200800000Y-109600000D01*
X200800000Y-109600000D02*
X206600000Y-103800000D01*
D20*
G04 #@! TO.N,Net-(D1-Pad2)*
X247200000Y-106087500D02*
X247200000Y-107662500D01*
G04 #@! TO.N,Net-(D2-Pad2)*
X251400000Y-106187500D02*
X251400000Y-107725000D01*
D21*
G04 #@! TO.N,Net-(D3-Pad1)*
X204787869Y-135848530D02*
X205459619Y-136520280D01*
X203100000Y-116960661D02*
X203100000Y-129900000D01*
X204540381Y-115520280D02*
X203100000Y-116960661D01*
X206300000Y-133100000D02*
X206300000Y-133700000D01*
X206300000Y-133700000D02*
X204787869Y-135212131D01*
X203100000Y-129900000D02*
X206300000Y-133100000D01*
X204787869Y-135212131D02*
X204787869Y-135848530D01*
G04 #@! TO.N,Net-(D3-Pad3)*
X201900000Y-130839339D02*
X204540381Y-133479720D01*
X201900000Y-113300000D02*
X201900000Y-130839339D01*
X203900000Y-111300000D02*
X201900000Y-113300000D01*
X205459619Y-112479720D02*
X204279899Y-111300000D01*
X204279899Y-111300000D02*
X203900000Y-111300000D01*
G04 #@! TO.N,Net-(D4-Pad3)*
X221750000Y-144249999D02*
X220600000Y-144249999D01*
X222100000Y-144599999D02*
X221750000Y-144249999D01*
X222100000Y-147200000D02*
X222100000Y-144599999D01*
X238787869Y-134151470D02*
X238787869Y-134787869D01*
X239459619Y-133479720D02*
X238787869Y-134151470D01*
X222400000Y-147500000D02*
X222100000Y-147200000D01*
X238787869Y-134787869D02*
X241000000Y-137000000D01*
X241000000Y-137000000D02*
X241000000Y-137500000D01*
X241000000Y-137500000D02*
X231000000Y-147500000D01*
X231000000Y-147500000D02*
X222400000Y-147500000D01*
G04 #@! TO.N,Net-(D4-Pad1)*
X230449999Y-145750001D02*
X223400000Y-145750001D01*
X237400000Y-138800000D02*
X230449999Y-145750001D01*
X237400000Y-137700000D02*
X237400000Y-138800000D01*
X238949519Y-136587436D02*
X238512564Y-136587436D01*
X238512564Y-136587436D02*
X237400000Y-137700000D01*
G04 #@! TO.N,Net-(D5-Pad3)*
X204151470Y-113787869D02*
X203479720Y-114459619D01*
X204787869Y-113787869D02*
X204151470Y-113787869D01*
X206000000Y-115000000D02*
X204787869Y-113787869D01*
X207300000Y-115000000D02*
X206000000Y-115000000D01*
X220600000Y-105750000D02*
X216550000Y-105750000D01*
X216550000Y-105750000D02*
X207300000Y-115000000D01*
G04 #@! TO.N,Net-(D5-Pad1)*
X223400000Y-103300000D02*
X223400000Y-104250000D01*
X223200000Y-103100000D02*
X223400000Y-103300000D01*
X206520280Y-113540381D02*
X216960661Y-103100000D01*
X216960661Y-103100000D02*
X223200000Y-103100000D01*
D20*
G04 #@! TO.N,/LED_READY*
X247200000Y-103900000D02*
X245300000Y-102000000D01*
X247200000Y-104512500D02*
X247200000Y-103900000D01*
X245300000Y-102000000D02*
X237424264Y-102000000D01*
X237424264Y-102000000D02*
X237000000Y-102000000D01*
X224275736Y-101400000D02*
X224700000Y-101400000D01*
X215990000Y-98770000D02*
X218620000Y-101400000D01*
X218620000Y-101400000D02*
X224275736Y-101400000D01*
G04 #@! TO.N,/LED_BOOT*
X239524264Y-101300000D02*
X239100000Y-101300000D01*
X248087500Y-101300000D02*
X239524264Y-101300000D01*
X251400000Y-104612500D02*
X248087500Y-101300000D01*
X218857999Y-100800001D02*
X224411997Y-100800001D01*
X217140001Y-99082003D02*
X218857999Y-100800001D01*
X224411997Y-100800001D02*
X224411999Y-100799999D01*
X224411999Y-100799999D02*
X225399999Y-100799999D01*
X225399999Y-100799999D02*
X225400001Y-100800001D01*
X225400001Y-100800001D02*
X225700000Y-101100000D01*
X215990000Y-96230000D02*
X217140001Y-97380001D01*
X217140001Y-97380001D02*
X217140001Y-99082003D01*
G04 #@! TO.N,/LED_940*
X229700000Y-104600000D02*
X229700000Y-103387500D01*
X229600000Y-104700000D02*
X229700000Y-104600000D01*
X229000005Y-109775005D02*
X229000005Y-109500000D01*
X229425000Y-110200000D02*
X229000005Y-109775005D01*
X229950000Y-110200000D02*
X229425000Y-110200000D01*
X221919999Y-97079999D02*
X221070000Y-96230000D01*
X229087500Y-103387500D02*
X226000000Y-100300000D01*
X229700000Y-103387500D02*
X229087500Y-103387500D01*
X226000000Y-100300000D02*
X223200000Y-100300000D01*
X223200000Y-100300000D02*
X222300000Y-99400000D01*
X222300000Y-99400000D02*
X222300000Y-97460000D01*
X222300000Y-97460000D02*
X221919999Y-97079999D01*
G04 #@! TO.N,/LED_850*
X231300000Y-104700000D02*
X231300000Y-103387500D01*
X231200000Y-108300000D02*
X231299987Y-108200013D01*
X231200000Y-110075000D02*
X231200000Y-108300000D01*
X231850000Y-110200000D02*
X231325000Y-110200000D01*
X231325000Y-110200000D02*
X231200000Y-110075000D01*
X247180000Y-100600000D02*
X249010000Y-98770000D01*
X236300000Y-100600000D02*
X247180000Y-100600000D01*
X231300000Y-103387500D02*
X233512500Y-103387500D01*
X233512500Y-103387500D02*
X236300000Y-100600000D01*
D21*
G04 #@! TO.N,Net-(D3-Pad2)*
X202500000Y-135520101D02*
X203479720Y-134540381D01*
X210412500Y-145200000D02*
X202500000Y-137287500D01*
X202500000Y-137287500D02*
X202500000Y-135520101D01*
G04 #@! TO.N,Net-(D3-Pad4)*
X209100000Y-138039339D02*
X206520280Y-135459619D01*
X209100000Y-143000000D02*
X209100000Y-138039339D01*
X210412500Y-143600000D02*
X209700000Y-143600000D01*
X209700000Y-143600000D02*
X209100000Y-143000000D01*
G04 #@! TO.N,Net-(D4-Pad4)*
X223400000Y-143700000D02*
X223400000Y-144249999D01*
X222800000Y-143100000D02*
X223400000Y-143700000D01*
X218700000Y-143100000D02*
X222800000Y-143100000D01*
X215087500Y-143600000D02*
X218200000Y-143600000D01*
X218200000Y-143600000D02*
X218700000Y-143100000D01*
G04 #@! TO.N,Net-(D4-Pad2)*
X219150001Y-145750001D02*
X220600000Y-145750001D01*
X215087500Y-145200000D02*
X218600000Y-145200000D01*
X218600000Y-145200000D02*
X219150001Y-145750001D01*
G04 #@! TO.N,Net-(D6-Pad1)*
X240649519Y-134550481D02*
X240349519Y-134550481D01*
X241900000Y-133300000D02*
X240649519Y-134550481D01*
X242600000Y-115900000D02*
X241900000Y-116600000D01*
X237479720Y-113540381D02*
X238151470Y-114212131D01*
X238687869Y-114212131D02*
X239780340Y-113119660D01*
X241900000Y-116600000D02*
X241900000Y-133300000D01*
X239780340Y-113119660D02*
X241419660Y-113119660D01*
X241419660Y-113119660D02*
X242600000Y-114300000D01*
X238151470Y-114212131D02*
X238687869Y-114212131D01*
X242600000Y-114300000D02*
X242600000Y-115900000D01*
G04 #@! TO.N,Net-(D6-Pad3)*
X241192030Y-115131369D02*
X240520280Y-114459619D01*
X241192030Y-128307970D02*
X241192030Y-115131369D01*
X236700000Y-132800000D02*
X241192030Y-128307970D01*
X237650481Y-135837436D02*
X236700000Y-134886955D01*
X236700000Y-134886955D02*
X236700000Y-132800000D01*
G04 #@! TO.N,Net-(D7-Pad1)*
X221750000Y-104250000D02*
X220600000Y-104250000D01*
X222000000Y-104500000D02*
X221750000Y-104250000D01*
X222000000Y-106380002D02*
X222000000Y-104500000D01*
X227975000Y-112200000D02*
X227819998Y-112200000D01*
X229325000Y-110850000D02*
X227975000Y-112200000D01*
X229950000Y-110850000D02*
X229325000Y-110850000D01*
X227819998Y-112200000D02*
X222000000Y-106380002D01*
X239000001Y-115979898D02*
X239459619Y-115520280D01*
X235579898Y-115979898D02*
X239000001Y-115979898D01*
X232900000Y-113300000D02*
X235579898Y-115979898D01*
X228919998Y-113300000D02*
X232900000Y-113300000D01*
X227819998Y-112200000D02*
X228919998Y-113300000D01*
G04 #@! TO.N,Net-(D7-Pad3)*
X233985661Y-108039339D02*
X234100000Y-108039339D01*
X232475000Y-109550000D02*
X233985661Y-108039339D01*
X231850000Y-109550000D02*
X232475000Y-109550000D01*
X234100000Y-108039339D02*
X238540381Y-112479720D01*
X233360661Y-107300000D02*
X234100000Y-108039339D01*
X223900000Y-107300000D02*
X233360661Y-107300000D01*
X223400000Y-105750000D02*
X223400000Y-106800000D01*
X223400000Y-106800000D02*
X223900000Y-107300000D01*
G04 #@! TD*
D20*
G04 #@! TO.N,GND*
G36*
X262562766Y-94619337D02*
X263095341Y-94812653D01*
X263569160Y-95123302D01*
X263958807Y-95534622D01*
X264243381Y-96024552D01*
X264409795Y-96574007D01*
X264450001Y-97024510D01*
X264450000Y-146968044D01*
X264380663Y-147562766D01*
X264187347Y-148095341D01*
X263876696Y-148569162D01*
X263465375Y-148958810D01*
X262975449Y-149243381D01*
X262425992Y-149409795D01*
X261975501Y-149450000D01*
X203031956Y-149450000D01*
X202437234Y-149380663D01*
X201904659Y-149187347D01*
X201430838Y-148876696D01*
X201041190Y-148465375D01*
X200756619Y-147975449D01*
X200590205Y-147425992D01*
X200550000Y-146975501D01*
X200550000Y-146132012D01*
X201650000Y-146132012D01*
X201650000Y-146867988D01*
X201931645Y-147547941D01*
X202452059Y-148068355D01*
X203132012Y-148350000D01*
X203867988Y-148350000D01*
X204547941Y-148068355D01*
X205068355Y-147547941D01*
X205350000Y-146867988D01*
X205350000Y-146132012D01*
X205068355Y-145452059D01*
X204547941Y-144931645D01*
X203867988Y-144650000D01*
X203132012Y-144650000D01*
X202452059Y-144931645D01*
X201931645Y-145452059D01*
X201650000Y-146132012D01*
X200550000Y-146132012D01*
X200550000Y-138810659D01*
X208917437Y-147178097D01*
X208959280Y-147240720D01*
X209207365Y-147406484D01*
X209426134Y-147450000D01*
X209426135Y-147450000D01*
X209500000Y-147464693D01*
X209573865Y-147450000D01*
X212126135Y-147450000D01*
X212200000Y-147464693D01*
X212273865Y-147450000D01*
X212273866Y-147450000D01*
X212492635Y-147406484D01*
X212740720Y-147240720D01*
X212782565Y-147178095D01*
X213278099Y-146682562D01*
X213340720Y-146640720D01*
X213506484Y-146392635D01*
X213547826Y-146184795D01*
X213731250Y-146184795D01*
X214010052Y-146129338D01*
X214246409Y-145971409D01*
X214300000Y-145891205D01*
X214353591Y-145971409D01*
X214589948Y-146129338D01*
X214868750Y-146184795D01*
X215306250Y-146184795D01*
X215585052Y-146129338D01*
X215821409Y-145971409D01*
X215902532Y-145850000D01*
X218330762Y-145850000D01*
X218645113Y-146164352D01*
X218681377Y-146218625D01*
X218896384Y-146362287D01*
X219085983Y-146400001D01*
X219085984Y-146400001D01*
X219150001Y-146412735D01*
X219214017Y-146400001D01*
X219260096Y-146400001D01*
X219279011Y-146495091D01*
X219389520Y-146660481D01*
X219554910Y-146770990D01*
X219750000Y-146809796D01*
X221450000Y-146809796D01*
X221450000Y-147135983D01*
X221437266Y-147200000D01*
X221450000Y-147264016D01*
X221450000Y-147264017D01*
X221487714Y-147453616D01*
X221631376Y-147668624D01*
X221685654Y-147704891D01*
X221895109Y-147914346D01*
X221931376Y-147968624D01*
X222146383Y-148112286D01*
X222335982Y-148150000D01*
X222335983Y-148150000D01*
X222399999Y-148162734D01*
X222464016Y-148150000D01*
X230935984Y-148150000D01*
X231000000Y-148162734D01*
X231064016Y-148150000D01*
X231064018Y-148150000D01*
X231253617Y-148112286D01*
X231468624Y-147968624D01*
X231504891Y-147914346D01*
X241414352Y-138004887D01*
X241468624Y-137968624D01*
X241534048Y-137870709D01*
X241612286Y-137753618D01*
X241662734Y-137500000D01*
X241650000Y-137435982D01*
X241650000Y-137064018D01*
X241662734Y-137000000D01*
X241612286Y-136746382D01*
X241504887Y-136585648D01*
X241468624Y-136531376D01*
X241414352Y-136495113D01*
X240739338Y-135820100D01*
X241870709Y-134688729D01*
X241981218Y-134523339D01*
X242020024Y-134328249D01*
X241982024Y-134137213D01*
X242314348Y-133804890D01*
X242368624Y-133768624D01*
X242450001Y-133646834D01*
X242450000Y-146054169D01*
X242455704Y-146082845D01*
X242455704Y-146102405D01*
X242456697Y-146109050D01*
X242543938Y-146669359D01*
X242565765Y-146740753D01*
X242586713Y-146812388D01*
X242589531Y-146818487D01*
X242830526Y-147331790D01*
X242871486Y-147394146D01*
X242911724Y-147457064D01*
X242916138Y-147462122D01*
X242916141Y-147462127D01*
X242916145Y-147462130D01*
X243291517Y-147887159D01*
X243348364Y-147935540D01*
X243404612Y-147984608D01*
X243410269Y-147988225D01*
X243410272Y-147988228D01*
X243410275Y-147988230D01*
X243889851Y-148290819D01*
X243957991Y-148321299D01*
X244025750Y-148352608D01*
X244032199Y-148354494D01*
X244577429Y-148510322D01*
X244651402Y-148520455D01*
X244725210Y-148531486D01*
X244731929Y-148531486D01*
X245298979Y-148528022D01*
X245372798Y-148516990D01*
X245446759Y-148506858D01*
X245453208Y-148504972D01*
X245996493Y-148342495D01*
X246064258Y-148311183D01*
X246132392Y-148280705D01*
X246138053Y-148277085D01*
X246613899Y-147968657D01*
X246670140Y-147919595D01*
X246726993Y-147871209D01*
X246731407Y-147866149D01*
X246731411Y-147866145D01*
X246731414Y-147866140D01*
X247101565Y-147436560D01*
X247141784Y-147373672D01*
X247182764Y-147311286D01*
X247185583Y-147305186D01*
X247420288Y-146788978D01*
X247441225Y-146717379D01*
X247463063Y-146645949D01*
X247464056Y-146639303D01*
X247536705Y-146132012D01*
X259650000Y-146132012D01*
X259650000Y-146867988D01*
X259931645Y-147547941D01*
X260452059Y-148068355D01*
X261132012Y-148350000D01*
X261867988Y-148350000D01*
X262547941Y-148068355D01*
X263068355Y-147547941D01*
X263350000Y-146867988D01*
X263350000Y-146132012D01*
X263068355Y-145452059D01*
X262547941Y-144931645D01*
X261867988Y-144650000D01*
X261132012Y-144650000D01*
X260452059Y-144931645D01*
X259931645Y-145452059D01*
X259650000Y-146132012D01*
X247536705Y-146132012D01*
X247542335Y-146092706D01*
X247550000Y-146054170D01*
X247550000Y-130945830D01*
X247544296Y-130917154D01*
X247544296Y-130897595D01*
X247543303Y-130890950D01*
X247456062Y-130330641D01*
X247434238Y-130259257D01*
X247413287Y-130187612D01*
X247410469Y-130181513D01*
X247169474Y-129668210D01*
X247128502Y-129605836D01*
X247088276Y-129542936D01*
X247083862Y-129537876D01*
X247083859Y-129537872D01*
X247083855Y-129537869D01*
X246708483Y-129112842D01*
X246651660Y-129064481D01*
X246595388Y-129015392D01*
X246589731Y-129011775D01*
X246589728Y-129011772D01*
X246589725Y-129011770D01*
X246110148Y-128709181D01*
X246042024Y-128678708D01*
X245974250Y-128647392D01*
X245967801Y-128645506D01*
X245422571Y-128489678D01*
X245348604Y-128479546D01*
X245274791Y-128468514D01*
X245268072Y-128468514D01*
X244701021Y-128471978D01*
X244627202Y-128483010D01*
X244553241Y-128493142D01*
X244546792Y-128495028D01*
X244003507Y-128657505D01*
X243935742Y-128688817D01*
X243867608Y-128719295D01*
X243861947Y-128722915D01*
X243386101Y-129031343D01*
X243329860Y-129080405D01*
X243273007Y-129128791D01*
X243268593Y-129133851D01*
X243268589Y-129133855D01*
X243268586Y-129133860D01*
X242898435Y-129563440D01*
X242858203Y-129626348D01*
X242817236Y-129688715D01*
X242814417Y-129694814D01*
X242579711Y-130211023D01*
X242558766Y-130282649D01*
X242550000Y-130311323D01*
X242550000Y-116869238D01*
X243014351Y-116404888D01*
X243068624Y-116368624D01*
X243212286Y-116153617D01*
X243250000Y-115964018D01*
X243250000Y-115964017D01*
X243262734Y-115900001D01*
X243250000Y-115835985D01*
X243250000Y-114364016D01*
X243262734Y-114300000D01*
X243250000Y-114235982D01*
X243212286Y-114046383D01*
X243068624Y-113831376D01*
X243014352Y-113795113D01*
X241924551Y-112705314D01*
X241888284Y-112651036D01*
X241673277Y-112507374D01*
X241483678Y-112469660D01*
X241483676Y-112469660D01*
X241419660Y-112456926D01*
X241355644Y-112469660D01*
X239983210Y-112469660D01*
X239890810Y-112331372D01*
X238688729Y-111129291D01*
X238523339Y-111018782D01*
X238328249Y-110979976D01*
X238133159Y-111018782D01*
X238052545Y-111072646D01*
X236599899Y-109620000D01*
X246190000Y-109620000D01*
X246190000Y-110086663D01*
X246237195Y-110200601D01*
X246324399Y-110287805D01*
X246438337Y-110335000D01*
X247117500Y-110335000D01*
X247195000Y-110257500D01*
X247195000Y-109542500D01*
X247205000Y-109542500D01*
X247205000Y-110257500D01*
X247282500Y-110335000D01*
X247961663Y-110335000D01*
X248075601Y-110287805D01*
X248162805Y-110200601D01*
X248210000Y-110086663D01*
X248210000Y-109682500D01*
X250390000Y-109682500D01*
X250390000Y-110149163D01*
X250437195Y-110263101D01*
X250524399Y-110350305D01*
X250638337Y-110397500D01*
X251317500Y-110397500D01*
X251395000Y-110320000D01*
X251395000Y-109605000D01*
X251405000Y-109605000D01*
X251405000Y-110320000D01*
X251482500Y-110397500D01*
X252161663Y-110397500D01*
X252275601Y-110350305D01*
X252362805Y-110263101D01*
X252410000Y-110149163D01*
X252410000Y-109682500D01*
X252332500Y-109605000D01*
X251405000Y-109605000D01*
X251395000Y-109605000D01*
X250467500Y-109605000D01*
X250390000Y-109682500D01*
X248210000Y-109682500D01*
X248210000Y-109620000D01*
X248132500Y-109542500D01*
X247205000Y-109542500D01*
X247195000Y-109542500D01*
X246267500Y-109542500D01*
X246190000Y-109620000D01*
X236599899Y-109620000D01*
X235968236Y-108988337D01*
X246190000Y-108988337D01*
X246190000Y-109455000D01*
X246267500Y-109532500D01*
X247195000Y-109532500D01*
X247195000Y-108817500D01*
X247205000Y-108817500D01*
X247205000Y-109532500D01*
X248132500Y-109532500D01*
X248210000Y-109455000D01*
X248210000Y-109050837D01*
X250390000Y-109050837D01*
X250390000Y-109517500D01*
X250467500Y-109595000D01*
X251395000Y-109595000D01*
X251395000Y-108880000D01*
X251405000Y-108880000D01*
X251405000Y-109595000D01*
X252332500Y-109595000D01*
X252410000Y-109517500D01*
X252410000Y-109050837D01*
X252362805Y-108936899D01*
X252275601Y-108849695D01*
X252161663Y-108802500D01*
X251482500Y-108802500D01*
X251405000Y-108880000D01*
X251395000Y-108880000D01*
X251317500Y-108802500D01*
X250638337Y-108802500D01*
X250524399Y-108849695D01*
X250437195Y-108936899D01*
X250390000Y-109050837D01*
X248210000Y-109050837D01*
X248210000Y-108988337D01*
X248162805Y-108874399D01*
X248075601Y-108787195D01*
X247961663Y-108740000D01*
X247282500Y-108740000D01*
X247205000Y-108817500D01*
X247195000Y-108817500D01*
X247117500Y-108740000D01*
X246438337Y-108740000D01*
X246324399Y-108787195D01*
X246237195Y-108874399D01*
X246190000Y-108988337D01*
X235968236Y-108988337D01*
X234604891Y-107624993D01*
X234568624Y-107570715D01*
X234514351Y-107534451D01*
X233865552Y-106885654D01*
X233829285Y-106831376D01*
X233614278Y-106687714D01*
X233424679Y-106650000D01*
X233424677Y-106650000D01*
X233360661Y-106637266D01*
X233296645Y-106650000D01*
X224617482Y-106650000D01*
X224720989Y-106495090D01*
X224759795Y-106300000D01*
X224759795Y-105200000D01*
X224720989Y-105004910D01*
X224717708Y-105000000D01*
X224720989Y-104995090D01*
X224759795Y-104800000D01*
X224759795Y-103700000D01*
X224720989Y-103504910D01*
X224610480Y-103339520D01*
X224445090Y-103229011D01*
X224250000Y-103190205D01*
X224040894Y-103190205D01*
X224012286Y-103046383D01*
X223868624Y-102831376D01*
X223814348Y-102795111D01*
X223704891Y-102685653D01*
X223668624Y-102631376D01*
X223453617Y-102487714D01*
X223264018Y-102450000D01*
X223264016Y-102450000D01*
X223200000Y-102437266D01*
X223135984Y-102450000D01*
X217024676Y-102450000D01*
X216960660Y-102437266D01*
X216896644Y-102450000D01*
X216896643Y-102450000D01*
X216707044Y-102487714D01*
X216492037Y-102631376D01*
X216455774Y-102685648D01*
X207008116Y-112133307D01*
X206927502Y-112079443D01*
X206921709Y-112078291D01*
X206920557Y-112072498D01*
X206810048Y-111907108D01*
X206032231Y-111129291D01*
X205866841Y-111018782D01*
X205671751Y-110979976D01*
X205476661Y-111018782D01*
X205311271Y-111129291D01*
X205169849Y-111270713D01*
X204784790Y-110885654D01*
X204748523Y-110831376D01*
X204533516Y-110687714D01*
X204343917Y-110650000D01*
X204343915Y-110650000D01*
X204279899Y-110637266D01*
X204215883Y-110650000D01*
X203964016Y-110650000D01*
X203899999Y-110637266D01*
X203835983Y-110650000D01*
X203835982Y-110650000D01*
X203646383Y-110687714D01*
X203431376Y-110831376D01*
X203395111Y-110885651D01*
X201550000Y-112730763D01*
X201550000Y-109910659D01*
X207078097Y-104382563D01*
X207140720Y-104340720D01*
X207278773Y-104134108D01*
X207306484Y-104092636D01*
X207364693Y-103800000D01*
X207350000Y-103726134D01*
X207350000Y-100095980D01*
X207520000Y-100129795D01*
X209220000Y-100129795D01*
X209415090Y-100090989D01*
X209580480Y-99980480D01*
X209690989Y-99815090D01*
X209729795Y-99620000D01*
X209729795Y-99433634D01*
X209936704Y-99743296D01*
X210383256Y-100041672D01*
X210777037Y-100120000D01*
X211042963Y-100120000D01*
X211436744Y-100041672D01*
X211883296Y-99743296D01*
X212180000Y-99299246D01*
X212476704Y-99743296D01*
X212923256Y-100041672D01*
X213317037Y-100120000D01*
X213582963Y-100120000D01*
X213976744Y-100041672D01*
X214423296Y-99743296D01*
X214720000Y-99299246D01*
X215016704Y-99743296D01*
X215463256Y-100041672D01*
X215857037Y-100120000D01*
X216122963Y-100120000D01*
X216430333Y-100058860D01*
X218153953Y-101782481D01*
X218187425Y-101832575D01*
X218385892Y-101965187D01*
X218560909Y-102000000D01*
X218560912Y-102000000D01*
X218620000Y-102011753D01*
X218679088Y-102000000D01*
X224168629Y-102000000D01*
X224246836Y-102078207D01*
X224540870Y-102200000D01*
X224859130Y-102200000D01*
X225153164Y-102078207D01*
X225378207Y-101853164D01*
X225385469Y-101835631D01*
X225540870Y-101900000D01*
X225859130Y-101900000D01*
X226153164Y-101778207D01*
X226378207Y-101553164D01*
X226385948Y-101534475D01*
X228621453Y-103769981D01*
X228654925Y-103820075D01*
X228785578Y-103907375D01*
X228928591Y-104121409D01*
X228999704Y-104168925D01*
X228921793Y-104246836D01*
X228800000Y-104540870D01*
X228800000Y-104859130D01*
X228921793Y-105153164D01*
X229146836Y-105378207D01*
X229440870Y-105500000D01*
X229759130Y-105500000D01*
X230053164Y-105378207D01*
X230278207Y-105153164D01*
X230400000Y-104859130D01*
X230400000Y-104540870D01*
X230300000Y-104299449D01*
X230300000Y-104235941D01*
X230471409Y-104121409D01*
X230500000Y-104078620D01*
X230528591Y-104121409D01*
X230659649Y-104208980D01*
X230621793Y-104246836D01*
X230500000Y-104540870D01*
X230500000Y-104859130D01*
X230621793Y-105153164D01*
X230846836Y-105378207D01*
X231140870Y-105500000D01*
X231459130Y-105500000D01*
X231753164Y-105378207D01*
X231978207Y-105153164D01*
X232100000Y-104859130D01*
X232100000Y-104540870D01*
X231978207Y-104246836D01*
X231940351Y-104208980D01*
X232071409Y-104121409D01*
X232160884Y-103987500D01*
X233453414Y-103987500D01*
X233512500Y-103999253D01*
X233571586Y-103987500D01*
X233571591Y-103987500D01*
X233746608Y-103952687D01*
X233945075Y-103820075D01*
X233978549Y-103769978D01*
X236548528Y-101200000D01*
X236840870Y-101200000D01*
X236546836Y-101321793D01*
X236321793Y-101546836D01*
X236200000Y-101840870D01*
X236200000Y-102159130D01*
X236321793Y-102453164D01*
X236546836Y-102678207D01*
X236840870Y-102800000D01*
X237159130Y-102800000D01*
X237453164Y-102678207D01*
X237531371Y-102600000D01*
X245051473Y-102600000D01*
X246349072Y-103897600D01*
X246270662Y-104014948D01*
X246215205Y-104293750D01*
X246215205Y-104731250D01*
X246270662Y-105010052D01*
X246428591Y-105246409D01*
X246508795Y-105300000D01*
X246428591Y-105353591D01*
X246270662Y-105589948D01*
X246215205Y-105868750D01*
X246215205Y-106306250D01*
X246270662Y-106585052D01*
X246391200Y-106765449D01*
X246210913Y-106885913D01*
X246047565Y-107130381D01*
X245990205Y-107418750D01*
X245990205Y-107906250D01*
X246047565Y-108194619D01*
X246210913Y-108439087D01*
X246455381Y-108602435D01*
X246743750Y-108659795D01*
X247656250Y-108659795D01*
X247944619Y-108602435D01*
X248189087Y-108439087D01*
X248352435Y-108194619D01*
X248409795Y-107906250D01*
X248409795Y-107418750D01*
X248352435Y-107130381D01*
X248189087Y-106885913D01*
X248008800Y-106765449D01*
X248129338Y-106585052D01*
X248184795Y-106306250D01*
X248184795Y-105868750D01*
X248129338Y-105589948D01*
X247971409Y-105353591D01*
X247891205Y-105300000D01*
X247971409Y-105246409D01*
X248129338Y-105010052D01*
X248184795Y-104731250D01*
X248184795Y-104293750D01*
X248129338Y-104014948D01*
X247971409Y-103778591D01*
X247735052Y-103620662D01*
X247734952Y-103620642D01*
X247666047Y-103517519D01*
X247632575Y-103467425D01*
X247582481Y-103433953D01*
X246048527Y-101900000D01*
X247838973Y-101900000D01*
X250415205Y-104476233D01*
X250415205Y-104831250D01*
X250470662Y-105110052D01*
X250628591Y-105346409D01*
X250708795Y-105400000D01*
X250628591Y-105453591D01*
X250470662Y-105689948D01*
X250415205Y-105968750D01*
X250415205Y-106406250D01*
X250470662Y-106685052D01*
X250573877Y-106839524D01*
X250410913Y-106948413D01*
X250247565Y-107192881D01*
X250190205Y-107481250D01*
X250190205Y-107968750D01*
X250247565Y-108257119D01*
X250410913Y-108501587D01*
X250655381Y-108664935D01*
X250943750Y-108722295D01*
X251856250Y-108722295D01*
X252144619Y-108664935D01*
X252389087Y-108501587D01*
X252552435Y-108257119D01*
X252609795Y-107968750D01*
X252609795Y-107481250D01*
X252552435Y-107192881D01*
X252389087Y-106948413D01*
X252226123Y-106839524D01*
X252329338Y-106685052D01*
X252384795Y-106406250D01*
X252384795Y-105968750D01*
X252329338Y-105689948D01*
X252171409Y-105453591D01*
X252091205Y-105400000D01*
X252171409Y-105346409D01*
X252329338Y-105110052D01*
X252384795Y-104831250D01*
X252384795Y-104393750D01*
X252329338Y-104114948D01*
X252171409Y-103878591D01*
X251935052Y-103720662D01*
X251656250Y-103665205D01*
X251301233Y-103665205D01*
X248553549Y-100917522D01*
X248520075Y-100867425D01*
X248321608Y-100734813D01*
X248146591Y-100700000D01*
X248146586Y-100700000D01*
X248087500Y-100688247D01*
X248028414Y-100700000D01*
X247928527Y-100700000D01*
X248569667Y-100058860D01*
X248877037Y-100120000D01*
X249142963Y-100120000D01*
X249536744Y-100041672D01*
X249983296Y-99743296D01*
X250280000Y-99299246D01*
X250576704Y-99743296D01*
X251023256Y-100041672D01*
X251417037Y-100120000D01*
X251682963Y-100120000D01*
X252076744Y-100041672D01*
X252523296Y-99743296D01*
X252820000Y-99299246D01*
X253116704Y-99743296D01*
X253563256Y-100041672D01*
X253957037Y-100120000D01*
X254222963Y-100120000D01*
X254616744Y-100041672D01*
X255063296Y-99743296D01*
X255361672Y-99296744D01*
X255429370Y-98956401D01*
X255485074Y-98956401D01*
X255643559Y-99380356D01*
X255952220Y-99711390D01*
X256364067Y-99899106D01*
X256443599Y-99914925D01*
X256625000Y-99852488D01*
X256625000Y-98775000D01*
X256635000Y-98775000D01*
X256635000Y-99852488D01*
X256816401Y-99914925D01*
X256895933Y-99899106D01*
X257307780Y-99711390D01*
X257616441Y-99380356D01*
X257774926Y-98956401D01*
X257712490Y-98775000D01*
X256635000Y-98775000D01*
X256625000Y-98775000D01*
X255547510Y-98775000D01*
X255485074Y-98956401D01*
X255429370Y-98956401D01*
X255466448Y-98770000D01*
X255429371Y-98583599D01*
X255485074Y-98583599D01*
X255547510Y-98765000D01*
X256625000Y-98765000D01*
X256625000Y-97687512D01*
X256635000Y-97687512D01*
X256635000Y-98765000D01*
X257712490Y-98765000D01*
X257774926Y-98583599D01*
X257616441Y-98159644D01*
X257307780Y-97828610D01*
X256895933Y-97640894D01*
X256816401Y-97625075D01*
X256635000Y-97687512D01*
X256625000Y-97687512D01*
X256443599Y-97625075D01*
X256364067Y-97640894D01*
X255952220Y-97828610D01*
X255643559Y-98159644D01*
X255485074Y-98583599D01*
X255429371Y-98583599D01*
X255361672Y-98243256D01*
X255063296Y-97796704D01*
X254619246Y-97500000D01*
X255063296Y-97203296D01*
X255360000Y-96759246D01*
X255656704Y-97203296D01*
X256103256Y-97501672D01*
X256497037Y-97580000D01*
X256762963Y-97580000D01*
X257156744Y-97501672D01*
X257603296Y-97203296D01*
X257650926Y-97132012D01*
X259650000Y-97132012D01*
X259650000Y-97867988D01*
X259931645Y-98547941D01*
X260452059Y-99068355D01*
X261132012Y-99350000D01*
X261867988Y-99350000D01*
X262547941Y-99068355D01*
X263068355Y-98547941D01*
X263350000Y-97867988D01*
X263350000Y-97132012D01*
X263068355Y-96452059D01*
X262547941Y-95931645D01*
X261867988Y-95650000D01*
X261132012Y-95650000D01*
X260452059Y-95931645D01*
X259931645Y-96452059D01*
X259650000Y-97132012D01*
X257650926Y-97132012D01*
X257901672Y-96756744D01*
X258006448Y-96230000D01*
X257901672Y-95703256D01*
X257603296Y-95256704D01*
X257156744Y-94958328D01*
X256762963Y-94880000D01*
X256497037Y-94880000D01*
X256103256Y-94958328D01*
X255656704Y-95256704D01*
X255360000Y-95700754D01*
X255063296Y-95256704D01*
X254616744Y-94958328D01*
X254222963Y-94880000D01*
X253957037Y-94880000D01*
X253563256Y-94958328D01*
X253116704Y-95256704D01*
X252820000Y-95700754D01*
X252523296Y-95256704D01*
X252076744Y-94958328D01*
X251682963Y-94880000D01*
X251417037Y-94880000D01*
X251023256Y-94958328D01*
X250576704Y-95256704D01*
X250278328Y-95703256D01*
X250173552Y-96230000D01*
X250278328Y-96756744D01*
X250576704Y-97203296D01*
X251020754Y-97500000D01*
X250576704Y-97796704D01*
X250280000Y-98240754D01*
X249983296Y-97796704D01*
X249536744Y-97498328D01*
X249142963Y-97420000D01*
X248877037Y-97420000D01*
X248483256Y-97498328D01*
X248036704Y-97796704D01*
X247740000Y-98240754D01*
X247443296Y-97796704D01*
X246999246Y-97500000D01*
X247443296Y-97203296D01*
X247741672Y-96756744D01*
X247809370Y-96416401D01*
X247865074Y-96416401D01*
X248023559Y-96840356D01*
X248332220Y-97171390D01*
X248744067Y-97359106D01*
X248823599Y-97374925D01*
X249005000Y-97312488D01*
X249005000Y-96235000D01*
X249015000Y-96235000D01*
X249015000Y-97312488D01*
X249196401Y-97374925D01*
X249275933Y-97359106D01*
X249687780Y-97171390D01*
X249996441Y-96840356D01*
X250154926Y-96416401D01*
X250092490Y-96235000D01*
X249015000Y-96235000D01*
X249005000Y-96235000D01*
X247927510Y-96235000D01*
X247865074Y-96416401D01*
X247809370Y-96416401D01*
X247846448Y-96230000D01*
X247809371Y-96043599D01*
X247865074Y-96043599D01*
X247927510Y-96225000D01*
X249005000Y-96225000D01*
X249005000Y-95147512D01*
X249015000Y-95147512D01*
X249015000Y-96225000D01*
X250092490Y-96225000D01*
X250154926Y-96043599D01*
X249996441Y-95619644D01*
X249687780Y-95288610D01*
X249275933Y-95100894D01*
X249196401Y-95085075D01*
X249015000Y-95147512D01*
X249005000Y-95147512D01*
X248823599Y-95085075D01*
X248744067Y-95100894D01*
X248332220Y-95288610D01*
X248023559Y-95619644D01*
X247865074Y-96043599D01*
X247809371Y-96043599D01*
X247741672Y-95703256D01*
X247443296Y-95256704D01*
X246996744Y-94958328D01*
X246602963Y-94880000D01*
X246337037Y-94880000D01*
X245943256Y-94958328D01*
X245496704Y-95256704D01*
X245198328Y-95703256D01*
X245093552Y-96230000D01*
X245198328Y-96756744D01*
X245496704Y-97203296D01*
X245940754Y-97500000D01*
X245496704Y-97796704D01*
X245200000Y-98240754D01*
X244903296Y-97796704D01*
X244456744Y-97498328D01*
X244062963Y-97420000D01*
X243797037Y-97420000D01*
X243403256Y-97498328D01*
X242956704Y-97796704D01*
X242660000Y-98240754D01*
X242363296Y-97796704D01*
X241919246Y-97500000D01*
X242363296Y-97203296D01*
X242661672Y-96756744D01*
X242729370Y-96416401D01*
X242785074Y-96416401D01*
X242943559Y-96840356D01*
X243252220Y-97171390D01*
X243664067Y-97359106D01*
X243743599Y-97374925D01*
X243925000Y-97312488D01*
X243925000Y-96235000D01*
X243935000Y-96235000D01*
X243935000Y-97312488D01*
X244116401Y-97374925D01*
X244195933Y-97359106D01*
X244607780Y-97171390D01*
X244916441Y-96840356D01*
X245074926Y-96416401D01*
X245012490Y-96235000D01*
X243935000Y-96235000D01*
X243925000Y-96235000D01*
X242847510Y-96235000D01*
X242785074Y-96416401D01*
X242729370Y-96416401D01*
X242766448Y-96230000D01*
X242729371Y-96043599D01*
X242785074Y-96043599D01*
X242847510Y-96225000D01*
X243925000Y-96225000D01*
X243925000Y-95147512D01*
X243935000Y-95147512D01*
X243935000Y-96225000D01*
X245012490Y-96225000D01*
X245074926Y-96043599D01*
X244916441Y-95619644D01*
X244607780Y-95288610D01*
X244195933Y-95100894D01*
X244116401Y-95085075D01*
X243935000Y-95147512D01*
X243925000Y-95147512D01*
X243743599Y-95085075D01*
X243664067Y-95100894D01*
X243252220Y-95288610D01*
X242943559Y-95619644D01*
X242785074Y-96043599D01*
X242729371Y-96043599D01*
X242661672Y-95703256D01*
X242363296Y-95256704D01*
X241916744Y-94958328D01*
X241522963Y-94880000D01*
X241257037Y-94880000D01*
X240863256Y-94958328D01*
X240416704Y-95256704D01*
X240120000Y-95700754D01*
X239823296Y-95256704D01*
X239376744Y-94958328D01*
X238982963Y-94880000D01*
X238717037Y-94880000D01*
X238323256Y-94958328D01*
X237876704Y-95256704D01*
X237580000Y-95700754D01*
X237283296Y-95256704D01*
X236836744Y-94958328D01*
X236442963Y-94880000D01*
X236177037Y-94880000D01*
X235783256Y-94958328D01*
X235336704Y-95256704D01*
X235040000Y-95700754D01*
X234743296Y-95256704D01*
X234296744Y-94958328D01*
X233902963Y-94880000D01*
X233637037Y-94880000D01*
X233243256Y-94958328D01*
X232796704Y-95256704D01*
X232498328Y-95703256D01*
X232393552Y-96230000D01*
X232498328Y-96756744D01*
X232796704Y-97203296D01*
X233240754Y-97500000D01*
X232796704Y-97796704D01*
X232500000Y-98240754D01*
X232203296Y-97796704D01*
X231756744Y-97498328D01*
X231362963Y-97420000D01*
X231097037Y-97420000D01*
X230703256Y-97498328D01*
X230256704Y-97796704D01*
X229960000Y-98240754D01*
X229663296Y-97796704D01*
X229219246Y-97500000D01*
X229663296Y-97203296D01*
X229961672Y-96756744D01*
X230029370Y-96416401D01*
X230085074Y-96416401D01*
X230243559Y-96840356D01*
X230552220Y-97171390D01*
X230964067Y-97359106D01*
X231043599Y-97374925D01*
X231225000Y-97312488D01*
X231225000Y-96235000D01*
X231235000Y-96235000D01*
X231235000Y-97312488D01*
X231416401Y-97374925D01*
X231495933Y-97359106D01*
X231907780Y-97171390D01*
X232216441Y-96840356D01*
X232374926Y-96416401D01*
X232312490Y-96235000D01*
X231235000Y-96235000D01*
X231225000Y-96235000D01*
X230147510Y-96235000D01*
X230085074Y-96416401D01*
X230029370Y-96416401D01*
X230066448Y-96230000D01*
X230029371Y-96043599D01*
X230085074Y-96043599D01*
X230147510Y-96225000D01*
X231225000Y-96225000D01*
X231225000Y-95147512D01*
X231235000Y-95147512D01*
X231235000Y-96225000D01*
X232312490Y-96225000D01*
X232374926Y-96043599D01*
X232216441Y-95619644D01*
X231907780Y-95288610D01*
X231495933Y-95100894D01*
X231416401Y-95085075D01*
X231235000Y-95147512D01*
X231225000Y-95147512D01*
X231043599Y-95085075D01*
X230964067Y-95100894D01*
X230552220Y-95288610D01*
X230243559Y-95619644D01*
X230085074Y-96043599D01*
X230029371Y-96043599D01*
X229961672Y-95703256D01*
X229663296Y-95256704D01*
X229216744Y-94958328D01*
X228822963Y-94880000D01*
X228557037Y-94880000D01*
X228163256Y-94958328D01*
X227716704Y-95256704D01*
X227420000Y-95700754D01*
X227123296Y-95256704D01*
X226676744Y-94958328D01*
X226282963Y-94880000D01*
X226017037Y-94880000D01*
X225623256Y-94958328D01*
X225176704Y-95256704D01*
X224878328Y-95703256D01*
X224773552Y-96230000D01*
X224878328Y-96756744D01*
X225176704Y-97203296D01*
X225620754Y-97500000D01*
X225176704Y-97796704D01*
X224880000Y-98240754D01*
X224583296Y-97796704D01*
X224136744Y-97498328D01*
X223742963Y-97420000D01*
X223477037Y-97420000D01*
X223083256Y-97498328D01*
X222900000Y-97620776D01*
X222900000Y-97519088D01*
X222911753Y-97460000D01*
X222900000Y-97400912D01*
X222900000Y-97400909D01*
X222865187Y-97225892D01*
X222811733Y-97145893D01*
X222766048Y-97077520D01*
X222766047Y-97077519D01*
X222732575Y-97027425D01*
X222682481Y-96993953D01*
X222358860Y-96670332D01*
X222409370Y-96416401D01*
X222465074Y-96416401D01*
X222623559Y-96840356D01*
X222932220Y-97171390D01*
X223344067Y-97359106D01*
X223423599Y-97374925D01*
X223605000Y-97312488D01*
X223605000Y-96235000D01*
X223615000Y-96235000D01*
X223615000Y-97312488D01*
X223796401Y-97374925D01*
X223875933Y-97359106D01*
X224287780Y-97171390D01*
X224596441Y-96840356D01*
X224754926Y-96416401D01*
X224692490Y-96235000D01*
X223615000Y-96235000D01*
X223605000Y-96235000D01*
X222527510Y-96235000D01*
X222465074Y-96416401D01*
X222409370Y-96416401D01*
X222446448Y-96230000D01*
X222409371Y-96043599D01*
X222465074Y-96043599D01*
X222527510Y-96225000D01*
X223605000Y-96225000D01*
X223605000Y-95147512D01*
X223615000Y-95147512D01*
X223615000Y-96225000D01*
X224692490Y-96225000D01*
X224754926Y-96043599D01*
X224596441Y-95619644D01*
X224287780Y-95288610D01*
X223875933Y-95100894D01*
X223796401Y-95085075D01*
X223615000Y-95147512D01*
X223605000Y-95147512D01*
X223423599Y-95085075D01*
X223344067Y-95100894D01*
X222932220Y-95288610D01*
X222623559Y-95619644D01*
X222465074Y-96043599D01*
X222409371Y-96043599D01*
X222341672Y-95703256D01*
X222043296Y-95256704D01*
X221596744Y-94958328D01*
X221202963Y-94880000D01*
X220937037Y-94880000D01*
X220543256Y-94958328D01*
X220096704Y-95256704D01*
X219800000Y-95700754D01*
X219503296Y-95256704D01*
X219056744Y-94958328D01*
X218662963Y-94880000D01*
X218397037Y-94880000D01*
X218003256Y-94958328D01*
X217556704Y-95256704D01*
X217260000Y-95700754D01*
X216963296Y-95256704D01*
X216516744Y-94958328D01*
X216122963Y-94880000D01*
X215857037Y-94880000D01*
X215463256Y-94958328D01*
X215016704Y-95256704D01*
X214718328Y-95703256D01*
X214613552Y-96230000D01*
X214718328Y-96756744D01*
X215016704Y-97203296D01*
X215460754Y-97500000D01*
X215016704Y-97796704D01*
X214720000Y-98240754D01*
X214423296Y-97796704D01*
X213976744Y-97498328D01*
X213582963Y-97420000D01*
X213317037Y-97420000D01*
X212923256Y-97498328D01*
X212476704Y-97796704D01*
X212180000Y-98240754D01*
X211883296Y-97796704D01*
X211439246Y-97500000D01*
X211883296Y-97203296D01*
X212181672Y-96756744D01*
X212249370Y-96416401D01*
X212305074Y-96416401D01*
X212463559Y-96840356D01*
X212772220Y-97171390D01*
X213184067Y-97359106D01*
X213263599Y-97374925D01*
X213445000Y-97312488D01*
X213445000Y-96235000D01*
X213455000Y-96235000D01*
X213455000Y-97312488D01*
X213636401Y-97374925D01*
X213715933Y-97359106D01*
X214127780Y-97171390D01*
X214436441Y-96840356D01*
X214594926Y-96416401D01*
X214532490Y-96235000D01*
X213455000Y-96235000D01*
X213445000Y-96235000D01*
X212367510Y-96235000D01*
X212305074Y-96416401D01*
X212249370Y-96416401D01*
X212286448Y-96230000D01*
X212249371Y-96043599D01*
X212305074Y-96043599D01*
X212367510Y-96225000D01*
X213445000Y-96225000D01*
X213445000Y-95147512D01*
X213455000Y-95147512D01*
X213455000Y-96225000D01*
X214532490Y-96225000D01*
X214594926Y-96043599D01*
X214436441Y-95619644D01*
X214127780Y-95288610D01*
X213715933Y-95100894D01*
X213636401Y-95085075D01*
X213455000Y-95147512D01*
X213445000Y-95147512D01*
X213263599Y-95085075D01*
X213184067Y-95100894D01*
X212772220Y-95288610D01*
X212463559Y-95619644D01*
X212305074Y-96043599D01*
X212249371Y-96043599D01*
X212181672Y-95703256D01*
X211883296Y-95256704D01*
X211436744Y-94958328D01*
X211042963Y-94880000D01*
X210777037Y-94880000D01*
X210383256Y-94958328D01*
X209936704Y-95256704D01*
X209787503Y-95480000D01*
X209492497Y-95480000D01*
X209343296Y-95256704D01*
X208896744Y-94958328D01*
X208502963Y-94880000D01*
X208237037Y-94880000D01*
X207843256Y-94958328D01*
X207396704Y-95256704D01*
X207098328Y-95703256D01*
X206993552Y-96230000D01*
X207045945Y-96493396D01*
X206121904Y-97417437D01*
X206059281Y-97459280D01*
X205978619Y-97580000D01*
X205893517Y-97707365D01*
X205835307Y-98000000D01*
X205850001Y-98073870D01*
X205850000Y-103489340D01*
X200550000Y-108789341D01*
X200550000Y-97132012D01*
X201650000Y-97132012D01*
X201650000Y-97867988D01*
X201931645Y-98547941D01*
X202452059Y-99068355D01*
X203132012Y-99350000D01*
X203867988Y-99350000D01*
X204547941Y-99068355D01*
X205068355Y-98547941D01*
X205350000Y-97867988D01*
X205350000Y-97132012D01*
X205068355Y-96452059D01*
X204547941Y-95931645D01*
X203867988Y-95650000D01*
X203132012Y-95650000D01*
X202452059Y-95931645D01*
X201931645Y-96452059D01*
X201650000Y-97132012D01*
X200550000Y-97132012D01*
X200550000Y-97031956D01*
X200619337Y-96437234D01*
X200812653Y-95904659D01*
X201123302Y-95430840D01*
X201534622Y-95041193D01*
X202024552Y-94756619D01*
X202574007Y-94590205D01*
X203024499Y-94550000D01*
X261968044Y-94550000D01*
X262562766Y-94619337D01*
X262562766Y-94619337D01*
G37*
X262562766Y-94619337D02*
X263095341Y-94812653D01*
X263569160Y-95123302D01*
X263958807Y-95534622D01*
X264243381Y-96024552D01*
X264409795Y-96574007D01*
X264450001Y-97024510D01*
X264450000Y-146968044D01*
X264380663Y-147562766D01*
X264187347Y-148095341D01*
X263876696Y-148569162D01*
X263465375Y-148958810D01*
X262975449Y-149243381D01*
X262425992Y-149409795D01*
X261975501Y-149450000D01*
X203031956Y-149450000D01*
X202437234Y-149380663D01*
X201904659Y-149187347D01*
X201430838Y-148876696D01*
X201041190Y-148465375D01*
X200756619Y-147975449D01*
X200590205Y-147425992D01*
X200550000Y-146975501D01*
X200550000Y-146132012D01*
X201650000Y-146132012D01*
X201650000Y-146867988D01*
X201931645Y-147547941D01*
X202452059Y-148068355D01*
X203132012Y-148350000D01*
X203867988Y-148350000D01*
X204547941Y-148068355D01*
X205068355Y-147547941D01*
X205350000Y-146867988D01*
X205350000Y-146132012D01*
X205068355Y-145452059D01*
X204547941Y-144931645D01*
X203867988Y-144650000D01*
X203132012Y-144650000D01*
X202452059Y-144931645D01*
X201931645Y-145452059D01*
X201650000Y-146132012D01*
X200550000Y-146132012D01*
X200550000Y-138810659D01*
X208917437Y-147178097D01*
X208959280Y-147240720D01*
X209207365Y-147406484D01*
X209426134Y-147450000D01*
X209426135Y-147450000D01*
X209500000Y-147464693D01*
X209573865Y-147450000D01*
X212126135Y-147450000D01*
X212200000Y-147464693D01*
X212273865Y-147450000D01*
X212273866Y-147450000D01*
X212492635Y-147406484D01*
X212740720Y-147240720D01*
X212782565Y-147178095D01*
X213278099Y-146682562D01*
X213340720Y-146640720D01*
X213506484Y-146392635D01*
X213547826Y-146184795D01*
X213731250Y-146184795D01*
X214010052Y-146129338D01*
X214246409Y-145971409D01*
X214300000Y-145891205D01*
X214353591Y-145971409D01*
X214589948Y-146129338D01*
X214868750Y-146184795D01*
X215306250Y-146184795D01*
X215585052Y-146129338D01*
X215821409Y-145971409D01*
X215902532Y-145850000D01*
X218330762Y-145850000D01*
X218645113Y-146164352D01*
X218681377Y-146218625D01*
X218896384Y-146362287D01*
X219085983Y-146400001D01*
X219085984Y-146400001D01*
X219150001Y-146412735D01*
X219214017Y-146400001D01*
X219260096Y-146400001D01*
X219279011Y-146495091D01*
X219389520Y-146660481D01*
X219554910Y-146770990D01*
X219750000Y-146809796D01*
X221450000Y-146809796D01*
X221450000Y-147135983D01*
X221437266Y-147200000D01*
X221450000Y-147264016D01*
X221450000Y-147264017D01*
X221487714Y-147453616D01*
X221631376Y-147668624D01*
X221685654Y-147704891D01*
X221895109Y-147914346D01*
X221931376Y-147968624D01*
X222146383Y-148112286D01*
X222335982Y-148150000D01*
X222335983Y-148150000D01*
X222399999Y-148162734D01*
X222464016Y-148150000D01*
X230935984Y-148150000D01*
X231000000Y-148162734D01*
X231064016Y-148150000D01*
X231064018Y-148150000D01*
X231253617Y-148112286D01*
X231468624Y-147968624D01*
X231504891Y-147914346D01*
X241414352Y-138004887D01*
X241468624Y-137968624D01*
X241534048Y-137870709D01*
X241612286Y-137753618D01*
X241662734Y-137500000D01*
X241650000Y-137435982D01*
X241650000Y-137064018D01*
X241662734Y-137000000D01*
X241612286Y-136746382D01*
X241504887Y-136585648D01*
X241468624Y-136531376D01*
X241414352Y-136495113D01*
X240739338Y-135820100D01*
X241870709Y-134688729D01*
X241981218Y-134523339D01*
X242020024Y-134328249D01*
X241982024Y-134137213D01*
X242314348Y-133804890D01*
X242368624Y-133768624D01*
X242450001Y-133646834D01*
X242450000Y-146054169D01*
X242455704Y-146082845D01*
X242455704Y-146102405D01*
X242456697Y-146109050D01*
X242543938Y-146669359D01*
X242565765Y-146740753D01*
X242586713Y-146812388D01*
X242589531Y-146818487D01*
X242830526Y-147331790D01*
X242871486Y-147394146D01*
X242911724Y-147457064D01*
X242916138Y-147462122D01*
X242916141Y-147462127D01*
X242916145Y-147462130D01*
X243291517Y-147887159D01*
X243348364Y-147935540D01*
X243404612Y-147984608D01*
X243410269Y-147988225D01*
X243410272Y-147988228D01*
X243410275Y-147988230D01*
X243889851Y-148290819D01*
X243957991Y-148321299D01*
X244025750Y-148352608D01*
X244032199Y-148354494D01*
X244577429Y-148510322D01*
X244651402Y-148520455D01*
X244725210Y-148531486D01*
X244731929Y-148531486D01*
X245298979Y-148528022D01*
X245372798Y-148516990D01*
X245446759Y-148506858D01*
X245453208Y-148504972D01*
X245996493Y-148342495D01*
X246064258Y-148311183D01*
X246132392Y-148280705D01*
X246138053Y-148277085D01*
X246613899Y-147968657D01*
X246670140Y-147919595D01*
X246726993Y-147871209D01*
X246731407Y-147866149D01*
X246731411Y-147866145D01*
X246731414Y-147866140D01*
X247101565Y-147436560D01*
X247141784Y-147373672D01*
X247182764Y-147311286D01*
X247185583Y-147305186D01*
X247420288Y-146788978D01*
X247441225Y-146717379D01*
X247463063Y-146645949D01*
X247464056Y-146639303D01*
X247536705Y-146132012D01*
X259650000Y-146132012D01*
X259650000Y-146867988D01*
X259931645Y-147547941D01*
X260452059Y-148068355D01*
X261132012Y-148350000D01*
X261867988Y-148350000D01*
X262547941Y-148068355D01*
X263068355Y-147547941D01*
X263350000Y-146867988D01*
X263350000Y-146132012D01*
X263068355Y-145452059D01*
X262547941Y-144931645D01*
X261867988Y-144650000D01*
X261132012Y-144650000D01*
X260452059Y-144931645D01*
X259931645Y-145452059D01*
X259650000Y-146132012D01*
X247536705Y-146132012D01*
X247542335Y-146092706D01*
X247550000Y-146054170D01*
X247550000Y-130945830D01*
X247544296Y-130917154D01*
X247544296Y-130897595D01*
X247543303Y-130890950D01*
X247456062Y-130330641D01*
X247434238Y-130259257D01*
X247413287Y-130187612D01*
X247410469Y-130181513D01*
X247169474Y-129668210D01*
X247128502Y-129605836D01*
X247088276Y-129542936D01*
X247083862Y-129537876D01*
X247083859Y-129537872D01*
X247083855Y-129537869D01*
X246708483Y-129112842D01*
X246651660Y-129064481D01*
X246595388Y-129015392D01*
X246589731Y-129011775D01*
X246589728Y-129011772D01*
X246589725Y-129011770D01*
X246110148Y-128709181D01*
X246042024Y-128678708D01*
X245974250Y-128647392D01*
X245967801Y-128645506D01*
X245422571Y-128489678D01*
X245348604Y-128479546D01*
X245274791Y-128468514D01*
X245268072Y-128468514D01*
X244701021Y-128471978D01*
X244627202Y-128483010D01*
X244553241Y-128493142D01*
X244546792Y-128495028D01*
X244003507Y-128657505D01*
X243935742Y-128688817D01*
X243867608Y-128719295D01*
X243861947Y-128722915D01*
X243386101Y-129031343D01*
X243329860Y-129080405D01*
X243273007Y-129128791D01*
X243268593Y-129133851D01*
X243268589Y-129133855D01*
X243268586Y-129133860D01*
X242898435Y-129563440D01*
X242858203Y-129626348D01*
X242817236Y-129688715D01*
X242814417Y-129694814D01*
X242579711Y-130211023D01*
X242558766Y-130282649D01*
X242550000Y-130311323D01*
X242550000Y-116869238D01*
X243014351Y-116404888D01*
X243068624Y-116368624D01*
X243212286Y-116153617D01*
X243250000Y-115964018D01*
X243250000Y-115964017D01*
X243262734Y-115900001D01*
X243250000Y-115835985D01*
X243250000Y-114364016D01*
X243262734Y-114300000D01*
X243250000Y-114235982D01*
X243212286Y-114046383D01*
X243068624Y-113831376D01*
X243014352Y-113795113D01*
X241924551Y-112705314D01*
X241888284Y-112651036D01*
X241673277Y-112507374D01*
X241483678Y-112469660D01*
X241483676Y-112469660D01*
X241419660Y-112456926D01*
X241355644Y-112469660D01*
X239983210Y-112469660D01*
X239890810Y-112331372D01*
X238688729Y-111129291D01*
X238523339Y-111018782D01*
X238328249Y-110979976D01*
X238133159Y-111018782D01*
X238052545Y-111072646D01*
X236599899Y-109620000D01*
X246190000Y-109620000D01*
X246190000Y-110086663D01*
X246237195Y-110200601D01*
X246324399Y-110287805D01*
X246438337Y-110335000D01*
X247117500Y-110335000D01*
X247195000Y-110257500D01*
X247195000Y-109542500D01*
X247205000Y-109542500D01*
X247205000Y-110257500D01*
X247282500Y-110335000D01*
X247961663Y-110335000D01*
X248075601Y-110287805D01*
X248162805Y-110200601D01*
X248210000Y-110086663D01*
X248210000Y-109682500D01*
X250390000Y-109682500D01*
X250390000Y-110149163D01*
X250437195Y-110263101D01*
X250524399Y-110350305D01*
X250638337Y-110397500D01*
X251317500Y-110397500D01*
X251395000Y-110320000D01*
X251395000Y-109605000D01*
X251405000Y-109605000D01*
X251405000Y-110320000D01*
X251482500Y-110397500D01*
X252161663Y-110397500D01*
X252275601Y-110350305D01*
X252362805Y-110263101D01*
X252410000Y-110149163D01*
X252410000Y-109682500D01*
X252332500Y-109605000D01*
X251405000Y-109605000D01*
X251395000Y-109605000D01*
X250467500Y-109605000D01*
X250390000Y-109682500D01*
X248210000Y-109682500D01*
X248210000Y-109620000D01*
X248132500Y-109542500D01*
X247205000Y-109542500D01*
X247195000Y-109542500D01*
X246267500Y-109542500D01*
X246190000Y-109620000D01*
X236599899Y-109620000D01*
X235968236Y-108988337D01*
X246190000Y-108988337D01*
X246190000Y-109455000D01*
X246267500Y-109532500D01*
X247195000Y-109532500D01*
X247195000Y-108817500D01*
X247205000Y-108817500D01*
X247205000Y-109532500D01*
X248132500Y-109532500D01*
X248210000Y-109455000D01*
X248210000Y-109050837D01*
X250390000Y-109050837D01*
X250390000Y-109517500D01*
X250467500Y-109595000D01*
X251395000Y-109595000D01*
X251395000Y-108880000D01*
X251405000Y-108880000D01*
X251405000Y-109595000D01*
X252332500Y-109595000D01*
X252410000Y-109517500D01*
X252410000Y-109050837D01*
X252362805Y-108936899D01*
X252275601Y-108849695D01*
X252161663Y-108802500D01*
X251482500Y-108802500D01*
X251405000Y-108880000D01*
X251395000Y-108880000D01*
X251317500Y-108802500D01*
X250638337Y-108802500D01*
X250524399Y-108849695D01*
X250437195Y-108936899D01*
X250390000Y-109050837D01*
X248210000Y-109050837D01*
X248210000Y-108988337D01*
X248162805Y-108874399D01*
X248075601Y-108787195D01*
X247961663Y-108740000D01*
X247282500Y-108740000D01*
X247205000Y-108817500D01*
X247195000Y-108817500D01*
X247117500Y-108740000D01*
X246438337Y-108740000D01*
X246324399Y-108787195D01*
X246237195Y-108874399D01*
X246190000Y-108988337D01*
X235968236Y-108988337D01*
X234604891Y-107624993D01*
X234568624Y-107570715D01*
X234514351Y-107534451D01*
X233865552Y-106885654D01*
X233829285Y-106831376D01*
X233614278Y-106687714D01*
X233424679Y-106650000D01*
X233424677Y-106650000D01*
X233360661Y-106637266D01*
X233296645Y-106650000D01*
X224617482Y-106650000D01*
X224720989Y-106495090D01*
X224759795Y-106300000D01*
X224759795Y-105200000D01*
X224720989Y-105004910D01*
X224717708Y-105000000D01*
X224720989Y-104995090D01*
X224759795Y-104800000D01*
X224759795Y-103700000D01*
X224720989Y-103504910D01*
X224610480Y-103339520D01*
X224445090Y-103229011D01*
X224250000Y-103190205D01*
X224040894Y-103190205D01*
X224012286Y-103046383D01*
X223868624Y-102831376D01*
X223814348Y-102795111D01*
X223704891Y-102685653D01*
X223668624Y-102631376D01*
X223453617Y-102487714D01*
X223264018Y-102450000D01*
X223264016Y-102450000D01*
X223200000Y-102437266D01*
X223135984Y-102450000D01*
X217024676Y-102450000D01*
X216960660Y-102437266D01*
X216896644Y-102450000D01*
X216896643Y-102450000D01*
X216707044Y-102487714D01*
X216492037Y-102631376D01*
X216455774Y-102685648D01*
X207008116Y-112133307D01*
X206927502Y-112079443D01*
X206921709Y-112078291D01*
X206920557Y-112072498D01*
X206810048Y-111907108D01*
X206032231Y-111129291D01*
X205866841Y-111018782D01*
X205671751Y-110979976D01*
X205476661Y-111018782D01*
X205311271Y-111129291D01*
X205169849Y-111270713D01*
X204784790Y-110885654D01*
X204748523Y-110831376D01*
X204533516Y-110687714D01*
X204343917Y-110650000D01*
X204343915Y-110650000D01*
X204279899Y-110637266D01*
X204215883Y-110650000D01*
X203964016Y-110650000D01*
X203899999Y-110637266D01*
X203835983Y-110650000D01*
X203835982Y-110650000D01*
X203646383Y-110687714D01*
X203431376Y-110831376D01*
X203395111Y-110885651D01*
X201550000Y-112730763D01*
X201550000Y-109910659D01*
X207078097Y-104382563D01*
X207140720Y-104340720D01*
X207278773Y-104134108D01*
X207306484Y-104092636D01*
X207364693Y-103800000D01*
X207350000Y-103726134D01*
X207350000Y-100095980D01*
X207520000Y-100129795D01*
X209220000Y-100129795D01*
X209415090Y-100090989D01*
X209580480Y-99980480D01*
X209690989Y-99815090D01*
X209729795Y-99620000D01*
X209729795Y-99433634D01*
X209936704Y-99743296D01*
X210383256Y-100041672D01*
X210777037Y-100120000D01*
X211042963Y-100120000D01*
X211436744Y-100041672D01*
X211883296Y-99743296D01*
X212180000Y-99299246D01*
X212476704Y-99743296D01*
X212923256Y-100041672D01*
X213317037Y-100120000D01*
X213582963Y-100120000D01*
X213976744Y-100041672D01*
X214423296Y-99743296D01*
X214720000Y-99299246D01*
X215016704Y-99743296D01*
X215463256Y-100041672D01*
X215857037Y-100120000D01*
X216122963Y-100120000D01*
X216430333Y-100058860D01*
X218153953Y-101782481D01*
X218187425Y-101832575D01*
X218385892Y-101965187D01*
X218560909Y-102000000D01*
X218560912Y-102000000D01*
X218620000Y-102011753D01*
X218679088Y-102000000D01*
X224168629Y-102000000D01*
X224246836Y-102078207D01*
X224540870Y-102200000D01*
X224859130Y-102200000D01*
X225153164Y-102078207D01*
X225378207Y-101853164D01*
X225385469Y-101835631D01*
X225540870Y-101900000D01*
X225859130Y-101900000D01*
X226153164Y-101778207D01*
X226378207Y-101553164D01*
X226385948Y-101534475D01*
X228621453Y-103769981D01*
X228654925Y-103820075D01*
X228785578Y-103907375D01*
X228928591Y-104121409D01*
X228999704Y-104168925D01*
X228921793Y-104246836D01*
X228800000Y-104540870D01*
X228800000Y-104859130D01*
X228921793Y-105153164D01*
X229146836Y-105378207D01*
X229440870Y-105500000D01*
X229759130Y-105500000D01*
X230053164Y-105378207D01*
X230278207Y-105153164D01*
X230400000Y-104859130D01*
X230400000Y-104540870D01*
X230300000Y-104299449D01*
X230300000Y-104235941D01*
X230471409Y-104121409D01*
X230500000Y-104078620D01*
X230528591Y-104121409D01*
X230659649Y-104208980D01*
X230621793Y-104246836D01*
X230500000Y-104540870D01*
X230500000Y-104859130D01*
X230621793Y-105153164D01*
X230846836Y-105378207D01*
X231140870Y-105500000D01*
X231459130Y-105500000D01*
X231753164Y-105378207D01*
X231978207Y-105153164D01*
X232100000Y-104859130D01*
X232100000Y-104540870D01*
X231978207Y-104246836D01*
X231940351Y-104208980D01*
X232071409Y-104121409D01*
X232160884Y-103987500D01*
X233453414Y-103987500D01*
X233512500Y-103999253D01*
X233571586Y-103987500D01*
X233571591Y-103987500D01*
X233746608Y-103952687D01*
X233945075Y-103820075D01*
X233978549Y-103769978D01*
X236548528Y-101200000D01*
X236840870Y-101200000D01*
X236546836Y-101321793D01*
X236321793Y-101546836D01*
X236200000Y-101840870D01*
X236200000Y-102159130D01*
X236321793Y-102453164D01*
X236546836Y-102678207D01*
X236840870Y-102800000D01*
X237159130Y-102800000D01*
X237453164Y-102678207D01*
X237531371Y-102600000D01*
X245051473Y-102600000D01*
X246349072Y-103897600D01*
X246270662Y-104014948D01*
X246215205Y-104293750D01*
X246215205Y-104731250D01*
X246270662Y-105010052D01*
X246428591Y-105246409D01*
X246508795Y-105300000D01*
X246428591Y-105353591D01*
X246270662Y-105589948D01*
X246215205Y-105868750D01*
X246215205Y-106306250D01*
X246270662Y-106585052D01*
X246391200Y-106765449D01*
X246210913Y-106885913D01*
X246047565Y-107130381D01*
X245990205Y-107418750D01*
X245990205Y-107906250D01*
X246047565Y-108194619D01*
X246210913Y-108439087D01*
X246455381Y-108602435D01*
X246743750Y-108659795D01*
X247656250Y-108659795D01*
X247944619Y-108602435D01*
X248189087Y-108439087D01*
X248352435Y-108194619D01*
X248409795Y-107906250D01*
X248409795Y-107418750D01*
X248352435Y-107130381D01*
X248189087Y-106885913D01*
X248008800Y-106765449D01*
X248129338Y-106585052D01*
X248184795Y-106306250D01*
X248184795Y-105868750D01*
X248129338Y-105589948D01*
X247971409Y-105353591D01*
X247891205Y-105300000D01*
X247971409Y-105246409D01*
X248129338Y-105010052D01*
X248184795Y-104731250D01*
X248184795Y-104293750D01*
X248129338Y-104014948D01*
X247971409Y-103778591D01*
X247735052Y-103620662D01*
X247734952Y-103620642D01*
X247666047Y-103517519D01*
X247632575Y-103467425D01*
X247582481Y-103433953D01*
X246048527Y-101900000D01*
X247838973Y-101900000D01*
X250415205Y-104476233D01*
X250415205Y-104831250D01*
X250470662Y-105110052D01*
X250628591Y-105346409D01*
X250708795Y-105400000D01*
X250628591Y-105453591D01*
X250470662Y-105689948D01*
X250415205Y-105968750D01*
X250415205Y-106406250D01*
X250470662Y-106685052D01*
X250573877Y-106839524D01*
X250410913Y-106948413D01*
X250247565Y-107192881D01*
X250190205Y-107481250D01*
X250190205Y-107968750D01*
X250247565Y-108257119D01*
X250410913Y-108501587D01*
X250655381Y-108664935D01*
X250943750Y-108722295D01*
X251856250Y-108722295D01*
X252144619Y-108664935D01*
X252389087Y-108501587D01*
X252552435Y-108257119D01*
X252609795Y-107968750D01*
X252609795Y-107481250D01*
X252552435Y-107192881D01*
X252389087Y-106948413D01*
X252226123Y-106839524D01*
X252329338Y-106685052D01*
X252384795Y-106406250D01*
X252384795Y-105968750D01*
X252329338Y-105689948D01*
X252171409Y-105453591D01*
X252091205Y-105400000D01*
X252171409Y-105346409D01*
X252329338Y-105110052D01*
X252384795Y-104831250D01*
X252384795Y-104393750D01*
X252329338Y-104114948D01*
X252171409Y-103878591D01*
X251935052Y-103720662D01*
X251656250Y-103665205D01*
X251301233Y-103665205D01*
X248553549Y-100917522D01*
X248520075Y-100867425D01*
X248321608Y-100734813D01*
X248146591Y-100700000D01*
X248146586Y-100700000D01*
X248087500Y-100688247D01*
X248028414Y-100700000D01*
X247928527Y-100700000D01*
X248569667Y-100058860D01*
X248877037Y-100120000D01*
X249142963Y-100120000D01*
X249536744Y-100041672D01*
X249983296Y-99743296D01*
X250280000Y-99299246D01*
X250576704Y-99743296D01*
X251023256Y-100041672D01*
X251417037Y-100120000D01*
X251682963Y-100120000D01*
X252076744Y-100041672D01*
X252523296Y-99743296D01*
X252820000Y-99299246D01*
X253116704Y-99743296D01*
X253563256Y-100041672D01*
X253957037Y-100120000D01*
X254222963Y-100120000D01*
X254616744Y-100041672D01*
X255063296Y-99743296D01*
X255361672Y-99296744D01*
X255429370Y-98956401D01*
X255485074Y-98956401D01*
X255643559Y-99380356D01*
X255952220Y-99711390D01*
X256364067Y-99899106D01*
X256443599Y-99914925D01*
X256625000Y-99852488D01*
X256625000Y-98775000D01*
X256635000Y-98775000D01*
X256635000Y-99852488D01*
X256816401Y-99914925D01*
X256895933Y-99899106D01*
X257307780Y-99711390D01*
X257616441Y-99380356D01*
X257774926Y-98956401D01*
X257712490Y-98775000D01*
X256635000Y-98775000D01*
X256625000Y-98775000D01*
X255547510Y-98775000D01*
X255485074Y-98956401D01*
X255429370Y-98956401D01*
X255466448Y-98770000D01*
X255429371Y-98583599D01*
X255485074Y-98583599D01*
X255547510Y-98765000D01*
X256625000Y-98765000D01*
X256625000Y-97687512D01*
X256635000Y-97687512D01*
X256635000Y-98765000D01*
X257712490Y-98765000D01*
X257774926Y-98583599D01*
X257616441Y-98159644D01*
X257307780Y-97828610D01*
X256895933Y-97640894D01*
X256816401Y-97625075D01*
X256635000Y-97687512D01*
X256625000Y-97687512D01*
X256443599Y-97625075D01*
X256364067Y-97640894D01*
X255952220Y-97828610D01*
X255643559Y-98159644D01*
X255485074Y-98583599D01*
X255429371Y-98583599D01*
X255361672Y-98243256D01*
X255063296Y-97796704D01*
X254619246Y-97500000D01*
X255063296Y-97203296D01*
X255360000Y-96759246D01*
X255656704Y-97203296D01*
X256103256Y-97501672D01*
X256497037Y-97580000D01*
X256762963Y-97580000D01*
X257156744Y-97501672D01*
X257603296Y-97203296D01*
X257650926Y-97132012D01*
X259650000Y-97132012D01*
X259650000Y-97867988D01*
X259931645Y-98547941D01*
X260452059Y-99068355D01*
X261132012Y-99350000D01*
X261867988Y-99350000D01*
X262547941Y-99068355D01*
X263068355Y-98547941D01*
X263350000Y-97867988D01*
X263350000Y-97132012D01*
X263068355Y-96452059D01*
X262547941Y-95931645D01*
X261867988Y-95650000D01*
X261132012Y-95650000D01*
X260452059Y-95931645D01*
X259931645Y-96452059D01*
X259650000Y-97132012D01*
X257650926Y-97132012D01*
X257901672Y-96756744D01*
X258006448Y-96230000D01*
X257901672Y-95703256D01*
X257603296Y-95256704D01*
X257156744Y-94958328D01*
X256762963Y-94880000D01*
X256497037Y-94880000D01*
X256103256Y-94958328D01*
X255656704Y-95256704D01*
X255360000Y-95700754D01*
X255063296Y-95256704D01*
X254616744Y-94958328D01*
X254222963Y-94880000D01*
X253957037Y-94880000D01*
X253563256Y-94958328D01*
X253116704Y-95256704D01*
X252820000Y-95700754D01*
X252523296Y-95256704D01*
X252076744Y-94958328D01*
X251682963Y-94880000D01*
X251417037Y-94880000D01*
X251023256Y-94958328D01*
X250576704Y-95256704D01*
X250278328Y-95703256D01*
X250173552Y-96230000D01*
X250278328Y-96756744D01*
X250576704Y-97203296D01*
X251020754Y-97500000D01*
X250576704Y-97796704D01*
X250280000Y-98240754D01*
X249983296Y-97796704D01*
X249536744Y-97498328D01*
X249142963Y-97420000D01*
X248877037Y-97420000D01*
X248483256Y-97498328D01*
X248036704Y-97796704D01*
X247740000Y-98240754D01*
X247443296Y-97796704D01*
X246999246Y-97500000D01*
X247443296Y-97203296D01*
X247741672Y-96756744D01*
X247809370Y-96416401D01*
X247865074Y-96416401D01*
X248023559Y-96840356D01*
X248332220Y-97171390D01*
X248744067Y-97359106D01*
X248823599Y-97374925D01*
X249005000Y-97312488D01*
X249005000Y-96235000D01*
X249015000Y-96235000D01*
X249015000Y-97312488D01*
X249196401Y-97374925D01*
X249275933Y-97359106D01*
X249687780Y-97171390D01*
X249996441Y-96840356D01*
X250154926Y-96416401D01*
X250092490Y-96235000D01*
X249015000Y-96235000D01*
X249005000Y-96235000D01*
X247927510Y-96235000D01*
X247865074Y-96416401D01*
X247809370Y-96416401D01*
X247846448Y-96230000D01*
X247809371Y-96043599D01*
X247865074Y-96043599D01*
X247927510Y-96225000D01*
X249005000Y-96225000D01*
X249005000Y-95147512D01*
X249015000Y-95147512D01*
X249015000Y-96225000D01*
X250092490Y-96225000D01*
X250154926Y-96043599D01*
X249996441Y-95619644D01*
X249687780Y-95288610D01*
X249275933Y-95100894D01*
X249196401Y-95085075D01*
X249015000Y-95147512D01*
X249005000Y-95147512D01*
X248823599Y-95085075D01*
X248744067Y-95100894D01*
X248332220Y-95288610D01*
X248023559Y-95619644D01*
X247865074Y-96043599D01*
X247809371Y-96043599D01*
X247741672Y-95703256D01*
X247443296Y-95256704D01*
X246996744Y-94958328D01*
X246602963Y-94880000D01*
X246337037Y-94880000D01*
X245943256Y-94958328D01*
X245496704Y-95256704D01*
X245198328Y-95703256D01*
X245093552Y-96230000D01*
X245198328Y-96756744D01*
X245496704Y-97203296D01*
X245940754Y-97500000D01*
X245496704Y-97796704D01*
X245200000Y-98240754D01*
X244903296Y-97796704D01*
X244456744Y-97498328D01*
X244062963Y-97420000D01*
X243797037Y-97420000D01*
X243403256Y-97498328D01*
X242956704Y-97796704D01*
X242660000Y-98240754D01*
X242363296Y-97796704D01*
X241919246Y-97500000D01*
X242363296Y-97203296D01*
X242661672Y-96756744D01*
X242729370Y-96416401D01*
X242785074Y-96416401D01*
X242943559Y-96840356D01*
X243252220Y-97171390D01*
X243664067Y-97359106D01*
X243743599Y-97374925D01*
X243925000Y-97312488D01*
X243925000Y-96235000D01*
X243935000Y-96235000D01*
X243935000Y-97312488D01*
X244116401Y-97374925D01*
X244195933Y-97359106D01*
X244607780Y-97171390D01*
X244916441Y-96840356D01*
X245074926Y-96416401D01*
X245012490Y-96235000D01*
X243935000Y-96235000D01*
X243925000Y-96235000D01*
X242847510Y-96235000D01*
X242785074Y-96416401D01*
X242729370Y-96416401D01*
X242766448Y-96230000D01*
X242729371Y-96043599D01*
X242785074Y-96043599D01*
X242847510Y-96225000D01*
X243925000Y-96225000D01*
X243925000Y-95147512D01*
X243935000Y-95147512D01*
X243935000Y-96225000D01*
X245012490Y-96225000D01*
X245074926Y-96043599D01*
X244916441Y-95619644D01*
X244607780Y-95288610D01*
X244195933Y-95100894D01*
X244116401Y-95085075D01*
X243935000Y-95147512D01*
X243925000Y-95147512D01*
X243743599Y-95085075D01*
X243664067Y-95100894D01*
X243252220Y-95288610D01*
X242943559Y-95619644D01*
X242785074Y-96043599D01*
X242729371Y-96043599D01*
X242661672Y-95703256D01*
X242363296Y-95256704D01*
X241916744Y-94958328D01*
X241522963Y-94880000D01*
X241257037Y-94880000D01*
X240863256Y-94958328D01*
X240416704Y-95256704D01*
X240120000Y-95700754D01*
X239823296Y-95256704D01*
X239376744Y-94958328D01*
X238982963Y-94880000D01*
X238717037Y-94880000D01*
X238323256Y-94958328D01*
X237876704Y-95256704D01*
X237580000Y-95700754D01*
X237283296Y-95256704D01*
X236836744Y-94958328D01*
X236442963Y-94880000D01*
X236177037Y-94880000D01*
X235783256Y-94958328D01*
X235336704Y-95256704D01*
X235040000Y-95700754D01*
X234743296Y-95256704D01*
X234296744Y-94958328D01*
X233902963Y-94880000D01*
X233637037Y-94880000D01*
X233243256Y-94958328D01*
X232796704Y-95256704D01*
X232498328Y-95703256D01*
X232393552Y-96230000D01*
X232498328Y-96756744D01*
X232796704Y-97203296D01*
X233240754Y-97500000D01*
X232796704Y-97796704D01*
X232500000Y-98240754D01*
X232203296Y-97796704D01*
X231756744Y-97498328D01*
X231362963Y-97420000D01*
X231097037Y-97420000D01*
X230703256Y-97498328D01*
X230256704Y-97796704D01*
X229960000Y-98240754D01*
X229663296Y-97796704D01*
X229219246Y-97500000D01*
X229663296Y-97203296D01*
X229961672Y-96756744D01*
X230029370Y-96416401D01*
X230085074Y-96416401D01*
X230243559Y-96840356D01*
X230552220Y-97171390D01*
X230964067Y-97359106D01*
X231043599Y-97374925D01*
X231225000Y-97312488D01*
X231225000Y-96235000D01*
X231235000Y-96235000D01*
X231235000Y-97312488D01*
X231416401Y-97374925D01*
X231495933Y-97359106D01*
X231907780Y-97171390D01*
X232216441Y-96840356D01*
X232374926Y-96416401D01*
X232312490Y-96235000D01*
X231235000Y-96235000D01*
X231225000Y-96235000D01*
X230147510Y-96235000D01*
X230085074Y-96416401D01*
X230029370Y-96416401D01*
X230066448Y-96230000D01*
X230029371Y-96043599D01*
X230085074Y-96043599D01*
X230147510Y-96225000D01*
X231225000Y-96225000D01*
X231225000Y-95147512D01*
X231235000Y-95147512D01*
X231235000Y-96225000D01*
X232312490Y-96225000D01*
X232374926Y-96043599D01*
X232216441Y-95619644D01*
X231907780Y-95288610D01*
X231495933Y-95100894D01*
X231416401Y-95085075D01*
X231235000Y-95147512D01*
X231225000Y-95147512D01*
X231043599Y-95085075D01*
X230964067Y-95100894D01*
X230552220Y-95288610D01*
X230243559Y-95619644D01*
X230085074Y-96043599D01*
X230029371Y-96043599D01*
X229961672Y-95703256D01*
X229663296Y-95256704D01*
X229216744Y-94958328D01*
X228822963Y-94880000D01*
X228557037Y-94880000D01*
X228163256Y-94958328D01*
X227716704Y-95256704D01*
X227420000Y-95700754D01*
X227123296Y-95256704D01*
X226676744Y-94958328D01*
X226282963Y-94880000D01*
X226017037Y-94880000D01*
X225623256Y-94958328D01*
X225176704Y-95256704D01*
X224878328Y-95703256D01*
X224773552Y-96230000D01*
X224878328Y-96756744D01*
X225176704Y-97203296D01*
X225620754Y-97500000D01*
X225176704Y-97796704D01*
X224880000Y-98240754D01*
X224583296Y-97796704D01*
X224136744Y-97498328D01*
X223742963Y-97420000D01*
X223477037Y-97420000D01*
X223083256Y-97498328D01*
X222900000Y-97620776D01*
X222900000Y-97519088D01*
X222911753Y-97460000D01*
X222900000Y-97400912D01*
X222900000Y-97400909D01*
X222865187Y-97225892D01*
X222811733Y-97145893D01*
X222766048Y-97077520D01*
X222766047Y-97077519D01*
X222732575Y-97027425D01*
X222682481Y-96993953D01*
X222358860Y-96670332D01*
X222409370Y-96416401D01*
X222465074Y-96416401D01*
X222623559Y-96840356D01*
X222932220Y-97171390D01*
X223344067Y-97359106D01*
X223423599Y-97374925D01*
X223605000Y-97312488D01*
X223605000Y-96235000D01*
X223615000Y-96235000D01*
X223615000Y-97312488D01*
X223796401Y-97374925D01*
X223875933Y-97359106D01*
X224287780Y-97171390D01*
X224596441Y-96840356D01*
X224754926Y-96416401D01*
X224692490Y-96235000D01*
X223615000Y-96235000D01*
X223605000Y-96235000D01*
X222527510Y-96235000D01*
X222465074Y-96416401D01*
X222409370Y-96416401D01*
X222446448Y-96230000D01*
X222409371Y-96043599D01*
X222465074Y-96043599D01*
X222527510Y-96225000D01*
X223605000Y-96225000D01*
X223605000Y-95147512D01*
X223615000Y-95147512D01*
X223615000Y-96225000D01*
X224692490Y-96225000D01*
X224754926Y-96043599D01*
X224596441Y-95619644D01*
X224287780Y-95288610D01*
X223875933Y-95100894D01*
X223796401Y-95085075D01*
X223615000Y-95147512D01*
X223605000Y-95147512D01*
X223423599Y-95085075D01*
X223344067Y-95100894D01*
X222932220Y-95288610D01*
X222623559Y-95619644D01*
X222465074Y-96043599D01*
X222409371Y-96043599D01*
X222341672Y-95703256D01*
X222043296Y-95256704D01*
X221596744Y-94958328D01*
X221202963Y-94880000D01*
X220937037Y-94880000D01*
X220543256Y-94958328D01*
X220096704Y-95256704D01*
X219800000Y-95700754D01*
X219503296Y-95256704D01*
X219056744Y-94958328D01*
X218662963Y-94880000D01*
X218397037Y-94880000D01*
X218003256Y-94958328D01*
X217556704Y-95256704D01*
X217260000Y-95700754D01*
X216963296Y-95256704D01*
X216516744Y-94958328D01*
X216122963Y-94880000D01*
X215857037Y-94880000D01*
X215463256Y-94958328D01*
X215016704Y-95256704D01*
X214718328Y-95703256D01*
X214613552Y-96230000D01*
X214718328Y-96756744D01*
X215016704Y-97203296D01*
X215460754Y-97500000D01*
X215016704Y-97796704D01*
X214720000Y-98240754D01*
X214423296Y-97796704D01*
X213976744Y-97498328D01*
X213582963Y-97420000D01*
X213317037Y-97420000D01*
X212923256Y-97498328D01*
X212476704Y-97796704D01*
X212180000Y-98240754D01*
X211883296Y-97796704D01*
X211439246Y-97500000D01*
X211883296Y-97203296D01*
X212181672Y-96756744D01*
X212249370Y-96416401D01*
X212305074Y-96416401D01*
X212463559Y-96840356D01*
X212772220Y-97171390D01*
X213184067Y-97359106D01*
X213263599Y-97374925D01*
X213445000Y-97312488D01*
X213445000Y-96235000D01*
X213455000Y-96235000D01*
X213455000Y-97312488D01*
X213636401Y-97374925D01*
X213715933Y-97359106D01*
X214127780Y-97171390D01*
X214436441Y-96840356D01*
X214594926Y-96416401D01*
X214532490Y-96235000D01*
X213455000Y-96235000D01*
X213445000Y-96235000D01*
X212367510Y-96235000D01*
X212305074Y-96416401D01*
X212249370Y-96416401D01*
X212286448Y-96230000D01*
X212249371Y-96043599D01*
X212305074Y-96043599D01*
X212367510Y-96225000D01*
X213445000Y-96225000D01*
X213445000Y-95147512D01*
X213455000Y-95147512D01*
X213455000Y-96225000D01*
X214532490Y-96225000D01*
X214594926Y-96043599D01*
X214436441Y-95619644D01*
X214127780Y-95288610D01*
X213715933Y-95100894D01*
X213636401Y-95085075D01*
X213455000Y-95147512D01*
X213445000Y-95147512D01*
X213263599Y-95085075D01*
X213184067Y-95100894D01*
X212772220Y-95288610D01*
X212463559Y-95619644D01*
X212305074Y-96043599D01*
X212249371Y-96043599D01*
X212181672Y-95703256D01*
X211883296Y-95256704D01*
X211436744Y-94958328D01*
X211042963Y-94880000D01*
X210777037Y-94880000D01*
X210383256Y-94958328D01*
X209936704Y-95256704D01*
X209787503Y-95480000D01*
X209492497Y-95480000D01*
X209343296Y-95256704D01*
X208896744Y-94958328D01*
X208502963Y-94880000D01*
X208237037Y-94880000D01*
X207843256Y-94958328D01*
X207396704Y-95256704D01*
X207098328Y-95703256D01*
X206993552Y-96230000D01*
X207045945Y-96493396D01*
X206121904Y-97417437D01*
X206059281Y-97459280D01*
X205978619Y-97580000D01*
X205893517Y-97707365D01*
X205835307Y-98000000D01*
X205850001Y-98073870D01*
X205850000Y-103489340D01*
X200550000Y-108789341D01*
X200550000Y-97132012D01*
X201650000Y-97132012D01*
X201650000Y-97867988D01*
X201931645Y-98547941D01*
X202452059Y-99068355D01*
X203132012Y-99350000D01*
X203867988Y-99350000D01*
X204547941Y-99068355D01*
X205068355Y-98547941D01*
X205350000Y-97867988D01*
X205350000Y-97132012D01*
X205068355Y-96452059D01*
X204547941Y-95931645D01*
X203867988Y-95650000D01*
X203132012Y-95650000D01*
X202452059Y-95931645D01*
X201931645Y-96452059D01*
X201650000Y-97132012D01*
X200550000Y-97132012D01*
X200550000Y-97031956D01*
X200619337Y-96437234D01*
X200812653Y-95904659D01*
X201123302Y-95430840D01*
X201534622Y-95041193D01*
X202024552Y-94756619D01*
X202574007Y-94590205D01*
X203024499Y-94550000D01*
X261968044Y-94550000D01*
X262562766Y-94619337D01*
G36*
X237133307Y-111991884D02*
X237079443Y-112072498D01*
X237078291Y-112078291D01*
X237072498Y-112079443D01*
X236907108Y-112189952D01*
X236129291Y-112967769D01*
X236018782Y-113133159D01*
X235979976Y-113328249D01*
X236018782Y-113523339D01*
X236129291Y-113688729D01*
X237331372Y-114890810D01*
X237496762Y-115001319D01*
X237691852Y-115040125D01*
X237886942Y-115001319D01*
X238052332Y-114890810D01*
X238082080Y-114861062D01*
X238087452Y-114862131D01*
X238087453Y-114862131D01*
X238151470Y-114874865D01*
X238189572Y-114867286D01*
X238109190Y-114947668D01*
X237998681Y-115113058D01*
X237959875Y-115308148D01*
X237964201Y-115329898D01*
X235849136Y-115329898D01*
X233404891Y-112885654D01*
X233368624Y-112831376D01*
X233153617Y-112687714D01*
X232964018Y-112650000D01*
X232964016Y-112650000D01*
X232900000Y-112637266D01*
X232835984Y-112650000D01*
X229189237Y-112650000D01*
X228816737Y-112277501D01*
X229549468Y-111544771D01*
X229625000Y-111559795D01*
X230275000Y-111559795D01*
X230470090Y-111520989D01*
X230635480Y-111410480D01*
X230745989Y-111245090D01*
X230784795Y-111050000D01*
X230784795Y-110650000D01*
X230759931Y-110525000D01*
X230764321Y-110502929D01*
X230767425Y-110507575D01*
X230817522Y-110541049D01*
X230858951Y-110582478D01*
X230892425Y-110632575D01*
X231090892Y-110765187D01*
X231205760Y-110788036D01*
X231305981Y-110855000D01*
X231292500Y-110855000D01*
X231215000Y-110932500D01*
X231215000Y-111111663D01*
X231262195Y-111225601D01*
X231349399Y-111312805D01*
X231463337Y-111360000D01*
X231767500Y-111360000D01*
X231845000Y-111282500D01*
X231845000Y-110909795D01*
X231855000Y-110909795D01*
X231855000Y-111282500D01*
X231932500Y-111360000D01*
X232236663Y-111360000D01*
X232350601Y-111312805D01*
X232437805Y-111225601D01*
X232485000Y-111111663D01*
X232485000Y-110932500D01*
X232407500Y-110855000D01*
X232394019Y-110855000D01*
X232535480Y-110760480D01*
X232645989Y-110595090D01*
X232684795Y-110400000D01*
X232684795Y-110171003D01*
X232728617Y-110162286D01*
X232943624Y-110018624D01*
X232979891Y-109964346D01*
X234042831Y-108901407D01*
X237133307Y-111991884D01*
X237133307Y-111991884D01*
G37*
X237133307Y-111991884D02*
X237079443Y-112072498D01*
X237078291Y-112078291D01*
X237072498Y-112079443D01*
X236907108Y-112189952D01*
X236129291Y-112967769D01*
X236018782Y-113133159D01*
X235979976Y-113328249D01*
X236018782Y-113523339D01*
X236129291Y-113688729D01*
X237331372Y-114890810D01*
X237496762Y-115001319D01*
X237691852Y-115040125D01*
X237886942Y-115001319D01*
X238052332Y-114890810D01*
X238082080Y-114861062D01*
X238087452Y-114862131D01*
X238087453Y-114862131D01*
X238151470Y-114874865D01*
X238189572Y-114867286D01*
X238109190Y-114947668D01*
X237998681Y-115113058D01*
X237959875Y-115308148D01*
X237964201Y-115329898D01*
X235849136Y-115329898D01*
X233404891Y-112885654D01*
X233368624Y-112831376D01*
X233153617Y-112687714D01*
X232964018Y-112650000D01*
X232964016Y-112650000D01*
X232900000Y-112637266D01*
X232835984Y-112650000D01*
X229189237Y-112650000D01*
X228816737Y-112277501D01*
X229549468Y-111544771D01*
X229625000Y-111559795D01*
X230275000Y-111559795D01*
X230470090Y-111520989D01*
X230635480Y-111410480D01*
X230745989Y-111245090D01*
X230784795Y-111050000D01*
X230784795Y-110650000D01*
X230759931Y-110525000D01*
X230764321Y-110502929D01*
X230767425Y-110507575D01*
X230817522Y-110541049D01*
X230858951Y-110582478D01*
X230892425Y-110632575D01*
X231090892Y-110765187D01*
X231205760Y-110788036D01*
X231305981Y-110855000D01*
X231292500Y-110855000D01*
X231215000Y-110932500D01*
X231215000Y-111111663D01*
X231262195Y-111225601D01*
X231349399Y-111312805D01*
X231463337Y-111360000D01*
X231767500Y-111360000D01*
X231845000Y-111282500D01*
X231845000Y-110909795D01*
X231855000Y-110909795D01*
X231855000Y-111282500D01*
X231932500Y-111360000D01*
X232236663Y-111360000D01*
X232350601Y-111312805D01*
X232437805Y-111225601D01*
X232485000Y-111111663D01*
X232485000Y-110932500D01*
X232407500Y-110855000D01*
X232394019Y-110855000D01*
X232535480Y-110760480D01*
X232645989Y-110595090D01*
X232684795Y-110400000D01*
X232684795Y-110171003D01*
X232728617Y-110162286D01*
X232943624Y-110018624D01*
X232979891Y-109964346D01*
X234042831Y-108901407D01*
X237133307Y-111991884D01*
G36*
X230499987Y-108040883D02*
X230499987Y-108359143D01*
X230600001Y-108600597D01*
X230600000Y-109615813D01*
X230494019Y-109545000D01*
X230507500Y-109545000D01*
X230585000Y-109467500D01*
X230585000Y-109288337D01*
X230537805Y-109174399D01*
X230450601Y-109087195D01*
X230336663Y-109040000D01*
X230032500Y-109040000D01*
X229955000Y-109117500D01*
X229955000Y-109490205D01*
X229945000Y-109490205D01*
X229945000Y-109117500D01*
X229867500Y-109040000D01*
X229671376Y-109040000D01*
X229453169Y-108821793D01*
X229159135Y-108700000D01*
X228840875Y-108700000D01*
X228546841Y-108821793D01*
X228321798Y-109046836D01*
X228200005Y-109340870D01*
X228200005Y-109659130D01*
X228321798Y-109953164D01*
X228546841Y-110178207D01*
X228548172Y-110178758D01*
X228567430Y-110207580D01*
X228617526Y-110241053D01*
X228816117Y-110439644D01*
X227897499Y-111358263D01*
X224489235Y-107950000D01*
X230537632Y-107950000D01*
X230499987Y-108040883D01*
X230499987Y-108040883D01*
G37*
X230499987Y-108040883D02*
X230499987Y-108359143D01*
X230600001Y-108600597D01*
X230600000Y-109615813D01*
X230494019Y-109545000D01*
X230507500Y-109545000D01*
X230585000Y-109467500D01*
X230585000Y-109288337D01*
X230537805Y-109174399D01*
X230450601Y-109087195D01*
X230336663Y-109040000D01*
X230032500Y-109040000D01*
X229955000Y-109117500D01*
X229955000Y-109490205D01*
X229945000Y-109490205D01*
X229945000Y-109117500D01*
X229867500Y-109040000D01*
X229671376Y-109040000D01*
X229453169Y-108821793D01*
X229159135Y-108700000D01*
X228840875Y-108700000D01*
X228546841Y-108821793D01*
X228321798Y-109046836D01*
X228200005Y-109340870D01*
X228200005Y-109659130D01*
X228321798Y-109953164D01*
X228546841Y-110178207D01*
X228548172Y-110178758D01*
X228567430Y-110207580D01*
X228617526Y-110241053D01*
X228816117Y-110439644D01*
X227897499Y-111358263D01*
X224489235Y-107950000D01*
X230537632Y-107950000D01*
X230499987Y-108040883D01*
G36*
X235336704Y-99743296D02*
X235783256Y-100041672D01*
X235993145Y-100083421D01*
X235867425Y-100167425D01*
X235833953Y-100217519D01*
X233263973Y-102787500D01*
X232160884Y-102787500D01*
X232071409Y-102653591D01*
X231895109Y-102535791D01*
X231950601Y-102512805D01*
X232037805Y-102425601D01*
X232085000Y-102311663D01*
X232085000Y-101895000D01*
X232007500Y-101817500D01*
X231305000Y-101817500D01*
X231305000Y-101837500D01*
X231295000Y-101837500D01*
X231295000Y-101817500D01*
X230592500Y-101817500D01*
X230515000Y-101895000D01*
X230515000Y-102311663D01*
X230562195Y-102425601D01*
X230649399Y-102512805D01*
X230704891Y-102535791D01*
X230528591Y-102653591D01*
X230500000Y-102696380D01*
X230471409Y-102653591D01*
X230295109Y-102535791D01*
X230350601Y-102512805D01*
X230437805Y-102425601D01*
X230485000Y-102311663D01*
X230485000Y-101895000D01*
X230407500Y-101817500D01*
X229705000Y-101817500D01*
X229705000Y-101837500D01*
X229695000Y-101837500D01*
X229695000Y-101817500D01*
X228992500Y-101817500D01*
X228915000Y-101895000D01*
X228915000Y-102311663D01*
X228953756Y-102405229D01*
X227861864Y-101313337D01*
X228915000Y-101313337D01*
X228915000Y-101730000D01*
X228992500Y-101807500D01*
X229695000Y-101807500D01*
X229695000Y-101142500D01*
X229705000Y-101142500D01*
X229705000Y-101807500D01*
X230407500Y-101807500D01*
X230485000Y-101730000D01*
X230485000Y-101313337D01*
X230515000Y-101313337D01*
X230515000Y-101730000D01*
X230592500Y-101807500D01*
X231295000Y-101807500D01*
X231295000Y-101142500D01*
X231305000Y-101142500D01*
X231305000Y-101807500D01*
X232007500Y-101807500D01*
X232085000Y-101730000D01*
X232085000Y-101313337D01*
X232037805Y-101199399D01*
X231950601Y-101112195D01*
X231836663Y-101065000D01*
X231382500Y-101065000D01*
X231305000Y-101142500D01*
X231295000Y-101142500D01*
X231217500Y-101065000D01*
X230763337Y-101065000D01*
X230649399Y-101112195D01*
X230562195Y-101199399D01*
X230515000Y-101313337D01*
X230485000Y-101313337D01*
X230437805Y-101199399D01*
X230350601Y-101112195D01*
X230236663Y-101065000D01*
X229782500Y-101065000D01*
X229705000Y-101142500D01*
X229695000Y-101142500D01*
X229617500Y-101065000D01*
X229163337Y-101065000D01*
X229049399Y-101112195D01*
X228962195Y-101199399D01*
X228915000Y-101313337D01*
X227861864Y-101313337D01*
X226604558Y-100056031D01*
X226676744Y-100041672D01*
X227123296Y-99743296D01*
X227420000Y-99299246D01*
X227716704Y-99743296D01*
X228163256Y-100041672D01*
X228557037Y-100120000D01*
X228822963Y-100120000D01*
X229216744Y-100041672D01*
X229663296Y-99743296D01*
X229960000Y-99299246D01*
X230256704Y-99743296D01*
X230703256Y-100041672D01*
X231097037Y-100120000D01*
X231362963Y-100120000D01*
X231756744Y-100041672D01*
X232203296Y-99743296D01*
X232500000Y-99299246D01*
X232796704Y-99743296D01*
X233243256Y-100041672D01*
X233637037Y-100120000D01*
X233902963Y-100120000D01*
X234296744Y-100041672D01*
X234743296Y-99743296D01*
X235040000Y-99299246D01*
X235336704Y-99743296D01*
X235336704Y-99743296D01*
G37*
X235336704Y-99743296D02*
X235783256Y-100041672D01*
X235993145Y-100083421D01*
X235867425Y-100167425D01*
X235833953Y-100217519D01*
X233263973Y-102787500D01*
X232160884Y-102787500D01*
X232071409Y-102653591D01*
X231895109Y-102535791D01*
X231950601Y-102512805D01*
X232037805Y-102425601D01*
X232085000Y-102311663D01*
X232085000Y-101895000D01*
X232007500Y-101817500D01*
X231305000Y-101817500D01*
X231305000Y-101837500D01*
X231295000Y-101837500D01*
X231295000Y-101817500D01*
X230592500Y-101817500D01*
X230515000Y-101895000D01*
X230515000Y-102311663D01*
X230562195Y-102425601D01*
X230649399Y-102512805D01*
X230704891Y-102535791D01*
X230528591Y-102653591D01*
X230500000Y-102696380D01*
X230471409Y-102653591D01*
X230295109Y-102535791D01*
X230350601Y-102512805D01*
X230437805Y-102425601D01*
X230485000Y-102311663D01*
X230485000Y-101895000D01*
X230407500Y-101817500D01*
X229705000Y-101817500D01*
X229705000Y-101837500D01*
X229695000Y-101837500D01*
X229695000Y-101817500D01*
X228992500Y-101817500D01*
X228915000Y-101895000D01*
X228915000Y-102311663D01*
X228953756Y-102405229D01*
X227861864Y-101313337D01*
X228915000Y-101313337D01*
X228915000Y-101730000D01*
X228992500Y-101807500D01*
X229695000Y-101807500D01*
X229695000Y-101142500D01*
X229705000Y-101142500D01*
X229705000Y-101807500D01*
X230407500Y-101807500D01*
X230485000Y-101730000D01*
X230485000Y-101313337D01*
X230515000Y-101313337D01*
X230515000Y-101730000D01*
X230592500Y-101807500D01*
X231295000Y-101807500D01*
X231295000Y-101142500D01*
X231305000Y-101142500D01*
X231305000Y-101807500D01*
X232007500Y-101807500D01*
X232085000Y-101730000D01*
X232085000Y-101313337D01*
X232037805Y-101199399D01*
X231950601Y-101112195D01*
X231836663Y-101065000D01*
X231382500Y-101065000D01*
X231305000Y-101142500D01*
X231295000Y-101142500D01*
X231217500Y-101065000D01*
X230763337Y-101065000D01*
X230649399Y-101112195D01*
X230562195Y-101199399D01*
X230515000Y-101313337D01*
X230485000Y-101313337D01*
X230437805Y-101199399D01*
X230350601Y-101112195D01*
X230236663Y-101065000D01*
X229782500Y-101065000D01*
X229705000Y-101142500D01*
X229695000Y-101142500D01*
X229617500Y-101065000D01*
X229163337Y-101065000D01*
X229049399Y-101112195D01*
X228962195Y-101199399D01*
X228915000Y-101313337D01*
X227861864Y-101313337D01*
X226604558Y-100056031D01*
X226676744Y-100041672D01*
X227123296Y-99743296D01*
X227420000Y-99299246D01*
X227716704Y-99743296D01*
X228163256Y-100041672D01*
X228557037Y-100120000D01*
X228822963Y-100120000D01*
X229216744Y-100041672D01*
X229663296Y-99743296D01*
X229960000Y-99299246D01*
X230256704Y-99743296D01*
X230703256Y-100041672D01*
X231097037Y-100120000D01*
X231362963Y-100120000D01*
X231756744Y-100041672D01*
X232203296Y-99743296D01*
X232500000Y-99299246D01*
X232796704Y-99743296D01*
X233243256Y-100041672D01*
X233637037Y-100120000D01*
X233902963Y-100120000D01*
X234296744Y-100041672D01*
X234743296Y-99743296D01*
X235040000Y-99299246D01*
X235336704Y-99743296D01*
G36*
X220096704Y-97203296D02*
X220540754Y-97500000D01*
X220096704Y-97796704D01*
X219798328Y-98243256D01*
X219693552Y-98770000D01*
X219798328Y-99296744D01*
X220096704Y-99743296D01*
X220543256Y-100041672D01*
X220937037Y-100120000D01*
X221202963Y-100120000D01*
X221596744Y-100041672D01*
X221888553Y-99846692D01*
X221917521Y-99866049D01*
X222251474Y-100200001D01*
X219106527Y-100200001D01*
X218802595Y-99896069D01*
X219207780Y-99711390D01*
X219516441Y-99380356D01*
X219674926Y-98956401D01*
X219612490Y-98775000D01*
X218535000Y-98775000D01*
X218535000Y-98795000D01*
X218525000Y-98795000D01*
X218525000Y-98775000D01*
X218505000Y-98775000D01*
X218505000Y-98765000D01*
X218525000Y-98765000D01*
X218525000Y-97687512D01*
X218535000Y-97687512D01*
X218535000Y-98765000D01*
X219612490Y-98765000D01*
X219674926Y-98583599D01*
X219516441Y-98159644D01*
X219207780Y-97828610D01*
X218795933Y-97640894D01*
X218716401Y-97625075D01*
X218535000Y-97687512D01*
X218525000Y-97687512D01*
X218343599Y-97625075D01*
X218264067Y-97640894D01*
X217852220Y-97828610D01*
X217740001Y-97948963D01*
X217740001Y-97439087D01*
X217751754Y-97380000D01*
X217741115Y-97326515D01*
X218003256Y-97501672D01*
X218397037Y-97580000D01*
X218662963Y-97580000D01*
X219056744Y-97501672D01*
X219503296Y-97203296D01*
X219800000Y-96759246D01*
X220096704Y-97203296D01*
X220096704Y-97203296D01*
G37*
X220096704Y-97203296D02*
X220540754Y-97500000D01*
X220096704Y-97796704D01*
X219798328Y-98243256D01*
X219693552Y-98770000D01*
X219798328Y-99296744D01*
X220096704Y-99743296D01*
X220543256Y-100041672D01*
X220937037Y-100120000D01*
X221202963Y-100120000D01*
X221596744Y-100041672D01*
X221888553Y-99846692D01*
X221917521Y-99866049D01*
X222251474Y-100200001D01*
X219106527Y-100200001D01*
X218802595Y-99896069D01*
X219207780Y-99711390D01*
X219516441Y-99380356D01*
X219674926Y-98956401D01*
X219612490Y-98775000D01*
X218535000Y-98775000D01*
X218535000Y-98795000D01*
X218525000Y-98795000D01*
X218525000Y-98775000D01*
X218505000Y-98775000D01*
X218505000Y-98765000D01*
X218525000Y-98765000D01*
X218525000Y-97687512D01*
X218535000Y-97687512D01*
X218535000Y-98765000D01*
X219612490Y-98765000D01*
X219674926Y-98583599D01*
X219516441Y-98159644D01*
X219207780Y-97828610D01*
X218795933Y-97640894D01*
X218716401Y-97625075D01*
X218535000Y-97687512D01*
X218525000Y-97687512D01*
X218343599Y-97625075D01*
X218264067Y-97640894D01*
X217852220Y-97828610D01*
X217740001Y-97948963D01*
X217740001Y-97439087D01*
X217751754Y-97380000D01*
X217741115Y-97326515D01*
X218003256Y-97501672D01*
X218397037Y-97580000D01*
X218662963Y-97580000D01*
X219056744Y-97501672D01*
X219503296Y-97203296D01*
X219800000Y-96759246D01*
X220096704Y-97203296D01*
G36*
X240416704Y-97203296D02*
X240860754Y-97500000D01*
X240416704Y-97796704D01*
X240118328Y-98243256D01*
X240013552Y-98770000D01*
X240118328Y-99296744D01*
X240416704Y-99743296D01*
X240800889Y-100000000D01*
X236899111Y-100000000D01*
X237283296Y-99743296D01*
X237581672Y-99296744D01*
X237649370Y-98956401D01*
X237705074Y-98956401D01*
X237863559Y-99380356D01*
X238172220Y-99711390D01*
X238584067Y-99899106D01*
X238663599Y-99914925D01*
X238845000Y-99852488D01*
X238845000Y-98775000D01*
X238855000Y-98775000D01*
X238855000Y-99852488D01*
X239036401Y-99914925D01*
X239115933Y-99899106D01*
X239527780Y-99711390D01*
X239836441Y-99380356D01*
X239994926Y-98956401D01*
X239932490Y-98775000D01*
X238855000Y-98775000D01*
X238845000Y-98775000D01*
X237767510Y-98775000D01*
X237705074Y-98956401D01*
X237649370Y-98956401D01*
X237686448Y-98770000D01*
X237649371Y-98583599D01*
X237705074Y-98583599D01*
X237767510Y-98765000D01*
X238845000Y-98765000D01*
X238845000Y-97687512D01*
X238855000Y-97687512D01*
X238855000Y-98765000D01*
X239932490Y-98765000D01*
X239994926Y-98583599D01*
X239836441Y-98159644D01*
X239527780Y-97828610D01*
X239115933Y-97640894D01*
X239036401Y-97625075D01*
X238855000Y-97687512D01*
X238845000Y-97687512D01*
X238663599Y-97625075D01*
X238584067Y-97640894D01*
X238172220Y-97828610D01*
X237863559Y-98159644D01*
X237705074Y-98583599D01*
X237649371Y-98583599D01*
X237581672Y-98243256D01*
X237283296Y-97796704D01*
X236839246Y-97500000D01*
X237283296Y-97203296D01*
X237580000Y-96759246D01*
X237876704Y-97203296D01*
X238323256Y-97501672D01*
X238717037Y-97580000D01*
X238982963Y-97580000D01*
X239376744Y-97501672D01*
X239823296Y-97203296D01*
X240120000Y-96759246D01*
X240416704Y-97203296D01*
X240416704Y-97203296D01*
G37*
X240416704Y-97203296D02*
X240860754Y-97500000D01*
X240416704Y-97796704D01*
X240118328Y-98243256D01*
X240013552Y-98770000D01*
X240118328Y-99296744D01*
X240416704Y-99743296D01*
X240800889Y-100000000D01*
X236899111Y-100000000D01*
X237283296Y-99743296D01*
X237581672Y-99296744D01*
X237649370Y-98956401D01*
X237705074Y-98956401D01*
X237863559Y-99380356D01*
X238172220Y-99711390D01*
X238584067Y-99899106D01*
X238663599Y-99914925D01*
X238845000Y-99852488D01*
X238845000Y-98775000D01*
X238855000Y-98775000D01*
X238855000Y-99852488D01*
X239036401Y-99914925D01*
X239115933Y-99899106D01*
X239527780Y-99711390D01*
X239836441Y-99380356D01*
X239994926Y-98956401D01*
X239932490Y-98775000D01*
X238855000Y-98775000D01*
X238845000Y-98775000D01*
X237767510Y-98775000D01*
X237705074Y-98956401D01*
X237649370Y-98956401D01*
X237686448Y-98770000D01*
X237649371Y-98583599D01*
X237705074Y-98583599D01*
X237767510Y-98765000D01*
X238845000Y-98765000D01*
X238845000Y-97687512D01*
X238855000Y-97687512D01*
X238855000Y-98765000D01*
X239932490Y-98765000D01*
X239994926Y-98583599D01*
X239836441Y-98159644D01*
X239527780Y-97828610D01*
X239115933Y-97640894D01*
X239036401Y-97625075D01*
X238855000Y-97687512D01*
X238845000Y-97687512D01*
X238663599Y-97625075D01*
X238584067Y-97640894D01*
X238172220Y-97828610D01*
X237863559Y-98159644D01*
X237705074Y-98583599D01*
X237649371Y-98583599D01*
X237581672Y-98243256D01*
X237283296Y-97796704D01*
X236839246Y-97500000D01*
X237283296Y-97203296D01*
X237580000Y-96759246D01*
X237876704Y-97203296D01*
X238323256Y-97501672D01*
X238717037Y-97580000D01*
X238982963Y-97580000D01*
X239376744Y-97501672D01*
X239823296Y-97203296D01*
X240120000Y-96759246D01*
X240416704Y-97203296D01*
G04 #@! TD*
M02*
