G04 #@! TF.GenerationSoftware,KiCad,Pcbnew,(5.1.0)-1*
G04 #@! TF.CreationDate,2019-03-23T08:59:44+11:00*
G04 #@! TF.ProjectId,VeinCamHat,5665696e-4361-46d4-9861-742e6b696361,rev?*
G04 #@! TF.SameCoordinates,Original*
G04 #@! TF.FileFunction,Other,Comment*
%FSLAX46Y46*%
G04 Gerber Fmt 4.6, Leading zero omitted, Abs format (unit mm)*
G04 Created by KiCad (PCBNEW (5.1.0)-1) date 2019-03-23 08:59:44*
%MOMM*%
%LPD*%
G04 APERTURE LIST*
%ADD10C,0.250000*%
%ADD11C,0.150000*%
G04 APERTURE END LIST*
D10*
X223419047Y-154452380D02*
X223419047Y-153452380D01*
X223990476Y-154452380D01*
X223990476Y-153452380D01*
X224609523Y-154452380D02*
X224514285Y-154404761D01*
X224466666Y-154357142D01*
X224419047Y-154261904D01*
X224419047Y-153976190D01*
X224466666Y-153880952D01*
X224514285Y-153833333D01*
X224609523Y-153785714D01*
X224752380Y-153785714D01*
X224847619Y-153833333D01*
X224895238Y-153880952D01*
X224942857Y-153976190D01*
X224942857Y-154261904D01*
X224895238Y-154357142D01*
X224847619Y-154404761D01*
X224752380Y-154452380D01*
X224609523Y-154452380D01*
X225228571Y-153785714D02*
X225609523Y-153785714D01*
X225371428Y-153452380D02*
X225371428Y-154309523D01*
X225419047Y-154404761D01*
X225514285Y-154452380D01*
X225609523Y-154452380D01*
X226323809Y-154404761D02*
X226228571Y-154452380D01*
X226038095Y-154452380D01*
X225942857Y-154404761D01*
X225895238Y-154309523D01*
X225895238Y-153928571D01*
X225942857Y-153833333D01*
X226038095Y-153785714D01*
X226228571Y-153785714D01*
X226323809Y-153833333D01*
X226371428Y-153928571D01*
X226371428Y-154023809D01*
X225895238Y-154119047D01*
X226800000Y-154357142D02*
X226847619Y-154404761D01*
X226800000Y-154452380D01*
X226752380Y-154404761D01*
X226800000Y-154357142D01*
X226800000Y-154452380D01*
X226800000Y-153833333D02*
X226847619Y-153880952D01*
X226800000Y-153928571D01*
X226752380Y-153880952D01*
X226800000Y-153833333D01*
X226800000Y-153928571D01*
X228561904Y-154452380D02*
X227990476Y-154452380D01*
X228276190Y-154452380D02*
X228276190Y-153452380D01*
X228180952Y-153595238D01*
X228085714Y-153690476D01*
X227990476Y-153738095D01*
X228990476Y-154357142D02*
X229038095Y-154404761D01*
X228990476Y-154452380D01*
X228942857Y-154404761D01*
X228990476Y-154357142D01*
X228990476Y-154452380D01*
X229895238Y-153452380D02*
X229704761Y-153452380D01*
X229609523Y-153500000D01*
X229561904Y-153547619D01*
X229466666Y-153690476D01*
X229419047Y-153880952D01*
X229419047Y-154261904D01*
X229466666Y-154357142D01*
X229514285Y-154404761D01*
X229609523Y-154452380D01*
X229800000Y-154452380D01*
X229895238Y-154404761D01*
X229942857Y-154357142D01*
X229990476Y-154261904D01*
X229990476Y-154023809D01*
X229942857Y-153928571D01*
X229895238Y-153880952D01*
X229800000Y-153833333D01*
X229609523Y-153833333D01*
X229514285Y-153880952D01*
X229466666Y-153928571D01*
X229419047Y-154023809D01*
X230419047Y-154452380D02*
X230419047Y-153785714D01*
X230419047Y-153880952D02*
X230466666Y-153833333D01*
X230561904Y-153785714D01*
X230704761Y-153785714D01*
X230800000Y-153833333D01*
X230847619Y-153928571D01*
X230847619Y-154452380D01*
X230847619Y-153928571D02*
X230895238Y-153833333D01*
X230990476Y-153785714D01*
X231133333Y-153785714D01*
X231228571Y-153833333D01*
X231276190Y-153928571D01*
X231276190Y-154452380D01*
X231752380Y-154452380D02*
X231752380Y-153785714D01*
X231752380Y-153880952D02*
X231800000Y-153833333D01*
X231895238Y-153785714D01*
X232038095Y-153785714D01*
X232133333Y-153833333D01*
X232180952Y-153928571D01*
X232180952Y-154452380D01*
X232180952Y-153928571D02*
X232228571Y-153833333D01*
X232323809Y-153785714D01*
X232466666Y-153785714D01*
X232561904Y-153833333D01*
X232609523Y-153928571D01*
X232609523Y-154452380D01*
X234180952Y-153928571D02*
X233847619Y-153928571D01*
X233847619Y-154452380D02*
X233847619Y-153452380D01*
X234323809Y-153452380D01*
X235276190Y-154452380D02*
X234942857Y-153976190D01*
X234704761Y-154452380D02*
X234704761Y-153452380D01*
X235085714Y-153452380D01*
X235180952Y-153500000D01*
X235228571Y-153547619D01*
X235276190Y-153642857D01*
X235276190Y-153785714D01*
X235228571Y-153880952D01*
X235180952Y-153928571D01*
X235085714Y-153976190D01*
X234704761Y-153976190D01*
X236133333Y-153785714D02*
X236133333Y-154452380D01*
X235895238Y-153404761D02*
X235657142Y-154119047D01*
X236276190Y-154119047D01*
D11*
X206200000Y-97500000D02*
G75*
G03X206200000Y-97500000I-2700000J0D01*
G01*
X206200000Y-146500000D02*
G75*
G03X206200000Y-146500000I-2700000J0D01*
G01*
X264200000Y-146500000D02*
G75*
G03X264200000Y-146500000I-2700000J0D01*
G01*
X264200000Y-97500000D02*
G75*
G03X264200000Y-97500000I-2700000J0D01*
G01*
M02*
